<svg height="450" preserveAspectRatio="xMidYMid meet" width="750" xmlns="http://www.w3.org/2000/svg" xmlns:xlink="http://www.w3.org/1999/xlink" zoomAndPan="magnify"><text startOffset="0" x="193.9493" y="178.58023"><tspan x="193.9493" y="178.58023"/></text><text font-family="Bitstream Vera Sans" font-size="32.000011" startOffset="0" x="41.260075" y="63.429977"><tspan x="41.260075" y="63.429977">IPv4 address in dotted-decimal notation</tspan></text><text font-family="Bitstream Vera Sans" font-size="18" startOffset="0" x="59.486637" y="143.70958"><tspan font-size="48" font-weight="bold" x="59.486637" y="143.70958">172</tspan></text><text font-family="Bitstream Vera Sans" font-size="18" startOffset="0" x="252.55339" y="143.02989"><tspan font-size="48" font-weight="bold" x="252.55339" y="143.02989">16</tspan></text><text font-family="Bitstream Vera Sans" font-size="18" startOffset="0" x="625.0271" y="143.70958"><tspan font-size="48" font-weight="bold" x="625.0271" y="143.70958">1</tspan></text><text font-family="Bitstream Vera Sans" font-size="18" startOffset="0" x="413.66345" y="143.02989"><tspan font-size="48" font-weight="bold" x="413.66345" y="143.02989">254</tspan></text><text font-family="Bitstream Vera Sans" font-size="48" font-weight="bold" startOffset="0" x="190.57564" y="143.70958"><tspan x="190.57564" y="143.70958">.</tspan></text><text font-family="Bitstream Vera Sans" font-size="48" font-weight="bold" startOffset="0" x="372.74149" y="143.70958"><tspan x="372.74149" y="143.70958">.</tspan></text><text font-family="Bitstream Vera Sans" font-size="48" font-weight="bold" startOffset="0" x="560.12476" y="143.70958"><tspan x="560.12476" y="143.70958">.</tspan></text><text font-family="Bitstream Vera Sans" font-size="32" startOffset="0" x="27.994452" y="241.10297"><tspan x="27.994452" y="241.10297">10101100</tspan></text><text font-family="Bitstream Vera Sans" font-size="32" startOffset="0" x="205.8737" y="241.10297"><tspan x="205.8737" y="241.10297">00010000</tspan></text><text font-family="Bitstream Vera Sans" font-size="32" startOffset="0" x="382.34668" y="241.10297"><tspan x="382.34668" y="241.10297">11111110</tspan></text><text font-family="Bitstream Vera Sans" font-size="32" startOffset="0" x="560.22595" xml:space="preserve" y="241.10297"><tspan x="560.22595" y="241.10297">00000001 </tspan></text><text font-family="Bitstream Vera Sans" font-size="32" startOffset="0" x="194.62251" y="241.55609"><tspan x="194.62251" y="241.55609">.</tspan></text><text font-family="Bitstream Vera Sans" font-size="32" startOffset="0" x="370.89413" y="241.55609"><tspan x="370.89413" y="241.55609">.</tspan></text><text font-family="Bitstream Vera Sans" font-size="32" startOffset="0" x="547.16577" y="241.55609"><tspan x="547.16577" y="241.55609">.</tspan></text><g fill="none" stroke="#000" stroke-linejoin="round" stroke-width="2" transform="translate(-1.439907 6.792315)"><path d="m30.304576 256.44589v15.15229h162.634564v-15.15229"/><path d="m108.67188 286.6479v-15"/></g><path id="a" d="m103.31089 177.73419-.09677-16.98411 13.25825.00001.24194 17.22604 8.85496.09678-15.29053 22.45193-15.484104-22.79065z"/><use height="1052.3622" transform="translate(177.17613 -.000407)" width="744.09448" xlink:href="#a"/><path d="m460.90489 177.73419-.09677-16.98411 13.25825.00001.24194 17.22604 8.85496.09678-15.29053 22.45193-15.4841-22.79065z"/><path d="m636.67143 177.73419-.09677-16.98411 13.25825.00001.24194 17.22604 8.85496.09678-15.29053 22.45193-15.4841-22.79065z"/><text font-family="Bitstream Vera Sans" font-size="32" startOffset="0" x="36.697575" y="331.78018"><tspan x="70" y="331.78018">8 bits</tspan></text><g fill="none" stroke="#000" stroke-linejoin="round" stroke-width="2" transform="translate(175.73623 6.792315)"><path d="m30.304576 256.44589v15.15229h162.634564v-15.15229"/><path d="m108.67188 286.6479v-15"/></g><g fill="none" stroke="#000" stroke-linejoin="round" stroke-width="2" transform="translate(1.510076 -.278753)"><path d="m26.263966 338.18433v15.15229h689.934184v-15.15229"/><path d="m371.23106 369.36164v-15.15229"/></g><text font-family="Bitstream Vera Sans" font-size="32" startOffset="0" x="100.51457" y="404.22629"><tspan x="280" y="404.22629">32 bits (4 bytes)</tspan></text></svg>