<svg width="848" height="520" xmlns="http://www.w3.org/2000/svg" version="1.1"><g transform="translate(0,10)"><g><path class="link" d="M5,39.939754471051835C213.25,39.939754471051835 213.25,134.93975447105186 421.5,134.93975447105186" style="stroke-width: 79.8795; fill: none; stroke: rgb(59, 127, 112); stroke-opacity: 0.4;"><title>4583</title></path><path class="link" d="M5,112.9561988481358C213.25,112.9561988481358 213.25,208.16535313731438 421.5,208.16535313731438" style="stroke-width: 45.1425; fill: none; stroke: rgb(105, 226, 200); stroke-opacity: 0.4;"><title>2590</title></path><path class="link" d="M426.5,204.86245832070327C634.75,204.86245832070327 634.75,162.090406183692 843,162.090406183692" style="stroke-width: 38.5367; fill: none; stroke: rgb(105, 226, 200); stroke-opacity: 0.4;"><title>2211</title></path><path class="link" d="M426.5,113.91103364655959C634.75,113.91103364655959 634.75,123.91103364655956 843,123.91103364655956" style="stroke-width: 37.8221; fill: none; stroke: rgb(59, 127, 112); stroke-opacity: 0.4;"><title>2170</title></path><path class="link" d="M426.5,147.4977265838133C634.75,147.4977265838133 634.75,254.76735374355863 843,254.76735374355863" style="stroke-width: 29.3513; fill: none; stroke: rgb(59, 127, 112); stroke-opacity: 0.4;"><title>1684</title></path><path class="link" d="M5,157.81524704455896C213.25,157.81524704455896 213.25,258.02667474992427 421.5,258.02667474992427" style="stroke-width: 24.5408; fill: none; stroke: rgb(105, 226, 200); stroke-opacity: 0.4;"><title>1408</title></path><path class="link" d="M5,189.95074264928766C213.25,189.95074264928766 213.25,324.44149742346167 421.5,324.44149742346167" style="stroke-width: 19.7302; fill: none; stroke: rgb(105, 226, 200); stroke-opacity: 0.4;"><title>1132</title></path><path class="link" d="M5,246.33487420430436C213.25,246.33487420430436 213.25,291.66982418914824 421.5,291.66982418914824" style="stroke-width: 17.2727; fill: none; stroke: rgb(105, 226, 200); stroke-opacity: 0.4;"><title>991</title></path><path class="link" d="M5,218.9837829645347C213.25,218.9837829645347 213.25,352.9516520157623 421.5,352.9516520157623" style="stroke-width: 16.9066; fill: none; stroke: rgb(105, 226, 200); stroke-opacity: 0.4;"><title>970</title></path><path class="link" d="M426.5,263.0812367384056C634.75,263.0812367384056 634.75,281.31251894513485 843,281.31251894513485" style="stroke-width: 12.1658; fill: none; stroke: rgb(105, 226, 200); stroke-opacity: 0.4;"><title>698</title></path><path class="link" d="M426.5,320.59828735980597C634.75,320.59828735980597 634.75,208.4180812367384 843,208.4180812367384" style="stroke-width: 12.0438; fill: none; stroke: rgb(105, 226, 200); stroke-opacity: 0.4;"><title>691</title></path><path class="link" d="M426.5,251.37731130645653C634.75,251.37731130645653 634.75,186.97976659593817 843,186.97976659593817" style="stroke-width: 11.242; fill: none; stroke: rgb(105, 226, 200); stroke-opacity: 0.4;"><title>645</title></path><path class="link" d="M426.5,287.93119127008185C634.75,287.93119127008185 634.75,197.49848438920884 843,197.49848438920884" style="stroke-width: 9.79539; fill: none; stroke: rgb(105, 226, 200); stroke-opacity: 0.4;"><title>562</title></path><path class="link" d="M426.5,349.16073052440134C634.75,349.16073052440134 634.75,219.29410427402243 843,219.29410427402243" style="stroke-width: 9.70825; fill: none; stroke: rgb(105, 226, 200); stroke-opacity: 0.4;"><title>557</title></path><path class="link" d="M5,269.6858896635344C213.25,269.6858896635344 213.25,376.11965747196115 421.5,376.11965747196115" style="stroke-width: 9.39451; fill: none; stroke: rgb(105, 226, 200); stroke-opacity: 0.4;"><title>539</title></path><path class="link" d="M426.5,166.80092452258265C634.75,166.80092452258265 634.75,324.1758866323128 843,324.1758866323128" style="stroke-width: 9.25508; fill: none; stroke: rgb(59, 127, 112); stroke-opacity: 0.4;"><title>531</title></path><path class="link" d="M426.5,296.7243861776296C634.75,296.7243861776296 634.75,291.290921491361 843,291.290921491361" style="stroke-width: 7.791; fill: none; stroke: rgb(105, 226, 200); stroke-opacity: 0.4;"><title>447</title></path><path class="link" d="M426.5,227.02409821157931C634.75,227.02409821157931 634.75,272.33631403455587 843,272.33631403455587" style="stroke-width: 5.7866; fill: none; stroke: rgb(105, 226, 200); stroke-opacity: 0.4;"><title>332</title></path><path class="link" d="M426.5,356.61185207638675C634.75,356.61185207638675 634.75,301.93164595331916 843,301.93164595331916" style="stroke-width: 5.194; fill: none; stroke: rgb(105, 226, 200); stroke-opacity: 0.4;"><title>298</title></path><path class="link" d="M426.5,374.01939981812666C634.75,374.01939981812666 634.75,226.74522582600787 843,226.74522582600787" style="stroke-width: 5.194; fill: none; stroke: rgb(105, 226, 200); stroke-opacity: 0.4;"><title>298</title></path><path class="link" d="M426.5,232.40982115792667C634.75,232.40982115792667 634.75,331.2958472264323 843,331.2958472264323" style="stroke-width: 4.98484; fill: none; stroke: rgb(105, 226, 200); stroke-opacity: 0.4;"><title>286</title></path><path class="link" d="M5,286.47468929978777C213.25,286.47468929978777 213.25,302.39769627159745 421.5,302.39769627159745" style="stroke-width: 4.18309; fill: none; stroke: rgb(105, 226, 200); stroke-opacity: 0.4;"><title>240</title></path><path class="link" d="M426.5,328.6943013034253C634.75,328.6943013034253 634.75,297.26053349499847 843,297.26053349499847" style="stroke-width: 4.14823; fill: none; stroke: rgb(105, 226, 200); stroke-opacity: 0.4;"><title>238</title></path><path class="link" d="M5,300.5444831767202C213.25,300.5444831767202 213.25,232.67997878144897 421.5,232.67997878144897" style="stroke-width: 3.85193; fill: none; stroke: rgb(105, 226, 200); stroke-opacity: 0.4;"><title>221</title></path><path class="link" d="M426.5,378.4552137011215C634.75,378.4552137011215 634.75,306.367459836314 843,306.367459836314" style="stroke-width: 3.67763; fill: none; stroke: rgb(105, 226, 200); stroke-opacity: 0.4;"><title>211</title></path><path class="link" d="M426.5,302.0578205516823C634.75,302.0578205516823 634.75,336.4985601697484 843,336.4985601697484" style="stroke-width: 2.87587; fill: none; stroke: rgb(105, 226, 200); stroke-opacity: 0.4;"><title>165</title></path><path class="link" d="M426.5,172.66595938163084C634.75,172.66595938163084 634.75,354.00197029402847 843,354.00197029402847" style="stroke-width: 2.47499; fill: none; stroke: rgb(59, 127, 112); stroke-opacity: 0.4;"><title>142</title></path><path class="link" d="M426.5,271.5432706880873C634.75,271.5432706880873 634.75,356.65997271900574 843,356.65997271900574" style="stroke-width: 2.21355; fill: none; stroke: rgb(105, 226, 200); stroke-opacity: 0.4;"><title>127</title></path><path class="link" d="M426.5,331.6921794483177C634.75,331.6921794483177 634.75,338.86026068505606 843,338.86026068505606" style="stroke-width: 1.84753; fill: none; stroke: rgb(105, 226, 200); stroke-opacity: 0.4;"><title>106</title></path><path class="link" d="M5,313.3854956047287C213.25,313.3854956047287 213.25,271.2121097302213 421.5,271.2121097302213" style="stroke-width: 1.8301; fill: none; stroke: rgb(105, 226, 200); stroke-opacity: 0.4;"><title>105</title></path><path class="link" d="M426.5,333.4089875719915C634.75,333.4089875719915 634.75,358.83866323128217 843,358.83866323128217" style="stroke-width: 1.58609; fill: none; stroke: rgb(105, 226, 200); stroke-opacity: 0.4;"><title>91</title></path><path class="link" d="M5,325.10230372840255C213.25,325.10230372840255 213.25,391.54895422855407 421.5,391.54895422855407" style="stroke-width: 1.46408; fill: none; stroke: rgb(105, 226, 200); stroke-opacity: 0.4;"><title>84</title></path><path class="link" d="M426.5,174.56577750833588C634.75,174.56577750833588 634.75,371.3049408911791 843,371.3049408911791" style="stroke-width: 1.32464; fill: none; stroke: rgb(59, 127, 112); stroke-opacity: 0.4;"><title>76</title></path><path class="link" d="M426.5,392.8213094877235C634.75,392.8213094877235 634.75,342.1021521673234 843,342.1021521673234" style="stroke-width: 1.32464; fill: none; stroke: rgb(105, 226, 200); stroke-opacity: 0.4;"><title>76</title></path><path class="link" d="M426.5,359.8537435586541C634.75,359.8537435586541 634.75,340.42891785389514 843,340.42891785389514" style="stroke-width: 1.28978; fill: none; stroke: rgb(105, 226, 200); stroke-opacity: 0.4;"><title>74</title></path><path class="link" d="M426.5,269.80031827826616C634.75,269.80031827826616 634.75,334.4244468020612 843,334.4244468020612" style="stroke-width: 1.27236; fill: none; stroke: rgb(105, 226, 200); stroke-opacity: 0.4;"><title>73</title></path><path class="link" d="M426.5,391.5228099424067C634.75,391.5228099424067 634.75,308.8424522582601 843,308.8424522582601" style="stroke-width: 1.27236; fill: none; stroke: rgb(105, 226, 200); stroke-opacity: 0.4;"><title>73</title></path><path class="link" d="M5,336.287511367081C213.25,336.287511367081 213.25,392.73416186723244 421.5,392.73416186723244" style="stroke-width: 1; fill: none; stroke: rgb(105, 226, 200); stroke-opacity: 0.4;"><title>52</title></path><path class="link" d="M426.5,304.17550772961505C634.75,304.17550772961505 634.75,373.25704759017884 843,373.25704759017884" style="stroke-width: 1; fill: none; stroke: rgb(105, 226, 200); stroke-opacity: 0.4;"><title>46</title></path><path class="link" d="M5,210.17315853288875C213.25,210.17315853288875 213.25,175.23681418611704 421.5,175.23681418611704" style="stroke-width: 1; fill: none; stroke: rgb(105, 226, 200); stroke-opacity: 0.4;"><title>41</title></path><path class="link" d="M426.5,404.5206880872991C634.75,404.5206880872991 634.75,229.75181873294937 843,229.75181873294937" style="stroke-width: 1; fill: none; stroke: rgb(105, 226, 200); stroke-opacity: 0.4;"><title>39</title></path><path class="link" d="M5,347.036980903304C213.25,347.036980903304 213.25,393.4836314034555 421.5,393.4836314034555" style="stroke-width: 1; fill: none; stroke: rgb(105, 226, 200); stroke-opacity: 0.4;"><title>34</title></path><path class="link" d="M426.5,360.7687935738102C634.75,360.7687935738102 634.75,359.9018642012731 843,359.9018642012731" style="stroke-width: 1; fill: none; stroke: rgb(105, 226, 200); stroke-opacity: 0.4;"><title>31</title></path><path class="link" d="M5,357.59472567444686C213.25,357.59472567444686 213.25,272.3886026068506 421.5,272.3886026068506" style="stroke-width: 1; fill: none; stroke: rgb(105, 226, 200); stroke-opacity: 0.4;"><title>30</title></path><path class="link" d="M426.5,235.46870263716283C634.75,235.46870263716283 634.75,372.2199909063352 843,372.2199909063352" style="stroke-width: 1; fill: none; stroke: rgb(105, 226, 200); stroke-opacity: 0.4;"><title>29</title></path><path class="link" d="M5,368.10018187329496C213.25,368.10018187329496 213.25,234.8499545316763 421.5,234.8499545316763" style="stroke-width: 1; fill: none; stroke: rgb(105, 226, 200); stroke-opacity: 0.4;"><title>28</title></path><path class="link" d="M426.5,393.684070930585C634.75,393.684070930585 634.75,360.4421794483177 843,360.4421794483177" style="stroke-width: 1; fill: none; stroke: rgb(105, 226, 200); stroke-opacity: 0.4;"><title>23</title></path><path class="link" d="M5,378.53591997575023C213.25,378.53591997575023 213.25,272.8417702334041 421.5,272.8417702334041" style="stroke-width: 1; fill: none; stroke: rgb(105, 226, 200); stroke-opacity: 0.4;"><title>22</title></path><path class="link" d="M426.5,361.2306759624128C634.75,361.2306759624128 634.75,373.88451045771444 843,373.88451045771444" style="stroke-width: 1; fill: none; stroke: rgb(105, 226, 200); stroke-opacity: 0.4;"><title>22</title></path><path class="link" d="M426.5,272.8417702334041C634.75,272.8417702334041 634.75,372.6644437708396 843,372.6644437708396" style="stroke-width: 1; fill: none; stroke: rgb(105, 226, 200); stroke-opacity: 0.4;"><title>22</title></path><path class="link" d="M5,388.91065474386176C213.25,388.91065474386176 213.25,393.9629433161563 421.5,393.9629433161563" style="stroke-width: 1; fill: none; stroke: rgb(105, 226, 200); stroke-opacity: 0.4;"><title>21</title></path><path class="link" d="M426.5,380.477038496514C634.75,380.477038496514 634.75,341.25682024856013 843,341.25682024856013" style="stroke-width: 1; fill: none; stroke: rgb(105, 226, 200); stroke-opacity: 0.4;"><title>21</title></path><path class="link" d="M426.5,175.39367990300093C634.75,175.39367990300093 634.75,384.6252652318884 843,384.6252652318884" style="stroke-width: 1; fill: none; stroke: rgb(59, 127, 112); stroke-opacity: 0.4;"><title>19</title></path><path class="link" d="M5,80.22809942406789C213.25,80.22809942406789 213.25,404.33767808426785 421.5,404.33767808426785" style="stroke-width: 1; fill: none; stroke: rgb(59, 127, 112); stroke-opacity: 0.4;"><title>18</title></path><path class="link" d="M426.5,235.05910882085485C634.75,235.05910882085485 634.75,355.3963322218854 843,355.3963322218854" style="stroke-width: 1; fill: none; stroke: rgb(105, 226, 200); stroke-opacity: 0.4;"><title>18</title></path><path class="link" d="M426.5,394.0326614125492C634.75,394.0326614125492 634.75,374.31153379812065 843,374.31153379812065" style="stroke-width: 1; fill: none; stroke: rgb(105, 226, 200); stroke-opacity: 0.4;"><title>17</title></path><path class="link" d="M426.5,303.6351924825705C634.75,303.6351924825705 634.75,357.90618369202787 843,357.90618369202787" style="stroke-width: 1; fill: none; stroke: rgb(105, 226, 200); stroke-opacity: 0.4;"><title>16</title></path><path class="link" d="M5,227.5591088208548C213.25,227.5591088208548 213.25,404.6339799939375 421.5,404.6339799939375" style="stroke-width: 1; fill: none; stroke: rgb(105, 226, 200); stroke-opacity: 0.4;"><title>14</title></path><path class="link" d="M5,399.2156714155805C213.25,399.2156714155805 213.25,235.21597453773873 421.5,235.21597453773873" style="stroke-width: 1; fill: none; stroke: rgb(105, 226, 200); stroke-opacity: 0.4;"><title>14</title></path><path class="link" d="M5,79.97537132464383C213.25,79.97537132464383 213.25,344.4024704455896 421.5,344.4024704455896" style="stroke-width: 1; fill: none; stroke: rgb(59, 127, 112); stroke-opacity: 0.4;"><title>11</title></path><path class="link" d="M5,409.4596847529554C213.25,409.4596847529554 213.25,235.40769930281905 421.5,235.40769930281905" style="stroke-width: 1; fill: none; stroke: rgb(105, 226, 200); stroke-opacity: 0.4;"><title>8</title></path><path class="link" d="M5,419.590406183692C213.25,419.590406183692 213.25,235.52099120945743 421.5,235.52099120945743" style="stroke-width: 1; fill: none; stroke: rgb(105, 226, 200); stroke-opacity: 0.4;"><title>5</title></path><path class="link" d="M426.5,380.77334040618365C634.75,380.77334040618365 634.75,374.11980903304027 843,374.11980903304027" style="stroke-width: 1; fill: none; stroke: rgb(105, 226, 200); stroke-opacity: 0.4;"><title>5</title></path><path class="link" d="M5,439.75598666262505C213.25,439.75598666262505 213.25,235.59942406789938 421.5,235.59942406789938" style="stroke-width: 1; fill: none; stroke: rgb(105, 226, 200); stroke-opacity: 0.4;"><title>4</title></path><path class="link" d="M5,324.33540466808125C213.25,324.33540466808125 213.25,304.5240982115793 421.5,304.5240982115793" style="stroke-width: 1; fill: none; stroke: rgb(105, 226, 200); stroke-opacity: 0.4;"><title>4</title></path><path class="link" d="M5,429.6862685662322C213.25,429.6862685662322 213.25,404.93028190360707 421.5,404.93028190360707" style="stroke-width: 1; fill: none; stroke: rgb(105, 226, 200); stroke-opacity: 0.4;"><title>4</title></path><path class="link" d="M426.5,404.89542285541063C634.75,404.89542285541063 634.75,309.51348893604126 843,309.51348893604126" style="stroke-width: 1; fill: none; stroke: rgb(105, 226, 200); stroke-opacity: 0.4;"><title>4</title></path><path class="link" d="M426.5,404.9651409518035C634.75,404.9651409518035 634.75,394.9651409518035 843,394.9651409518035" style="stroke-width: 1; fill: none; stroke: rgb(105, 226, 200); stroke-opacity: 0.4;"><title>4</title></path><path class="link" d="M426.5,390.8517732646256C634.75,390.8517732646256 634.75,229.37708396483782 843,229.37708396483782" style="stroke-width: 1; fill: none; stroke: rgb(105, 226, 200); stroke-opacity: 0.4;"><title>4</title></path><path class="link" d="M426.5,334.271749014853C634.75,334.271749014853 634.75,384.82570475901787 843,384.82570475901787" style="stroke-width: 1; fill: none; stroke: rgb(105, 226, 200); stroke-opacity: 0.4;"><title>4</title></path><path class="link" d="M426.5,380.6949075477417C634.75,380.6949075477417 634.75,360.2068808729918 843,360.2068808729918" style="stroke-width: 1; fill: none; stroke: rgb(105, 226, 200); stroke-opacity: 0.4;"><title>4</title></path><path class="link" d="M5,449.81698999696874C213.25,449.81698999696874 213.25,235.66042740224313 421.5,235.66042740224313" style="stroke-width: 1; fill: none; stroke: rgb(105, 226, 200); stroke-opacity: 0.4;"><title>3</title></path><path class="link" d="M5,288.5923764777205C213.25,288.5923764777205 213.25,404.7995604728705 421.5,404.7995604728705" style="stroke-width: 1; fill: none; stroke: rgb(105, 226, 200); stroke-opacity: 0.4;"><title>3</title></path><path class="link" d="M5,399.3638223704153C213.25,399.3638223704153 213.25,404.8518490451651 421.5,404.8518490451651" style="stroke-width: 1; fill: none; stroke: rgb(105, 226, 200); stroke-opacity: 0.4;"><title>3</title></path><path class="link" d="M5,469.9128523795089C213.25,469.9128523795089 213.25,235.7388602606851 421.5,235.7388602606851" style="stroke-width: 1; fill: none; stroke: rgb(105, 226, 200); stroke-opacity: 0.4;"><title>2</title></path><path class="link" d="M5,479.9477114277053C213.25,479.9477114277053 213.25,394.1633828432858 421.5,394.1633828432858" style="stroke-width: 1; fill: none; stroke: rgb(105, 226, 200); stroke-opacity: 0.4;"><title>2</title></path><path class="link" d="M5,459.86056380721425C213.25,459.86056380721425 213.25,235.7040012124887 421.5,235.7040012124887" style="stroke-width: 1; fill: none; stroke: rgb(105, 226, 200); stroke-opacity: 0.4;"><title>2</title></path><path class="link" d="M426.5,175.57668990603216C634.75,175.57668990603216 634.75,394.87799333131244 843,394.87799333131244" style="stroke-width: 1; fill: none; stroke: rgb(59, 127, 112); stroke-opacity: 0.4;"><title>2</title></path><path class="link" d="M426.5,334.21946044255833C634.75,334.21946044255833 634.75,373.67535616853587 843,373.67535616853587" style="stroke-width: 1; fill: none; stroke: rgb(105, 226, 200); stroke-opacity: 0.4;"><title>2</title></path><path class="link" d="M426.5,235.7388602606851C634.75,235.7388602606851 634.75,394.9128523795089 843,394.9128523795089" style="stroke-width: 1; fill: none; stroke: rgb(105, 226, 200); stroke-opacity: 0.4;"><title>2</title></path><path class="link" d="M5,489.9738557138527C213.25,489.9738557138527 213.25,304.5676720218248 421.5,304.5676720218248" style="stroke-width: 1; fill: none; stroke: rgb(105, 226, 200); stroke-opacity: 0.4;"><title>1</title></path><path class="link" d="M5,409.5381176113974C213.25,409.5381176113974 213.25,404.88670809336156 421.5,404.88670809336156" style="stroke-width: 1; fill: none; stroke: rgb(105, 226, 200); stroke-opacity: 0.4;"><title>1</title></path><path class="link" d="M5,135.5361473173689C213.25,135.5361473173689 213.25,404.5032585632009 421.5,404.5032585632009" style="stroke-width: 1; fill: none; stroke: rgb(105, 226, 200); stroke-opacity: 0.4;"><title>1</title></path><path class="link" d="M5,254.97991815701727C213.25,254.97991815701727 213.25,404.76470142467406 421.5,404.76470142467406" style="stroke-width: 1; fill: none; stroke: rgb(105, 226, 200); stroke-opacity: 0.4;"><title>1</title></path><path class="link" d="M5,237.6898302515914C213.25,237.6898302515914 213.25,230.74530160654746 421.5,230.74530160654746" style="stroke-width: 1; fill: none; stroke: rgb(105, 226, 200); stroke-opacity: 0.4;"><title>1</title></path><path class="link" d="M5,499.9912852379509C213.25,499.9912852379509 213.25,404.9912852379508 421.5,404.9912852379508" style="stroke-width: 1; fill: none; stroke: rgb(105, 226, 200); stroke-opacity: 0.4;"><title>1</title></path><path class="link" d="M5,459.8867080933616C213.25,459.8867080933616 213.25,404.97385571385263 421.5,404.97385571385263" style="stroke-width: 1; fill: none; stroke: rgb(105, 226, 200); stroke-opacity: 0.4;"><title>1</title></path><path class="link" d="M5,429.64269475598667C213.25,429.64269475598667 213.25,361.4136859654441 421.5,361.4136859654441" style="stroke-width: 1; fill: none; stroke: rgb(105, 226, 200); stroke-opacity: 0.4;"><title>1</title></path></g><g><g class="node" transform="translate(0,0)"><rect height="80.3849651409518" width="5" style=""><title>Afghanistan
4,612</title></rect><text x="11" y="40.1924825704759" dy=".35em" text-anchor="start" style="font-size: 11px; font-family: Arial, Helvetica; pointer-events: none;">Afghanistan</text></g><g class="node" transform="translate(0,312.4704455895726)"><rect height="1.830100030312216" width="5" style=""><title>Cameroon
105</title></rect><text x="11" y="0.915050015156108" dy=".35em" text-anchor="start" style="font-size: 11px; font-family: Arial, Helvetica; pointer-events: none;">Cameroon</text></g><g class="node" transform="translate(0,388.72764474083056)"><rect height="0.36602000606244317" width="5" style=""><title>Central African Republic
21</title></rect><text x="11" y="0.18301000303122159" dy=".35em" text-anchor="start" style="font-size: 11px; font-family: Arial, Helvetica; pointer-events: none;">Central African Republic</text></g><g class="node" transform="translate(0,378.3441952106699)"><rect height="0.38344953016065475" width="5" style=""><title>Chad
22</title></rect><text x="11" y="0.19172476508032738" dy=".35em" text-anchor="start" style="font-size: 11px; font-family: Arial, Helvetica; pointer-events: none;">Chad</text></g><g class="node" transform="translate(0,180.0856320096999)"><rect height="19.73022127917551" width="5" style=""><title>Colombia
1,132</title></rect><text x="11" y="9.865110639587755" dy=".35em" text-anchor="start" style="font-size: 11px; font-family: Arial, Helvetica; pointer-events: none;">Colombia</text></g><g class="node" transform="translate(0,335.83434374052746)"><rect height="0.9063352531070021" width="5" style=""><title>Democratic Republic of the Congo
52</title></rect><text x="11" y="0.45316762655350107" dy=".35em" text-anchor="start" style="font-size: 11px; font-family: Arial, Helvetica; pointer-events: none;">Democratic Republic of the Congo</text></g><g class="node" transform="translate(0,489.96514095180356)"><rect height="0.01742952409821158" width="5" style=""><title>Djibouti
1</title></rect><text x="11" y="0.00871476204910579" dy=".35em" text-anchor="start" style="font-size: 11px; font-family: Arial, Helvetica; pointer-events: none;">Djibouti</text></g><g class="node" transform="translate(0,449.79084571082143)"><rect height="0.05228857229463474" width="5" style=""><title>Egypt
3</title></rect><text x="11" y="0.02614428614731737" dy=".35em" text-anchor="start" style="font-size: 11px; font-family: Arial, Helvetica; pointer-events: none;">Egypt</text></g><g class="node" transform="translate(0,409.3899666565626)"><rect height="0.15686571688390422" width="5" style=""><title>France
9</title></rect><text x="11" y="0.07843285844195211" dy=".35em" text-anchor="start" style="font-size: 11px; font-family: Arial, Helvetica; pointer-events: none;">France</text></g><g class="node" transform="translate(0,90.3849651409518)"><rect height="45.159896938466204" width="5" style=""><title>Iraq
2,591</title></rect><text x="11" y="22.579948469233102" dy=".35em" text-anchor="start" style="font-size: 11px; font-family: Arial, Helvetica; pointer-events: none;">Iraq</text></g><g class="node" transform="translate(0,439.7211276144286)"><rect height="0.06971809639284632" width="5" style=""><title>Jordan
4</title></rect><text x="11" y="0.03485904819642316" dy=".35em" text-anchor="start" style="font-size: 11px; font-family: Arial, Helvetica; pointer-events: none;">Jordan</text></g><g class="node" transform="translate(0,284.3831464080024)"><rect height="4.235374355865414" width="5" style=""><title>Kenya
243</title></rect><text x="11" y="2.117687177932707" dy=".35em" text-anchor="start" style="font-size: 11px; font-family: Arial, Helvetica; pointer-events: none;">Kenya</text></g><g class="node" transform="translate(0,367.85616853592)"><rect height="0.4880266747499242" width="5" style=""><title>Lebanon
28</title></rect><text x="11" y="0.2440133373749621" dy=".35em" text-anchor="start" style="font-size: 11px; font-family: Arial, Helvetica; pointer-events: none;">Lebanon</text></g><g class="node" transform="translate(0,469.8954228554107)"><rect height="0.03485904819642316" width="5" style=""><title>Libya
2</title></rect><text x="11" y="0.01742952409821158" dy=".35em" text-anchor="start" style="font-size: 11px; font-family: Arial, Helvetica; pointer-events: none;">Libya</text></g><g class="node" transform="translate(0,357.33328281297366)"><rect height="0.5228857229463474" width="5" style=""><title>Niger
30</title></rect><text x="11" y="0.2614428614731737" dy=".35em" text-anchor="start" style="font-size: 11px; font-family: Arial, Helvetica; pointer-events: none;">Niger</text></g><g class="node" transform="translate(0,145.544862079418)"><rect height="24.540769930281904" width="5" style=""><title>Nigeria
1,408</title></rect><text x="11" y="12.270384965140952" dy=".35em" text-anchor="start" style="font-size: 11px; font-family: Arial, Helvetica; pointer-events: none;">Nigeria</text></g><g class="node" transform="translate(0,209.81585328887542)"><rect height="17.86526220066687" width="5" style=""><title>Pakistan
1,025</title></rect><text x="11" y="8.932631100333435" dy=".35em" text-anchor="start" style="font-size: 11px; font-family: Arial, Helvetica; pointer-events: none;">Pakistan</text></g><g class="node" transform="translate(0,419.5468323734465)"><rect height="0.0871476204910579" width="5" style=""><title>Saudi Arabia
5</title></rect><text x="11" y="0.04357381024552895" dy=".35em" text-anchor="start" style="font-size: 11px; font-family: Arial, Helvetica; pointer-events: none;">Saudi Arabia</text></g><g class="node" transform="translate(0,237.6811154895423)"><rect height="17.307517429524097" width="5" style=""><title>Somalia
993</title></rect><text x="11" y="8.653758714762048" dy=".35em" text-anchor="start" style="font-size: 11px; font-family: Arial, Helvetica; pointer-events: none;">Somalia</text></g><g class="node" transform="translate(0,479.9302819036071)"><rect height="0.03485904819642316" width="5" style=""><title>South Sudan
2</title></rect><text x="11" y="0.01742952409821158" dy=".35em" text-anchor="start" style="font-size: 11px; font-family: Arial, Helvetica; pointer-events: none;">South Sudan</text></g><g class="node" transform="translate(0,264.9886329190664)"><rect height="9.394513488936042" width="5" style=""><title>Sri Lanka
539</title></rect><text x="11" y="4.697256744468021" dy=".35em" text-anchor="start" style="font-size: 11px; font-family: Arial, Helvetica; pointer-events: none;">Sri Lanka</text></g><g class="node" transform="translate(0,346.74067899363445)"><rect height="0.5926038193391937" width="5" style=""><title>Sudan
34</title></rect><text x="11" y="0.29630190966959685" dy=".35em" text-anchor="start" style="font-size: 11px; font-family: Arial, Helvetica; pointer-events: none;">Sudan</text></g><g class="node" transform="translate(0,298.6185207638678)"><rect height="3.851924825704759" width="5" style=""><title>Syria
221</title></rect><text x="11" y="1.9259624128523796" dy=".35em" text-anchor="start" style="font-size: 11px; font-family: Arial, Helvetica; pointer-events: none;">Syria</text></g><g class="node" transform="translate(0,499.98257047590175)"><rect height="0.01742952409821158" width="5" style=""><title>Tanzania
1</title></rect><text x="11" y="0.00871476204910579" dy=".35em" text-anchor="start" style="font-size: 11px; font-family: Arial, Helvetica; pointer-events: none;">Tanzania</text></g><g class="node" transform="translate(0,459.84313428311606)"><rect height="0.05228857229463474" width="5" style=""><title>Tunisia
3</title></rect><text x="11" y="0.02614428614731737" dy=".35em" text-anchor="start" style="font-size: 11px; font-family: Arial, Helvetica; pointer-events: none;">Tunisia</text></g><g class="node" transform="translate(0,399.093664746893)"><rect height="0.29630190966959685" width="5" style=""><title>Turkey
17</title></rect><text x="11" y="0.14815095483479843" dy=".35em" text-anchor="start" style="font-size: 11px; font-family: Arial, Helvetica; pointer-events: none;">Turkey</text></g><g class="node" transform="translate(0,324.3005456198848)"><rect height="1.533798120642619" width="5" style=""><title>Uganda
88</title></rect><text x="11" y="0.7668990603213095" dy=".35em" text-anchor="start" style="font-size: 11px; font-family: Arial, Helvetica; pointer-events: none;">Uganda</text></g><g class="node" transform="translate(0,429.63397999393754)"><rect height="0.0871476204910579" width="5" style=""><title>United States
5</title></rect><text x="11" y="0.04357381024552895" dy=".35em" text-anchor="start" style="font-size: 11px; font-family: Arial, Helvetica; pointer-events: none;">United States</text></g><g class="node" transform="translate(421.5,404.18081236738396)"><rect height="0.8191876326159442" width="5" style=""><title>Al-Qaida
47</title></rect><text x="11" y="0.4095938163079721" dy=".35em" text-anchor="start" style="font-size: 11px; font-family: Arial, Helvetica; pointer-events: none;">Al-Qaida</text></g><g class="node" transform="translate(421.5,283.0334949984844)"><rect height="21.54289178538951" width="5" style=""><title>Al-Shabaab
1,236</title></rect><text x="11" y="10.771445892694755" dy=".35em" text-anchor="start" style="font-size: 11px; font-family: Arial, Helvetica; pointer-events: none;">Al-Shabaab</text></g><g class="node" transform="translate(421.5,245.7562897847833)"><rect height="27.277205213701123" width="5" style=""><title>Boko Haram
1,565</title></rect><text x="11" y="13.638602606850561" dy=".35em" text-anchor="start" style="font-size: 11px; font-family: Arial, Helvetica; pointer-events: none;">Boko Haram</text></g><g class="node" transform="translate(421.5,314.5763867838739)"><rect height="19.73022127917551" width="5" style=""><title>FARC
1,132</title></rect><text x="11" y="9.865110639587755" dy=".35em" text-anchor="start" style="font-size: 11px; font-family: Arial, Helvetica; pointer-events: none;">FARC</text></g><g class="node" transform="translate(421.5,185.59411943013038)"><rect height="50.16217035465293" width="5" style=""><title>ISIS
2,878</title></rect><text x="11" y="25.081085177326464" dy=".35em" text-anchor="start" style="font-size: 11px; font-family: Arial, Helvetica; pointer-events: none;">ISIS</text></g><g class="node" transform="translate(421.5,390.81691421642915)"><rect height="3.3638981509548347" width="5" style=""><title>LRA
193</title></rect><text x="11" y="1.6819490754774173" dy=".35em" text-anchor="start" style="font-size: 11px; font-family: Arial, Helvetica; pointer-events: none;">LRA</text></g><g class="node" transform="translate(421.5,371.42240072749314)"><rect height="9.394513488936042" width="5" style=""><title>LTTE
539</title></rect><text x="11" y="4.697256744468021" dy=".35em" text-anchor="start" style="font-size: 11px; font-family: Arial, Helvetica; pointer-events: none;">LTTE</text></g><g class="node" transform="translate(421.5,95.00000000000003)"><rect height="80.59411943013035" width="5" style=""><title>Taliban
4,624</title></rect><text x="11" y="40.297059715065174" dy=".35em" text-anchor="start" style="font-size: 11px; font-family: Arial, Helvetica; pointer-events: none;">Taliban</text></g><g class="node" transform="translate(421.5,344.3066080630494)"><rect height="17.11579266444377" width="5" style=""><title>TTP
982</title></rect><text x="11" y="8.557896332221885" dy=".35em" text-anchor="start" style="font-size: 11px; font-family: Arial, Helvetica; pointer-events: none;">TTP</text></g><g class="node" transform="translate(843,384.4596847529554)"><rect height="0.40087905425886633" width="5" style="fill: rgb(102, 102, 102);"><title>Chemical
23</title></rect><text x="-6" y="0.20043952712943316" dy=".35em" text-anchor="end" style="font-size: 11px; font-family: Arial, Helvetica; pointer-events: none;">Chemical</text></g><g class="node" transform="translate(843,105)"><rect height="125.0916944528645" width="5" style="fill: rgb(102, 102, 102);"><title>Explosives
7,177</title></rect><text x="-6" y="62.54584722643225" dy=".35em" text-anchor="end" style="font-size: 11px; font-family: Arial, Helvetica; pointer-events: none;">Explosives</text></g><g class="node" transform="translate(843,240.0916944528645)"><rect height="69.45665353137315" width="5" style="fill: rgb(102, 102, 102);"><title>Firearms
3,985</title></rect><text x="-6" y="34.728326765686575" dy=".35em" text-anchor="end" style="font-size: 11px; font-family: Arial, Helvetica; pointer-events: none;">Firearms</text></g><g class="node" transform="translate(843,352.76447408305546)"><rect height="7.878144892391634" width="5" style="fill: rgb(102, 102, 102);"><title>Incendiary
452</title></rect><text x="-6" y="3.939072446195817" dy=".35em" text-anchor="end" style="font-size: 11px; font-family: Arial, Helvetica; pointer-events: none;">Incendiary</text></g><g class="node" transform="translate(843,370.6426189754471)"><rect height="3.817065777508336" width="5" style="fill: rgb(102, 102, 102);"><title>Melee
219</title></rect><text x="-6" y="1.908532888754168" dy=".35em" text-anchor="end" style="font-size: 11px; font-family: Arial, Helvetica; pointer-events: none;">Melee</text></g><g class="node" transform="translate(843,319.54834798423764)"><rect height="23.216126098817824" width="5" style="fill: rgb(102, 102, 102);"><title>Unknown
1,332</title></rect><text x="-6" y="11.608063049408912" dy=".35em" text-anchor="end" style="font-size: 11px; font-family: Arial, Helvetica; pointer-events: none;">Unknown</text></g><g class="node" transform="translate(843,394.86056380721425)"><rect height="0.13943619278569264" width="5" style="fill: rgb(102, 102, 102);"><title>Vehicle
8</title></rect><text x="-6" y="0.06971809639284632" dy=".35em" text-anchor="end" style="font-size: 11px; font-family: Arial, Helvetica; pointer-events: none;">Vehicle</text></g></g></g></svg>