<svg width="800" height="400" xmlns="http://www.w3.org/2000/svg" version="1.1"><g><g class="x axis" style="stroke-width: 1px; font-size: 10px; font-family: Arial, Helvetica; display: block;" transform="translate(0,380)"><g class="tick" style="opacity: 1;" transform="translate(0,0)"><line y2="-380" x2="0" style="shape-rendering: crispedges; fill: none; stroke: rgb(204, 204, 204);"></line><text dy=".71em" style="text-anchor: middle;" y="3" x="0">1998</text></g><g class="tick" style="opacity: 1;" transform="translate(94.11764705882352,0)"><line y2="-380" x2="0" style="shape-rendering: crispedges; fill: none; stroke: rgb(204, 204, 204);"></line><text dy=".71em" style="text-anchor: middle;" y="3" x="0">2000</text></g><g class="tick" style="opacity: 1;" transform="translate(188.23529411764704,0)"><line y2="-380" x2="0" style="shape-rendering: crispedges; fill: none; stroke: rgb(204, 204, 204);"></line><text dy=".71em" style="text-anchor: middle;" y="3" x="0">2002</text></g><g class="tick" style="opacity: 1;" transform="translate(282.3529411764706,0)"><line y2="-380" x2="0" style="shape-rendering: crispedges; fill: none; stroke: rgb(204, 204, 204);"></line><text dy=".71em" style="text-anchor: middle;" y="3" x="0">2004</text></g><g class="tick" style="opacity: 1;" transform="translate(376.4705882352941,0)"><line y2="-380" x2="0" style="shape-rendering: crispedges; fill: none; stroke: rgb(204, 204, 204);"></line><text dy=".71em" style="text-anchor: middle;" y="3" x="0">2006</text></g><g class="tick" style="opacity: 1;" transform="translate(470.5882352941177,0)"><line y2="-380" x2="0" style="shape-rendering: crispedges; fill: none; stroke: rgb(204, 204, 204);"></line><text dy=".71em" style="text-anchor: middle;" y="3" x="0">2008</text></g><g class="tick" style="opacity: 1;" transform="translate(564.7058823529412,0)"><line y2="-380" x2="0" style="shape-rendering: crispedges; fill: none; stroke: rgb(204, 204, 204);"></line><text dy=".71em" style="text-anchor: middle;" y="3" x="0">2010</text></g><g class="tick" style="opacity: 1;" transform="translate(658.8235294117646,0)"><line y2="-380" x2="0" style="shape-rendering: crispedges; fill: none; stroke: rgb(204, 204, 204);"></line><text dy=".71em" style="text-anchor: middle;" y="3" x="0">2012</text></g><g class="tick" style="opacity: 1;" transform="translate(752.9411764705882,0)"><line y2="-380" x2="0" style="shape-rendering: crispedges; fill: none; stroke: rgb(204, 204, 204);"></line><text dy=".71em" style="text-anchor: middle;" y="3" x="0">2014</text></g><path class="domain" d="M0,-380V0H800V-380" style="shape-rendering: crispedges; fill: none; stroke: rgb(204, 204, 204);"></path></g><path class="layer" d="M0,181.4199698946312C23.52941176470588,181.4199698946312 23.52941176470588,177.6542900150527 47.05882352941176,177.6542900150527C70.58823529411764,177.6542900150527 70.58823529411764,189.61866532865025 94.11764705882352,189.61866532865025C117.64705882352942,189.61866532865025 117.64705882352942,166.11891620672353 141.1764705882353,166.11891620672353C164.70588235294116,166.11891620672353 164.70588235294116,169.88459608630208 188.23529411764704,169.88459608630208C211.76470588235293,169.88459608630208 211.76470588235293,192.7646763672855 235.29411764705884,192.7646763672855C258.82352941176475,192.7646763672855 258.82352941176475,190.9056698444556 282.3529411764706,190.9056698444556C305.88235294117646,190.9056698444556 305.88235294117646,205.82538886101355 329.4117647058823,205.82538886101355C352.9411764705882,205.82538886101355 352.9411764705882,208.1133968891119 376.4705882352941,208.1133968891119C400,208.1133968891119 400,216.02609131961867 423.5294117647059,216.02609131961867C447.0588235294118,216.02609131961867 447.0588235294118,193.6226793778224 470.5882352941177,193.6226793778224C494.11764705882354,193.6226793778224 494.11764705882354,190.66733567486202 517.6470588235294,190.66733567486202C541.1764705882354,190.66733567486202 541.1764705882354,188.4746613146011 564.7058823529412,188.4746613146011C588.2352941176471,188.4746613146011 588.2352941176471,195.9106874059207 611.7647058823529,195.9106874059207C635.2941176470588,195.9106874059207 635.2941176470588,256.685900652283 658.8235294117646,256.685900652283C682.3529411764705,256.685900652283 682.3529411764705,255.49422980431507 705.8823529411765,255.49422980431507C729.4117647058823,255.49422980431507 729.4117647058823,308.88108379327645 752.9411764705882,308.88108379327645C776.4705882352941,308.88108379327645 776.4705882352941,293.72303060712494 800,293.72303060712494L800,357.31058705469144C776.4705882352941,357.31058705469144 776.4705882352941,358.16859006522833 752.9411764705882,358.16859006522833C729.4117647058823,358.16859006522833 729.4117647058823,290.00501756146514 705.8823529411765,290.00501756146514C682.3529411764705,290.00501756146514 682.3529411764705,290.7200200702459 658.8235294117646,290.7200200702459C635.2941176470588,290.7200200702459 635.2941176470588,250.53687907676868 611.7647058823529,250.53687907676868C588.2352941176471,250.53687907676868 588.2352941176471,257.21023582538885 564.7058823529412,257.21023582538885C541.1764705882354,257.21023582538885 541.1764705882354,249.0115403913698 517.6470588235294,249.0115403913698C494.11764705882354,249.0115403913698 494.11764705882354,235.56949322629202 470.5882352941177,235.56949322629202C447.0588235294118,235.56949322629202 447.0588235294118,227.08479678876068 423.5294117647059,227.08479678876068C400,227.08479678876068 400,219.45810336176615 376.4705882352941,219.45810336176615C352.9411764705882,219.45810336176615 352.9411764705882,216.59809332664324 329.4117647058823,216.59809332664324C305.88235294117646,216.59809332664324 305.88235294117646,197.9603612644255 282.3529411764706,197.9603612644255C258.82352941176475,197.9603612644255 258.82352941176475,205.53938785750125 235.29411764705884,205.53938785750125C211.76470588235293,205.53938785750125 211.76470588235293,185.51931761164076 188.23529411764704,185.51931761164076C164.70588235294116,185.51931761164076 164.70588235294116,185.85298544907175 141.1764705882353,185.85298544907175C117.64705882352942,185.85298544907175 117.64705882352942,203.2513798294029 94.11764705882352,203.2513798294029C70.58823529411764,203.2513798294029 70.58823529411764,187.37832413447063 47.05882352941176,187.37832413447063C23.52941176470588,187.37832413447063 23.52941176470588,186.18665328650278 0,186.18665328650278Z" title="ethnic" style="fill-opacity: 0.9; fill: rgb(219, 52, 0);"></path><path class="layer" d="M0,196.57802308078274C23.52941176470588,196.57802308078274 23.52941176470588,198.62769693928752 47.05882352941176,198.62769693928752C70.58823529411764,198.62769693928752 70.58823529411764,206.11138986452588 94.11764705882352,206.11138986452588C117.64705882352942,206.11138986452588 117.64705882352942,208.16106372303062 141.1764705882353,208.16106372303062C164.70588235294116,208.16106372303062 164.70588235294116,205.0627195183141 188.23529411764704,205.0627195183141C211.76470588235293,205.0627195183141 211.76470588235293,208.39939789262417 235.29411764705884,208.39939789262417C258.82352941176475,208.39939789262417 258.82352941176475,200.8203712995484 282.3529411764706,200.8203712995484C305.88235294117646,200.8203712995484 305.88235294117646,191.33467134972403 329.4117647058823,191.33467134972403C352.9411764705882,191.33467134972403 352.9411764705882,187.61665830406423 376.4705882352941,187.61665830406423C400,187.61665830406423 400,192.8600100351229 423.5294117647059,192.8600100351229C447.0588235294118,192.8600100351229 447.0588235294118,238.42950326141494 470.5882352941177,238.42950326141494C494.11764705882354,238.42950326141494 494.11764705882354,251.87155042649272 517.6470588235294,251.87155042649272C541.1764705882354,251.87155042649272 541.1764705882354,260.0702458605118 564.7058823529412,260.0702458605118C588.2352941176471,260.0702458605118 588.2352941176471,253.39688911189165 611.7647058823529,253.39688911189165C635.2941176470588,253.39688911189165 635.2941176470588,293.5800301053688 658.8235294117646,293.5800301053688C682.3529411764705,293.5800301053688 682.3529411764705,292.86502759658805 705.8823529411765,292.86502759658805C729.4117647058823,292.86502759658805 729.4117647058823,361.02860010035124 752.9411764705882,361.02860010035124C776.4705882352941,361.02860010035124 776.4705882352941,360.17059708981435 800,360.17059708981435L800,376.18665328650275C776.4705882352941,376.18665328650275 776.4705882352941,380 752.9411764705882,380C729.4117647058823,380 729.4117647058823,302.11239337681883 705.8823529411765,302.11239337681883C682.3529411764705,302.11239337681883 682.3529411764705,299.58605117912697 658.8235294117646,299.58605117912697C635.2941176470588,299.58605117912697 635.2941176470588,259.0215755143 611.7647058823529,259.0215755143C588.2352941176471,259.0215755143 588.2352941176471,268.55494229804316 564.7058823529412,268.55494229804316C541.1764705882354,268.55494229804316 541.1764705882354,263.50225790265927 517.6470588235294,263.50225790265927C494.11764705882354,263.50225790265927 494.11764705882354,253.87355745107874 470.5882352941177,253.87355745107874C447.0588235294118,253.87355745107874 447.0588235294118,213.1660812844957 423.5294117647059,213.1660812844957C400,213.1660812844957 400,205.25338685398893 376.4705882352941,205.25338685398893C352.9411764705882,205.25338685398893 352.9411764705882,202.96537882589064 329.4117647058823,202.96537882589064C305.88235294117646,202.96537882589064 305.88235294117646,204.1570496738585 282.3529411764706,204.1570496738585C258.82352941176475,204.1570496738585 258.82352941176475,211.92674360260912 235.29411764705884,211.92674360260912C211.76470588235293,211.92674360260912 211.76470588235293,210.11540391369792 188.23529411764704,210.11540391369792C164.70588235294116,210.11540391369792 164.70588235294116,213.88108379327645 141.1764705882353,213.88108379327645C117.64705882352942,213.88108379327645 117.64705882352942,211.54540893125937 94.11764705882352,211.54540893125937C70.58823529411764,211.54540893125937 70.58823529411764,202.34570998494735 47.05882352941176,202.34570998494735C23.52941176470588,202.34570998494735 23.52941176470588,198.5800301053688 0,198.5800301053688Z" title="political" style="fill-opacity: 0.9; fill: rgb(255, 225, 159);"></path><path class="layer" d="M0,189.0466633216257C23.52941176470588,189.0466633216257 23.52941176470588,190.23833416959354 47.05882352941176,190.23833416959354C70.58823529411764,190.23833416959354 70.58823529411764,168.45459106874057 94.11764705882352,168.45459106874057C117.64705882352942,168.45459106874057 117.64705882352942,188.7129954841947 141.1764705882353,188.7129954841947C164.70588235294116,188.7129954841947 164.70588235294116,188.37932764676367 188.23529411764704,188.37932764676367C211.76470588235293,188.37932764676367 211.76470588235293,168.07325639739088 235.29411764705884,168.07325639739088C258.82352941176475,168.07325639739088 258.82352941176475,175.8429503261415 282.3529411764706,175.8429503261415C305.88235294117646,175.8429503261415 305.88235294117646,163.40190667335676 329.4117647058823,163.40190667335676C352.9411764705882,163.40190667335676 352.9411764705882,160.54189663823385 376.4705882352941,160.54189663823385C400,160.54189663823385 400,152.91520321123932 423.5294117647059,152.91520321123932C447.0588235294118,152.91520321123932 447.0588235294118,126.1264425489212 470.5882352941177,126.1264425489212C494.11764705882354,126.1264425489212 494.11764705882354,116.4977420973407 517.6470588235294,116.4977420973407C541.1764705882354,116.4977420973407 541.1764705882354,111.44505770195684 564.7058823529412,111.44505770195684C588.2352941176471,111.44505770195684 588.2352941176471,120.97842448569995 611.7647058823529,120.97842448569995C635.2941176470588,120.97842448569995 635.2941176470588,80.41394882087307 658.8235294117646,80.41394882087307C682.3529411764705,80.41394882087307 682.3529411764705,77.88760662318114 705.8823529411765,77.88760662318114C729.4117647058823,77.88760662318114 729.4117647058823,0 752.9411764705882,0C776.4705882352941,0 776.4705882352941,3.8133467134972343 800,3.8133467134972343L800,290.86302057200203C776.4705882352941,290.86302057200203 776.4705882352941,306.02107375815353 752.9411764705882,306.02107375815353C729.4117647058823,306.02107375815353 729.4117647058823,252.63421976919216 705.8823529411765,252.63421976919216C682.3529411764705,252.63421976919216 682.3529411764705,253.82589061716007 658.8235294117646,253.82589061716007C635.2941176470588,253.82589061716007 635.2941176470588,193.05067737079779 611.7647058823529,193.05067737079779C588.2352941176471,193.05067737079779 588.2352941176471,185.61465127947818 564.7058823529412,185.61465127947818C541.1764705882354,185.61465127947818 541.1764705882354,187.8073256397391 517.6470588235294,187.8073256397391C494.11764705882354,187.8073256397391 494.11764705882354,190.76266934269944 470.5882352941177,190.76266934269944C447.0588235294118,190.76266934269944 447.0588235294118,190 423.5294117647059,190C400,190 400,184.75664826894132 376.4705882352941,184.75664826894132C352.9411764705882,184.75664826894132 352.9411764705882,188.4746613146011 329.4117647058823,188.4746613146011C305.88235294117646,188.4746613146011 305.88235294117646,188.04565980933265 282.3529411764706,188.04565980933265C258.82352941176475,188.04565980933265 258.82352941176475,189.90466633216258 235.29411764705884,189.90466633216258C211.76470588235293,189.90466633216258 211.76470588235293,202.20270948319114 188.23529411764704,202.20270948319114C164.70588235294116,202.20270948319114 164.70588235294116,205.3010536879077 141.1764705882353,205.3010536879077C117.64705882352942,205.3010536879077 117.64705882352942,186.75865529352734 94.11764705882352,186.75865529352734C70.58823529411764,186.75865529352734 70.58823529411764,195.76768690416458 47.05882352941176,195.76768690416458C23.52941176470588,195.76768690416458 23.52941176470588,193.71801304565983 0,193.71801304565983Z" title="religious" style="fill-opacity: 0.9; fill: rgb(105, 226, 200);"></path></g></svg>