<svg class="marks" width="883" height="184" viewBox="0 0 883 184" version="1.1" xmlns="http://www.w3.org/2000/svg" xmlns:xlink="http://www.w3.org/1999/xlink"><g transform="translate(77,5)"><g class="mark-group role-frame root"><g transform="translate(0,0)"><path class="background" d="M0.5,0.5h800v150h-800Z" style="fill: none; stroke: #ddd;"></path><g><g class="mark-group role-axis"><g transform="translate(0.5,150.5)"><path class="background" d="M0,0h0v0h0Z" style="pointer-events: none; fill: none;"></path><g><g class="mark-rule role-axis-grid" style="pointer-events: none;"><line transform="translate(0,0)" x2="0" y2="-150" style="fill: none; stroke: #ddd; stroke-width: 1; opacity: 1;"></line><line transform="translate(31,0)" x2="0" y2="-150" style="fill: none; stroke: #ddd; stroke-width: 1; opacity: 1;"></line><line transform="translate(62,0)" x2="0" y2="-150" style="fill: none; stroke: #ddd; stroke-width: 1; opacity: 1;"></line><line transform="translate(92,0)" x2="0" y2="-150" style="fill: none; stroke: #ddd; stroke-width: 1; opacity: 1;"></line><line transform="translate(123,0)" x2="0" y2="-150" style="fill: none; stroke: #ddd; stroke-width: 1; opacity: 1;"></line><line transform="translate(154,0)" x2="0" y2="-150" style="fill: none; stroke: #ddd; stroke-width: 1; opacity: 1;"></line><line transform="translate(185,0)" x2="0" y2="-150" style="fill: none; stroke: #ddd; stroke-width: 1; opacity: 1;"></line><line transform="translate(215,0)" x2="0" y2="-150" style="fill: none; stroke: #ddd; stroke-width: 1; opacity: 1;"></line><line transform="translate(246,0)" x2="0" y2="-150" style="fill: none; stroke: #ddd; stroke-width: 1; opacity: 1;"></line><line transform="translate(277,0)" x2="0" y2="-150" style="fill: none; stroke: #ddd; stroke-width: 1; opacity: 1;"></line><line transform="translate(308,0)" x2="0" y2="-150" style="fill: none; stroke: #ddd; stroke-width: 1; opacity: 1;"></line><line transform="translate(338,0)" x2="0" y2="-150" style="fill: none; stroke: #ddd; stroke-width: 1; opacity: 1;"></line><line transform="translate(369,0)" x2="0" y2="-150" style="fill: none; stroke: #ddd; stroke-width: 1; opacity: 1;"></line><line transform="translate(400,0)" x2="0" y2="-150" style="fill: none; stroke: #ddd; stroke-width: 1; opacity: 1;"></line><line transform="translate(431,0)" x2="0" y2="-150" style="fill: none; stroke: #ddd; stroke-width: 1; opacity: 1;"></line><line transform="translate(462,0)" x2="0" y2="-150" style="fill: none; stroke: #ddd; stroke-width: 1; opacity: 1;"></line><line transform="translate(492,0)" x2="0" y2="-150" style="fill: none; stroke: #ddd; stroke-width: 1; opacity: 1;"></line><line transform="translate(523,0)" x2="0" y2="-150" style="fill: none; stroke: #ddd; stroke-width: 1; opacity: 1;"></line><line transform="translate(554,0)" x2="0" y2="-150" style="fill: none; stroke: #ddd; stroke-width: 1; opacity: 1;"></line><line transform="translate(585,0)" x2="0" y2="-150" style="fill: none; stroke: #ddd; stroke-width: 1; opacity: 1;"></line><line transform="translate(615,0)" x2="0" y2="-150" style="fill: none; stroke: #ddd; stroke-width: 1; opacity: 1;"></line><line transform="translate(646,0)" x2="0" y2="-150" style="fill: none; stroke: #ddd; stroke-width: 1; opacity: 1;"></line><line transform="translate(677,0)" x2="0" y2="-150" style="fill: none; stroke: #ddd; stroke-width: 1; opacity: 1;"></line><line transform="translate(708,0)" x2="0" y2="-150" style="fill: none; stroke: #ddd; stroke-width: 1; opacity: 1;"></line><line transform="translate(738,0)" x2="0" y2="-150" style="fill: none; stroke: #ddd; stroke-width: 1; opacity: 1;"></line><line transform="translate(769,0)" x2="0" y2="-150" style="fill: none; stroke: #ddd; stroke-width: 1; opacity: 1;"></line><line transform="translate(800,0)" x2="0" y2="-150" style="fill: none; stroke: #ddd; stroke-width: 1; opacity: 1;"></line></g></g></g></g><g class="mark-rect role-mark layer_0_marks"><path d="M0,5h707.4646153846154v40h-707.4646153846154Z" style="fill: red;"></path><path d="M0,55h279.5876923076923v40h-279.5876923076923Z" style="fill: red;"></path><path d="M0,105h777.5138461538462v40h-777.5138461538462Z" style="fill: red;"></path></g><g class="mark-text role-mark layer_1_marks"><text text-anchor="start" transform="translate(637.4646153846154,30)" style="font-family: sans-serif; font-size: 16px; fill: white;">114,963</text><text text-anchor="start" transform="translate(209.5876923076923,80)" style="font-family: sans-serif; font-size: 16px; fill: white;">45,433</text><text text-anchor="start" transform="translate(707.5138461538462,130)" style="font-family: sans-serif; font-size: 16px; fill: white;">126,346</text></g><g class="mark-group role-axis"><g transform="translate(0.5,150.5)"><path class="background" d="M0,0h0v0h0Z" style="pointer-events: none; fill: none;"></path><g><g class="mark-rule role-axis-tick" style="pointer-events: none;"><line transform="translate(0,0)" x2="0" y2="5" style="fill: none; stroke: #888; stroke-width: 1; opacity: 1;"></line><line transform="translate(31,0)" x2="0" y2="5" style="fill: none; stroke: #888; stroke-width: 1; opacity: 1;"></line><line transform="translate(62,0)" x2="0" y2="5" style="fill: none; stroke: #888; stroke-width: 1; opacity: 1;"></line><line transform="translate(92,0)" x2="0" y2="5" style="fill: none; stroke: #888; stroke-width: 1; opacity: 1;"></line><line transform="translate(123,0)" x2="0" y2="5" style="fill: none; stroke: #888; stroke-width: 1; opacity: 1;"></line><line transform="translate(154,0)" x2="0" y2="5" style="fill: none; stroke: #888; stroke-width: 1; opacity: 1;"></line><line transform="translate(185,0)" x2="0" y2="5" style="fill: none; stroke: #888; stroke-width: 1; opacity: 1;"></line><line transform="translate(215,0)" x2="0" y2="5" style="fill: none; stroke: #888; stroke-width: 1; opacity: 1;"></line><line transform="translate(246,0)" x2="0" y2="5" style="fill: none; stroke: #888; stroke-width: 1; opacity: 1;"></line><line transform="translate(277,0)" x2="0" y2="5" style="fill: none; stroke: #888; stroke-width: 1; opacity: 1;"></line><line transform="translate(308,0)" x2="0" y2="5" style="fill: none; stroke: #888; stroke-width: 1; opacity: 1;"></line><line transform="translate(338,0)" x2="0" y2="5" style="fill: none; stroke: #888; stroke-width: 1; opacity: 1;"></line><line transform="translate(369,0)" x2="0" y2="5" style="fill: none; stroke: #888; stroke-width: 1; opacity: 1;"></line><line transform="translate(400,0)" x2="0" y2="5" style="fill: none; stroke: #888; stroke-width: 1; opacity: 1;"></line><line transform="translate(431,0)" x2="0" y2="5" style="fill: none; stroke: #888; stroke-width: 1; opacity: 1;"></line><line transform="translate(462,0)" x2="0" y2="5" style="fill: none; stroke: #888; stroke-width: 1; opacity: 1;"></line><line transform="translate(492,0)" x2="0" y2="5" style="fill: none; stroke: #888; stroke-width: 1; opacity: 1;"></line><line transform="translate(523,0)" x2="0" y2="5" style="fill: none; stroke: #888; stroke-width: 1; opacity: 1;"></line><line transform="translate(554,0)" x2="0" y2="5" style="fill: none; stroke: #888; stroke-width: 1; opacity: 1;"></line><line transform="translate(585,0)" x2="0" y2="5" style="fill: none; stroke: #888; stroke-width: 1; opacity: 1;"></line><line transform="translate(615,0)" x2="0" y2="5" style="fill: none; stroke: #888; stroke-width: 1; opacity: 1;"></line><line transform="translate(646,0)" x2="0" y2="5" style="fill: none; stroke: #888; stroke-width: 1; opacity: 1;"></line><line transform="translate(677,0)" x2="0" y2="5" style="fill: none; stroke: #888; stroke-width: 1; opacity: 1;"></line><line transform="translate(708,0)" x2="0" y2="5" style="fill: none; stroke: #888; stroke-width: 1; opacity: 1;"></line><line transform="translate(738,0)" x2="0" y2="5" style="fill: none; stroke: #888; stroke-width: 1; opacity: 1;"></line><line transform="translate(769,0)" x2="0" y2="5" style="fill: none; stroke: #888; stroke-width: 1; opacity: 1;"></line><line transform="translate(800,0)" x2="0" y2="5" style="fill: none; stroke: #888; stroke-width: 1; opacity: 1;"></line></g><g class="mark-text role-axis-label" style="pointer-events: none;"><text text-anchor="start" transform="translate(0,20)" style="font-family: sans-serif; font-size: 16px; fill: #000; opacity: 1;">0</text><text text-anchor="middle" transform="translate(30.76923076923077,20)" style="font-family: sans-serif; font-size: 16px; fill: #000; opacity: 0;">5,000</text><text text-anchor="middle" transform="translate(61.53846153846154,20)" style="font-family: sans-serif; font-size: 16px; fill: #000; opacity: 0;">10,000</text><text text-anchor="middle" transform="translate(92.3076923076923,20)" style="font-family: sans-serif; font-size: 16px; fill: #000; opacity: 0;">15,000</text><text text-anchor="middle" transform="translate(123.07692307692308,20)" style="font-family: sans-serif; font-size: 16px; fill: #000; opacity: 1;">20,000</text><text text-anchor="middle" transform="translate(153.84615384615387,20)" style="font-family: sans-serif; font-size: 16px; fill: #000; opacity: 0;">25,000</text><text text-anchor="middle" transform="translate(184.6153846153846,20)" style="font-family: sans-serif; font-size: 16px; fill: #000; opacity: 0;">30,000</text><text text-anchor="middle" transform="translate(215.3846153846154,20)" style="font-family: sans-serif; font-size: 16px; fill: #000; opacity: 0;">35,000</text><text text-anchor="middle" transform="translate(246.15384615384616,20)" style="font-family: sans-serif; font-size: 16px; fill: #000; opacity: 1;">40,000</text><text text-anchor="middle" transform="translate(276.9230769230769,20)" style="font-family: sans-serif; font-size: 16px; fill: #000; opacity: 0;">45,000</text><text text-anchor="middle" transform="translate(307.69230769230774,20)" style="font-family: sans-serif; font-size: 16px; fill: #000; opacity: 0;">50,000</text><text text-anchor="middle" transform="translate(338.46153846153845,20)" style="font-family: sans-serif; font-size: 16px; fill: #000; opacity: 0;">55,000</text><text text-anchor="middle" transform="translate(369.2307692307692,20)" style="font-family: sans-serif; font-size: 16px; fill: #000; opacity: 1;">60,000</text><text text-anchor="middle" transform="translate(400,20)" style="font-family: sans-serif; font-size: 16px; fill: #000; opacity: 0;">65,000</text><text text-anchor="middle" transform="translate(430.7692307692308,20)" style="font-family: sans-serif; font-size: 16px; fill: #000; opacity: 0;">70,000</text><text text-anchor="middle" transform="translate(461.5384615384615,20)" style="font-family: sans-serif; font-size: 16px; fill: #000; opacity: 0;">75,000</text><text text-anchor="middle" transform="translate(492.3076923076923,20)" style="font-family: sans-serif; font-size: 16px; fill: #000; opacity: 1;">80,000</text><text text-anchor="middle" transform="translate(523.0769230769231,20)" style="font-family: sans-serif; font-size: 16px; fill: #000; opacity: 0;">85,000</text><text text-anchor="middle" transform="translate(553.8461538461538,20)" style="font-family: sans-serif; font-size: 16px; fill: #000; opacity: 0;">90,000</text><text text-anchor="middle" transform="translate(584.6153846153845,20)" style="font-family: sans-serif; font-size: 16px; fill: #000; opacity: 0;">95,000</text><text text-anchor="middle" transform="translate(615.3846153846155,20)" style="font-family: sans-serif; font-size: 16px; fill: #000; opacity: 1;">100,000</text><text text-anchor="middle" transform="translate(646.1538461538462,20)" style="font-family: sans-serif; font-size: 16px; fill: #000; opacity: 0;">105,000</text><text text-anchor="middle" transform="translate(676.9230769230769,20)" style="font-family: sans-serif; font-size: 16px; fill: #000; opacity: 0;">110,000</text><text text-anchor="middle" transform="translate(707.6923076923076,20)" style="font-family: sans-serif; font-size: 16px; fill: #000; opacity: 0;">115,000</text><text text-anchor="middle" transform="translate(738.4615384615385,20)" style="font-family: sans-serif; font-size: 16px; fill: #000; opacity: 1;">120,000</text><text text-anchor="middle" transform="translate(769.2307692307693,20)" style="font-family: sans-serif; font-size: 16px; fill: #000; opacity: 0;">125,000</text><text text-anchor="end" transform="translate(800,20)" style="font-family: sans-serif; font-size: 16px; fill: #000; opacity: 0;">130,000</text></g><g class="mark-rule role-axis-domain" style="pointer-events: none;"><line transform="translate(0,0)" x2="800" y2="0" style="fill: none; stroke: #888; stroke-width: 1; opacity: 1;"></line></g></g></g></g><g class="mark-group role-axis"><g transform="translate(0.5,0.5)"><path class="background" d="M0,0h0v0h0Z" style="pointer-events: none; fill: none;"></path><g><g class="mark-rule role-axis-tick" style="pointer-events: none;"><line transform="translate(0,24)" x2="-5" y2="0" style="fill: none; stroke: #888; stroke-width: 1; opacity: 1;"></line><line transform="translate(0,74)" x2="-5" y2="0" style="fill: none; stroke: #888; stroke-width: 1; opacity: 1;"></line><line transform="translate(0,124)" x2="-5" y2="0" style="fill: none; stroke: #888; stroke-width: 1; opacity: 1;"></line></g><g class="mark-text role-axis-label" style="pointer-events: none;"><text text-anchor="end" transform="translate(-7,29)" style="font-family: sans-serif; font-size: 16px; fill: #000; opacity: 1;">O 版</text><text text-anchor="end" transform="translate(-7,79)" style="font-family: sans-serif; font-size: 16px; fill: #000; opacity: 1;">新版条目</text><text text-anchor="end" transform="translate(-7,129)" style="font-family: sans-serif; font-size: 16px; fill: #000; opacity: 1;">新版索引</text></g><g class="mark-rule role-axis-domain" style="pointer-events: none;"><line transform="translate(0,0)" x2="0" y2="150" style="fill: none; stroke: #888; stroke-width: 1; opacity: 1;"></line></g></g></g></g></g></g></g></g></svg>