<svg height="600" viewBox="0 0 1000 600" width="1000" xmlns="http://www.w3.org/2000/svg" xmlns:xlink="http://www.w3.org/1999/xlink"><mask id="a" fill="#fff"><path d="m0 0h1000v600h-1000z" fill="#fff" fill-rule="evenodd"/></mask><mask id="b" fill="#fff"><path d="m0 0h1000v600h-1000z" fill="#fff" fill-rule="evenodd"/></mask><mask id="c" fill="#fff"><path d="m0 0h1000v600h-1000z" fill="#fff" fill-rule="evenodd"/></mask><mask id="d" fill="#fff"><path d="m0 0h1000v600h-1000z" fill="#fff" fill-rule="evenodd"/></mask><mask id="e" fill="#fff"><path d="m0 0h1000v600h-1000z" fill="#fff" fill-rule="evenodd"/></mask><mask id="f" fill="#fff"><path d="m0 0h1000v600h-1000z" fill="#fff" fill-rule="evenodd"/></mask><mask id="g" fill="#fff"><path d="m0 0h1000v600h-1000z" fill="#fff" fill-rule="evenodd"/></mask><mask id="h" fill="#fff"><path d="m0 0h1000v600h-1000z" fill="#fff" fill-rule="evenodd"/></mask><mask id="i" fill="#fff"><path d="m0 0h1000v600h-1000z" fill="#fff" fill-rule="evenodd"/></mask><mask id="j" fill="#fff"><path d="m0 0h1000v600h-1000z" fill="#fff" fill-rule="evenodd"/></mask><mask id="k" fill="#fff"><path d="m0 0h1000v600h-1000z" fill="#fff" fill-rule="evenodd"/></mask><mask id="l" fill="#fff"><path d="m0 0h1000v600h-1000z" fill="#fff" fill-rule="evenodd"/></mask><mask id="m" fill="#fff"><path d="m0 0h1000v600h-1000z" fill="#fff" fill-rule="evenodd"/></mask><mask id="n" fill="#fff"><path d="m0 0h1000v600h-1000z" fill="#fff" fill-rule="evenodd"/></mask><mask id="o" fill="#fff"><path d="m0 0h1000v600h-1000z" fill="#fff" fill-rule="evenodd"/></mask><mask id="p" fill="#fff"><path d="m0 0h1000v600h-1000z" fill="#fff" fill-rule="evenodd"/></mask><mask id="q" fill="#fff"><path d="m0 0h1000v600h-1000z" fill="#fff" fill-rule="evenodd"/></mask><mask id="r" fill="#fff"><path d="m0 0h1000v600h-1000z" fill="#fff" fill-rule="evenodd"/></mask><mask id="s" fill="#fff"><path d="m0 0h1000v600h-1000z" fill="#fff" fill-rule="evenodd"/></mask><mask id="t" fill="#fff"><path d="m0 0h1000v600h-1000z" fill="#fff" fill-rule="evenodd"/></mask><mask id="u" fill="#fff"><path d="m0 0h1000v600h-1000z" fill="#fff" fill-rule="evenodd"/></mask><mask id="v" fill="#fff"><path d="m0 0h1000v600h-1000z" fill="#fff" fill-rule="evenodd"/></mask><mask id="w" fill="#fff"><path d="m0 0h1000v600h-1000z" fill="#fff" fill-rule="evenodd"/></mask><mask id="x" fill="#fff"><path d="m0 0h1000v600h-1000z" fill="#fff" fill-rule="evenodd"/></mask><mask id="y" fill="#fff"><path d="m0 0h1000v600h-1000z" fill="#fff" fill-rule="evenodd"/></mask><mask id="z" fill="#fff"><path d="m0 0h1000v600h-1000z" fill="#fff" fill-rule="evenodd"/></mask><mask id="A" fill="#fff"><path d="m0 0h1000v600h-1000z" fill="#fff" fill-rule="evenodd"/></mask><mask id="B" fill="#fff"><path d="m0 0h1000v600h-1000z" fill="#fff" fill-rule="evenodd"/></mask><mask id="C" fill="#fff"><path d="m0 0h1000v600h-1000z" fill="#fff" fill-rule="evenodd"/></mask><mask id="D" fill="#fff"><path d="m0 0h1000v600h-1000z" fill="#fff" fill-rule="evenodd"/></mask><mask id="E" fill="#fff"><path d="m0 0h1000v600h-1000z" fill="#fff" fill-rule="evenodd"/></mask><mask id="F" fill="#fff"><path d="m0 0h1000v600h-1000z" fill="#fff" fill-rule="evenodd"/></mask><mask id="G" fill="#fff"><path d="m0 0h1000v600h-1000z" fill="#fff" fill-rule="evenodd"/></mask><mask id="H" fill="#fff"><path d="m0 0h1000v600h-1000z" fill="#fff" fill-rule="evenodd"/></mask><mask id="I" fill="#fff"><path d="m0 0h1000v600h-1000z" fill="#fff" fill-rule="evenodd"/></mask><mask id="J" fill="#fff"><path d="m0 0h1000v600h-1000z" fill="#fff" fill-rule="evenodd"/></mask><mask id="K" fill="#fff"><path d="m0 0h1000v600h-1000z" fill="#fff" fill-rule="evenodd"/></mask><mask id="L" fill="#fff"><path d="m0 0h1000v600h-1000z" fill="#fff" fill-rule="evenodd"/></mask><mask id="M" fill="#fff"><path d="m0 0h1000v600h-1000z" fill="#fff" fill-rule="evenodd"/></mask><mask id="N" fill="#fff"><path d="m0 0h1000v600h-1000z" fill="#fff" fill-rule="evenodd"/></mask><mask id="O" fill="#fff"><path d="m0 0h1000v600h-1000z" fill="#fff" fill-rule="evenodd"/></mask><mask id="P" fill="#fff"><path d="m0 0h1000v600h-1000z" fill="#fff" fill-rule="evenodd"/></mask><mask id="Q" fill="#fff"><path d="m0 0h1000v600h-1000z" fill="#fff" fill-rule="evenodd"/></mask><mask id="R" fill="#fff"><path d="m0 0h1000v600h-1000z" fill="#fff" fill-rule="evenodd"/></mask><mask id="S" fill="#fff"><path d="m0 0h1000v600h-1000z" fill="#fff" fill-rule="evenodd"/></mask><mask id="T" fill="#fff"><path d="m0 0h1000v600h-1000z" fill="#fff" fill-rule="evenodd"/></mask><mask id="U" fill="#fff"><path d="m0 0h1000v600h-1000z" fill="#fff" fill-rule="evenodd"/></mask><mask id="V" fill="#fff"><path d="m0 0h1000v600h-1000z" fill="#fff" fill-rule="evenodd"/></mask><mask id="W" fill="#fff"><path d="m0 0h1000v600h-1000z" fill="#fff" fill-rule="evenodd"/></mask><mask id="X" fill="#fff"><path d="m0 0h1000v600h-1000z" fill="#fff" fill-rule="evenodd"/></mask><mask id="Y" fill="#fff"><path d="m0 0h1000v600h-1000z" fill="#fff" fill-rule="evenodd"/></mask><mask id="Z" fill="#fff"><path d="m0 0h1000v600h-1000z" fill="#fff" fill-rule="evenodd"/></mask><mask id="aa" fill="#fff"><path d="m0 0h1000v600h-1000z" fill="#fff" fill-rule="evenodd"/></mask><mask id="ab" fill="#fff"><path d="m0 0h1000v600h-1000z" fill="#fff" fill-rule="evenodd"/></mask><mask id="ac" fill="#fff"><path d="m0 0h1000v600h-1000z" fill="#fff" fill-rule="evenodd"/></mask><mask id="ad" fill="#fff"><path d="m0 0h1000v600h-1000z" fill="#fff" fill-rule="evenodd"/></mask><mask id="ae" fill="#fff"><path d="m0 0h1000v600h-1000z" fill="#fff" fill-rule="evenodd"/></mask><mask id="af" fill="#fff"><path d="m0 0h1000v600h-1000z" fill="#fff" fill-rule="evenodd"/></mask><mask id="ag" fill="#fff"><path d="m0 0h1000v600h-1000z" fill="#fff" fill-rule="evenodd"/></mask><mask id="ah" fill="#fff"><path d="m0 0h1000v600h-1000z" fill="#fff" fill-rule="evenodd"/></mask><mask id="ai" fill="#fff"><path d="m0 0h1000v600h-1000z" fill="#fff" fill-rule="evenodd"/></mask><mask id="aj" fill="#fff"><path d="m0 0h1000v600h-1000z" fill="#fff" fill-rule="evenodd"/></mask><mask id="ak" fill="#fff"><path d="m0 0h1000v600h-1000z" fill="#fff" fill-rule="evenodd"/></mask><mask id="al" fill="#fff"><path d="m0 0h1000v600h-1000z" fill="#fff" fill-rule="evenodd"/></mask><mask id="am" fill="#fff"><path d="m0 0h1000v600h-1000z" fill="#fff" fill-rule="evenodd"/></mask><mask id="an" fill="#fff"><path d="m0 0h1000v600h-1000z" fill="#fff" fill-rule="evenodd"/></mask><mask id="ao" fill="#fff"><path d="m0 0h1000v600h-1000z" fill="#fff" fill-rule="evenodd"/></mask><mask id="ap" fill="#fff"><path d="m0 0h1000v600h-1000z" fill="#fff" fill-rule="evenodd"/></mask><mask id="aq" fill="#fff"><path d="m0 0h1000v600h-1000z" fill="#fff" fill-rule="evenodd"/></mask><mask id="ar" fill="#fff"><path d="m0 0h1000v600h-1000z" fill="#fff" fill-rule="evenodd"/></mask><mask id="as" fill="#fff"><path d="m0 0h1000v600h-1000z" fill="#fff" fill-rule="evenodd"/></mask><mask id="at" fill="#fff"><path d="m0 0h1000v600h-1000z" fill="#fff" fill-rule="evenodd"/></mask><mask id="au" fill="#fff"><path d="m0 0h1000v600h-1000z" fill="#fff" fill-rule="evenodd"/></mask><mask id="av" fill="#fff"><path d="m0 0h1000v600h-1000z" fill="#fff" fill-rule="evenodd"/></mask><mask id="aw" fill="#fff"><path d="m0 0h1000v600h-1000z" fill="#fff" fill-rule="evenodd"/></mask><mask id="ax" fill="#fff"><path d="m0 0h1000v600h-1000z" fill="#fff" fill-rule="evenodd"/></mask><mask id="ay" fill="#fff"><path d="m0 0h1000v600h-1000z" fill="#fff" fill-rule="evenodd"/></mask><mask id="az" fill="#fff"><path d="m0 0h1000v600h-1000z" fill="#fff" fill-rule="evenodd"/></mask><mask id="aA" fill="#fff"><path d="m0 0h1000v600h-1000z" fill="#fff" fill-rule="evenodd"/></mask><mask id="aB" fill="#fff"><path d="m0 0h1000v600h-1000z" fill="#fff" fill-rule="evenodd"/></mask><mask id="aC" fill="#fff"><path d="m0 0h1000v600h-1000z" fill="#fff" fill-rule="evenodd"/></mask><mask id="aD" fill="#fff"><path d="m0 0h1000v600h-1000z" fill="#fff" fill-rule="evenodd"/></mask><mask id="aE" fill="#fff"><path d="m0 0h1000v600h-1000z" fill="#fff" fill-rule="evenodd"/></mask><mask id="aF" fill="#fff"><path d="m0 0h1000v600h-1000z" fill="#fff" fill-rule="evenodd"/></mask><mask id="aG" fill="#fff"><path d="m0 0h1000v600h-1000z" fill="#fff" fill-rule="evenodd"/></mask><mask id="aH" fill="#fff"><path d="m0 0h1000v600h-1000z" fill="#fff" fill-rule="evenodd"/></mask><mask id="aI" fill="#fff"><path d="m0 0h1000v600h-1000z" fill="#fff" fill-rule="evenodd"/></mask><mask id="aJ" fill="#fff"><path d="m0 0h1000v600h-1000z" fill="#fff" fill-rule="evenodd"/></mask><mask id="aK" fill="#fff"><path d="m0 0h1000v600h-1000z" fill="#fff" fill-rule="evenodd"/></mask><mask id="aL" fill="#fff"><path d="m0 0h1000v600h-1000z" fill="#fff" fill-rule="evenodd"/></mask><mask id="aM" fill="#fff"><path d="m0 0h1000v600h-1000z" fill="#fff" fill-rule="evenodd"/></mask><mask id="aN" fill="#fff"><path d="m0 0h1000v600h-1000z" fill="#fff" fill-rule="evenodd"/></mask><mask id="aO" fill="#fff"><path d="m0 0h1000v600h-1000z" fill="#fff" fill-rule="evenodd"/></mask><mask id="aP" fill="#fff"><path d="m0 0h1000v600h-1000z" fill="#fff" fill-rule="evenodd"/></mask><mask id="aQ" fill="#fff"><path d="m0 0h1000v600h-1000z" fill="#fff" fill-rule="evenodd"/></mask><mask id="aR" fill="#fff"><path d="m0 0h1000v600h-1000z" fill="#fff" fill-rule="evenodd"/></mask><mask id="aS" fill="#fff"><path d="m0 0h1000v600h-1000z" fill="#fff" fill-rule="evenodd"/></mask><mask id="aT" fill="#fff"><path d="m0 0h1000v600h-1000z" fill="#fff" fill-rule="evenodd"/></mask><mask id="aU" fill="#fff"><path d="m0 0h1000v600h-1000z" fill="#fff" fill-rule="evenodd"/></mask><mask id="aV" fill="#fff"><path d="m0 0h1000v600h-1000z" fill="#fff" fill-rule="evenodd"/></mask><mask id="aW" fill="#fff"><path d="m0 0h1000v600h-1000z" fill="#fff" fill-rule="evenodd"/></mask><mask id="aX" fill="#fff"><path d="m0 0h1000v600h-1000z" fill="#fff" fill-rule="evenodd"/></mask><mask id="aY" fill="#fff"><path d="m0 0h1000v600h-1000z" fill="#fff" fill-rule="evenodd"/></mask><mask id="aZ" fill="#fff"><path d="m0 0h1000v600h-1000z" fill="#fff" fill-rule="evenodd"/></mask><mask id="a0" fill="#fff"><path d="m0 0h1000v600h-1000z" fill="#fff" fill-rule="evenodd"/></mask><mask id="a1" fill="#fff"><path d="m0 0h1000v600h-1000z" fill="#fff" fill-rule="evenodd"/></mask><mask id="a2" fill="#fff"><path d="m0 0h1000v600h-1000z" fill="#fff" fill-rule="evenodd"/></mask><mask id="a3" fill="#fff"><path d="m0 0h1000v600h-1000z" fill="#fff" fill-rule="evenodd"/></mask><mask id="a4" fill="#fff"><path d="m0 0h1000v600h-1000z" fill="#fff" fill-rule="evenodd"/></mask><mask id="a5" fill="#fff"><path d="m0 0h1000v600h-1000z" fill="#fff" fill-rule="evenodd"/></mask><mask id="a6" fill="#fff"><path d="m0 0h1000v600h-1000z" fill="#fff" fill-rule="evenodd"/></mask><mask id="a7" fill="#fff"><path d="m0 0h1000v600h-1000z" fill="#fff" fill-rule="evenodd"/></mask><mask id="a8" fill="#fff"><path d="m0 0h1000v600h-1000z" fill="#fff" fill-rule="evenodd"/></mask><mask id="a9" fill="#fff"><path d="m0 0h1000v600h-1000z" fill="#fff" fill-rule="evenodd"/></mask><mask id="ba" fill="#fff"><path d="m0 0h1000v600h-1000z" fill="#fff" fill-rule="evenodd"/></mask><mask id="bb" fill="#fff"><path d="m0 0h1000v600h-1000z" fill="#fff" fill-rule="evenodd"/></mask><mask id="bc" fill="#fff"><path d="m0 0h1000v600h-1000z" fill="#fff" fill-rule="evenodd"/></mask><mask id="bd" fill="#fff"><path d="m0 0h1000v600h-1000z" fill="#fff" fill-rule="evenodd"/></mask><mask id="be" fill="#fff"><path d="m0 0h1000v600h-1000z" fill="#fff" fill-rule="evenodd"/></mask><mask id="bf" fill="#fff"><path d="m0 0h1000v600h-1000z" fill="#fff" fill-rule="evenodd"/></mask><mask id="bg" fill="#fff"><path d="m0 0h1000v600h-1000z" fill="#fff" fill-rule="evenodd"/></mask><mask id="bh" fill="#fff"><path d="m0 0h1000v600h-1000z" fill="#fff" fill-rule="evenodd"/></mask><mask id="bi" fill="#fff"><path d="m0 0h1000v600h-1000z" fill="#fff" fill-rule="evenodd"/></mask><mask id="bj" fill="#fff"><path d="m0 0h1000v600h-1000z" fill="#fff" fill-rule="evenodd"/></mask><mask id="bk" fill="#fff"><path d="m0 0h1000v600h-1000z" fill="#fff" fill-rule="evenodd"/></mask><mask id="bl" fill="#fff"><path d="m0 0h1000v600h-1000z" fill="#fff" fill-rule="evenodd"/></mask><mask id="bm" fill="#fff"><path d="m0 0h1000v600h-1000z" fill="#fff" fill-rule="evenodd"/></mask><mask id="bn" fill="#fff"><path d="m0 0h1000v600h-1000z" fill="#fff" fill-rule="evenodd"/></mask><mask id="bo" fill="#fff"><path d="m0 0h1000v600h-1000z" fill="#fff" fill-rule="evenodd"/></mask><mask id="bp" fill="#fff"><path d="m0 0h1000v600h-1000z" fill="#fff" fill-rule="evenodd"/></mask><mask id="bq" fill="#fff"><path d="m0 0h1000v600h-1000z" fill="#fff" fill-rule="evenodd"/></mask><mask id="br" fill="#fff"><path d="m0 0h1000v600h-1000z" fill="#fff" fill-rule="evenodd"/></mask><mask id="bs" fill="#fff"><path d="m0 0h1000v600h-1000z" fill="#fff" fill-rule="evenodd"/></mask><mask id="bt" fill="#fff"><path d="m0 0h1000v600h-1000z" fill="#fff" fill-rule="evenodd"/></mask><mask id="bu" fill="#fff"><path d="m0 0h1000v600h-1000z" fill="#fff" fill-rule="evenodd"/></mask><mask id="bv" fill="#fff"><path d="m0 0h1000v600h-1000z" fill="#fff" fill-rule="evenodd"/></mask><mask id="bw" fill="#fff"><path d="m0 0h1000v600h-1000z" fill="#fff" fill-rule="evenodd"/></mask><mask id="bx" fill="#fff"><path d="m0 0h1000v600h-1000z" fill="#fff" fill-rule="evenodd"/></mask><mask id="by" fill="#fff"><path d="m0 0h1000v600h-1000z" fill="#fff" fill-rule="evenodd"/></mask><mask id="bz" fill="#fff"><path d="m0 0h1000v600h-1000z" fill="#fff" fill-rule="evenodd"/></mask><mask id="bA" fill="#fff"><path d="m0 0h1000v600h-1000z" fill="#fff" fill-rule="evenodd"/></mask><mask id="bB" fill="#fff"><path d="m0 0h1000v600h-1000z" fill="#fff" fill-rule="evenodd"/></mask><mask id="bC" fill="#fff"><path d="m0 0h1000v600h-1000z" fill="#fff" fill-rule="evenodd"/></mask><mask id="bD" fill="#fff"><path d="m0 0h1000v600h-1000z" fill="#fff" fill-rule="evenodd"/></mask><mask id="bE" fill="#fff"><path d="m0 0h1000v600h-1000z" fill="#fff" fill-rule="evenodd"/></mask><mask id="bF" fill="#fff"><path d="m0 0h1000v600h-1000z" fill="#fff" fill-rule="evenodd"/></mask><mask id="bG" fill="#fff"><path d="m0 0h1000v600h-1000z" fill="#fff" fill-rule="evenodd"/></mask><mask id="bH" fill="#fff"><path d="m0 0h1000v600h-1000z" fill="#fff" fill-rule="evenodd"/></mask><mask id="bI" fill="#fff"><path d="m0 0h1000v600h-1000z" fill="#fff" fill-rule="evenodd"/></mask><mask id="bJ" fill="#fff"><path d="m0 0h1000v600h-1000z" fill="#fff" fill-rule="evenodd"/></mask><mask id="bK" fill="#fff"><path d="m0 0h1000v600h-1000z" fill="#fff" fill-rule="evenodd"/></mask><mask id="bL" fill="#fff"><path d="m0 0h1000v600h-1000z" fill="#fff" fill-rule="evenodd"/></mask><mask id="bM" fill="#fff"><path d="m0 0h1000v600h-1000z" fill="#fff" fill-rule="evenodd"/></mask><mask id="bN" fill="#fff"><path d="m0 0h1000v600h-1000z" fill="#fff" fill-rule="evenodd"/></mask><mask id="bO" fill="#fff"><path d="m0 0h1000v600h-1000z" fill="#fff" fill-rule="evenodd"/></mask><mask id="bP" fill="#fff"><path d="m0 0h1000v600h-1000z" fill="#fff" fill-rule="evenodd"/></mask><mask id="bQ" fill="#fff"><path d="m0 0h1000v600h-1000z" fill="#fff" fill-rule="evenodd"/></mask><mask id="bR" fill="#fff"><path d="m0 0h1000v600h-1000z" fill="#fff" fill-rule="evenodd"/></mask><mask id="bS" fill="#fff"><path d="m0 0h1000v600h-1000z" fill="#fff" fill-rule="evenodd"/></mask><mask id="bT" fill="#fff"><path d="m0 0h1000v600h-1000z" fill="#fff" fill-rule="evenodd"/></mask><mask id="bU" fill="#fff"><path d="m0 0h1000v600h-1000z" fill="#fff" fill-rule="evenodd"/></mask><mask id="bV" fill="#fff"><path d="m0 0h1000v600h-1000z" fill="#fff" fill-rule="evenodd"/></mask><mask id="bW" fill="#fff"><path d="m0 0h1000v600h-1000z" fill="#fff" fill-rule="evenodd"/></mask><mask id="bX" fill="#fff"><path d="m0 0h1000v600h-1000z" fill="#fff" fill-rule="evenodd"/></mask><mask id="bY" fill="#fff"><path d="m0 0h1000v600h-1000z" fill="#fff" fill-rule="evenodd"/></mask><mask id="bZ" fill="#fff"><path d="m0 0h1000v600h-1000z" fill="#fff" fill-rule="evenodd"/></mask><mask id="b0" fill="#fff"><path d="m0 0h1000v600h-1000z" fill="#fff" fill-rule="evenodd"/></mask><mask id="b1" fill="#fff"><path d="m0 0h1000v600h-1000z" fill="#fff" fill-rule="evenodd"/></mask><mask id="b2" fill="#fff"><path d="m0 0h1000v600h-1000z" fill="#fff" fill-rule="evenodd"/></mask><mask id="b3" fill="#fff"><path d="m0 0h1000v600h-1000z" fill="#fff" fill-rule="evenodd"/></mask><mask id="b4" fill="#fff"><path d="m0 0h1000v600h-1000z" fill="#fff" fill-rule="evenodd"/></mask><mask id="b5" fill="#fff"><path d="m0 0h1000v600h-1000z" fill="#fff" fill-rule="evenodd"/></mask><mask id="b6" fill="#fff"><path d="m0 0h1000v600h-1000z" fill="#fff" fill-rule="evenodd"/></mask><mask id="b7" fill="#fff"><path d="m0 0h1000v600h-1000z" fill="#fff" fill-rule="evenodd"/></mask><mask id="b8" fill="#fff"><path d="m0 0h1000v600h-1000z" fill="#fff" fill-rule="evenodd"/></mask><mask id="b9" fill="#fff"><path d="m0 0h1000v600h-1000z" fill="#fff" fill-rule="evenodd"/></mask><mask id="ca" fill="#fff"><path d="m0 0h1000v600h-1000z" fill="#fff" fill-rule="evenodd"/></mask><mask id="cb" fill="#fff"><path d="m0 0h1000v600h-1000z" fill="#fff" fill-rule="evenodd"/></mask><mask id="cc" fill="#fff"><path d="m0 0h1000v600h-1000z" fill="#fff" fill-rule="evenodd"/></mask><mask id="cd" fill="#fff"><path d="m0 0h1000v600h-1000z" fill="#fff" fill-rule="evenodd"/></mask><mask id="ce" fill="#fff"><path d="m0 0h1000v600h-1000z" fill="#fff" fill-rule="evenodd"/></mask><mask id="cf" fill="#fff"><path d="m0 0h1000v600h-1000z" fill="#fff" fill-rule="evenodd"/></mask><mask id="cg" fill="#fff"><path d="m0 0h1000v600h-1000z" fill="#fff" fill-rule="evenodd"/></mask><mask id="ch" fill="#fff"><path d="m0 0h1000v600h-1000z" fill="#fff" fill-rule="evenodd"/></mask><mask id="ci" fill="#fff"><path d="m0 0h1000v600h-1000z" fill="#fff" fill-rule="evenodd"/></mask><mask id="cj" fill="#fff"><path d="m0 0h1000v600h-1000z" fill="#fff" fill-rule="evenodd"/></mask><mask id="ck" fill="#fff"><path d="m0 0h1000v600h-1000z" fill="#fff" fill-rule="evenodd"/></mask><mask id="cl" fill="#fff"><path d="m0 0h1000v600h-1000z" fill="#fff" fill-rule="evenodd"/></mask><mask id="cm" fill="#fff"><path d="m0 0h1000v600h-1000z" fill="#fff" fill-rule="evenodd"/></mask><mask id="cn" fill="#fff"><path d="m0 0h1000v600h-1000z" fill="#fff" fill-rule="evenodd"/></mask><mask id="co" fill="#fff"><path d="m0 0h1000v600h-1000z" fill="#fff" fill-rule="evenodd"/></mask><mask id="cp" fill="#fff"><path d="m0 0h1000v600h-1000z" fill="#fff" fill-rule="evenodd"/></mask><mask id="cq" fill="#fff"><path d="m0 0h1000v600h-1000z" fill="#fff" fill-rule="evenodd"/></mask><mask id="cr" fill="#fff"><path d="m0 0h1000v600h-1000z" fill="#fff" fill-rule="evenodd"/></mask><mask id="cs" fill="#fff"><path d="m0 0h1000v600h-1000z" fill="#fff" fill-rule="evenodd"/></mask><mask id="ct" fill="#fff"><path d="m0 0h1000v600h-1000z" fill="#fff" fill-rule="evenodd"/></mask><mask id="cu" fill="#fff"><path d="m0 0h1000v600h-1000z" fill="#fff" fill-rule="evenodd"/></mask><mask id="cv" fill="#fff"><path d="m0 0h1000v600h-1000z" fill="#fff" fill-rule="evenodd"/></mask><mask id="cw" fill="#fff"><path d="m0 0h1000v600h-1000z" fill="#fff" fill-rule="evenodd"/></mask><mask id="cx" fill="#fff"><path d="m0 0h1000v600h-1000z" fill="#fff" fill-rule="evenodd"/></mask><mask id="cy" fill="#fff"><path d="m0 0h1000v600h-1000z" fill="#fff" fill-rule="evenodd"/></mask><mask id="cz" fill="#fff"><path d="m0 0h1000v600h-1000z" fill="#fff" fill-rule="evenodd"/></mask><mask id="cA" fill="#fff"><path d="m0 0h1000v600h-1000z" fill="#fff" fill-rule="evenodd"/></mask><g fill="none" fill-rule="evenodd"><path d="m0 0h1000v600h-1000z"/><path d="m807.866974 566.78512-284.080343-291.411855" mask="url(#a)" opacity=".3" stroke="#000"/><path d="m0 0h1000v600h-1000z"/><path d="m688.241159 157.571625-164.454528 117.80164" mask="url(#b)" opacity=".3" stroke="#000"/><path d="m0 0h1000v600h-1000z"/><path d="m523.786631 275.373265-278.37342 109.535781" mask="url(#c)" opacity=".3" stroke="#000"/><path d="m0 0h1000v600h-1000z"/><path d="m642.564208 87.2140556-118.777577 188.1592094" mask="url(#d)" opacity=".3" stroke="#000"/><path d="m0 0h1000v600h-1000z"/><path d="m792.366159 214.66274-268.579528 60.710525" mask="url(#e)" opacity=".3" stroke="#000"/><path d="m0 0h1000v600h-1000z"/><path d="m893.104071 276.082492-369.31744-.709227" mask="url(#f)" opacity=".3" stroke="#000"/><path d="m0 0h1000v600h-1000z"/><path d="m523.786631 275.373265-136.857524 58.701515" mask="url(#g)" opacity=".3" stroke="#000"/><path d="m0 0h1000v600h-1000z"/><path d="m523.786631 275.373265-394.108074-117.14765" mask="url(#h)" opacity=".3" stroke="#000"/><path d="m0 0h1000v600h-1000z"/><path d="m523.786631 275.373265-204.338759-178.4601262" mask="url(#i)" opacity=".3" stroke="#000"/><path d="m0 0h1000v600h-1000z"/><path d="m523.786631 275.373265-344.651964 10.045268" mask="url(#j)" opacity=".3" stroke="#000"/><path d="m0 0h1000v600h-1000z"/><path d="m569.424478 427.590152-45.637847-152.216887" mask="url(#k)" opacity=".3" stroke="#000"/><path d="m0 0h1000v600h-1000z"/><path d="m523.786631 275.373265-138.024603-192.821797" mask="url(#l)" opacity=".3" stroke="#000"/><path d="m0 0h1000v600h-1000z"/><path d="m523.786631 275.373265-322.144491 96.855648" mask="url(#m)" opacity=".3" stroke="#000"/><path d="m0 0h1000v600h-1000z"/><path d="m886.554646 217.562046-362.768015 57.811219" mask="url(#n)" opacity=".3" stroke="#000"/><path d="m0 0h1000v600h-1000z"/><path d="m523.786631 275.373265-349.587343-107.774854" mask="url(#o)" opacity=".3" stroke="#000"/><path d="m0 0h1000v600h-1000z"/><path d="m523.786631 275.373265-427.0170344-57.975505" mask="url(#p)" opacity=".3" stroke="#000"/><path d="m0 0h1000v600h-1000z"/><path d="m523.786631 275.373265-1.143613 106.390539" mask="url(#q)" opacity=".3" stroke="#000"/><path d="m0 0h1000v600h-1000z"/><path d="m904.78552 244.030282-380.998889 31.342983" mask="url(#r)" opacity=".3" stroke="#000"/><path d="m0 0h1000v600h-1000z"/><path d="m523.786631 275.373265-372.932772-39.914631" mask="url(#s)" opacity=".3" stroke="#000"/><path d="m0 0h1000v600h-1000z"/><path d="m523.786631 275.373265-59.395091-183.0701231" mask="url(#t)" opacity=".3" stroke="#000"/><path d="m0 0h1000v600h-1000z"/><path d="m610.764076 109.921822-86.977445 165.451443" mask="url(#u)" opacity=".3" stroke="#000"/><path d="m0 0h1000v600h-1000z"/><path d="m853.131798 319.141575-329.345167-43.76831" mask="url(#v)" opacity=".3" stroke="#000"/><path d="m0 0h1000v600h-1000z"/><path d="m523.786631 275.373265-204.676649-214.4370796" mask="url(#w)" opacity=".3" stroke="#000"/><path d="m0 0h1000v600h-1000z"/><path d="m586.228567 387.557633-62.441936-112.184368" mask="url(#x)" opacity=".3" stroke="#000"/><path d="m0 0h1000v600h-1000z"/><path d="m523.786631 275.373265-172.762991-120.499087" mask="url(#y)" opacity=".3" stroke="#000"/><path d="m0 0h1000v600h-1000z"/><path d="m679.960821 120.154021-156.17419 155.219244" mask="url(#z)" opacity=".3" stroke="#000"/><path d="m0 0h1000v600h-1000z"/><path d="m523.786631 275.373265-242.157136-134.790668" mask="url(#A)" opacity=".3" stroke="#000"/><path d="m0 0h1000v600h-1000z"/><path d="m818.207272 353.199696-294.420641-77.826431" mask="url(#B)" opacity=".3" stroke="#000"/><path d="m0 0h1000v600h-1000z"/><path d="m523.786631 275.373265-140.810436 103.427479" mask="url(#C)" opacity=".3" stroke="#000"/><path d="m0 0h1000v600h-1000z"/><path d="m530.145047 176.941206-6.358416 98.432059" mask="url(#D)" opacity=".3" stroke="#000"/><path d="m0 0h1000v600h-1000z"/><path d="m523.786631 275.373265-353.634358-148.643837" mask="url(#E)" opacity=".3" stroke="#000"/><path d="m0 0h1000v600h-1000z"/><path d="m523.786631 275.373265-298.373222-79.129327" mask="url(#F)" opacity=".3" stroke="#000"/><path d="m0 0h1000v600h-1000z"/><path d="m523.786631 275.373265-379.153844 52.499834" mask="url(#G)" opacity=".3" stroke="#000"/><path d="m0 0h1000v600h-1000z"/><path d="m847.74124 193.64422-323.954609 81.729045" mask="url(#H)" opacity=".3" stroke="#000"/><path d="m0 0h1000v600h-1000z"/><path d="m523.786631 275.373265-232.658046-93.424503" mask="url(#I)" opacity=".3" stroke="#000"/><path d="m0 0h1000v600h-1000z"/><path d="m596.553452 158.46052-72.766821 116.912745" mask="url(#J)" opacity=".3" stroke="#000"/><path d="m0 0h1000v600h-1000z"/><path d="m849.494671 258.294316-325.70804 17.078949" mask="url(#K)" opacity=".3" stroke="#000"/><path d="m0 0h1000v600h-1000z"/><path d="m770.245442 324.095274-246.458811-48.722009" mask="url(#L)" opacity=".3" stroke="#000"/><path d="m0 0h1000v600h-1000z"/><path d="m523.786631 275.373265-162.986916-84.759118" mask="url(#M)" opacity=".3" stroke="#000"/><path d="m0 0h1000v600h-1000z"/><path d="m769.033735 285.543562-245.247104-10.170297" mask="url(#N)" opacity=".3" stroke="#000"/><path d="m0 0h1000v600h-1000z"/><path d="m523.786631 275.373265-257.562398-183.7772523" mask="url(#O)" opacity=".3" stroke="#000"/><path d="m0 0h1000v600h-1000z"/><path d="m523.786631 275.373265-48.060409-121.568722" mask="url(#P)" opacity=".3" stroke="#000"/><path d="m0 0h1000v600h-1000z"/><path d="m836.827012 293.129986-313.040381-17.756721" mask="url(#Q)" opacity=".3" stroke="#000"/><path d="m0 0h1000v600h-1000z"/><path d="m523.786631 275.373265-103.248468-211.107936" mask="url(#R)" opacity=".3" stroke="#000"/><path d="m0 0h1000v600h-1000z"/><path d="m863.302559 170.314265-339.515928 105.059" mask="url(#S)" opacity=".3" stroke="#000"/><path d="m0 0h1000v600h-1000z"/><path d="m631.443931 304.321573-107.6573-28.948308" mask="url(#T)" opacity=".3" stroke="#000"/><path d="m0 0h1000v600h-1000z"/><path d="m618.009426 133.841036-94.222795 141.532229" mask="url(#U)" opacity=".3" stroke="#000"/><path d="m0 0h1000v600h-1000z"/><path d="m523.786631 275.373265-187.885379-148.558611" mask="url(#V)" opacity=".3" stroke="#000"/><path d="m0 0h1000v600h-1000z"/><path d="m754.337168 101.24197-230.550537 174.131295" mask="url(#W)" opacity=".3" stroke="#000"/><path d="m0 0h1000v600h-1000z"/><path d="m523.786631 275.373265-62.075283 95.636166" mask="url(#X)" opacity=".3" stroke="#000"/><path d="m0 0h1000v600h-1000z"/><path d="m523.786631 275.373265-105.880328 127.03793" mask="url(#Y)" opacity=".3" stroke="#000"/><path d="m0 0h1000v600h-1000z"/><path d="m523.786631 275.373265-98.545191-52.529527" mask="url(#Z)" opacity=".3" stroke="#000"/><path d="m0 0h1000v600h-1000z"/><path d="m523.786631 275.373265-414.271269-23.223394" mask="url(#aa)" opacity=".3" stroke="#000"/><path d="m0 0h1000v600h-1000z"/><path d="m523.786631 275.373265-310.888395-32.931869" mask="url(#ab)" opacity=".3" stroke="#000"/><path d="m0 0h1000v600h-1000z"/><path d="m693.662346 281.953041-169.875715-6.579776" mask="url(#ac)" opacity=".3" stroke="#000"/><path d="m0 0h1000v600h-1000z"/><path d="m523.786631 275.373265-39.570993-204.6439181" mask="url(#ad)" opacity=".3" stroke="#000"/><path d="m0 0h1000v600h-1000z"/><path d="m534.198817 122.347058-10.412186 153.026207" mask="url(#ae)" opacity=".3" stroke="#000"/><path d="m0 0h1000v600h-1000z"/><path d="m667.656827 341.254277-143.870196-65.881012" mask="url(#af)" opacity=".3" stroke="#000"/><path d="m0 0h1000v600h-1000z"/><path d="m638.191727 402.402298-114.405096-127.029033" mask="url(#ag)" opacity=".3" stroke="#000"/><path d="m0 0h1000v600h-1000z"/><path d="m523.786631 275.373265-358.177807 74.347835" mask="url(#ah)" opacity=".3" stroke="#000"/><path d="m0 0h1000v600h-1000z"/><path d="m523.786631 275.373265-102.408372 27.300493" mask="url(#ai)" opacity=".3" stroke="#000"/><path d="m0 0h1000v600h-1000z"/><path d="m662.300082 214.479634-138.513451 60.893631" mask="url(#aj)" opacity=".3" stroke="#000"/><path d="m0 0h1000v600h-1000z"/><path d="m523.786631 275.373265-54.199994-157.40023" mask="url(#ak)" opacity=".3" stroke="#000"/><path d="m0 0h1000v600h-1000z"/><path d="m523.786631 275.373265-17.262468-222.7724208" mask="url(#al)" opacity=".3" stroke="#000"/><path d="m0 0h1000v600h-1000z"/><path d="m756.843795 149.186465-233.057164 126.1868" mask="url(#am)" opacity=".3" stroke="#000"/><path d="m0 0h1000v600h-1000z"/><path d="m523.786631 275.373265-178.048747-32.312749" mask="url(#an)" opacity=".3" stroke="#000"/><path d="m0 0h1000v600h-1000z"/><path d="m748.401774 355.007063-224.615143-79.633798" mask="url(#ao)" opacity=".3" stroke="#000"/><path d="m0 0h1000v600h-1000z"/><path d="m523.786631 275.373265-349.93663-65.126028" mask="url(#ap)" opacity=".3" stroke="#000"/><path d="m0 0h1000v600h-1000z"/><path d="m523.786631 275.373265-150.8027 146.391416" mask="url(#aq)" opacity=".3" stroke="#000"/><path d="m0 0h1000v600h-1000z"/><path d="m523.786631 275.373265-306.625897-140.240179" mask="url(#ar)" opacity=".3" stroke="#000"/><path d="m0 0h1000v600h-1000z"/><path d="m523.786631 275.373265-113.3248-139.795286" mask="url(#as)" opacity=".3" stroke="#000"/><path d="m0 0h1000v600h-1000z"/><path d="m523.786631 275.373265-42.380313 140.060154" mask="url(#at)" opacity=".3" stroke="#000"/><path d="m0 0h1000v600h-1000z"/><path d="m729.069322 249.987943-205.282691 25.385322" mask="url(#au)" opacity=".3" stroke="#000"/><path d="m0 0h1000v600h-1000z"/><path d="m523.786631 275.373265-285.012765-163.677439" mask="url(#av)" opacity=".3" stroke="#000"/><path d="m0 0h1000v600h-1000z"/><path d="m736.736088 385.168584-212.949457-109.795319" mask="url(#aw)" opacity=".3" stroke="#000"/><path d="m0 0h1000v600h-1000z"/><path d="m523.786631 275.373265-141.61105-171.756919" mask="url(#ax)" opacity=".3" stroke="#000"/><path d="m0 0h1000v600h-1000z"/><path d="m523.786631 275.373265-402.779878-84.903694" mask="url(#ay)" opacity=".3" stroke="#000"/><path d="m0 0h1000v600h-1000z"/><path d="m523.786631 275.373265-277.25719 1.090038" mask="url(#az)" opacity=".3" stroke="#000"/><path d="m0 0h1000v600h-1000z"/><path d="m523.786631 275.373265-229.819189 118.665779" mask="url(#aA)" opacity=".3" stroke="#000"/><path d="m0 0h1000v600h-1000z"/><path d="m606.923517 190.57988-83.136886 84.793385" mask="url(#aB)" opacity=".3" stroke="#000"/><path d="m0 0h1000v600h-1000z"/><path d="m789.260111 176.814853-265.47348 98.558412" mask="url(#aC)" opacity=".3" stroke="#000"/><path d="m0 0h1000v600h-1000z"/><path d="m523.786631 275.373265-231.64773 39.706934" mask="url(#aD)" opacity=".3" stroke="#000"/><path d="m0 0h1000v600h-1000z"/><path d="m523.786631 275.373265-201.568612 95.77204" mask="url(#aE)" opacity=".3" stroke="#000"/><path d="m0 0h1000v600h-1000z"/><path d="m523.786631 275.373265-326.433664 30.070517" mask="url(#aF)" opacity=".3" stroke="#000"/><path d="m0 0h1000v600h-1000z"/><path d="m672.197665 377.990422-148.411034-102.617157" mask="url(#aG)" opacity=".3" stroke="#000"/><path d="m0 0h1000v600h-1000z"/><path d="m523.786631 275.373265-246.340528-49.386687" mask="url(#aH)" opacity=".3" stroke="#000"/><path d="m0 0h1000v600h-1000z"/><path d="m523.786631 275.373265-203.122732 1.888817" mask="url(#aI)" opacity=".3" stroke="#000"/><path d="m0 0h1000v600h-1000z"/><path d="m748.479819 122.180048-224.693188 153.193217" mask="url(#aJ)" opacity=".3" stroke="#000"/><path d="m0 0h1000v600h-1000z"/><path d="m543.210231 337.771492-19.4236-62.398227" mask="url(#aK)" opacity=".3" stroke="#000"/><path d="m0 0h1000v600h-1000z"/><path d="m696.269254 93.5102797-172.482623 181.8629853" mask="url(#aL)" opacity=".3" stroke="#000"/><path d="m0 0h1000v600h-1000z"/><path d="m523.786631 275.373265-416.156291-2.361144" mask="url(#aM)" opacity=".3" stroke="#000"/><path d="m0 0h1000v600h-1000z"/><path d="m724.319243 191.452902-200.532612 83.920363" mask="url(#aN)" opacity=".3" stroke="#000"/><path d="m0 0h1000v600h-1000z"/><path d="m523.786631 275.373265-223.385666 68.114371" mask="url(#aO)" opacity=".3" stroke="#000"/><path d="m0 0h1000v600h-1000z"/><path d="m523.786631 275.373265-413.123391 23.008578" mask="url(#aP)" opacity=".3" stroke="#000"/><path d="m0 0h1000v600h-1000z"/><path d="m802.914186 244.694881-279.127555 30.678384" mask="url(#aQ)" opacity=".3" stroke="#000"/><path d="m0 0h1000v600h-1000z"/><path d="m523.786631 275.373265-292.582337 66.214464" mask="url(#aR)" opacity=".3" stroke="#000"/><path d="m0 0h1000v600h-1000z"/><path d="m821.105958 143.241731-297.319327 132.131534" mask="url(#aS)" opacity=".3" stroke="#000"/><path d="m0 0h1000v600h-1000z"/><path d="m558.145696 94.3643159-34.359065 181.0089491" mask="url(#aT)" opacity=".3" stroke="#000"/><path d="m0 0h1000v600h-1000z"/><path d="m523.786631 275.373265-289.070413-111.110084" mask="url(#aU)" opacity=".3" stroke="#000"/><path d="m0 0h1000v600h-1000z"/><path d="m523.786631 275.373265-68.690999-85.022006" mask="url(#aV)" opacity=".3" stroke="#000"/><path d="m0 0h1000v600h-1000z"/><path d="m576.147275 65.304387-52.360644 210.068878" mask="url(#aW)" opacity=".3" stroke="#000"/><path d="m0 0h1000v600h-1000z"/><path d="m807.866974 566.78512-28.408034-29.141186" mask="url(#aX)" opacity=".5" stroke="#000" stroke-width="2"/><path d="m0 0h1000v600h-1000z"/><path d="m540.232084 263.593101-16.445453 11.780164" mask="url(#aY)" opacity=".5" stroke="#000" stroke-width="2"/><path d="m0 0h1000v600h-1000z"/><path d="m523.786631 275.373265-27.837342 10.953578" mask="url(#aZ)" opacity=".5" stroke="#000" stroke-width="2"/><path d="m0 0h1000v600h-1000z"/><path d="m535.664388 256.557344-11.877757 18.815921" mask="url(#a0)" opacity=".5" stroke="#000" stroke-width="2"/><path d="m0 0h1000v600h-1000z"/><path d="m550.644584 269.302212-26.857953 6.071053" mask="url(#a1)" opacity=".5" stroke="#000" stroke-width="2"/><path d="m0 0h1000v600h-1000z"/><path d="m560.718375 275.444187-36.931744-.070922" mask="url(#a2)" opacity=".5" stroke="#000" stroke-width="2"/><path d="m0 0h1000v600h-1000z"/><path d="m523.786631 275.373265-13.685753 5.870151" mask="url(#a3)" opacity=".5" stroke="#000" stroke-width="2"/><path d="m0 0h1000v600h-1000z"/><path d="m523.786631 275.373265-39.410808-11.714765" mask="url(#a4)" opacity=".5" stroke="#000" stroke-width="2"/><path d="m0 0h1000v600h-1000z"/><path d="m523.786631 275.373265-20.433876-17.846013" mask="url(#a5)" opacity=".5" stroke="#000" stroke-width="2"/><path d="m0 0h1000v600h-1000z"/><path d="m523.786631 275.373265-34.465197 1.004526" mask="url(#a6)" opacity=".5" stroke="#000" stroke-width="2"/><path d="m0 0h1000v600h-1000z"/><path d="m528.350415 290.594953-4.563784-15.221688" mask="url(#a7)" opacity=".5" stroke="#000" stroke-width="2"/><path d="m0 0h1000v600h-1000z"/><path d="m523.786631 275.373265-13.802461-19.28218" mask="url(#a8)" opacity=".5" stroke="#000" stroke-width="2"/><path d="m0 0h1000v600h-1000z"/><path d="m523.786631 275.373265-32.214449 9.685564" mask="url(#a9)" opacity=".5" stroke="#000" stroke-width="2"/><path d="m0 0h1000v600h-1000z"/><path d="m560.063432 269.592143-36.276801 5.781122" mask="url(#ba)" opacity=".5" stroke="#000" stroke-width="2"/><path d="m0 0h1000v600h-1000z"/><path d="m523.786631 275.373265-34.958735-10.777486" mask="url(#bb)" opacity=".5" stroke="#000" stroke-width="2"/><path d="m0 0h1000v600h-1000z"/><path d="m523.786631 275.373265-42.701704-5.797551" mask="url(#bc)" opacity=".5" stroke="#000" stroke-width="2"/><path d="m0 0h1000v600h-1000z"/><path d="m523.786631 275.373265-.114362 10.639054" mask="url(#bd)" opacity=".5" stroke="#000" stroke-width="2"/><path d="m0 0h1000v600h-1000z"/><path d="m561.88652 272.238966-38.099889 3.134299" mask="url(#be)" opacity=".5" stroke="#000" stroke-width="2"/><path d="m0 0h1000v600h-1000z"/><path d="m523.786631 275.373265-37.293278-3.991463" mask="url(#bf)" opacity=".5" stroke="#000" stroke-width="2"/><path d="m0 0h1000v600h-1000z"/><path d="m523.786631 275.373265-5.939509-18.307013" mask="url(#bg)" opacity=".5" stroke="#000" stroke-width="2"/><path d="m0 0h1000v600h-1000z"/><path d="m532.484375 258.82812-8.697744 16.545145" mask="url(#bh)" opacity=".5" stroke="#000" stroke-width="2"/><path d="m0 0h1000v600h-1000z"/><path d="m556.721147 279.750096-32.934516-4.376831" mask="url(#bi)" opacity=".5" stroke="#000" stroke-width="2"/><path d="m0 0h1000v600h-1000z"/><path d="m523.786631 275.373265-20.467665-21.443708" mask="url(#bj)" opacity=".5" stroke="#000" stroke-width="2"/><path d="m0 0h1000v600h-1000z"/><path d="m530.030824 286.591702-6.244193-11.218437" mask="url(#bk)" opacity=".5" stroke="#000" stroke-width="2"/><path d="m0 0h1000v600h-1000z"/><path d="m523.786631 275.373265-17.276299-12.049909" mask="url(#bl)" opacity=".5" stroke="#000" stroke-width="2"/><path d="m0 0h1000v600h-1000z"/><path d="m539.40405 259.85134-15.617419 15.521925" mask="url(#bm)" opacity=".5" stroke="#000" stroke-width="2"/><path d="m0 0h1000v600h-1000z"/><path d="m523.786631 275.373265-24.215714-13.479067" mask="url(#bn)" opacity=".5" stroke="#000" stroke-width="2"/><path d="m0 0h1000v600h-1000z"/><path d="m553.228695 283.155908-29.442064-7.782643" mask="url(#bo)" opacity=".5" stroke="#000" stroke-width="2"/><path d="m0 0h1000v600h-1000z"/><path d="m523.786631 275.373265-14.081044 10.342748" mask="url(#bp)" opacity=".5" stroke="#000" stroke-width="2"/><path d="m0 0h1000v600h-1000z"/><path d="m524.422472 265.530059-.635841 9.843206" mask="url(#bq)" opacity=".5" stroke="#000" stroke-width="2"/><path d="m0 0h1000v600h-1000z"/><path d="m523.786631 275.373265-35.363436-14.864384" mask="url(#br)" opacity=".5" stroke="#000" stroke-width="2"/><path d="m0 0h1000v600h-1000z"/><path d="m523.786631 275.373265-29.837322-7.912933" mask="url(#bs)" opacity=".5" stroke="#000" stroke-width="2"/><path d="m0 0h1000v600h-1000z"/><path d="m523.786631 275.373265-37.915385 5.249983" mask="url(#bt)" opacity=".5" stroke="#000" stroke-width="2"/><path d="m0 0h1000v600h-1000z"/><path d="m556.182092 267.20036-32.395461 8.172905" mask="url(#bu)" opacity=".5" stroke="#000" stroke-width="2"/><path d="m0 0h1000v600h-1000z"/><path d="m523.786631 275.373265-23.265805-9.342451" mask="url(#bv)" opacity=".5" stroke="#000" stroke-width="2"/><path d="m0 0h1000v600h-1000z"/><path d="m531.063313 263.68199-7.276682 11.691275" mask="url(#bw)" opacity=".5" stroke="#000" stroke-width="2"/><path d="m0 0h1000v600h-1000z"/><path d="m556.357435 273.66537-32.570804 1.707895" mask="url(#bx)" opacity=".5" stroke="#000" stroke-width="2"/><path d="m0 0h1000v600h-1000z"/><path d="m548.432512 280.245466-24.645881-4.872201" mask="url(#by)" opacity=".5" stroke="#000" stroke-width="2"/><path d="m0 0h1000v600h-1000z"/><path d="m523.786631 275.373265-16.298692-8.475912" mask="url(#bz)" opacity=".5" stroke="#000" stroke-width="2"/><path d="m0 0h1000v600h-1000z"/><path d="m548.311341 276.390294-24.52471-1.017029" mask="url(#bA)" opacity=".5" stroke="#000" stroke-width="2"/><path d="m0 0h1000v600h-1000z"/><path d="m523.786631 275.373265-25.75624-18.377726" mask="url(#bB)" opacity=".5" stroke="#000" stroke-width="2"/><path d="m0 0h1000v600h-1000z"/><path d="m523.786631 275.373265-4.806041-12.156873" mask="url(#bC)" opacity=".5" stroke="#000" stroke-width="2"/><path d="m0 0h1000v600h-1000z"/><path d="m555.090669 277.148937-31.304038-1.775672" mask="url(#bD)" opacity=".5" stroke="#000" stroke-width="2"/><path d="m0 0h1000v600h-1000z"/><path d="m523.786631 275.373265-10.324847-21.110794" mask="url(#bE)" opacity=".5" stroke="#000" stroke-width="2"/><path d="m0 0h1000v600h-1000z"/><path d="m557.738223 264.867365-33.951592 10.5059" mask="url(#bF)" opacity=".5" stroke="#000" stroke-width="2"/><path d="m0 0h1000v600h-1000z"/><path d="m534.552361 278.268095-10.76573-2.89483" mask="url(#bG)" opacity=".5" stroke="#000" stroke-width="2"/><path d="m0 0h1000v600h-1000z"/><path d="m533.20891 261.220042-9.422279 14.153223" mask="url(#bH)" opacity=".5" stroke="#000" stroke-width="2"/><path d="m0 0h1000v600h-1000z"/><path d="m523.786631 275.373265-18.788538-14.855861" mask="url(#bI)" opacity=".5" stroke="#000" stroke-width="2"/><path d="m0 0h1000v600h-1000z"/><path d="m546.841684 257.960135-23.055053 17.41313" mask="url(#bJ)" opacity=".5" stroke="#000" stroke-width="2"/><path d="m0 0h1000v600h-1000z"/><path d="m523.786631 275.373265-6.207529 9.563616" mask="url(#bK)" opacity=".5" stroke="#000" stroke-width="2"/><path d="m0 0h1000v600h-1000z"/><path d="m523.786631 275.373265-10.588033 12.703793" mask="url(#bL)" opacity=".5" stroke="#000" stroke-width="2"/><path d="m0 0h1000v600h-1000z"/><path d="m523.786631 275.373265-9.854519-5.252953" mask="url(#bM)" opacity=".5" stroke="#000" stroke-width="2"/><path d="m0 0h1000v600h-1000z"/><path d="m523.786631 275.373265-41.427127-2.32234" mask="url(#bN)" opacity=".5" stroke="#000" stroke-width="2"/><path d="m0 0h1000v600h-1000z"/><path d="m523.786631 275.373265-31.08884-3.293187" mask="url(#bO)" opacity=".5" stroke="#000" stroke-width="2"/><path d="m0 0h1000v600h-1000z"/><path d="m540.774202 276.031242-16.987571-.657977" mask="url(#bP)" opacity=".5" stroke="#000" stroke-width="2"/><path d="m0 0h1000v600h-1000z"/><path d="m523.786631 275.373265-3.9571-20.464392" mask="url(#bQ)" opacity=".5" stroke="#000" stroke-width="2"/><path d="m0 0h1000v600h-1000z"/><path d="m524.827849 260.070644-1.041218 15.302621" mask="url(#bR)" opacity=".5" stroke="#000" stroke-width="2"/><path d="m0 0h1000v600h-1000z"/><path d="m538.17365 281.961366-14.387019-6.588101" mask="url(#bS)" opacity=".5" stroke="#000" stroke-width="2"/><path d="m0 0h1000v600h-1000z"/><path d="m535.22714 288.076168-11.440509-12.702903" mask="url(#bT)" opacity=".5" stroke="#000" stroke-width="2"/><path d="m0 0h1000v600h-1000z"/><path d="m523.786631 275.373265-35.817781 7.434783" mask="url(#bU)" opacity=".5" stroke="#000" stroke-width="2"/><path d="m0 0h1000v600h-1000z"/><path d="m523.786631 275.373265-10.240837 2.730049" mask="url(#bV)" opacity=".5" stroke="#000" stroke-width="2"/><path d="m0 0h1000v600h-1000z"/><path d="m537.637976 269.283902-13.851345 6.089363" mask="url(#bW)" opacity=".5" stroke="#000" stroke-width="2"/><path d="m0 0h1000v600h-1000z"/><path d="m523.786631 275.373265-5.42-15.740023" mask="url(#bX)" opacity=".5" stroke="#000" stroke-width="2"/><path d="m0 0h1000v600h-1000z"/><path d="m523.786631 275.373265-1.726247-22.277242" mask="url(#bY)" opacity=".5" stroke="#000" stroke-width="2"/><path d="m0 0h1000v600h-1000z"/><path d="m547.092347 262.754585-23.305716 12.61868" mask="url(#bZ)" opacity=".5" stroke="#000" stroke-width="2"/><path d="m0 0h1000v600h-1000z"/><path d="m523.786631 275.373265-17.804875-3.231275" mask="url(#b0)" opacity=".5" stroke="#000" stroke-width="2"/><path d="m0 0h1000v600h-1000z"/><path d="m546.248145 283.336645-22.461514-7.96338" mask="url(#b1)" opacity=".5" stroke="#000" stroke-width="2"/><path d="m0 0h1000v600h-1000z"/><path d="m523.786631 275.373265-34.993663-6.512603" mask="url(#b2)" opacity=".5" stroke="#000" stroke-width="2"/><path d="m0 0h1000v600h-1000z"/><path d="m523.786631 275.373265-15.08027 14.639141" mask="url(#b3)" opacity=".5" stroke="#000" stroke-width="2"/><path d="m0 0h1000v600h-1000z"/><path d="m523.786631 275.373265-30.66259-14.024018" mask="url(#b4)" opacity=".5" stroke="#000" stroke-width="2"/><path d="m0 0h1000v600h-1000z"/><path d="m523.786631 275.373265-11.33248-13.979529" mask="url(#b5)" opacity=".5" stroke="#000" stroke-width="2"/><path d="m0 0h1000v600h-1000z"/><path d="m523.786631 275.373265-4.238032 14.006015" mask="url(#b6)" opacity=".5" stroke="#000" stroke-width="2"/><path d="m0 0h1000v600h-1000z"/><path d="m544.3149 272.834732-20.528269 2.538533" mask="url(#b7)" opacity=".5" stroke="#000" stroke-width="2"/><path d="m0 0h1000v600h-1000z"/><path d="m523.786631 275.373265-28.501277-16.367744" mask="url(#b8)" opacity=".5" stroke="#000" stroke-width="2"/><path d="m0 0h1000v600h-1000z"/><path d="m545.081576 286.352797-21.294945-10.979532" mask="url(#b9)" opacity=".5" stroke="#000" stroke-width="2"/><path d="m0 0h1000v600h-1000z"/><path d="m523.786631 275.373265-14.161105-17.175692" mask="url(#ca)" opacity=".5" stroke="#000" stroke-width="2"/><path d="m0 0h1000v600h-1000z"/><path d="m523.786631 275.373265-40.277988-8.49037" mask="url(#cb)" opacity=".5" stroke="#000" stroke-width="2"/><path d="m0 0h1000v600h-1000z"/><path d="m523.786631 275.373265-27.725719.109003" mask="url(#cc)" opacity=".5" stroke="#000" stroke-width="2"/><path d="m0 0h1000v600h-1000z"/><path d="m523.786631 275.373265-22.981919 11.866578" mask="url(#cd)" opacity=".5" stroke="#000" stroke-width="2"/><path d="m0 0h1000v600h-1000z"/><path d="m532.100319 266.893926-8.313688 8.479339" mask="url(#ce)" opacity=".5" stroke="#000" stroke-width="2"/><path d="m0 0h1000v600h-1000z"/><path d="m550.333979 265.517424-26.547348 9.855841" mask="url(#cf)" opacity=".5" stroke="#000" stroke-width="2"/><path d="m0 0h1000v600h-1000z"/><path d="m523.786631 275.373265-23.164773 3.970693" mask="url(#cg)" opacity=".5" stroke="#000" stroke-width="2"/><path d="m0 0h1000v600h-1000z"/><path d="m523.786631 275.373265-20.156861 9.577204" mask="url(#ch)" opacity=".5" stroke="#000" stroke-width="2"/><path d="m0 0h1000v600h-1000z"/><path d="m523.786631 275.373265-32.643367 3.007051" mask="url(#ci)" opacity=".5" stroke="#000" stroke-width="2"/><path d="m0 0h1000v600h-1000z"/><path d="m538.627734 285.63498-14.841103-10.261715" mask="url(#cj)" opacity=".5" stroke="#000" stroke-width="2"/><path d="m0 0h1000v600h-1000z"/><path d="m523.786631 275.373265-24.634053-4.938669" mask="url(#ck)" opacity=".5" stroke="#000" stroke-width="2"/><path d="m0 0h1000v600h-1000z"/><path d="m523.786631 275.373265-20.312273.188881" mask="url(#cl)" opacity=".5" stroke="#000" stroke-width="2"/><path d="m0 0h1000v600h-1000z"/><path d="m546.25595 260.053943-22.469319 15.319322" mask="url(#cm)" opacity=".5" stroke="#000" stroke-width="2"/><path d="m0 0h1000v600h-1000z"/><path d="m525.728991 281.613087-1.94236-6.239822" mask="url(#cn)" opacity=".5" stroke="#000" stroke-width="2"/><path d="m0 0h1000v600h-1000z"/><path d="m541.034893 257.186966-17.248262 18.186299" mask="url(#co)" opacity=".5" stroke="#000" stroke-width="2"/><path d="m0 0h1000v600h-1000z"/><path d="m523.786631 275.373265-41.615629-.236115" mask="url(#cp)" opacity=".5" stroke="#000" stroke-width="2"/><path d="m0 0h1000v600h-1000z"/><path d="m543.839892 266.981228-20.053261 8.392037" mask="url(#cq)" opacity=".5" stroke="#000" stroke-width="2"/><path d="m0 0h1000v600h-1000z"/><path d="m523.786631 275.373265-22.338567 6.811437" mask="url(#cr)" opacity=".5" stroke="#000" stroke-width="2"/><path d="m0 0h1000v600h-1000z"/><path d="m523.786631 275.373265-41.312339 2.300857" mask="url(#cs)" opacity=".5" stroke="#000" stroke-width="2"/><path d="m0 0h1000v600h-1000z"/><path d="m551.699386 272.305426-27.912755 3.067839" mask="url(#ct)" opacity=".5" stroke="#000" stroke-width="2"/><path d="m0 0h1000v600h-1000z"/><path d="m523.786631 275.373265-29.258234 6.621446" mask="url(#cu)" opacity=".5" stroke="#000" stroke-width="2"/><path d="m0 0h1000v600h-1000z"/><path d="m553.518563 262.160111-29.731932 13.213154" mask="url(#cv)" opacity=".5" stroke="#000" stroke-width="2"/><path d="m0 0h1000v600h-1000z"/><path d="m527.222537 257.27237-3.435906 18.100895" mask="url(#cw)" opacity=".5" stroke="#000" stroke-width="2"/><path d="m0 0h1000v600h-1000z"/><path d="m523.786631 275.373265-28.907042-11.111009" mask="url(#cx)" opacity=".5" stroke="#000" stroke-width="2"/><path d="m0 0h1000v600h-1000z"/><path d="m523.786631 275.373265-6.8691-8.502201" mask="url(#cy)" opacity=".5" stroke="#000" stroke-width="2"/><path d="m0 0h1000v600h-1000z"/><path d="m529.022695 254.366377-5.236064 21.006888" mask="url(#cz)" opacity=".5" stroke="#000" stroke-width="2"/><g fill="#f00" fill-rule="nonzero" mask="url(#cA)"><g transform="translate(88 43)"><path d="m444.446885 232.373265c0 3.09401-1.650635 5.952994-4.330127 7.5-2.679492 1.547005-5.980762 1.547005-8.660254 0-2.679492-1.547006-4.330127-4.40599-4.330127-7.5 0-3.094011 1.650635-5.952995 4.330127-7.500001 2.679492-1.547005 5.980762-1.547005 8.660254 0 2.679492 1.547006 4.330127 4.40599 4.330127 7.500001"/><path d="m728.527228 523.78512c0 3.09401-1.650635 5.952994-4.330126 7.5-2.679492 1.547005-5.980763 1.547005-8.660255 0-2.679492-1.547006-4.330127-4.40599-4.330127-7.5 0-3.094011 1.650635-5.952995 4.330127-7.5 2.679492-1.547006 5.980763-1.547006 8.660255 0 2.679491 1.547005 4.330126 4.405989 4.330126 7.5"/><path d="m608.901413 114.571625c0 3.094011-1.650635 5.952995-4.330127 7.5-2.679492 1.547006-5.980762 1.547006-8.660254 0-2.679492-1.547005-4.330127-4.405989-4.330127-7.5s1.650635-5.952995 4.330127-7.5 5.980762-1.547005 8.660254 0 4.330127 4.405989 4.330127 7.5"/><path d="m166.073465 341.909046c0 3.09401-1.650635 5.952994-4.330127 7.5-2.679492 1.547005-5.980762 1.547005-8.660254 0-2.679492-1.547006-4.330127-4.40599-4.330127-7.5 0-3.094011 1.650635-5.952995 4.330127-7.500001 2.679492-1.547005 5.980762-1.547005 8.660254 0 2.679492 1.547006 4.330127 4.40599 4.330127 7.500001"/><path d="m563.224462 44.2140556c0 3.0940108-1.650635 5.9529947-4.330127 7.5000001s-5.980762 1.5470054-8.660254 0-4.330127-4.4059893-4.330127-7.5000001 1.650635-5.9529948 4.330127-7.5000002 5.980762-1.5470054 8.660254 0 4.330127 4.4059894 4.330127 7.5000002"/><path d="m713.026413 171.66274c0 3.094011-1.650635 5.952995-4.330127 7.5s-5.980762 1.547005-8.660254 0-4.330127-4.405989-4.330127-7.5 1.650635-5.952995 4.330127-7.5c2.679492-1.547006 5.980762-1.547006 8.660254 0 2.679492 1.547005 4.330127 4.405989 4.330127 7.5"/><path d="m813.764325 233.082492c0 3.094011-1.650635 5.952995-4.330127 7.5-2.679491 1.547005-5.980762 1.547005-8.660254 0s-4.330127-4.405989-4.330127-7.5 1.650635-5.952995 4.330127-7.5c2.679492-1.547006 5.980763-1.547006 8.660255 0 2.679491 1.547005 4.330126 4.405989 4.330126 7.5"/><path d="m307.589361 291.07478c0 3.094011-1.650635 5.952995-4.330127 7.5s-5.980762 1.547005-8.660254 0-4.330127-4.405989-4.330127-7.5 1.650635-5.952995 4.330127-7.5c2.679492-1.547006 5.980762-1.547006 8.660254 0 2.679492 1.547005 4.330127 4.405989 4.330127 7.5"/><path d="m50.3388115 115.225615c0 3.094011-1.6506351 5.952995-4.330127 7.500001-2.679492 1.547005-5.9807622 1.547005-8.6602541 0-2.679492-1.547006-4.330127-4.40599-4.330127-7.500001 0-3.09401 1.650635-5.952994 4.330127-7.5 2.6794919-1.547005 5.9807621-1.547005 8.6602541 0 2.6794919 1.547006 4.330127 4.40599 4.330127 7.5"/><path d="m240.108126 53.9131388c0 3.0940108-1.650635 5.9529947-4.330127 7.5000001s-5.980763 1.5470054-8.660254 0c-2.679492-1.5470054-4.330127-4.4059893-4.330127-7.5000001s1.650635-5.9529947 4.330126-7.5000001c2.679492-1.5470055 5.980763-1.5470055 8.660255 0 2.679492 1.5470054 4.330127 4.4059893 4.330127 7.5000001"/><path d="m99.7949213 242.418533c0 3.09401-1.650635 5.952994-4.3301269 7.5-2.679492 1.547005-5.9807622 1.547005-8.6602542 0-2.6794919-1.547006-4.3301269-4.40599-4.3301269-7.5 0-3.094011 1.650635-5.952995 4.3301269-7.500001 2.679492-1.547005 5.9807622-1.547005 8.6602542 0 2.6794919 1.547006 4.3301269 4.40599 4.3301269 7.500001"/><path d="m490.084732 384.590152c0 3.094011-1.650635 5.952995-4.330127 7.500001-2.679492 1.547005-5.980762 1.547005-8.660254 0-2.679492-1.547006-4.330127-4.40599-4.330127-7.500001 0-3.09401 1.650635-5.952994 4.330127-7.5 2.679492-1.547005 5.980762-1.547005 8.660254 0 2.679492 1.547006 4.330127 4.40599 4.330127 7.5"/><path d="m306.422282 39.551468c0 3.0940108-1.650635 5.9529947-4.330127 7.5000001s-5.980762 1.5470054-8.660254 0-4.330127-4.4059893-4.330127-7.5000001 1.650635-5.9529947 4.330127-7.5000001c2.679492-1.5470055 5.980762-1.5470055 8.660254 0 2.679492 1.5470054 4.330127 4.4059893 4.330127 7.5000001"/><path d="m122.302395 329.228913c0 3.09401-1.650636 5.952994-4.330127 7.5-2.679492 1.547005-5.980763 1.547005-8.660255 0-2.679492-1.547006-4.330127-4.40599-4.330127-7.5 0-3.094011 1.650635-5.952995 4.330127-7.5 2.679492-1.547006 5.980763-1.547006 8.660255 0 2.679491 1.547005 4.330127 4.405989 4.330127 7.5"/><path d="m807.2149 174.562046c0 3.094011-1.650635 5.952995-4.330127 7.5-2.679492 1.547006-5.980762 1.547006-8.660254 0-2.679492-1.547005-4.330127-4.405989-4.330127-7.5s1.650635-5.952994 4.330127-7.5c2.679492-1.547005 5.980762-1.547005 8.660254 0 2.679492 1.547006 4.330127 4.405989 4.330127 7.5"/><path d="m94.8595424 124.598411c0 3.09401-1.650635 5.952994-4.3301269 7.5-2.679492 1.547005-5.9807622 1.547005-8.6602541 0-2.679492-1.547006-4.330127-4.40599-4.330127-7.5 0-3.094011 1.650635-5.952995 4.3301269-7.500001 2.679492-1.547005 5.9807622-1.547005 8.6602542 0 2.6794919 1.547006 4.3301269 4.40599 4.3301269 7.500001"/><path d="m17.4298506 174.39776c0 3.094011-1.650635 5.952995-4.3301269 7.5-2.679492 1.547006-5.98076222 1.547006-8.66025416 0-2.67949195-1.547005-4.33012698-4.405989-4.33012698-7.5s1.65063501-5.952994 4.33012696-7.5c2.67949195-1.547005 5.98076218-1.547005 8.66025418 0 2.6794919 1.547006 4.3301269 4.405989 4.3301269 7.5"/><path d="m443.303272 338.763804c0 3.094011-1.650635 5.952995-4.330127 7.5-2.679492 1.547006-5.980762 1.547006-8.660254 0-2.679492-1.547005-4.330127-4.405989-4.330127-7.5 0-3.09401 1.650635-5.952994 4.330127-7.5 2.679492-1.547005 5.980762-1.547005 8.660254 0 2.679492 1.547006 4.330127 4.40599 4.330127 7.5"/><path d="m825.445775 201.030282c0 3.094011-1.650636 5.952995-4.330127 7.5-2.679492 1.547005-5.980763 1.547005-8.660255 0s-4.330127-4.405989-4.330127-7.5 1.650635-5.952995 4.330127-7.5c2.679492-1.547006 5.980763-1.547006 8.660255 0 2.679492 1.547005 4.330127 4.405989 4.330127 7.5"/><path d="m71.5141126 192.458634c0 3.094011-1.650635 5.952995-4.330127 7.5-2.6794919 1.547006-5.9807622 1.547006-8.6602541 0-2.6794919-1.547005-4.330127-4.405989-4.330127-7.5s1.650635-5.952995 4.330127-7.5c2.6794919-1.547006 5.9807622-1.547006 8.6602541 0 2.679492 1.547005 4.330127 4.405989 4.330127 7.5"/><path d="m385.051794 49.3031419c0 3.0940108-1.650635 5.9529947-4.330127 7.5000001s-5.980762 1.5470054-8.660254 0-4.330127-4.4059893-4.330127-7.5000001 1.650635-5.9529947 4.330127-7.5000002c2.679492-1.5470054 5.980762-1.5470054 8.660254 0 2.679492 1.5470055 4.330127 4.4059894 4.330127 7.5000002"/><path d="m531.42433 66.9218221c0 3.0940108-1.650635 5.9529947-4.330127 7.5000001-2.679492 1.5470055-5.980763 1.5470055-8.660254 0-2.679492-1.5470054-4.330127-4.4059893-4.330127-7.5000001s1.650635-5.9529947 4.330127-7.5000001c2.679491-1.5470054 5.980762-1.5470054 8.660254 0s4.330127 4.4059893 4.330127 7.5000001"/><path d="m773.792052 276.141575c0 3.094011-1.650635 5.952995-4.330127 7.5s-5.980762 1.547005-8.660254 0-4.330127-4.405989-4.330127-7.5 1.650635-5.952995 4.330127-7.5c2.679492-1.547006 5.980762-1.547006 8.660254 0 2.679492 1.547005 4.330127 4.405989 4.330127 7.5"/><path d="m239.770236 17.9361854c0 3.0940108-1.650635 5.9529947-4.330127 7.5000002-2.679492 1.5470054-5.980763 1.5470054-8.660254 0-2.679492-1.5470055-4.330127-4.4059894-4.330127-7.5000002s1.650635-5.9529947 4.330127-7.5000001c2.679491-1.54700543 5.980762-1.54700543 8.660254 0 2.679492 1.5470054 4.330127 4.4059893 4.330127 7.5000001"/><path d="m506.888821 344.557633c0 3.094011-1.650635 5.952995-4.330127 7.5-2.679492 1.547006-5.980763 1.547006-8.660254 0-2.679492-1.547005-4.330127-4.405989-4.330127-7.5s1.650635-5.952994 4.330127-7.5c2.679491-1.547005 5.980762-1.547005 8.660254 0 2.679492 1.547006 4.330127 4.405989 4.330127 7.5"/><path d="m271.683894 111.874178c0 3.09401-1.650635 5.952994-4.330127 7.5-2.679492 1.547005-5.980763 1.547005-8.660254 0-2.679492-1.547006-4.330127-4.40599-4.330127-7.5 0-3.094011 1.650635-5.952995 4.330127-7.5 2.679491-1.547006 5.980762-1.547006 8.660254 0 2.679492 1.547005 4.330127 4.405989 4.330127 7.5"/><path d="m600.621075 77.1540205c0 3.0940108-1.650635 5.9529947-4.330127 7.5000001s-5.980762 1.5470054-8.660254 0-4.330127-4.4059893-4.330127-7.5000001 1.650635-5.9529947 4.330127-7.5000001c2.679492-1.5470055 5.980762-1.5470055 8.660254 0 2.679492 1.5470054 4.330127 4.4059893 4.330127 7.5000001"/><path d="m202.289749 97.5825973c0 3.0940107-1.650635 5.9529947-4.330127 7.4999997-2.679492 1.547006-5.980762 1.547006-8.660254 0-2.679492-1.547005-4.330127-4.405989-4.330127-7.4999997 0-3.0940108 1.650635-5.9529948 4.330127-7.5000002s5.980763-1.5470054 8.660254 0c2.679492 1.5470054 4.330127 4.4059894 4.330127 7.5000002"/><path d="m738.867526 310.199696c0 3.094011-1.650635 5.952995-4.330127 7.5-2.679492 1.547006-5.980762 1.547006-8.660254 0-2.679492-1.547005-4.330127-4.405989-4.330127-7.5 0-3.09401 1.650635-5.952994 4.330127-7.5 2.679492-1.547005 5.980762-1.547005 8.660254 0 2.679492 1.547006 4.330127 4.40599 4.330127 7.5"/><path d="m303.636449 335.800744c0 3.094011-1.650635 5.952995-4.330127 7.5-2.679492 1.547006-5.980762 1.547006-8.660254 0-2.679492-1.547005-4.330127-4.405989-4.330127-7.5s1.650635-5.952995 4.330127-7.5 5.980762-1.547005 8.660254 0 4.330127 4.405989 4.330127 7.5"/><path d="m450.805301 133.941206c0 3.094011-1.650635 5.952995-4.330127 7.5s-5.980762 1.547005-8.660254 0-4.330127-4.405989-4.330127-7.5 1.650635-5.952995 4.330127-7.5c2.679492-1.547006 5.980762-1.547006 8.660254 0 2.679492 1.547005 4.330127 4.405989 4.330127 7.5"/><path d="m90.8125273 83.7294285c0 3.0940108-1.650635 5.9529947-4.3301269 7.5000001-2.679492 1.5470054-5.9807622 1.5470054-8.6602541 0-2.679492-1.5470054-4.330127-4.4059893-4.330127-7.5000001s1.650635-5.9529948 4.3301269-7.5000002c2.679492-1.5470054 5.9807622-1.5470054 8.6602542 0 2.6794919 1.5470054 4.3301269 4.4059894 4.3301269 7.5000002"/><path d="m146.073663 153.243938c0 3.094011-1.650635 5.952995-4.330127 7.5-2.679492 1.547006-5.980762 1.547006-8.660254 0-2.679492-1.547005-4.330127-4.405989-4.330127-7.5 0-3.09401 1.650635-5.952994 4.330127-7.5 2.679492-1.547005 5.980762-1.547005 8.660254 0 2.679492 1.547006 4.330127 4.40599 4.330127 7.5"/><path d="m65.2930415 284.873099c0 3.094011-1.650635 5.952995-4.330127 7.5-2.6794919 1.547005-5.9807621 1.547005-8.6602541 0-2.6794919-1.547005-4.330127-4.405989-4.330127-7.5s1.650635-5.952995 4.330127-7.5c2.6794919-1.547006 5.9807622-1.547006 8.6602541 0 2.679492 1.547005 4.330127 4.405989 4.330127 7.5"/><path d="m768.401494 150.64422c0 3.09401-1.650635 5.952994-4.330127 7.5-2.679492 1.547005-5.980762 1.547005-8.660254 0-2.679492-1.547006-4.330127-4.40599-4.330127-7.5 0-3.094011 1.650635-5.952995 4.330127-7.500001 2.679492-1.547005 5.980762-1.547005 8.660254 0 2.679492 1.547006 4.330127 4.40599 4.330127 7.500001"/><path d="m211.788839 138.948762c0 3.09401-1.650635 5.952994-4.330127 7.5-2.679492 1.547005-5.980762 1.547005-8.660254 0-2.679492-1.547006-4.330127-4.40599-4.330127-7.5 0-3.094011 1.650635-5.952995 4.330127-7.500001 2.679492-1.547005 5.980762-1.547005 8.660254 0 2.679492 1.547006 4.330127 4.40599 4.330127 7.500001"/><path d="m517.213706 115.46052c0 3.094011-1.650635 5.952995-4.330127 7.5s-5.980763 1.547005-8.660254 0c-2.679492-1.547005-4.330127-4.405989-4.330127-7.5s1.650635-5.952995 4.330127-7.5c2.679491-1.547006 5.980762-1.547006 8.660254 0 2.679492 1.547005 4.330127 4.405989 4.330127 7.5"/><path d="m770.154925 215.294316c0 3.094011-1.650635 5.952995-4.330127 7.5s-5.980762 1.547005-8.660254 0-4.330127-4.405989-4.330127-7.5 1.650635-5.952995 4.330127-7.5c2.679492-1.547006 5.980762-1.547006 8.660254 0 2.679492 1.547005 4.330127 4.405989 4.330127 7.5"/><path d="m690.905696 281.095274c0 3.094011-1.650635 5.952994-4.330127 7.5-2.679492 1.547005-5.980762 1.547005-8.660254 0-2.679492-1.547006-4.330127-4.405989-4.330127-7.5s1.650635-5.952995 4.330127-7.5c2.679492-1.547006 5.980762-1.547006 8.660254 0 2.679492 1.547005 4.330127 4.405989 4.330127 7.5"/><path d="m281.45997 147.614147c0 3.09401-1.650636 5.952994-4.330127 7.5-2.679492 1.547005-5.980763 1.547005-8.660255 0-2.679492-1.547006-4.330127-4.40599-4.330127-7.5 0-3.094011 1.650635-5.952995 4.330127-7.500001 2.679492-1.547005 5.980763-1.547005 8.660255 0 2.679492 1.547006 4.330127 4.40599 4.330127 7.500001"/><path d="m689.693989 242.543562c0 3.09401-1.650635 5.952994-4.330127 7.5-2.679492 1.547005-5.980762 1.547005-8.660254 0-2.679492-1.547006-4.330127-4.40599-4.330127-7.5 0-3.094011 1.650635-5.952995 4.330127-7.500001 2.679492-1.547005 5.980762-1.547005 8.660254 0 2.679492 1.547006 4.330127 4.40599 4.330127 7.500001"/><path d="m186.884487 48.5960127c0 3.0940108-1.650635 5.9529947-4.330127 7.5000001s-5.980762 1.5470054-8.660254 0-4.330127-4.4059893-4.330127-7.5000001 1.650635-5.9529947 4.330127-7.5000002c2.679492-1.5470054 5.980762-1.5470054 8.660254 0 2.679492 1.5470055 4.330127 4.4059894 4.330127 7.5000002"/><path d="m396.386476 110.804543c0 3.094011-1.650635 5.952995-4.330127 7.5s-5.980762 1.547005-8.660254 0-4.330127-4.405989-4.330127-7.5 1.650635-5.952995 4.330127-7.5c2.679492-1.547006 5.980762-1.547006 8.660254 0 2.679492 1.547005 4.330127 4.405989 4.330127 7.5"/><path d="m757.487266 250.129986c0 3.094011-1.650635 5.952995-4.330127 7.500001-2.679492 1.547005-5.980762 1.547005-8.660254 0-2.679492-1.547006-4.330127-4.40599-4.330127-7.500001 0-3.09401 1.650635-5.952994 4.330127-7.5 2.679492-1.547005 5.980762-1.547005 8.660254 0 2.679492 1.547006 4.330127 4.40599 4.330127 7.5"/><path d="m341.198417 21.265329c0 3.0940108-1.650635 5.9529947-4.330127 7.5000001s-5.980762 1.5470054-8.660254 0-4.330127-4.4059893-4.330127-7.5000001 1.650635-5.9529947 4.330127-7.5000002c2.679492-1.5470054 5.980762-1.5470054 8.660254 0 2.679492 1.5470055 4.330127 4.4059894 4.330127 7.5000002"/><path d="m783.962813 127.314265c0 3.094011-1.650635 5.952995-4.330127 7.500001-2.679492 1.547005-5.980763 1.547005-8.660255 0-2.679491-1.547006-4.330127-4.40599-4.330127-7.500001 0-3.09401 1.650636-5.952994 4.330127-7.5 2.679492-1.547005 5.980763-1.547005 8.660255 0 2.679492 1.547006 4.330127 4.40599 4.330127 7.5"/><path d="m552.104185 261.321573c0 3.094011-1.650635 5.952995-4.330127 7.5s-5.980763 1.547005-8.660254 0c-2.679492-1.547005-4.330127-4.405989-4.330127-7.5s1.650635-5.952995 4.330126-7.5c2.679492-1.547006 5.980763-1.547006 8.660255 0 2.679492 1.547005 4.330127 4.405989 4.330127 7.5"/><path d="m538.66968 90.8410358c0 3.0940108-1.650635 5.9529947-4.330127 7.5000001s-5.980762 1.5470054-8.660254 0-4.330127-4.4059893-4.330127-7.5000001 1.650635-5.9529947 4.330127-7.5000001c2.679492-1.5470055 5.980762-1.5470055 8.660254 0 2.679492 1.5470054 4.330127 4.4059893 4.330127 7.5000001"/><path d="m256.561506 83.8146545c0 3.0940108-1.650635 5.9529946-4.330127 7.5000001-2.679491 1.5470054-5.980762 1.5470054-8.660254 0-2.679492-1.5470055-4.330127-4.4059893-4.330127-7.5000001 0-3.0940109 1.650635-5.9529948 4.330127-7.5000002s5.980763-1.5470054 8.660255 0c2.679491 1.5470054 4.330126 4.4059893 4.330126 7.5000002"/><path d="m674.997422 58.2419702c0 3.0940108-1.650635 5.9529947-4.330127 7.5000001s-5.980762 1.5470054-8.660254 0-4.330127-4.4059893-4.330127-7.5000001 1.650635-5.9529947 4.330127-7.5000002c2.679492-1.5470054 5.980762-1.5470054 8.660254 0 2.679492 1.5470055 4.330127 4.4059894 4.330127 7.5000002"/><path d="m382.371603 328.009431c0 3.094011-1.650636 5.952995-4.330127 7.5-2.679492 1.547006-5.980763 1.547006-8.660255 0-2.679492-1.547005-4.330127-4.405989-4.330127-7.5 0-3.09401 1.650635-5.952994 4.330127-7.5 2.679492-1.547005 5.980763-1.547005 8.660255 0 2.679492 1.547006 4.330127 4.40599 4.330127 7.5"/><path d="m338.566557 359.411195c0 3.09401-1.650635 5.952994-4.330127 7.5-2.679492 1.547005-5.980763 1.547005-8.660254 0-2.679492-1.547006-4.330127-4.40599-4.330127-7.5 0-3.094011 1.650635-5.952995 4.330127-7.500001 2.679491-1.547005 5.980762-1.547005 8.660254 0 2.679492 1.547006 4.330127 4.40599 4.330127 7.500001"/><path d="m345.901694 179.843738c0 3.094011-1.650635 5.952995-4.330127 7.5-2.679491 1.547006-5.980762 1.547006-8.660254 0-2.679492-1.547005-4.330127-4.405989-4.330127-7.5s1.650635-5.952995 4.330127-7.5 5.980763-1.547005 8.660254 0c2.679492 1.547005 4.330127 4.405989 4.330127 7.5"/><path d="m30.1756163 209.149871c0 3.094011-1.650635 5.952995-4.330127 7.5-2.6794919 1.547006-5.9807621 1.547006-8.6602541 0-2.6794919-1.547005-4.330127-4.405989-4.330127-7.5s1.650635-5.952995 4.330127-7.5c2.6794919-1.547005 5.9807622-1.547005 8.6602541 0 2.679492 1.547005 4.330127 4.405989 4.330127 7.5"/><path d="m133.55849 199.441396c0 3.094011-1.650635 5.952995-4.330127 7.500001-2.679491 1.547005-5.980762 1.547005-8.660254 0-2.679492-1.547006-4.330127-4.40599-4.330127-7.500001 0-3.09401 1.650635-5.952994 4.330127-7.5 2.679492-1.547005 5.980763-1.547005 8.660254 0 2.679492 1.547006 4.330127 4.40599 4.330127 7.5"/><path d="m614.3226 238.953041c0 3.094011-1.650635 5.952994-4.330127 7.5-2.679491 1.547005-5.980762 1.547005-8.660254 0-2.679492-1.547006-4.330127-4.405989-4.330127-7.5s1.650635-5.952995 4.330127-7.5c2.679492-1.547006 5.980763-1.547006 8.660254 0 2.679492 1.547005 4.330127 4.405989 4.330127 7.5"/><path d="m404.875893 27.7293469c0 3.0940108-1.650636 5.9529947-4.330127 7.5000001-2.679492 1.5470055-5.980763 1.5470055-8.660255 0-2.679492-1.5470054-4.330127-4.4059893-4.330127-7.5000001s1.650635-5.9529947 4.330127-7.5000001 5.980763-1.5470054 8.660255 0 4.330127 4.4059893 4.330127 7.5000001"/><path d="m454.859071 79.3470581c0 3.0940108-1.650635 5.9529947-4.330127 7.5000001s-5.980762 1.5470054-8.660254 0-4.330127-4.4059893-4.330127-7.5000001 1.650635-5.9529947 4.330127-7.5000001c2.679492-1.5470055 5.980762-1.5470055 8.660254 0 2.679492 1.5470054 4.330127 4.4059893 4.330127 7.5000001"/><path d="m588.317081 298.254277c0 3.094011-1.650635 5.952994-4.330127 7.5-2.679492 1.547005-5.980762 1.547005-8.660254 0-2.679492-1.547006-4.330127-4.405989-4.330127-7.5s1.650635-5.952995 4.330127-7.5c2.679492-1.547006 5.980762-1.547006 8.660254 0 2.679492 1.547005 4.330127 4.405989 4.330127 7.5"/><path d="m558.851981 359.402298c0 3.094011-1.650635 5.952994-4.330127 7.5-2.679492 1.547005-5.980762 1.547005-8.660254 0-2.679492-1.547006-4.330127-4.405989-4.330127-7.5s1.650635-5.952995 4.330127-7.5c2.679492-1.547006 5.980762-1.547006 8.660254 0 2.679492 1.547005 4.330127 4.405989 4.330127 7.5"/><path d="m86.2690777 306.7211c0 3.094011-1.650635 5.952995-4.330127 7.5-2.6794919 1.547005-5.9807621 1.547005-8.6602541 0-2.6794919-1.547005-4.330127-4.405989-4.330127-7.5s1.6506351-5.952995 4.330127-7.5c2.679492-1.547006 5.9807622-1.547006 8.6602542 0 2.6794919 1.547005 4.3301269 4.405989 4.3301269 7.5"/><path d="m342.038513 259.673758c0 3.094011-1.650635 5.952994-4.330127 7.5-2.679492 1.547005-5.980762 1.547005-8.660254 0-2.679492-1.547006-4.330127-4.405989-4.330127-7.5s1.650635-5.952995 4.330127-7.5c2.679492-1.547006 5.980762-1.547006 8.660254 0 2.679492 1.547005 4.330127 4.405989 4.330127 7.5"/><path d="m582.960336 171.479634c0 3.094011-1.650635 5.952995-4.330127 7.5-2.679492 1.547006-5.980762 1.547006-8.660254 0-2.679492-1.547005-4.330127-4.405989-4.330127-7.5 0-3.09401 1.650635-5.952994 4.330127-7.5 2.679492-1.547005 5.980762-1.547005 8.660254 0 2.679492 1.547006 4.330127 4.40599 4.330127 7.5"/><path d="m390.246891 74.9730346c0 3.0940108-1.650635 5.9529947-4.330127 7.5000001-2.679492 1.5470055-5.980762 1.5470055-8.660254 0-2.679492-1.5470054-4.330127-4.4059893-4.330127-7.5000001s1.650635-5.9529947 4.330127-7.5000001 5.980762-1.5470054 8.660254 0 4.330127 4.4059893 4.330127 7.5000001"/><path d="m427.184417 9.60084417c0 3.09401083-1.650635 5.95299473-4.330127 7.50000013s-5.980762 1.5470054-8.660254 0-4.330127-4.4059893-4.330127-7.50000013c0-3.09401082 1.650635-5.95299473 4.330127-7.50000016 2.679492-1.54700542 5.980762-1.54700542 8.660254 0 2.679492 1.54700543 4.330127 4.40598934 4.330127 7.50000016"/><path d="m677.504049 106.186465c0 3.094011-1.650635 5.952995-4.330127 7.5-2.679492 1.547006-5.980763 1.547006-8.660254 0-2.679492-1.547005-4.330127-4.405989-4.330127-7.5s1.650635-5.952995 4.330127-7.5000001c2.679491-1.5470054 5.980762-1.5470054 8.660254 0 2.679492 1.5470051 4.330127 4.4059891 4.330127 7.5000001"/><path d="m266.398138 200.060516c0 3.094011-1.650635 5.952994-4.330127 7.5-2.679492 1.547005-5.980762 1.547005-8.660254 0-2.679492-1.547006-4.330127-4.405989-4.330127-7.5s1.650635-5.952995 4.330127-7.5c2.679492-1.547006 5.980762-1.547006 8.660254 0 2.679492 1.547005 4.330127 4.405989 4.330127 7.5"/><path d="m669.062028 312.007063c0 3.094011-1.650635 5.952995-4.330127 7.500001-2.679492 1.547005-5.980762 1.547005-8.660254 0-2.679492-1.547006-4.330127-4.40599-4.330127-7.500001 0-3.09401 1.650635-5.952994 4.330127-7.5 2.679492-1.547005 5.980762-1.547005 8.660254 0 2.679492 1.547006 4.330127 4.40599 4.330127 7.5"/><path d="m94.5102555 167.247237c0 3.094011-1.650635 5.952994-4.330127 7.5-2.6794919 1.547005-5.9807622 1.547005-8.6602541 0-2.6794919-1.547006-4.330127-4.405989-4.330127-7.5s1.650635-5.952995 4.330127-7.5c2.6794919-1.547006 5.9807622-1.547006 8.6602541 0 2.679492 1.547005 4.330127 4.405989 4.330127 7.5"/><path d="m293.644185 378.764681c0 3.094011-1.650635 5.952995-4.330127 7.5s-5.980762 1.547005-8.660254 0-4.330127-4.405989-4.330127-7.5 1.650635-5.952995 4.330127-7.5c2.679492-1.547006 5.980762-1.547006 8.660254 0 2.679492 1.547005 4.330127 4.405989 4.330127 7.5"/><path d="m137.820988 92.1330859c0 3.0940108-1.650635 5.9529947-4.330127 7.5000001-2.679492 1.547005-5.980762 1.547005-8.660254 0-2.679492-1.5470054-4.330127-4.4059893-4.330127-7.5000001s1.650635-5.9529947 4.330127-7.5000002c2.679492-1.5470054 5.980762-1.5470054 8.660254 0 2.679492 1.5470055 4.330127 4.4059894 4.330127 7.5000002"/><path d="m331.122085 92.5779793c0 3.0940108-1.650635 5.9529947-4.330127 7.4999997-2.679492 1.547006-5.980763 1.547006-8.660255 0-2.679491-1.547005-4.330127-4.4059889-4.330127-7.4999997s1.650635-5.9529947 4.330127-7.5000002c2.679492-1.5470054 5.980763-1.5470054 8.660255 0 2.679492 1.5470055 4.330127 4.4059894 4.330127 7.5000002"/><path d="m402.066572 372.433419c0 3.094011-1.650635 5.952995-4.330127 7.5-2.679492 1.547006-5.980762 1.547006-8.660254 0-2.679492-1.547005-4.330127-4.405989-4.330127-7.5s1.650635-5.952995 4.330127-7.5 5.980762-1.547005 8.660254 0 4.330127 4.405989 4.330127 7.5"/><path d="m649.729576 206.987943c0 3.09401-1.650635 5.952994-4.330127 7.5-2.679492 1.547005-5.980762 1.547005-8.660254 0-2.679492-1.547006-4.330127-4.40599-4.330127-7.5 0-3.094011 1.650635-5.952995 4.330127-7.5 2.679492-1.547006 5.980762-1.547006 8.660254 0 2.679492 1.547005 4.330127 4.405989 4.330127 7.5"/><path d="m159.43412 68.6958261c0 3.0940108-1.650635 5.9529947-4.330127 7.5000001s-5.980762 1.5470054-8.660254 0-4.330127-4.4059893-4.330127-7.5000001 1.650635-5.9529947 4.330127-7.5000002c2.679492-1.5470054 5.980762-1.5470054 8.660254 0 2.679492 1.5470055 4.330127 4.4059894 4.330127 7.5000002"/><path d="m657.396342 342.168584c0 3.094011-1.650635 5.952995-4.330127 7.500001-2.679492 1.547005-5.980762 1.547005-8.660254 0-2.679492-1.547006-4.330127-4.40599-4.330127-7.500001 0-3.09401 1.650635-5.952994 4.330127-7.5 2.679492-1.547005 5.980762-1.547005 8.660254 0 2.679492 1.547006 4.330127 4.40599 4.330127 7.5"/><path d="m302.835835 60.6163462c0 3.0940107-1.650635 5.9529946-4.330127 7.5000001-2.679492 1.5470054-5.980763 1.5470054-8.660255 0-2.679491-1.5470055-4.330127-4.4059894-4.330127-7.5000001 0-3.0940109 1.650636-5.9529948 4.330127-7.5000002 2.679492-1.5470054 5.980763-1.5470054 8.660255 0s4.330127 4.4059893 4.330127 7.5000002"/><path d="m41.6670073 147.469571c0 3.094011-1.650635 5.952995-4.3301269 7.5-2.679492 1.547006-5.9807622 1.547006-8.6602542 0-2.6794919-1.547005-4.3301269-4.405989-4.3301269-7.5s1.650635-5.952994 4.3301269-7.5c2.679492-1.547005 5.9807622-1.547005 8.6602542 0 2.6794919 1.547006 4.3301269 4.405989 4.3301269 7.5"/><path d="m167.189695 233.463303c0 3.094011-1.650635 5.952995-4.330127 7.5-2.679492 1.547006-5.980762 1.547006-8.660254 0-2.679492-1.547005-4.330127-4.405989-4.330127-7.5s1.650635-5.952995 4.330127-7.5 5.980762-1.547005 8.660254 0 4.330127 4.405989 4.330127 7.5"/><path d="m214.627696 351.039044c0 3.094011-1.650635 5.952995-4.330127 7.5-2.679492 1.547006-5.980762 1.547006-8.660254 0-2.679492-1.547005-4.330127-4.405989-4.330127-7.5s1.650635-5.952995 4.330127-7.5c2.679492-1.547006 5.980762-1.547006 8.660254 0 2.679492 1.547005 4.330127 4.405989 4.330127 7.5"/><path d="m527.583771 147.57988c0 3.094011-1.650635 5.952995-4.330127 7.5s-5.980762 1.547005-8.660254 0-4.330127-4.405989-4.330127-7.5 1.650635-5.952995 4.330127-7.5c2.679492-1.547006 5.980762-1.547006 8.660254 0 2.679492 1.547005 4.330127 4.405989 4.330127 7.5"/><path d="m709.920365 133.814853c0 3.094011-1.650635 5.952995-4.330127 7.500001-2.679492 1.547005-5.980762 1.547005-8.660254 0-2.679492-1.547006-4.330127-4.40599-4.330127-7.500001 0-3.09401 1.650635-5.952994 4.330127-7.5 2.679492-1.547005 5.980762-1.547005 8.660254 0 2.679492 1.547006 4.330127 4.40599 4.330127 7.5"/><path d="m212.799155 272.080199c0 3.094011-1.650635 5.952995-4.330127 7.500001-2.679492 1.547005-5.980762 1.547005-8.660254 0-2.679492-1.547006-4.330127-4.40599-4.330127-7.500001 0-3.09401 1.650635-5.952994 4.330127-7.5 2.679492-1.547005 5.980762-1.547005 8.660254 0 2.679492 1.547006 4.330127 4.40599 4.330127 7.5"/><path d="m242.878273 328.145305c0 3.094011-1.650635 5.952995-4.330127 7.5s-5.980762 1.547005-8.660254 0-4.330127-4.405989-4.330127-7.5 1.650635-5.952995 4.330127-7.5c2.679492-1.547006 5.980762-1.547006 8.660254 0 2.679492 1.547005 4.330127 4.405989 4.330127 7.5"/><path d="m118.013221 262.443782c0 3.094011-1.650635 5.952995-4.330127 7.5-2.679492 1.547006-5.980762 1.547006-8.660254 0-2.679492-1.547005-4.330127-4.405989-4.330127-7.5s1.650635-5.952995 4.330127-7.5 5.980762-1.547005 8.660254 0 4.330127 4.405989 4.330127 7.5"/><path d="m592.857919 334.990422c0 3.094011-1.650635 5.952995-4.330127 7.5s-5.980762 1.547005-8.660254 0-4.330127-4.405989-4.330127-7.5 1.650635-5.952995 4.330127-7.5c2.679492-1.547006 5.980762-1.547006 8.660254 0 2.679492 1.547005 4.330127 4.405989 4.330127 7.5"/><path d="m198.106357 182.986578c0 3.094011-1.650635 5.952995-4.330127 7.5-2.679492 1.547006-5.980762 1.547006-8.660254 0-2.679492-1.547005-4.330127-4.405989-4.330127-7.5s1.650635-5.952994 4.330127-7.5c2.679492-1.547005 5.980762-1.547005 8.660254 0 2.679492 1.547006 4.330127 4.405989 4.330127 7.5"/><path d="m241.324153 234.262082c0 3.094011-1.650635 5.952995-4.330127 7.5-2.679492 1.547006-5.980762 1.547006-8.660254 0-2.679492-1.547005-4.330127-4.405989-4.330127-7.5s1.650635-5.952995 4.330127-7.5c2.679492-1.547006 5.980762-1.547006 8.660254 0 2.679492 1.547005 4.330127 4.405989 4.330127 7.5"/><path d="m669.140073 79.1800478c0 3.0940108-1.650635 5.9529947-4.330127 7.5000001s-5.980762 1.5470054-8.660254 0-4.330127-4.4059893-4.330127-7.5000001 1.650635-5.9529947 4.330127-7.5000002c2.679492-1.5470054 5.980762-1.5470054 8.660254 0 2.679492 1.5470055 4.330127 4.4059894 4.330127 7.5000002"/><path d="m463.870485 294.771492c0 3.094011-1.650635 5.952995-4.330127 7.5-2.679492 1.547006-5.980762 1.547006-8.660254 0-2.679492-1.547005-4.330127-4.405989-4.330127-7.5s1.650635-5.952995 4.330127-7.5c2.679492-1.547006 5.980762-1.547006 8.660254 0 2.679492 1.547005 4.330127 4.405989 4.330127 7.5"/><path d="m616.929508 50.5102797c0 3.0940108-1.650635 5.9529947-4.330127 7.5000001s-5.980762 1.5470054-8.660254 0-4.330127-4.4059893-4.330127-7.5000001 1.650635-5.9529947 4.330127-7.5000001c2.679492-1.5470055 5.980762-1.5470055 8.660254 0 2.679492 1.5470054 4.330127 4.4059893 4.330127 7.5000001"/><path d="m28.2905943 230.012121c0 3.094011-1.6506351 5.952994-4.330127 7.5-2.679492 1.547005-5.9807622 1.547005-8.6602541 0-2.679492-1.547006-4.330127-4.405989-4.330127-7.5s1.650635-5.952995 4.3301269-7.5c2.679492-1.547006 5.9807622-1.547006 8.6602542 0 2.6794919 1.547005 4.330127 4.405989 4.330127 7.5"/><path d="m644.979497 148.452902c0 3.09401-1.650635 5.952994-4.330127 7.5-2.679492 1.547005-5.980762 1.547005-8.660254 0-2.679492-1.547006-4.330127-4.40599-4.330127-7.5 0-3.094011 1.650635-5.952995 4.330127-7.500001 2.679492-1.547005 5.980762-1.547005 8.660254 0 2.679492 1.547006 4.330127 4.40599 4.330127 7.500001"/><path d="m221.061219 300.487636c0 3.09401-1.650635 5.952994-4.330127 7.5-2.679492 1.547005-5.980762 1.547005-8.660254 0-2.679492-1.547006-4.330127-4.40599-4.330127-7.5 0-3.094011 1.650635-5.952995 4.330127-7.500001 2.679492-1.547005 5.980762-1.547005 8.660254 0 2.679492 1.547006 4.330127 4.40599 4.330127 7.500001"/><path d="m31.3234938 255.381843c0 3.094011-1.6506351 5.952995-4.330127 7.5-2.679492 1.547006-5.9807622 1.547006-8.6602541 0-2.679492-1.547005-4.330127-4.405989-4.330127-7.5s1.650635-5.952995 4.330127-7.5c2.6794919-1.547006 5.9807622-1.547006 8.6602541 0 2.679492 1.547005 4.330127 4.405989 4.330127 7.5"/><path d="m723.57444 201.694881c0 3.094011-1.650635 5.952995-4.330127 7.5-2.679492 1.547006-5.980762 1.547006-8.660254 0-2.679492-1.547005-4.330127-4.405989-4.330127-7.5s1.650635-5.952994 4.330127-7.5c2.679492-1.547005 5.980762-1.547005 8.660254 0 2.679492 1.547006 4.330127 4.405989 4.330127 7.5"/><path d="m151.864548 298.587729c0 3.094011-1.650635 5.952994-4.330127 7.5-2.679491 1.547005-5.980762 1.547005-8.660254 0-2.679492-1.547006-4.330127-4.405989-4.330127-7.5s1.650635-5.952995 4.330127-7.5c2.679492-1.547006 5.980763-1.547006 8.660254 0 2.679492 1.547005 4.330127 4.405989 4.330127 7.5"/><path d="m741.766212 100.241731c0 3.09401-1.650635 5.952994-4.330127 7.5-2.679492 1.547005-5.980762 1.547005-8.660254 0-2.679492-1.547006-4.330127-4.40599-4.330127-7.5 0-3.0940112 1.650635-5.9529951 4.330127-7.5000005 2.679492-1.5470055 5.980762-1.5470055 8.660254 0 2.679492 1.5470054 4.330127 4.4059893 4.330127 7.5000005"/><path d="m478.80595 51.3643159c0 3.0940108-1.650635 5.9529947-4.330127 7.5000001s-5.980762 1.5470054-8.660254 0-4.330127-4.4059893-4.330127-7.5000001 1.650635-5.9529947 4.330127-7.5000002c2.679492-1.5470054 5.980762-1.5470054 8.660254 0 2.679492 1.5470055 4.330127 4.4059894 4.330127 7.5000002"/><path d="m155.376472 121.263181c0 3.094011-1.650635 5.952995-4.330127 7.5-2.679492 1.547006-5.980762 1.547006-8.660254 0-2.679492-1.547005-4.330127-4.405989-4.330127-7.5s1.650635-5.952994 4.330127-7.5c2.679492-1.547005 5.980762-1.547005 8.660254 0 2.679492 1.547006 4.330127 4.405989 4.330127 7.5"/><path d="m375.755886 147.351259c0 3.094011-1.650635 5.952995-4.330127 7.5-2.679492 1.547006-5.980762 1.547006-8.660254 0-2.679492-1.547005-4.330127-4.405989-4.330127-7.5s1.650635-5.952995 4.330127-7.5c2.679492-1.547006 5.980762-1.547006 8.660254 0 2.679492 1.547005 4.330127 4.405989 4.330127 7.5"/><path d="m496.807529 22.304387c0 3.0940108-1.650635 5.9529947-4.330127 7.5000001s-5.980762 1.5470054-8.660254 0-4.330127-4.4059893-4.330127-7.5000001 1.650635-5.9529947 4.330127-7.5000001c2.679492-1.5470055 5.980762-1.5470055 8.660254 0 2.679492 1.5470054 4.330127 4.4059893 4.330127 7.5000001"/></g></g></g></svg>