<svg class="marks" width="640" height="365" viewBox="0 0 640 365" version="1.1" xmlns="http://www.w3.org/2000/svg" xmlns:xlink="http://www.w3.org/1999/xlink"><g transform="translate(35,23)"><g class="mark-group role-frame root"><g transform="translate(0,0)"><path class="background" d="M0.5,0.5h600v300h-600Z" style="fill: none; stroke: none;"></path><g><g class="mark-rect role-mark layer_0_marks"><path d="M1,0h18v300h-18Z" style="fill: #4c78a8;"></path><path d="M21,115.38461538461539h18v184.6153846153846h-18Z" style="fill: #4c78a8;"></path><path d="M41,173.0769230769231h18v126.9230769230769h-18Z" style="fill: #4c78a8;"></path><path d="M61,193.84615384615387h18v106.15384615384613h-18Z" style="fill: #4c78a8;"></path><path d="M81,198.46153846153845h18v101.53846153846155h-18Z" style="fill: #4c78a8;"></path><path d="M101,210h18v90h-18Z" style="fill: #4c78a8;"></path><path d="M121,223.84615384615387h18v76.15384615384613h-18Z" style="fill: #4c78a8;"></path><path d="M141,233.0769230769231h18v66.9230769230769h-18Z" style="fill: #4c78a8;"></path><path d="M161,235.3846153846154h18v64.61538461538461h-18Z" style="fill: #4c78a8;"></path><path d="M181,237.6923076923077h18v62.30769230769229h-18Z" style="fill: #4c78a8;"></path><path d="M201,242.30769230769232h18v57.69230769230768h-18Z" style="fill: #4c78a8;"></path><path d="M221,249.23076923076923h18v50.769230769230774h-18Z" style="fill: #4c78a8;"></path><path d="M241,251.53846153846155h18v48.46153846153845h-18Z" style="fill: #4c78a8;"></path><path d="M261,253.84615384615384h18v46.15384615384616h-18Z" style="fill: #4c78a8;"></path><path d="M281,256.1538461538462h18v43.84615384615381h-18Z" style="fill: #4c78a8;"></path><path d="M301,258.46153846153845h18v41.53846153846155h-18Z" style="fill: #4c78a8;"></path><path d="M321,260.7692307692308h18v39.230769230769226h-18Z" style="fill: #4c78a8;"></path><path d="M341,263.0769230769231h18v36.923076923076906h-18Z" style="fill: #4c78a8;"></path><path d="M361,263.0769230769231h18v36.923076923076906h-18Z" style="fill: #4c78a8;"></path><path d="M381,265.38461538461536h18v34.61538461538464h-18Z" style="fill: #4c78a8;"></path><path d="M401,263.0769230769231h18v36.923076923076906h-18Z" style="fill: #4c78a8;"></path><path d="M421,260.7692307692308h18v39.230769230769226h-18Z" style="fill: #4c78a8;"></path><path d="M441,256.1538461538462h18v43.84615384615381h-18Z" style="fill: #4c78a8;"></path><path d="M461,249.23076923076923h18v50.769230769230774h-18Z" style="fill: #4c78a8;"></path><path d="M481,244.6153846153846h18v55.38461538461539h-18Z" style="fill: #4c78a8;"></path><path d="M501,242.30769230769232h18v57.69230769230768h-18Z" style="fill: #4c78a8;"></path><path d="M521,235.3846153846154h18v64.61538461538461h-18Z" style="fill: #4c78a8;"></path><path d="M541,223.84615384615387h18v76.15384615384613h-18Z" style="fill: #4c78a8;"></path><path d="M561,198.46153846153845h18v101.53846153846155h-18Z" style="fill: #4c78a8;"></path><path d="M581,133.84615384615387h18v166.15384615384613h-18Z" style="fill: #4c78a8;"></path></g><g class="mark-text role-mark layer_1_marks"><text text-anchor="middle" transform="translate(10,-2)" style="font: 11px sans-serif; fill: black;">13%</text><text text-anchor="middle" transform="translate(30,113.38461538461539)" style="font: 11px sans-serif; fill: black;">8%</text><text text-anchor="middle" transform="translate(50,171.0769230769231)" style="font: 11px sans-serif; fill: black;">6%</text><text text-anchor="middle" transform="translate(70,191.84615384615387)" style="font: 11px sans-serif; fill: black;">5%</text><text text-anchor="middle" transform="translate(90,196.46153846153845)" style="font: 11px sans-serif; fill: black;">4%</text><text text-anchor="middle" transform="translate(110,208)" style="font: 11px sans-serif; fill: black;">4%</text><text text-anchor="middle" transform="translate(130,221.84615384615387)" style="font: 11px sans-serif; fill: black;">3%</text><text text-anchor="middle" transform="translate(150,231.0769230769231)" style="font: 11px sans-serif; fill: black;">3%</text><text text-anchor="middle" transform="translate(170,233.3846153846154)" style="font: 11px sans-serif; fill: black;">3%</text><text text-anchor="middle" transform="translate(190,235.6923076923077)" style="font: 11px sans-serif; fill: black;">3%</text><text text-anchor="middle" transform="translate(210,240.30769230769232)" style="font: 11px sans-serif; fill: black;">3%</text><text text-anchor="middle" transform="translate(230,247.23076923076923)" style="font: 11px sans-serif; fill: black;">2%</text><text text-anchor="middle" transform="translate(250,249.53846153846155)" style="font: 11px sans-serif; fill: black;">2%</text><text text-anchor="middle" transform="translate(270,251.84615384615384)" style="font: 11px sans-serif; fill: black;">2%</text><text text-anchor="middle" transform="translate(290,254.1538461538462)" style="font: 11px sans-serif; fill: black;">2%</text><text text-anchor="middle" transform="translate(310,256.46153846153845)" style="font: 11px sans-serif; fill: black;">2%</text><text text-anchor="middle" transform="translate(330,258.7692307692308)" style="font: 11px sans-serif; fill: black;">2%</text><text text-anchor="middle" transform="translate(350,261.0769230769231)" style="font: 11px sans-serif; fill: black;">2%</text><text text-anchor="middle" transform="translate(370,261.0769230769231)" style="font: 11px sans-serif; fill: black;">2%</text><text text-anchor="middle" transform="translate(390,263.38461538461536)" style="font: 11px sans-serif; fill: black;">2%</text><text text-anchor="middle" transform="translate(410,261.0769230769231)" style="font: 11px sans-serif; fill: black;">2%</text><text text-anchor="middle" transform="translate(430,258.7692307692308)" style="font: 11px sans-serif; fill: black;">2%</text><text text-anchor="middle" transform="translate(450,254.1538461538462)" style="font: 11px sans-serif; fill: black;">2%</text><text text-anchor="middle" transform="translate(470,247.23076923076923)" style="font: 11px sans-serif; fill: black;">2%</text><text text-anchor="middle" transform="translate(490,242.6153846153846)" style="font: 11px sans-serif; fill: black;">2%</text><text text-anchor="middle" transform="translate(510,240.30769230769232)" style="font: 11px sans-serif; fill: black;">3%</text><text text-anchor="middle" transform="translate(530,233.3846153846154)" style="font: 11px sans-serif; fill: black;">3%</text><text text-anchor="middle" transform="translate(550,221.84615384615387)" style="font: 11px sans-serif; fill: black;">3%</text><text text-anchor="middle" transform="translate(570,196.46153846153845)" style="font: 11px sans-serif; fill: black;">4%</text><text text-anchor="middle" transform="translate(590,131.84615384615387)" style="font: 11px sans-serif; fill: black;">7%</text></g><g class="mark-text role-title" style="pointer-events: none;"><text text-anchor="middle" transform="translate(300,-7)" style="font: bold 13px sans-serif; fill: #000; opacity: 1;">Power User Curve</text></g><g class="mark-group role-axis"><g transform="translate(0.5,300.5)"><path class="background" d="M0,0h0v0h0Z" style="pointer-events: none; fill: none;"></path><g><g class="mark-rule role-axis-tick" style="pointer-events: none;"><line transform="translate(9,0)" x2="0" y2="5" style="fill: none; stroke: #888; stroke-width: 1; opacity: 1;"></line><line transform="translate(29,0)" x2="0" y2="5" style="fill: none; stroke: #888; stroke-width: 1; opacity: 1;"></line><line transform="translate(49,0)" x2="0" y2="5" style="fill: none; stroke: #888; stroke-width: 1; opacity: 1;"></line><line transform="translate(69,0)" x2="0" y2="5" style="fill: none; stroke: #888; stroke-width: 1; opacity: 1;"></line><line transform="translate(89,0)" x2="0" y2="5" style="fill: none; stroke: #888; stroke-width: 1; opacity: 1;"></line><line transform="translate(109,0)" x2="0" y2="5" style="fill: none; stroke: #888; stroke-width: 1; opacity: 1;"></line><line transform="translate(129,0)" x2="0" y2="5" style="fill: none; stroke: #888; stroke-width: 1; opacity: 1;"></line><line transform="translate(149,0)" x2="0" y2="5" style="fill: none; stroke: #888; stroke-width: 1; opacity: 1;"></line><line transform="translate(169,0)" x2="0" y2="5" style="fill: none; stroke: #888; stroke-width: 1; opacity: 1;"></line><line transform="translate(189,0)" x2="0" y2="5" style="fill: none; stroke: #888; stroke-width: 1; opacity: 1;"></line><line transform="translate(209,0)" x2="0" y2="5" style="fill: none; stroke: #888; stroke-width: 1; opacity: 1;"></line><line transform="translate(229,0)" x2="0" y2="5" style="fill: none; stroke: #888; stroke-width: 1; opacity: 1;"></line><line transform="translate(249,0)" x2="0" y2="5" style="fill: none; stroke: #888; stroke-width: 1; opacity: 1;"></line><line transform="translate(269,0)" x2="0" y2="5" style="fill: none; stroke: #888; stroke-width: 1; opacity: 1;"></line><line transform="translate(289,0)" x2="0" y2="5" style="fill: none; stroke: #888; stroke-width: 1; opacity: 1;"></line><line transform="translate(309,0)" x2="0" y2="5" style="fill: none; stroke: #888; stroke-width: 1; opacity: 1;"></line><line transform="translate(329,0)" x2="0" y2="5" style="fill: none; stroke: #888; stroke-width: 1; opacity: 1;"></line><line transform="translate(349,0)" x2="0" y2="5" style="fill: none; stroke: #888; stroke-width: 1; opacity: 1;"></line><line transform="translate(369,0)" x2="0" y2="5" style="fill: none; stroke: #888; stroke-width: 1; opacity: 1;"></line><line transform="translate(389,0)" x2="0" y2="5" style="fill: none; stroke: #888; stroke-width: 1; opacity: 1;"></line><line transform="translate(409,0)" x2="0" y2="5" style="fill: none; stroke: #888; stroke-width: 1; opacity: 1;"></line><line transform="translate(429,0)" x2="0" y2="5" style="fill: none; stroke: #888; stroke-width: 1; opacity: 1;"></line><line transform="translate(449,0)" x2="0" y2="5" style="fill: none; stroke: #888; stroke-width: 1; opacity: 1;"></line><line transform="translate(469,0)" x2="0" y2="5" style="fill: none; stroke: #888; stroke-width: 1; opacity: 1;"></line><line transform="translate(489,0)" x2="0" y2="5" style="fill: none; stroke: #888; stroke-width: 1; opacity: 1;"></line><line transform="translate(509,0)" x2="0" y2="5" style="fill: none; stroke: #888; stroke-width: 1; opacity: 1;"></line><line transform="translate(529,0)" x2="0" y2="5" style="fill: none; stroke: #888; stroke-width: 1; opacity: 1;"></line><line transform="translate(549,0)" x2="0" y2="5" style="fill: none; stroke: #888; stroke-width: 1; opacity: 1;"></line><line transform="translate(569,0)" x2="0" y2="5" style="fill: none; stroke: #888; stroke-width: 1; opacity: 1;"></line><line transform="translate(589,0)" x2="0" y2="5" style="fill: none; stroke: #888; stroke-width: 1; opacity: 1;"></line></g><g class="mark-text role-axis-label" style="pointer-events: none;"><text text-anchor="end" transform="translate(9,7) rotate(270) translate(0,3)" style="font: 10px sans-serif; fill: #000; opacity: 1;">1</text><text text-anchor="end" transform="translate(29,7) rotate(270) translate(0,3)" style="font: 10px sans-serif; fill: #000; opacity: 1;">2</text><text text-anchor="end" transform="translate(49,7) rotate(270) translate(0,3)" style="font: 10px sans-serif; fill: #000; opacity: 1;">3</text><text text-anchor="end" transform="translate(69,7) rotate(270) translate(0,3)" style="font: 10px sans-serif; fill: #000; opacity: 1;">4</text><text text-anchor="end" transform="translate(89,7) rotate(270) translate(0,3)" style="font: 10px sans-serif; fill: #000; opacity: 1;">5</text><text text-anchor="end" transform="translate(109,7) rotate(270) translate(0,3)" style="font: 10px sans-serif; fill: #000; opacity: 1;">6</text><text text-anchor="end" transform="translate(129,7) rotate(270) translate(0,3)" style="font: 10px sans-serif; fill: #000; opacity: 1;">7</text><text text-anchor="end" transform="translate(149,7) rotate(270) translate(0,3)" style="font: 10px sans-serif; fill: #000; opacity: 1;">8</text><text text-anchor="end" transform="translate(169,7) rotate(270) translate(0,3)" style="font: 10px sans-serif; fill: #000; opacity: 1;">9</text><text text-anchor="end" transform="translate(189,7) rotate(270) translate(0,3)" style="font: 10px sans-serif; fill: #000; opacity: 1;">10</text><text text-anchor="end" transform="translate(209,7) rotate(270) translate(0,3)" style="font: 10px sans-serif; fill: #000; opacity: 1;">11</text><text text-anchor="end" transform="translate(229,7) rotate(270) translate(0,3)" style="font: 10px sans-serif; fill: #000; opacity: 1;">12</text><text text-anchor="end" transform="translate(249,7) rotate(270) translate(0,3)" style="font: 10px sans-serif; fill: #000; opacity: 1;">13</text><text text-anchor="end" transform="translate(269,7) rotate(270) translate(0,3)" style="font: 10px sans-serif; fill: #000; opacity: 1;">14</text><text text-anchor="end" transform="translate(289,7) rotate(270) translate(0,3)" style="font: 10px sans-serif; fill: #000; opacity: 1;">15</text><text text-anchor="end" transform="translate(309,7) rotate(270) translate(0,3)" style="font: 10px sans-serif; fill: #000; opacity: 1;">16</text><text text-anchor="end" transform="translate(329,7) rotate(270) translate(0,3)" style="font: 10px sans-serif; fill: #000; opacity: 1;">17</text><text text-anchor="end" transform="translate(349,7) rotate(270) translate(0,3)" style="font: 10px sans-serif; fill: #000; opacity: 1;">18</text><text text-anchor="end" transform="translate(369,7) rotate(270) translate(0,3)" style="font: 10px sans-serif; fill: #000; opacity: 1;">19</text><text text-anchor="end" transform="translate(389,7) rotate(270) translate(0,3)" style="font: 10px sans-serif; fill: #000; opacity: 1;">20</text><text text-anchor="end" transform="translate(409,7) rotate(270) translate(0,3)" style="font: 10px sans-serif; fill: #000; opacity: 1;">21</text><text text-anchor="end" transform="translate(429,7) rotate(270) translate(0,3)" style="font: 10px sans-serif; fill: #000; opacity: 1;">22</text><text text-anchor="end" transform="translate(449,7) rotate(270) translate(0,3)" style="font: 10px sans-serif; fill: #000; opacity: 1;">23</text><text text-anchor="end" transform="translate(469,7) rotate(270) translate(0,3)" style="font: 10px sans-serif; fill: #000; opacity: 1;">24</text><text text-anchor="end" transform="translate(489,7) rotate(270) translate(0,3)" style="font: 10px sans-serif; fill: #000; opacity: 1;">25</text><text text-anchor="end" transform="translate(509,7) rotate(270) translate(0,3)" style="font: 10px sans-serif; fill: #000; opacity: 1;">26</text><text text-anchor="end" transform="translate(529,7) rotate(270) translate(0,3)" style="font: 10px sans-serif; fill: #000; opacity: 1;">27</text><text text-anchor="end" transform="translate(549,7) rotate(270) translate(0,3)" style="font: 10px sans-serif; fill: #000; opacity: 1;">28</text><text text-anchor="end" transform="translate(569,7) rotate(270) translate(0,3)" style="font: 10px sans-serif; fill: #000; opacity: 1;">29</text><text text-anchor="end" transform="translate(589,7) rotate(270) translate(0,3)" style="font: 10px sans-serif; fill: #000; opacity: 1;">30</text></g><g class="mark-rule role-axis-domain" style="pointer-events: none;"><line transform="translate(0,0)" x2="600" y2="0" style="fill: none; stroke: #888; stroke-width: 1; opacity: 1;"></line></g><g class="mark-text role-axis-title" style="pointer-events: none;"><text text-anchor="middle" transform="translate(300,32.123046875)" style="font: bold 11px sans-serif; fill: #000; opacity: 1;">Total Active Days in Month</text></g></g></g></g><g class="mark-group role-axis"><g transform="translate(0.5,0.5)"><path class="background" d="M0,0h0v0h0Z" style="pointer-events: none; fill: none;"></path><g><g class="mark-rule role-axis-tick" style="pointer-events: none;"><line transform="translate(0,300)" x2="-5" y2="0" style="fill: none; stroke: #888; stroke-width: 1; opacity: 1;"></line><line transform="translate(0,254)" x2="-5" y2="0" style="fill: none; stroke: #888; stroke-width: 1; opacity: 1;"></line><line transform="translate(0,208)" x2="-5" y2="0" style="fill: none; stroke: #888; stroke-width: 1; opacity: 1;"></line><line transform="translate(0,162)" x2="-5" y2="0" style="fill: none; stroke: #888; stroke-width: 1; opacity: 1;"></line><line transform="translate(0,115)" x2="-5" y2="0" style="fill: none; stroke: #888; stroke-width: 1; opacity: 1;"></line><line transform="translate(0,69)" x2="-5" y2="0" style="fill: none; stroke: #888; stroke-width: 1; opacity: 1;"></line><line transform="translate(0,23)" x2="-5" y2="0" style="fill: none; stroke: #888; stroke-width: 1; opacity: 1;"></line></g><g class="mark-text role-axis-label" style="pointer-events: none;"><text text-anchor="end" transform="translate(-7,303)" style="font: 10px sans-serif; fill: #000; opacity: 1;">0%</text><text text-anchor="end" transform="translate(-7,256.8461538461538)" style="font: 10px sans-serif; fill: #000; opacity: 1;">2%</text><text text-anchor="end" transform="translate(-7,210.69230769230768)" style="font: 10px sans-serif; fill: #000; opacity: 1;">4%</text><text text-anchor="end" transform="translate(-7,164.53846153846155)" style="font: 10px sans-serif; fill: #000; opacity: 1;">6%</text><text text-anchor="end" transform="translate(-7,118.38461538461539)" style="font: 10px sans-serif; fill: #000; opacity: 1;">8%</text><text text-anchor="end" transform="translate(-7,72.23076923076923)" style="font: 10px sans-serif; fill: #000; opacity: 1;">10%</text><text text-anchor="end" transform="translate(-7,26.076923076923094)" style="font: 10px sans-serif; fill: #000; opacity: 1;">12%</text></g><g class="mark-rule role-axis-domain" style="pointer-events: none;"><line transform="translate(0,300)" x2="0" y2="-300" style="fill: none; stroke: #888; stroke-width: 1; opacity: 1;"></line></g></g></g></g></g></g></g></g></svg>