<?xml version="1.0" encoding="UTF-8"?>
<svg width="800px" height="400px" viewBox="0 0 800 400" version="1.1" xmlns="http://www.w3.org/2000/svg" xmlns:xlink="http://www.w3.org/1999/xlink">
    <!-- Generator: Sketch 47.1 (45422) - http://www.bohemiancoding.com/sketch -->
    <title>Artboard</title>
    <desc>Created with Sketch.</desc>
    <defs>
        <linearGradient x1="-301.973325%" y1="-271.895433%" x2="363.270259%" y2="338.390557%" id="linearGradient-1">
            <stop stop-color="#CCFBFF" offset="0%"></stop>
            <stop stop-color="#C9E4FF" offset="100%"></stop>
        </linearGradient>
        <linearGradient x1="-6.224%" y1="7.92666667%" x2="93.2683333%" y2="107.418667%" id="linearGradient-2">
            <stop stop-color="#00C8D7" offset="0%"></stop>
            <stop stop-color="#0A84FF" offset="100%"></stop>
        </linearGradient>
        <linearGradient x1="-22.1303166%" y1="-55.4020377%" x2="104.477644%" y2="153.591301%" id="linearGradient-3">
            <stop stop-color="#00C8D7" offset="0%"></stop>
            <stop stop-color="#0A84FF" offset="100%"></stop>
        </linearGradient>
        <linearGradient x1="-7461.39667%" y1="-1838.10519%" x2="3119.14215%" y2="3153.54963%" id="linearGradient-4">
            <stop stop-color="#00C8D7" offset="0%"></stop>
            <stop stop-color="#0A84FF" offset="100%"></stop>
        </linearGradient>
        <linearGradient x1="-2154.52004%" y1="-2947.52832%" x2="950.769632%" y2="4588.94015%" id="linearGradient-5">
            <stop stop-color="#00C8D7" offset="0%"></stop>
            <stop stop-color="#0A84FF" offset="100%"></stop>
        </linearGradient>
        <linearGradient x1="-1819.49508%" y1="-2914.69347%" x2="1288.26688%" y2="4621.89016%" id="linearGradient-6">
            <stop stop-color="#00C8D7" offset="0%"></stop>
            <stop stop-color="#0A84FF" offset="100%"></stop>
        </linearGradient>
        <linearGradient x1="-6312.72147%" y1="-2349.24655%" x2="4264.06804%" y2="4030.49054%" id="linearGradient-7">
            <stop stop-color="#00C8D7" offset="0%"></stop>
            <stop stop-color="#0A84FF" offset="100%"></stop>
        </linearGradient>
        <linearGradient x1="-1820.08349%" y1="-2584.64616%" x2="1288.00209%" y2="4953.05112%" id="linearGradient-8">
            <stop stop-color="#00C8D7" offset="0%"></stop>
            <stop stop-color="#0A84FF" offset="100%"></stop>
        </linearGradient>
        <linearGradient x1="-854.314294%" y1="-824.001486%" x2="776.885185%" y2="1248.32355%" id="linearGradient-9">
            <stop stop-color="#00C8D7" offset="0%"></stop>
            <stop stop-color="#0A84FF" offset="100%"></stop>
        </linearGradient>
        <linearGradient x1="-4658.11989%" y1="-1919.25967%" x2="1915.12997%" y2="4611.95564%" id="linearGradient-10">
            <stop stop-color="#00C8D7" offset="0%"></stop>
            <stop stop-color="#0A84FF" offset="100%"></stop>
        </linearGradient>
        <linearGradient x1="-3947.92402%" y1="-2527.9797%" x2="1472.8632%" y2="5824.49074%" id="linearGradient-11">
            <stop stop-color="#00C8D7" offset="0%"></stop>
            <stop stop-color="#0A84FF" offset="100%"></stop>
        </linearGradient>
        <linearGradient x1="-4732.3734%" y1="-1880.93966%" x2="1925.27107%" y2="1796.84625%" id="linearGradient-12">
            <stop stop-color="#00C8D7" offset="0%"></stop>
            <stop stop-color="#0A84FF" offset="100%"></stop>
        </linearGradient>
        <linearGradient x1="-3320.71914%" y1="-1255.19353%" x2="1319.44226%" y2="1217.1351%" id="linearGradient-13">
            <stop stop-color="#00C8D7" offset="0%"></stop>
            <stop stop-color="#0A84FF" offset="100%"></stop>
        </linearGradient>
        <linearGradient x1="-1723.93978%" y1="-4068.00746%" x2="1890.39553%" y2="3032.57355%" id="linearGradient-14">
            <stop stop-color="#00C8D7" offset="0%"></stop>
            <stop stop-color="#0A84FF" offset="100%"></stop>
        </linearGradient>
        <linearGradient x1="-1134.31432%" y1="-2870.74047%" x2="1290.73506%" y2="2093.58824%" id="linearGradient-15">
            <stop stop-color="#00C8D7" offset="0%"></stop>
            <stop stop-color="#0A84FF" offset="100%"></stop>
        </linearGradient>
    </defs>
    <g id="Page-1" stroke="none" stroke-width="1" fill="none" fill-rule="evenodd">
        <g id="Artboard">
            <g id="404" transform="translate(281.000000, 138.000000)" fill-rule="nonzero">
                <path d="M192.245,94.067 L181.512,94.067 C181.648,94.41 181.786,94.741 181.922,95.067 L192.245,95.067 C192.521142,95.067 192.745,94.8431424 192.745,94.567 C192.745,94.2908576 192.521142,94.067 192.245,94.067 Z M194.699,82.246 C194.699,81.9698576 194.475142,81.746 194.199,81.746 L173.939,81.746 C174.312,82.103 174.666,82.434 175.004,82.746 L194.204,82.746 C194.478579,82.7438033 194.700009,82.5205878 194.7,82.246 L194.699,82.246 Z M203.245,94.067 L200.245,94.067 C199.968858,94.067 199.745,94.2908576 199.745,94.567 C199.745,94.8431424 199.968858,95.067 200.245,95.067 L203.245,95.067 C203.521142,95.067 203.745,94.8431424 203.745,94.567 C203.745,94.2908576 203.521142,94.067 203.245,94.067 Z M208.245,94.067 L207.245,94.067 C206.968858,94.067 206.745,94.2908576 206.745,94.567 C206.745,94.8431424 206.968858,95.067 207.245,95.067 L208.245,95.067 C208.521142,95.067 208.745,94.8431424 208.745,94.567 C208.745,94.2908576 208.521142,94.067 208.245,94.067 Z M204.945,87.407 L179.165,87.407 C179.508774,88.0478977 179.797156,88.7169982 180.027,89.407 L204.945,89.407 C205.497285,89.407 205.945,88.9592847 205.945,88.407 C205.945,87.8547153 205.497285,87.407 204.945,87.407 L204.945,87.407 Z M225.367,94.067 L217.245,94.067 C216.968858,94.067 216.745,94.2908576 216.745,94.567 C216.745,94.8431424 216.968858,95.067 217.245,95.067 L225.367,95.067 C225.643142,95.067 225.867,94.8431424 225.867,94.567 C225.867,94.2908576 225.643142,94.067 225.367,94.067 Z" id="Shape" fill="#EAEAEE"></path>
                <path d="M237.53,37.757 L213.294,37.757 C211.186,33.857 205.735,25.039 198.894,23.734 C189.942,22.027 188.157,30.951 188.157,30.951 C188.157,30.951 182.208,15.483 167.157,17.532 C150.279,19.832 158.229,37.597 158.229,37.597 L132.821,37.597 L141.002,37.756 L132.818,37.756 C132.265715,37.756 131.818,38.2037153 131.818,38.756 C131.818,39.3082847 132.265715,39.756 132.818,39.756 L237.53,39.756 C238.082285,39.756 238.53,39.3082847 238.53,38.756 C238.53,38.2037153 238.082285,37.756 237.53,37.756 L237.53,37.757 Z" id="Shape" fill="#FFFFFF"></path>
                <path d="M86.373,13.908 L72.683,13.908 C71.554,11.796 68.493,6.752 64.626,6.014 C59.648,5.065 58.655,10.027 58.655,10.027 C58.655,10.027 55.346,1.427 46.975,2.565 C37.589,3.843 42.01,13.723 42.01,13.723 L27.88,13.723 L37.351,13.908 L28.139,13.908 C27.5867153,13.908 27.139,14.3557153 27.139,14.908 C27.139,15.4602847 27.5867153,15.908 28.139,15.908 L86.372,15.908 C86.9242847,15.908 87.372,15.4602847 87.372,14.908 C87.372,14.3557153 86.9242847,13.908 86.372,13.908 L86.373,13.908 Z" id="Shape" fill="#FFFFFF"></path>
                <ellipse id="Oval" fill="#EAEAEE" cx="111.566" cy="195.472" rx="55.042" ry="8.362"></ellipse>
                <path d="M70.31,71.507 L28.818,71.507 C28.2657153,71.507 27.818,71.9547153 27.818,72.507 C27.818,73.0592847 28.2657153,73.507 28.818,73.507 L70.31,73.507 C70.8622847,73.507 71.31,73.0592847 71.31,72.507 C71.31,71.9547153 70.8622847,71.507 70.31,71.507 Z M38.336,67.6 L50.1,67.6 C50.3761424,67.6 50.6,67.3761424 50.6,67.1 C50.6,66.8238576 50.3761424,66.6 50.1,66.6 L38.336,66.6 C38.0598576,66.6 37.836,66.8238576 37.836,67.1 C37.836,67.3761424 38.0598576,67.6 38.336,67.6 Z" id="Shape" fill="#EAEAEE"></path>
                <path d="M79.457,124.8 L1.157,124.8 C0.60471525,124.8 0.157,125.247715 0.157,125.8 C0.157,126.352285 0.60471525,126.8 1.157,126.8 L79.457,126.8 C80.0092847,126.8 80.457,126.352285 80.457,125.8 C80.457,125.247715 80.0092847,124.8 79.457,124.8 Z M52.715,121.007 L53.715,121.007 C53.9911424,121.007 54.215,120.783142 54.215,120.507 C54.215,120.230858 53.9911424,120.007 53.715,120.007 L52.715,120.007 C52.4388576,120.007 52.215,120.230858 52.215,120.507 C52.215,120.783142 52.4388576,121.007 52.715,121.007 Z M62.715,121.007 L65.815,121.007 C66.0911424,121.007 66.315,120.783142 66.315,120.507 C66.315,120.230858 66.0911424,120.007 65.815,120.007 L62.715,120.007 C62.4388576,120.007 62.215,120.230858 62.215,120.507 C62.215,120.783142 62.4388576,121.007 62.715,121.007 Z M45.715,121.007 L48.715,121.007 C48.9911424,121.007 49.215,120.783142 49.215,120.507 C49.215,120.230858 48.9911424,120.007 48.715,120.007 L45.715,120.007 C45.4388576,120.007 45.215,120.230858 45.215,120.507 C45.215,120.783142 45.4388576,121.007 45.715,121.007 Z M25.715,121.007 L37.715,121.007 C37.9911424,121.007 38.215,120.783142 38.215,120.507 C38.215,120.230858 37.9911424,120.007 37.715,120.007 L25.715,120.007 C25.4388576,120.007 25.215,120.230858 25.215,120.507 C25.215,120.783142 25.4388576,121.007 25.715,121.007 Z" id="Shape" fill="#EAEAEE"></path>
                <path d="M174.885,12.973 L174.93,12.873 C174.872,12.9 174.867,12.932 174.885,12.973 Z" id="Shape" fill="#FFFFFF"></path>
                <path d="M45.937,164.941 L7.95,164.941 C7.39771525,164.941 6.95,164.493285 6.95,163.941 C6.95,163.388715 7.39771525,162.941 7.95,162.941 L45.937,162.941 C46.4892847,162.941 46.937,163.388715 46.937,163.941 C46.937,164.493285 46.4892847,164.941 45.937,164.941 L45.937,164.941 Z" id="Shape" fill="#EAEAEE"></path>
                <path d="M226.931,164.941 L165.118,164.941 C164.565715,164.941 164.118,164.493285 164.118,163.941 C164.118,163.388715 164.565715,162.941 165.118,162.941 L226.931,162.941 C227.483285,162.941 227.931,163.388715 227.931,163.941 C227.931,164.493285 227.483285,164.941 226.931,164.941 Z" id="Shape" fill="#EAEAEE"></path>
                <path d="M233.745,35.333 L230.745,35.333 C230.468858,35.333 230.245,35.1091424 230.245,34.833 C230.245,34.5568576 230.468858,34.333 230.745,34.333 L233.745,34.333 C234.021142,34.333 234.245,34.5568576 234.245,34.833 C234.245,35.1091424 234.021142,35.333 233.745,35.333 Z M222.745,35.333 L214.675,35.333 C214.485556,35.3328043 214.312492,35.225559 214.228,35.056 C214.221,35.042 213.504,33.631 212.249,31.714 C212.151109,31.5644844 212.14042,31.3741021 212.220959,31.2145683 C212.301498,31.0550346 212.461029,30.9505863 212.639459,30.9405683 C212.817889,30.9305502 212.988109,31.0164843 213.086,31.166 C213.479,31.766 214.53,33.459 214.974,34.333 L222.746,34.333 C223.022142,34.333 223.246,34.5568576 223.246,34.833 C223.246,35.1091424 223.022142,35.333 222.746,35.333 L222.745,35.333 Z M156.256,34.621 L153.256,34.621 C152.979858,34.621 152.756,34.3971424 152.756,34.121 C152.756,33.8448576 152.979858,33.621 153.256,33.621 L156.256,33.621 C156.532142,33.621 156.756,33.8448576 156.756,34.121 C156.756,34.3971424 156.532142,34.621 156.256,34.621 Z M145.256,34.621 L133.256,34.621 C132.979858,34.621 132.756,34.3971424 132.756,34.121 C132.756,33.8448576 132.979858,33.621 133.256,33.621 L145.256,33.621 C145.532142,33.621 145.756,33.8448576 145.756,34.121 C145.756,34.3971424 145.532142,34.621 145.256,34.621 Z M158.1,33.13 C157.885673,33.1302701 157.695013,32.9939116 157.626,32.791 C157.526,32.501 157.426,32.176 157.316,31.82 C157.264732,31.6488698 157.308656,31.463388 157.431225,31.3334238 C157.553795,31.2034597 157.736388,31.1487578 157.910225,31.1899238 C158.084062,31.2310899 158.222732,31.3618698 158.274,31.533 C158.374,31.876 158.474,32.19 158.574,32.47 C158.625961,32.6227755 158.600995,32.7912371 158.506956,32.9223749 C158.412918,33.0535127 158.26137,33.1312034 158.1,33.131 L158.1,33.13 Z M188.6,27.974 C188.393123,27.9742167 188.207476,27.8470069 188.133,27.654 C187.538081,26.2402302 186.80732,24.8875527 185.951,23.615 C185.798569,23.3846973 185.861697,23.0744306 186.092,22.9220001 C186.322303,22.7695695 186.632569,22.8326973 186.785,23.063 C187.420174,24.01984 187.994316,25.0158203 188.504,26.045 C189.196949,24.0407923 190.479321,22.2927366 192.183,21.03 C192.409196,20.8854071 192.709208,20.9452483 192.862619,21.1655587 C193.01603,21.3858692 192.968081,21.6880096 192.754,21.85 C190.913286,23.2810774 189.619538,25.3005946 189.089,27.571 C189.045297,27.7891595 188.862698,27.9521949 188.641,27.971 L188.6,27.974 Z M206.945,25.01 C206.819434,25.0101278 206.698417,24.963006 206.606,24.878 C206.365333,24.656 206.120333,24.439 205.871,24.227 C205.669426,24.0461372 205.648489,23.737666 205.823775,23.5312241 C205.999061,23.3247822 206.306844,23.2954218 206.518,23.465 C206.778,23.6856667 207.033,23.9116667 207.283,24.143 C207.434711,24.2825455 207.485238,24.5008913 207.41025,24.6928964 C207.335261,24.8849016 207.150129,25.0112101 206.944,25.011 L206.945,25.01 Z M157.022,23.285 C156.991813,23.2852299 156.961673,23.2825508 156.932,23.277 C156.6615,23.2264087 156.482729,22.9667436 156.532,22.696 C157.324,18.345 160.076,15.467 164.712,14.14 C164.883845,14.090876 165.068843,14.1371616 165.197308,14.2614215 C165.325773,14.3856814 165.378188,14.5690376 165.334808,14.7424215 C165.291428,14.9158054 165.158845,15.052876 164.987,15.102 C160.747,16.314 158.234,18.93 157.515,22.875 C157.471509,23.1155664 157.260442,23.2894108 157.016,23.286 L157.022,23.285 Z M202.915,22.067 C202.832252,22.0669194 202.750818,22.0463031 202.678,22.007 C201.833726,21.545627 200.939179,21.1829094 200.012,20.926 C199.839441,20.8793769 199.704862,20.744236 199.65896,20.5714837 C199.613057,20.3987314 199.662803,20.2146128 199.78946,20.0884836 C199.916116,19.9623545 200.100441,19.9133768 200.273,19.96 C201.274551,20.2373445 202.240895,20.6289153 203.153,21.127 C203.354578,21.2358 203.456442,21.4676647 203.400219,21.6897235 C203.343995,21.9117823 203.144066,22.0672353 202.915,22.067 L202.915,22.067 Z M180.146,17.4 C180.046174,17.3999273 179.948656,17.3699751 179.866,17.314 C179.599333,17.134 179.326,16.9593333 179.046,16.79 C178.886859,16.7008315 178.788909,16.5320707 178.790422,16.3496572 C178.791935,16.1672437 178.892671,16.000131 179.05327,15.9136148 C179.213868,15.8270986 179.408839,15.8349112 179.562,15.934 C179.858,16.112 180.146333,16.296 180.427,16.486 C180.608978,16.6092367 180.689146,16.8368568 180.62456,17.0469331 C180.559974,17.2570094 180.36578,17.4002798 180.146,17.4 L180.146,17.4 Z M175.676,15.2 C175.623728,15.2000991 175.571763,15.1920008 175.522,15.176 C174.598553,14.8785997 173.650979,14.6621166 172.69,14.529 C172.424342,14.4830841 172.242921,14.2348184 172.279876,13.9677662 C172.316832,13.7007141 172.558856,13.5110463 172.827,13.539 C173.845112,13.6796332 174.848948,13.9091772 175.827,14.225 C176.06159,14.3004267 176.20625,14.5355236 176.167844,14.7789302 C176.129437,15.0223369 175.919418,15.2014701 175.673,15.201 L175.676,15.2 Z" id="Shape" fill="#EAEAEE"></path>
                <path d="M40.315,12.052 L28.315,12.052 C28.0388576,12.052 27.815,11.8281424 27.815,11.552 C27.815,11.2758576 28.0388576,11.052 28.315,11.052 L40.315,11.052 C40.5911424,11.052 40.815,11.2758576 40.815,11.552 C40.815,11.8281424 40.5911424,12.052 40.315,12.052 Z M85.897,11.868 L84.097,11.868 C83.8208576,11.868 83.597,11.6441424 83.597,11.368 C83.597,11.0918576 83.8208576,10.868 84.097,10.868 L85.897,10.868 C86.1731424,10.868 86.397,11.0918576 86.397,11.368 C86.397,11.6441424 86.1731424,11.868 85.897,11.868 Z M75.097,11.868 L74.097,11.868 C73.8208576,11.868 73.597,11.6441424 73.597,11.368 C73.597,11.0918576 73.8208576,10.868 74.097,10.868 L75.097,10.868 C75.3731424,10.868 75.597,11.0918576 75.597,11.368 C75.597,11.6441424 75.3731424,11.868 75.097,11.868 Z M71.606,8.987 C71.4545382,8.98727042 71.3111179,8.91886995 71.216,8.801 C70.6065401,8.03968461 69.9377857,7.32779558 69.216,6.672 C69.0156239,6.48640606 69.0012516,6.17436207 69.183719,5.97113484 C69.3661865,5.76790761 69.6779704,5.74870282 69.884,5.928 C70.6477527,6.61939459 71.3553161,7.37042836 72,8.174 C72.1209315,8.32385746 72.1450569,8.52984478 72.0620261,8.70359047 C71.9789953,8.87733617 71.803566,8.98795892 71.611,8.988 L71.606,8.987 Z M59.085,8.356 C58.8787383,8.35596326 58.6936667,8.22927267 58.619,8.037 C57.7591101,6.03498645 56.4373868,4.26503553 54.762,2.872 C54.5520589,2.69825476 54.5199126,2.38839077 54.6897169,2.17524955 C54.8595213,1.96210833 55.1687327,1.92419552 55.385,2.09 C56.8767376,3.31298896 58.1088889,4.82189828 59.009,6.528 C59.5782014,5.12888517 60.706008,4.03116786 62.12,3.5 C62.2902199,3.43619454 62.4816587,3.46980198 62.6199679,3.58777029 C62.758277,3.70573859 62.8216626,3.88947904 62.7855078,4.06763282 C62.7493529,4.24578661 62.6193546,4.39028135 62.446,4.445 C60.9838968,5.08904186 59.9181944,6.39375598 59.579,7.955 C59.5318876,8.18823067 59.3269414,8.35595193 59.089,8.356 L59.085,8.356 Z M41.448,6.319 L41.397,6.319 C41.2650487,6.30562101 41.143819,6.24036502 41.0599873,6.13759153 C40.9761557,6.03481803 40.9365912,5.90294826 40.95,5.771 C41.0406205,4.68604573 41.4042334,3.6416478 42.007,2.735 C42.1059792,2.58260801 42.2798448,2.49591261 42.4611187,2.50856066 C42.6423927,2.52120871 42.8025341,2.63120881 42.8793916,2.79586948 C42.9562491,2.96053015 42.9377217,3.15392627 42.831,3.301 C42.323561,4.06956147 42.0187747,4.95399216 41.945,5.872 C41.917911,6.12611668 41.7035564,6.31890643 41.448,6.319 L41.448,6.319 Z M45.641,1.28 C45.3939291,1.28054383 45.1835044,1.10054429 45.1457663,0.856371835 C45.1080283,0.612199383 45.2542932,0.377071774 45.49,0.303 C45.8242734,0.197705017 46.1637175,0.109589729 46.507,0.039 C46.7719457,-0.00430686362 47.0238052,0.169344275 47.0775394,0.432373458 C47.1312737,0.69540264 46.9677024,0.953922156 46.707,1.018 C46.3973991,1.08090968 46.0913118,1.16001839 45.79,1.255 C45.7422056,1.27073281 45.6923102,1.27916109 45.642,1.28 L45.641,1.28 Z" id="Shape" fill="#EAEAEE"></path>
                <path d="M184.326,94.72 C183.247,90.52 180.596,86.104 176.446,81.603 C173.74135,78.0428206 170.758311,74.7029941 167.525,71.615 C166.885111,71.0084686 166.110109,70.562868 165.264,70.315 C158.087,63.43 143.292,50.496 132.764,49.769 C132.135236,49.7264595 131.505201,49.7054472 130.875,49.706 C125.700338,49.8390483 120.582891,50.8232117 115.728,52.619 L110.614,51.219 C107.951532,50.4901978 105.202178,52.0569087 104.472,54.719 L103.503,58.264 C100.769524,59.8481171 98.1486304,61.6189909 95.659,63.564 L93.607,63.516 L93.491,63.516 C90.77425,63.5152688 88.5540285,65.6839811 88.491,68.4 L88.449,70.229 C86.3043914,72.5769674 84.4114132,75.1429449 82.801,77.885 C80.8950045,78.9257819 79.8787583,81.0778802 80.286,83.211 C78.404,88.685 77.438,96.954 77.411,107.844 C76.9655605,110.461742 76.4164623,113.060785 75.765,115.635 L71.486,118.229 C68.5128898,120.035886 67.5624574,123.907835 69.361,126.886 L70.877,129.386 C70.627,129.904667 70.3733333,130.410667 70.116,130.904 L66.079,132.144 C62.7536172,133.169584 60.885623,136.693097 61.903,140.021 L62.503,141.974 C62.159,142.365333 61.813,142.746333 61.465,143.117 L59.849,142.99 C59.6826893,142.976296 59.5158739,142.969624 59.349,142.97 C56.0710733,142.987833 53.3483075,145.503691 53.072,148.77 L52.957,150.226 C50.216,152.269 47.542,154.773 47.542,159.343 C47.542,165.871 57.814,169.911 61.19,171.243 C68.9112471,174.281143 77.1174474,175.90077 85.414,176.024 C85.7913333,176.024 86.167,176.02 86.541,176.012 C87.148,178.423 87.749,180.48 88.341,182.156 C89.5655366,185.731387 91.1556183,189.170922 93.086,192.42 C94.834,195.259 97.306,198.52 100.931,198.52 C102.231829,198.519367 103.492926,198.071699 104.503,197.252 C106.249,195.831 106.932,194.18 106.985,187.165 C112.542336,188.223872 118.189823,188.73731 123.847,188.698 C128.724508,188.648891 133.587607,188.159234 138.377,187.235 C138.162,194.055 138.849,195.785 140.652,197.252 C141.661767,198.071555 142.9225,198.519219 144.223,198.52 C149.868,198.52 154.176,189.62 156.796,182.159 C157.191895,181.015904 157.548438,179.859557 157.865,178.692 C159.297,174.968 162.404,165.339 162.757,151.216 C162.918,144.788 162.757,138.266 162.269,131.797 C163.205168,130.327009 163.604707,128.578717 163.4,126.848 C169.861,125.648 174.208,122.929 178.5,117.508 C181.9,113.2 186.5,103.2 184.326,94.72 L184.326,94.72 Z" id="Shape" fill="#FFFFFF"></path>
                <path d="M179.476,95.947 C178.384,91.695 175.215,87.606 172.576,84.779 C170.010864,81.377393 167.174244,78.1892888 164.094,75.246 C163.836975,75.004618 163.434246,75.0126104 163.187,75.264 C153.014,65.255 140.158,55.277 132.404,54.743 C127.87,54.43 122.012,55.551 115.924,57.843 L109.279,56.026 L107.758,61.587 C104.070017,63.5733868 100.58655,65.9180279 97.358,68.587 L93.474,68.497 L93.387,72.241 C90.5452505,75.0942653 88.1445528,78.3550754 86.264,81.916 L85.181,82.254 L85.541,83.407 C83.314,88.553 82.397,97.662 82.394,108.249 C81.8022673,111.820462 81.0245429,115.358607 80.064,118.849 L74.064,122.487 C73.3953753,122.829386 73.0982894,123.62523 73.379,124.322 L76.4,129.3 C75.5535078,131.280716 74.5908335,133.209738 73.517,135.077 L67.538,136.913 C66.8494945,137.124759 66.4627774,137.85433 66.674,138.543 L68.068,143.084 C66.6239945,144.918196 65.0566985,146.651877 63.377,148.273 L59.447,147.963 C59.1019851,147.935433 58.760221,148.046588 58.4974314,148.271837 C58.2346417,148.497085 58.0725247,148.817828 58.047,149.163 L57.747,152.915 C54.489,155.272 52.529,156.456 52.529,159.337 C52.529,163.481 73.329,172.753 90.429,170.727 C91.1148446,174.027627 91.987922,177.28656 93.044,180.488 C95.896,188.613 99.905,194.52 101.331,193.359 C102.006,192.81 102.042,186.805 101.893,180.629 C102.339,180.803 109.918,183.683 123.832,183.683 C130.539051,183.534717 137.207377,182.622837 143.708,180.965 C143.308,186.809 143.082,192.781 143.793,193.359 C145.219,194.52 149.211,188.614 152.062,180.488 C152.419,179.47 152.762,178.329 153.093,177.111 C154.369,173.858 157.4,164.773 157.742,151.076 C157.91234,144.036049 157.695011,136.992059 157.091,129.976 C157.999812,129.475037 158.522235,128.480311 158.418825,127.447737 C158.315415,126.415162 157.606108,125.543791 156.616,125.233 C156.50674,124.274684 156.386733,123.317624 156.256,122.362 C157.784626,122.421787 159.315585,122.358248 160.834,122.172 C166.981,121.352 170.669,119.303 174.562,114.386 C177.359,110.85 181.113,102.326 179.476,95.947 L179.476,95.947 Z" id="Shape" fill="url(#linearGradient-1)"></path>
                <path d="M161.99,74.155 C162.023,74.168 162.057,74.186 162.09,74.2 C152.104,64.559 139.89,55.258 132.407,54.743 C127.873,54.43 122.015,55.551 115.927,57.843 L109.282,56.026 L107.761,61.587 C104.073017,63.5733868 100.58955,65.9180279 97.361,68.587 L93.477,68.497 L93.39,72.241 C90.5482505,75.0942653 88.1475528,78.3550754 86.267,81.916 L85.184,82.254 L85.544,83.407 C83.317,88.553 82.4,97.662 82.397,108.249 C82.125957,109.863657 81.8188804,111.472058 81.476,113.073 C81.644,112.353 81.803,111.643 81.951,110.946 C82.012,113.985 82.128,116.969 82.283,119.782 C81.269,120.982 77.875,125.33 79.737,127.937 C80.6747493,129.118225 81.8479254,130.091501 83.182,130.795 C83.251,131.384 83.32,131.95 83.391,132.476 C84.406,140.02 87.501,161.476 89.799,170.776 C90.006,170.755 90.216,170.74 90.422,170.715 C91.1078446,174.015627 91.980922,177.27456 93.037,180.476 C95.889,188.601 99.898,194.508 101.324,193.347 C101.999,192.798 102.035,186.793 101.886,180.617 C101.924,180.632 102.031,180.671 102.169,180.717 L102.169,172.3 C110.802495,176.277974 120.456358,177.483572 129.803,175.751 C145.454,172.708 151.27,161.046 151.975,153.144 C153.169,139.772 150.56,133.251 150.56,133.251 L157.118,130.399 C157.107,130.264 157.096,130.115 157.084,129.982 C157.992812,129.481037 158.515235,128.486311 158.411825,127.453737 C158.308415,126.421162 157.599108,125.549791 156.609,125.239 L145.451,129.555 C145.451,129.555 145.342,127.816 142.951,125.207 C139.777,121.745 132.43,118.852 131.523,118.507 C139.513447,121.445254 147.903761,123.153056 156.407,123.572 L156.298,122.733 C145.592,122.124 132.082,117.385 132.082,117.385 C132.082,117.385 155.865,121.701 165.558,116.624 C172.405,113.037 176.644,103.255 175.014,94.778 C173.283,85.755 161.99,74.155 161.99,74.155 L161.99,74.155 Z" id="Shape" fill="#F9F9FA"></path>
                <path d="M117.523,96.54 L111.986,94.583 C111.598555,94.4463529 111.166955,94.5605784 110.897827,94.8709916 C110.6287,95.1814047 110.57681,95.6248383 110.767,95.989 L112.757,99.799 C113.01283,100.288179 113.616659,100.477519 114.106,100.222 L117.653,98.369 C118.005603,98.1846487 118.215368,97.8087997 118.187158,97.4119136 C118.158949,97.0150275 117.898133,96.672626 117.523,96.54 Z" id="Shape" fill="#FFFFFF"></path>
                <g id="Group" transform="translate(1.000000, 52.000000)">
                    <path d="M235.754,98.7 L234.986,98.7 C217.834,98.7 201.696,98.7 192.049,99.022 C183.716,99.299 175.275,101.016 175.262,103.758 C175.254,105.569 179.908,107.058 188.827,109.74 C196.214,111.965 206.327,115.011 206.563,117.49 C206.472949,118.311879 206.036371,119.056244 205.363,119.536 C202.379,122.308 194.082,125.445 186.274,124.124 C181.59464,123.21773 177.270045,120.997855 173.806,117.724 C169.423,113.836 167.615,109.864 166.02,106.36 C165.401,105.001 164.82,103.717 164.12,102.523 C162.728085,100.167615 160.911756,98.0905505 158.763,96.397 C158.820652,90.6216127 158.620453,84.8465306 158.163,79.089 C159.00514,78.1992793 159.45759,77.0103892 159.420046,75.785892 C159.382502,74.5613948 158.858066,73.4024566 157.963,72.566 C158.713,72.53 159.426,72.466 160.093,72.378 C166.842,71.478 170.916,69.167 175.125,63.851 C178.407,59.705 182.217,50.704 180.412,43.671 C179.212,39.009 175.806,34.616 173.122,31.724 C170.502697,28.2549973 167.607627,25.0031024 164.465,22 C164.015509,21.574554 163.429919,21.3219673 162.812,21.287 C157.903847,16.4651902 152.629755,12.0306063 147.037,8.023 C140.722,3.609 135.51,1.233 131.545,0.959 C130.984796,0.921273307 130.423472,0.902595861 129.862,0.903 C124.715377,1.05644472 119.632991,2.08969755 114.835,3.958 L108.81,2.31 C107.744948,2.01835106 106.645068,2.64506323 106.353,3.71 L105.053,8.455 C101.746056,10.2911177 98.6040258,12.4096708 95.662,14.787 L92.521,14.714 L92.474,14.714 C91.3875278,14.7137 90.4995321,15.5808278 90.474,16.667 L90.405,19.632 C87.8585503,22.283699 85.6663109,25.2540792 83.883,28.469 L83.583,28.562 C83.0766747,28.7202948 82.6539813,29.0732642 82.4079271,29.5432428 C82.1618729,30.0132214 82.1126179,30.561702 82.271,31.068 L82.416,31.533 C80.423,36.653 79.406,44.976 79.393,56.299 C78.8591947,59.4861912 78.1750986,62.6463813 77.343,65.769 L72.03,69 C70.4715882,69.9472322 69.9733636,71.976804 70.916,73.538 L73.261,77.408 C72.619906,78.8396258 71.9192954,80.2438496 71.161,81.617 L65.945,83.217 C64.2020161,83.7547522 63.2229138,85.6015834 63.756,87.346 L64.838,90.87 C63.8233453,92.1056262 62.7497683,93.2916668 61.621,94.424 L58.598,94.186 C58.5091937,94.1785903 58.4201149,94.1749204 58.331,94.175 C56.6126627,94.185145 55.1863905,95.5055424 55.044,97.218 L54.821,100.048 C51.856,102.178 49.521,103.881 49.521,107.548 C49.521,110.198 52.921,112.648 56.471,114.494 C55.9244191,115.604673 55.4009728,116.726581 54.901,117.859 C53.035,122.015 51.801,124.759 47.453,126.091 C38.994,128.675 27.016,126.335 21.138,122.527 C19.313,121.345 18.238,120.095 18.097,119.008 C17.833,116.897 23.285,114.821 27.264,113.308 C31.183,111.816 33.416,110.914 33.734,109.748 C33.8830227,109.231916 33.7731054,108.675623 33.439,108.255 C31.48,105.69 20.977,105.22 1,105.22 C0.723857625,105.22 0.5,105.443858 0.5,105.72 C0.5,105.996142 0.723857625,106.22 1,106.22 C13.5,106.22 30.627,106.22 32.645,108.862 C32.7902945,109.034708 32.8374261,109.269612 32.77,109.485 C32.57,110.217 29.431,111.413 26.909,112.373 C21.909,114.273 16.744,116.244 17.109,119.134 C17.285,120.539 18.491,122.003 20.598,123.368 C24.873,126.138 32.179,128.209 39.278,128.209 C42.143288,128.240066 44.9975452,127.849211 47.749,127.049 C52.533,125.587 53.91,122.518 55.817,118.271 C56.3114175,117.151784 56.8288608,116.042881 57.369,114.945 C58.6463164,115.56509 59.9473027,116.135189 61.269,116.654 C68.6398544,119.556806 76.4740603,121.105625 84.395,121.226 C85.572,121.226 86.731,121.184 87.857,121.1 C88.4741785,123.893625 89.2392555,126.652508 90.149,129.365 C90.665,130.834 95.32,143.719 99.908,143.719 C100.51951,143.721858 101.112889,143.511452 101.586,143.124 C102.417,142.447 103.086,141.901 102.939,131.588 C109.438022,133.222846 116.123296,133.998788 122.824,133.896 C128.786302,133.786829 134.721278,133.060623 140.534,131.729 C139.949,141.843 140.683,142.44 141.523,143.124 C141.995804,143.511307 142.588818,143.721709 143.2,143.719 C147.772,143.719 152.426,130.834 152.942,129.365 C153.289,128.376 153.642,127.228 153.988,125.953 C155.333,122.495 158.388,113.187 158.735,99.341 C158.749,98.789 158.745,98.233 158.754,97.679 C160.545943,99.1928791 162.069656,100.998211 163.261,103.019 C163.929,104.171 164.503,105.434 165.112,106.77 C166.748,110.365 168.603,114.439 173.144,118.47 C176.746342,121.871343 181.243815,124.175063 186.109,125.111 C187.432943,125.330778 188.772943,125.43949 190.115,125.436 C196.615,125.436 203.064,123.036 206.045,120.27 C206.961112,119.593537 207.518559,118.536081 207.559,117.398 C207.285,114.468 200.078,112.085 189.115,108.784 C183.688,107.15 176.256,104.912 176.261,103.764 C176.267,102.45 181.904,100.364 192.081,100.022 C201.712,99.701 217.866,99.696 234.981,99.701 L235.749,99.701 C236.025142,99.701 236.249,99.4771424 236.249,99.201 C236.249,98.9248576 236.025142,98.701 235.749,98.701 L235.754,98.7 Z M171.579,33 C174.215,35.827 177.384,39.916 178.479,44.168 C180.116,50.547 176.362,59.068 173.561,62.609 C169.668,67.527 165.98,69.576 159.833,70.395 C159.133,70.488 158.401,70.537 157.654,70.567 C157.541755,70.5197338 157.421737,70.4936284 157.3,70.49 C148.335274,70.2477251 139.490165,68.3702575 131.2,64.95 C130.699811,64.7353755 130.119828,64.9602055 129.894989,65.4558864 C129.670149,65.9515673 129.883035,66.5360405 130.374,66.771 C138.35328,70.1029772 146.851961,72.0196217 155.489,72.435 C155.528,72.758 155.569,73.094 155.61,73.456 C156.381966,73.6968432 156.996271,74.2858283 157.269374,75.0469803 C157.542477,75.8081323 157.442754,76.6533122 157,77.33 C156.910296,77.3431823 156.826098,77.3812965 156.757,77.44 C154.919,79.074 148.35,80.572 148.283,80.586 C148.243822,80.5950726 148.205881,80.6088387 148.17,80.627 L145.97,81.727 C145.783279,81.8201618 145.674049,82.0194863 145.696,82.227 C145.702,82.288 146.257,88.361 143.421,91.2 C142.367553,92.2303583 140.919934,92.7547097 139.451,92.638 L140.271,88.189 C140.319951,87.9243793 140.150679,87.6684823 139.888,87.61 L137.283,87.031 C137.144,86.031 136.913,82.849 139.226,81.114 C140.202,80.383 147.383,77.535 150.068,76.5 C150.318634,76.3962658 150.440845,76.1116095 150.343434,75.8584503 C150.246024,75.605291 149.964524,75.4759743 149.709,75.567 C148.709,75.953 139.891,79.367 138.627,80.314 C135.365,82.761 136.315,87.357 136.357,87.551 C136.376603,87.6250905 136.413243,87.6935771 136.464,87.751 C135.613333,87.6063333 134.746667,87.471 133.864,87.345 C133.816,85.725 133.238,83.563 131.713,82.465 C130.618127,81.7194139 129.220878,81.5768683 127.998,82.086 C127.968182,82.0962963 127.939391,82.1093529 127.912,82.125 C126.329128,83.0628294 125.33099,84.7404551 125.262,86.579 C125.262,89.039 126.662,91.879 128.735,92.193 C128.990504,92.2318718 129.248556,92.2515934 129.507,92.252 C130.519182,92.267067 131.501921,91.9113889 132.27,91.252 C133.110748,90.5002119 133.652494,89.4706815 133.796,88.352 C135.628,88.612 137.383667,88.912 139.063,89.252 L138.369,93.017 C138.343708,93.1547605 138.377357,93.2968135 138.46176,93.4085895 C138.546162,93.5203656 138.673578,93.5916154 138.813,93.605 C139.110333,93.6336667 139.400333,93.648 139.683,93.648 C141.341366,93.7053523 142.950287,93.0779127 144.132,91.913 C144.483588,91.5577341 144.794813,91.1646789 145.06,90.741 C149.237092,91.9034323 153.198844,93.7333618 156.792,96.16 C156.784,97.1906667 156.767,98.2383333 156.741,99.303 C156.399,113.003 153.367,122.085 152.092,125.338 C151.789241,126.475752 151.445349,127.602158 151.061,128.715 C148.45,136.153 144.884,141.732 143.206,141.732 C143.054746,141.733988 142.907692,141.682253 142.791,141.586 C142.122,141.041 142.281,135.718 142.638,130.22 C144.806265,129.379125 146.804967,128.153819 148.538,126.603 C148.7313,126.405006 148.727494,126.0878 148.5295,125.8945 C148.331506,125.7012 148.0143,125.705006 147.821,125.903 C146.168475,127.353336 144.275373,128.503952 142.227,129.303 C135.878399,130.895931 129.370904,131.770418 122.827,131.91 C111.546,131.91 104.427,130.018 101.904,129.21 L101.644,123.101 C101.632126,122.824858 101.398642,122.610626 101.1225,122.6225 C100.846358,122.634374 100.632126,122.867858 100.644,123.144 L100.887,128.858 C101.036,135.034 101,141.039 100.325,141.588 C100.208308,141.684253 100.061254,141.735988 99.91,141.734 C98.229,141.734 94.649,136.155 92.038,128.717 C90.9819303,125.515557 90.108853,122.256625 89.423,118.956 L89.418,118.956 C86.867,108.708 84.782,96.985 84.761,96.867 C84.7350556,96.6862291 84.6126186,96.5339828 84.4416215,96.4698638 C84.2706245,96.4057447 84.078272,96.4399537 83.9398677,96.5590984 C83.8014633,96.6782432 83.7390263,96.8633684 83.777,97.042 C83.798,97.16 85.868,108.798 88.41,119.042 C87.086,119.164 85.748,119.242 84.397,119.242 C75.3654764,119.09844 66.4681007,117.032953 58.297,113.183 C60.1909776,109.758416 62.5273669,106.597953 65.246,103.783 C74.318,94.228 83.589,90.214 90.577,88.573 C91.06642,89.8685584 91.9498896,90.9779667 93.103,91.745 C93.9236768,92.3018524 94.8857217,92.6139794 95.877,92.645 C97.3073176,92.5552131 98.6214692,91.8270872 99.456,90.662 C99.5911244,90.5016937 99.6118863,90.2741108 99.508,90.092 L98.041,87.518 C99.475,87.4393333 100.914,87.4286667 102.358,87.486 C103.435,91.175 108.165,91.542 108.216,91.546 L108.249,91.546 C108.45329,91.5459525 108.637004,91.4216288 108.713,91.232 C108.935514,90.59573 109.080559,89.9349688 109.145,89.264 L111.836,89.264 C112.112142,89.264 112.336,89.0401424 112.336,88.764 C112.336,88.4878576 112.112142,88.264 111.836,88.264 L109.23,88.264 C109.276485,87.1819599 109.225614,86.0979314 109.078,85.025 L111.515,85.025 C111.791142,85.025 112.015,84.8011424 112.015,84.525 C112.015,84.2488576 111.791142,84.025 111.515,84.025 L108.922,84.025 C108.786209,83.269798 108.615358,82.5213223 108.41,81.782 C108.341406,81.5357579 108.098128,81.3809055 107.846,81.423 C106.801681,81.620316 105.79128,81.9672204 104.846,82.453 C102.979,83.442 102.076,84.829 102.188,86.478 C100.624858,86.421191 99.0598377,86.4438869 97.499,86.546 L97.451,86.462 L100.384,86.162 C100.634044,86.1364532 100.826259,85.9292551 100.833,85.678 C100.838,85.478 100.933,80.747 97.881,78.989 C96.204,78.021 86.481,74.117 86.063,73.952 C85.8083941,73.8560309 85.5237861,73.9812704 85.4225459,74.2338266 C85.3213057,74.4863828 85.4406026,74.7735324 85.691,74.88 C85.791,74.921 95.765,78.923 97.381,79.856 C99.431,81.039 99.769,84.079 99.823,85.215 L96.586,85.548 C96.4179033,85.56536 96.2699499,85.666455 96.1926851,85.8167482 C96.1154203,85.9670414 96.1193005,86.1461931 96.203,86.293 L98.474,90.281 C97.398,91.467 95.968,92.348 93.643,90.896 C90.218,88.758 90.574,82.333 90.624,81.634 C90.624,81.612 90.629,81.59 90.624,81.568 L90.624,81.561 C90.6314874,81.4692369 90.6134929,81.3771881 90.572,81.295 C90.4917808,81.0141344 90.2910426,80.7833589 90.024,80.665 C89.987,80.649 86.165,78.965 82.503,77.46 C79.441,76.199 79.003,73.996 78.979,73.876 C78.8836197,73.3394347 78.3761663,72.9780398 77.8379071,73.0633436 C77.2996479,73.1486475 76.9288026,73.6492361 77.004,74.189 C77.025,74.327 77.572,77.589 81.742,79.31 C85.387,80.81 89.194,82.486 89.23,82.501 C89.286,82.525 89.43,82.592 89.58,82.659 C89.5558643,84.3379827 89.7796074,86.0113381 90.244,87.625 C83.122,89.318 73.714,93.416 64.525,103.095 C61.7378793,105.980612 59.3444774,109.222027 57.407,112.735 C53.782,110.848 51.527,108.935 51.527,107.569 C51.527,104.687 53.487,103.504 56.745,101.147 L57.045,97.395 C57.0999213,96.7203757 57.6611588,96.1995056 58.338,96.195 L58.448,96.195 L60.982,96.395 C60.380251,96.931782 59.7376447,97.4209251 59.06,97.858 C58.8283165,98.0084976 58.7625024,98.3183165 58.913,98.55 C59.0634976,98.7816835 59.3733165,98.8474976 59.605,98.697 C60.5890804,98.0670286 61.4997247,97.3291217 62.32,96.497 L62.378,96.497 C64.0576985,94.8758771 65.6249945,93.1421959 67.069,91.308 L65.675,86.767 C65.4637774,86.0783297 65.8504945,85.3487592 66.539,85.137 L70.891,83.801 L69.321,86.141 C69.1669126,86.3701982 69.2278018,86.6809126 69.457,86.835 C69.6861982,86.9890874 69.9969126,86.9281982 70.151,86.699 L72.407,83.336 L72.518,83.302 C73.6309734,81.349528 74.6325743,79.3356423 75.518,77.27 L72.634,72.51 C72.260613,71.8938905 72.457117,71.0917604 73.073,70.718 L77.666,67.934 L76.766,70.434 C76.6780158,70.6923379 76.8134363,70.9735051 77.0702797,71.0657613 C77.327123,71.1580174 77.6104973,71.0272781 77.707,70.772 L79.023,67.107 L79.074,67.076 C79.112,66.939 79.143,66.806 79.18,66.67 L79.258,66.452 C79.2785517,66.3925794 79.2877118,66.3298158 79.285,66.267 C80.1463796,63.0395006 80.8535145,59.7727979 81.404,56.478 C81.404,46.761 82.183,38.299 84.031,32.994 L84.714,34.703 C84.8164488,34.9595362 85.1074637,35.0844487 85.364,34.9819999 C85.6205362,34.8795511 85.7454488,34.5885363 85.643,34.332 L84.499,31.47 L84.191,30.484 L85.274,30.146 C86.9451399,26.9701946 89.0384784,24.035215 91.497,21.421 C91.5384574,21.9991117 91.6189745,22.5737568 91.738,23.141 C91.8258595,23.400679 92.1064326,23.5411885 92.367,23.456 C92.4931553,23.4148225 92.5977661,23.3251826 92.6577881,23.2068268 C92.71781,23.0884709 92.728319,22.951109 92.687,22.825 C92.5494731,22.0023742 92.4536838,21.173313 92.4,20.341 L92.484,16.728 L96.368,16.818 C99.5965892,14.1490798 103.080051,11.8044423 106.768,9.818 L108.289,4.257 L113.427,5.662 L110.9,6.78 C110.73136,6.84938853 110.613871,7.00508511 110.593411,7.1862909 C110.572952,7.36749669 110.652767,7.54547056 110.801689,7.6507145 C110.950611,7.75595843 111.14502,7.77177963 111.309,7.692 L115.009,6.033 C119.741266,4.14015285 124.766191,3.08312889 129.86,2.909 C130.393333,2.909 130.908333,2.92633333 131.405,2.961 C139.159,3.496 152.014,13.473 162.188,23.482 C162.311098,23.358287 162.478478,23.2888155 162.653,23.289 C162.817495,23.2885886 162.975812,23.351629 163.095,23.465 L171.579,33 Z M163.095,23.465 C166.176012,26.4088532 169.013305,29.5976304 171.579,33 L163.095,23.465 Z M156.789,94.935 C153.311215,92.6904767 149.520982,90.9719324 145.541,89.835 C146.38232,87.8433764 146.793624,85.6965508 146.748,83.535 C146.781027,83.5420982 146.814407,83.5474391 146.848,83.551 C146.946987,83.5510288 147.045417,83.5361968 147.14,83.507 L156.289,80.723 C156.577,84.728 156.8,89.562 156.789,94.931 L156.789,94.935 Z" id="Shape" fill="url(#linearGradient-3)"></path>
                    <path d="M160.225,37.669 C161.003265,37.6678984 161.633898,37.0372648 161.635,36.259 L161.635,33.1 C161.635,32.3210024 161.003498,31.6895 160.2245,31.6895 C159.445502,31.6895 158.814,32.3210024 158.814,33.1 L158.814,36.262 C158.816753,37.0394827 159.447513,37.6684542 160.225,37.669 L160.225,37.669 Z" id="Shape" fill="url(#linearGradient-4)"></path>
                    <path d="M160.225,42.475 C162.071114,42.4648741 163.799514,41.566806 164.869,40.062 C165.169443,39.598357 165.037143,38.9789429 164.5735,38.6785 C164.109857,38.3780571 163.490443,38.510357 163.19,38.974 C162.488204,39.9072776 161.392634,40.4615289 160.225,40.474 C159.053013,40.4691361 157.952238,39.9107773 157.256,38.968 C156.9539,38.5054615 156.334038,38.3754003 155.8715,38.6775 C155.408962,38.9795998 155.2789,39.5994615 155.581,40.062 C156.650486,41.566806 158.378886,42.4648741 160.225,42.475 L160.225,42.475 Z" id="Shape" fill="url(#linearGradient-5)"></path>
                    <path d="M130.852,40.719 C131.157738,41.1719451 131.77046,41.2955754 132.22791,40.9966205 C132.68536,40.6976656 132.818106,40.0868537 132.526,39.625 C131.463638,38.1126046 129.73123,37.2124149 127.883,37.2124149 C126.03477,37.2124149 124.302362,38.1126046 123.24,39.625 C122.937624,40.0872623 123.067238,40.7071241 123.5295,41.0095 C123.991762,41.3118758 124.611624,41.1822623 124.914,40.72 C125.606847,39.7731682 126.709745,39.2135745 127.883,39.2135745 C129.056255,39.2135745 130.159153,39.7731682 130.852,40.72 L130.852,40.719 Z" id="Shape" fill="url(#linearGradient-6)"></path>
                    <path d="M126.473,33.1 L126.473,36.262 C126.473,36.298 126.481,36.332 126.484,36.368 C127.406487,36.1667744 128.361513,36.1667744 129.284,36.368 C129.284,36.332 129.295,36.298 129.295,36.262 L129.295,33.1 C129.295,32.3210024 128.663498,31.6895 127.8845,31.6895 C127.105502,31.6895 126.474,32.3210024 126.474,33.1 L126.473,33.1 Z" id="Shape" fill="url(#linearGradient-7)"></path>
                    <path d="M127.912,28.086 C129.757702,28.0762779 131.485837,27.1785261 132.555,25.674 C132.857376,25.2117377 132.727762,24.5918759 132.2655,24.2895 C131.803238,23.9871242 131.183376,24.1167377 130.881,24.579 C130.188111,25.5254316 129.085457,26.0847424 127.9125,26.0847424 C126.739543,26.0847424 125.636889,25.5254316 124.944,24.579 C124.638262,24.1260549 124.02554,24.0024246 123.56809,24.3013795 C123.11064,24.6003344 122.977894,25.2111463 123.27,25.673 C124.338741,27.1776192 126.06647,28.0757261 127.912,28.086 L127.912,28.086 Z" id="Shape" fill="url(#linearGradient-8)"></path>
                    <path d="M122.934,53.646 C122.177281,50.527732 120.62315,47.6596551 118.424,45.323 C113.28,40.178 105.917,40.456 105.607,40.466 C105.054715,40.4905767 104.626923,40.9582153 104.6515,41.5105 C104.676077,42.0627847 105.143715,42.4905766 105.696,42.466 C106.755471,42.4584606 107.813251,42.5518827 108.855,42.745 C109.106266,43.9351305 109.474729,45.0974647 109.955,46.215 C109.413624,46.3149434 108.888214,46.4875011 108.393,46.728 C107.423669,47.2864163 106.59836,48.0637816 105.983,48.998 C105.880702,49.1480939 105.867849,49.34186 105.949425,49.5041508 C106.031002,49.6664416 106.194175,49.7717271 106.375662,49.7791749 C106.557149,49.7866226 106.7284,49.695061 106.823,49.54 C107.341981,48.7579698 108.030325,48.102779 108.837,47.623 C109.34184,47.3804195 109.881826,47.2190986 110.437,47.145 C110.680144,47.5601427 110.994239,47.9294072 111.365,48.236 C110.899604,48.9501141 110.57542,49.7468251 110.41,50.583 C110.275662,51.6936703 110.403057,52.8203663 110.782,53.873 C110.854775,54.0690535 111.041875,54.1991057 111.251,54.199 C111.310392,54.1992105 111.369335,54.1887091 111.425,54.168 C111.549426,54.1219046 111.650428,54.0282409 111.705759,53.9076375 C111.76109,53.787034 111.766213,53.6493827 111.72,53.525 C111.404355,52.6414106 111.292902,51.6978134 111.394,50.765 C111.548267,50.0121649 111.852288,49.29802 112.288,48.665 C112.444075,48.6970918 112.602706,48.7151638 112.762,48.719 C114.370693,48.5192156 115.903518,47.9188764 117.22,46.973 C119.02071,49.0050955 120.306806,51.4401042 120.97,54.073 C121.08598,54.6131344 121.617866,54.9569797 122.158,54.8409999 C122.698134,54.7250201 123.04198,54.1931345 122.926,53.653 L122.934,53.646 Z M112.113,47.564 C111.086,46.922 110.313,44.535 109.935,42.972 C112.354638,43.5109122 114.603623,44.6393555 116.482,46.257 C114.965,47.2 112.975,48.1 112.112,47.564 L112.113,47.564 Z" id="Shape" fill="url(#linearGradient-9)"></path>
                    <path d="M160.839,14.06 C161.106246,14.0588906 161.361929,13.9508556 161.549,13.76 L164.082,11.206 C164.340666,10.9537762 164.443173,10.5816424 164.350146,10.232542 C164.257119,9.88344155 163.983025,9.61166328 163.633147,9.52160214 C163.28327,9.431541 162.91202,9.53720245 162.662,9.798 L160.129,12.352 C159.847671,12.6390058 159.765495,13.0665455 159.920379,13.4373946 C160.075263,13.8082437 160.43711,14.0503384 160.839,14.052 L160.839,14.06 Z" id="Shape" fill="url(#linearGradient-10)"></path>
                    <path d="M166.708,15.691 C166.849013,15.6908319 166.988396,15.6608424 167.117,15.603 L170.629,14.027 C171.12836,13.7984099 171.349927,13.2098821 171.1253,12.7087272 C170.900673,12.2075722 170.313919,11.9813497 169.811,12.202 L166.299,13.778 C165.867797,13.9706736 165.630185,14.4387619 165.72916,14.9005661 C165.828135,15.3623703 166.236709,15.6919659 166.709,15.691 L166.708,15.691 Z" id="Shape" fill="url(#linearGradient-11)"></path>
                    <path d="M160.882,81.558 C160.633694,81.6133841 160.466563,81.8463893 160.493702,82.0993457 C160.520841,82.3523022 160.733596,82.5445504 160.988,82.546 C161.023295,82.5461491 161.058502,82.5424608 161.093,82.535 C162.719299,82.1147507 164.040544,80.931457 164.636863,79.3611503 C165.233182,77.7908437 165.030415,76.0288119 164.093,74.635 C163.987428,74.4908433 163.812969,74.4139591 163.635339,74.4333087 C163.45771,74.4526584 163.303897,74.5653024 163.231839,74.7288087 C163.159782,74.8923151 163.180428,75.0818433 163.286,75.226 C164.02134,76.3468034 164.174233,77.7523794 163.697073,79.0050739 C163.219913,80.2577684 162.170652,81.2054354 160.876,81.553 L160.882,81.558 Z" id="Shape" fill="url(#linearGradient-12)"></path>
                    <path d="M162.435,85.387 C162.470295,85.3871491 162.505502,85.3834608 162.54,85.376 C164.978704,84.7425131 166.959698,82.9673652 167.855885,80.6124907 C168.752072,78.2576163 168.4525,75.6145607 167.052,73.52 C166.8888,73.2971531 166.575847,73.2487999 166.353,73.412 C166.130153,73.5752001 166.0818,73.8881531 166.245,74.111 C167.429447,75.9375369 167.680131,78.2166885 166.921,80.257 C166.142789,82.2943122 164.434625,83.8347464 162.328,84.399 C162.077655,84.4523966 161.90807,84.6862424 161.935094,84.9407877 C161.962119,85.1953331 162.177024,85.3883583 162.433,85.388 L162.435,85.387 Z" id="Shape" fill="url(#linearGradient-13)"></path>
                    <path d="M94.087,96.745 C94.5851806,96.9025681 95.1044956,96.9831631 95.627,96.984 C96.7619827,96.9784515 97.8646521,96.6055156 98.77,95.921 C98.9829058,95.7450973 99.0129027,95.4299058 98.837,95.217 C98.6610973,95.0040942 98.3459058,94.9740973 98.133,95.15 C97.0589147,95.9526247 95.6648706,96.1909731 94.3851347,95.7907957 C93.1053989,95.3906184 92.095486,94.4005453 91.67,93.129 C91.5882601,92.8720445 91.3174931,92.7261878 91.0579515,92.7993019 C90.7984098,92.8724161 90.6435932,93.1381617 90.708,93.4 C91.2296559,94.9942628 92.4875433,96.2394932 94.087,96.745 L94.087,96.745 Z" id="Shape" fill="url(#linearGradient-14)"></path>
                    <path d="M99.43,98.03 C97.6852461,99.3395403 95.4171307,99.7299894 93.3349206,99.0792492 C91.2527104,98.428509 89.610564,96.8160101 88.922,94.746 C88.8474416,94.4800749 88.5714251,94.3249416 88.3055,94.3995 C88.0395749,94.4740584 87.8844416,94.7500749 87.959,95.016 C88.7360764,97.4143659 90.6280835,99.2868904 93.0343638,100.039101 C95.4406442,100.791313 98.0622882,100.32977 100.067,98.801 C100.279906,98.6248212 100.309679,98.3094058 100.1335,98.0965001 C99.9573211,97.8835943 99.6419058,97.8538212 99.429,98.03 L99.43,98.03 Z" id="Shape" fill="url(#linearGradient-15)"></path>
                </g>
                <g id="Group" transform="translate(127.000000, 135.000000)" fill="#F9F9FA">
                    <path d="M1.366,3.859 C1.18666095,3.85875672 1.02118779,3.7624839 0.93234416,3.60669763 C0.843500531,3.45091136 0.844895516,3.259475 0.936,3.105 L2.281,0.822 C2.36936905,0.663362909 2.53679972,0.565107332 2.71838929,0.565321009 C2.89997885,0.565534686 3.06717782,0.664184024 3.15517329,0.823028644 C3.24316875,0.981873264 3.23812608,1.17593965 3.142,1.33 L1.797,3.613 C1.7070363,3.76554116 1.54309393,3.85911384 1.366,3.859 L1.366,3.859 Z" id="Shape"></path>
                    <path d="M2.086,7.527 C1.90666095,7.52675672 1.74118779,7.4304839 1.65234416,7.27469763 C1.56350053,7.11891136 1.56489552,6.927475 1.656,6.773 L3,4.491 C3.08836905,4.33236291 3.25579972,4.23410733 3.43738929,4.23432101 C3.61897885,4.23453469 3.78617782,4.33318402 3.87417329,4.49202864 C3.96216875,4.65087326 3.95712608,4.84493965 3.861,4.999 L2.516,7.281 C2.42621765,7.43323396 2.26273707,7.52676006 2.086,7.527 L2.086,7.527 Z" id="Shape"></path>
                </g>
            </g>
            <g id="Group-2" transform="translate(184.000000, 84.000000)" stroke="#06A1EE">
                <path d="M2.0512382,5.00706982 C21.6652032,39.1910074 59.6338119,59.6474254 93.2083017,78.3852123" id="Path-2"></path>
                <path d="M317.608735,115.086116 C343.458444,114.564192 335.186664,115.691274 376.392497,102.394629 C441.762477,81.300494 475.800181,64.2966747 524.732295,16.4405054" id="Path-4"></path>
                <path d="M512.137755,20.4945765 C532.072422,11.8634117 531.647876,7.9940755 523.58447,22.8055794" id="Path-5"></path>
                <path d="M0.810486572,15.2024045 C0.976889857,-3.20009199 -2.36079183,-2.70723012 9.15455784,9.47320265" id="Path-3"></path>
                <path d="M190.931402,32 C184.537672,51.9168799 194.811695,48.7209676 210.086491,41.2974859" id="Path-6"></path>
                <path d="M203.142775,33 C201.095183,40.1056216 199.047592,47.2112431 197,54.3168647" id="Path-7"></path>
                <path d="M222.94433,34.9325155 C222.94433,37.9753571 221.967592,41.1792235 222.94433,44.0610404 C225.55707,51.7697994 238.569425,43.2446141 234.273978,36.8420066 C231.823639,33.1896386 226.091326,33.6140022 222,32" id="Path-8"></path>
                <path d="M246.582429,29 C242.533775,54.0045461 245.483195,50.4906385 264.515444,39.5126166" id="Path-9"></path>
                <path d="M254.434891,32 C253.62326,39.433514 252.81163,46.8670279 252,54.3005419" id="Path-10"></path>
            </g>
        </g>
    </g>
</svg>