<svg class="marks" width="730" height="135" viewBox="0 0 730 135" version="1.1" xmlns="http://www.w3.org/2000/svg" xmlns:xlink="http://www.w3.org/1999/xlink"><g transform="translate(5,5)"><g class="mark-group role-frame root"><g transform="translate(0,0)"><path class="background" d="M0.5,0.5h720v21h-720Z" style="fill: none; stroke: #ddd; stroke-width: 0;"></path><g><g class="mark-symbol role-mark marks"><path transform="translate(228,10.5)" d="M-10,-10h20v20h-20Z" style="fill: rgb(255, 247, 247); stroke-width: 2; opacity: 0.7;"></path><path transform="translate(516,10.5)" d="M-10,-10h20v20h-20Z" style="fill: rgb(255, 245, 245); stroke-width: 2; opacity: 0.7;"></path><path transform="translate(684,10.5)" d="M-10,-10h20v20h-20Z" style="fill: rgb(213, 226, 238); stroke-width: 2; opacity: 0.7;"></path><path transform="translate(564,10.5)" d="M-10,-10h20v20h-20Z" style="fill: rgb(255, 233, 233); stroke-width: 2; opacity: 0.7;"></path><path transform="translate(468,10.5)" d="M-10,-10h20v20h-20Z" style="fill: rgb(222, 233, 242); stroke-width: 2; opacity: 0.7;"></path><path transform="translate(636,10.5)" d="M-10,-10h20v20h-20Z" style="fill: rgb(255, 230, 230); stroke-width: 2; opacity: 0.7;"></path><path transform="translate(708,10.5)" d="M-10,-10h20v20h-20Z" style="fill: rgb(255, 185, 185); stroke-width: 2; opacity: 0.7;"></path><path transform="translate(300,10.5)" d="M-10,-10h20v20h-20Z" style="fill: rgb(255, 197, 197); stroke-width: 2; opacity: 0.7;"></path><path transform="translate(180,10.5)" d="M-10,-10h20v20h-20Z" style="fill: rgb(255, 218, 218); stroke-width: 2; opacity: 0.7;"></path><path transform="translate(588,10.5)" d="M-10,-10h20v20h-20Z" style="fill: rgb(255, 230, 230); stroke-width: 2; opacity: 0.7;"></path><path transform="translate(612,10.5)" d="M-10,-10h20v20h-20Z" style="fill: rgb(255, 242, 242); stroke-width: 2; opacity: 0.7;"></path><path transform="translate(396,10.5)" d="M-10,-10h20v20h-20Z" style="fill: rgb(255, 180, 180); stroke-width: 2; opacity: 0.7;"></path><path transform="translate(12,10.5)" d="M-10,-10h20v20h-20Z" style="fill: rgb(254, 254, 254); stroke-width: 2; opacity: 0.7;"></path><path transform="translate(204,10.5)" d="M-10,-10h20v20h-20Z" style="fill: rgb(235, 241, 247); stroke-width: 2; opacity: 0.7;"></path><path transform="translate(324,10.5)" d="M-10,-10h20v20h-20Z" style="fill: rgb(231, 239, 245); stroke-width: 2; opacity: 0.7;"></path><path transform="translate(492,10.5)" d="M-10,-10h20v20h-20Z" style="fill: rgb(255, 250, 250); stroke-width: 2; opacity: 0.7;"></path><path transform="translate(60,10.5)" d="M-10,-10h20v20h-20Z" style="fill: rgb(255, 192, 192); stroke-width: 2; opacity: 0.7;"></path><path transform="translate(348,10.5)" d="M-10,-10h20v20h-20Z" style="fill: rgb(255, 228, 228); stroke-width: 2; opacity: 0.7;"></path><path transform="translate(84,10.5)" d="M-10,-10h20v20h-20Z" style="fill: rgb(255, 211, 211); stroke-width: 2; opacity: 0.7;"></path><path transform="translate(252,10.5)" d="M-10,-10h20v20h-20Z" style="fill: rgb(233, 240, 246); stroke-width: 2; opacity: 0.7;"></path><path transform="translate(420,10.5)" d="M-10,-10h20v20h-20Z" style="fill: rgb(255, 194, 194); stroke-width: 2; opacity: 0.7;"></path><path transform="translate(132,10.5)" d="M-10,-10h20v20h-20Z" style="fill: rgb(214, 228, 239); stroke-width: 2; opacity: 0.7;"></path><path transform="translate(108,10.5)" d="M-10,-10h20v20h-20Z" style="fill: rgb(228, 237, 244); stroke-width: 2; opacity: 0.7;"></path><path transform="translate(372,10.5)" d="M-10,-10h20v20h-20Z" style="fill: rgb(240, 245, 249); stroke-width: 2; opacity: 0.7;"></path><path transform="translate(444,10.5)" d="M-10,-10h20v20h-20Z" style="fill: rgb(255, 218, 218); stroke-width: 2; opacity: 0.7;"></path><path transform="translate(660,10.5)" d="M-10,-10h20v20h-20Z" style="fill: rgb(255, 194, 194); stroke-width: 2; opacity: 0.7;"></path><path transform="translate(36,10.5)" d="M-10,-10h20v20h-20Z" style="fill: rgb(255, 229, 229); stroke-width: 2; opacity: 0.7;"></path><path transform="translate(156,10.5)" d="M-10,-10h20v20h-20Z" style="fill: rgb(255, 215, 215); stroke-width: 2; opacity: 0.7;"></path><path transform="translate(540,10.5)" d="M-10,-10h20v20h-20Z" style="fill: rgb(255, 224, 224); stroke-width: 2; opacity: 0.7;"></path><path transform="translate(276,10.5)" d="M-10,-10h20v20h-20Z" style="fill: rgb(230, 238, 245); stroke-width: 2; opacity: 0.7;"></path></g><g class="mark-group role-axis"><g transform="translate(0.5,21.5)"><path class="background" d="M0,0h0v0h0Z" style="pointer-events: none; fill: none;"></path><g><g class="mark-rule role-axis-tick" style="pointer-events: none;"><line transform="translate(12,0)" x2="0" y2="5" style="fill: none; stroke: #888; stroke-width: 1; opacity: 1;"></line><line transform="translate(36,0)" x2="0" y2="5" style="fill: none; stroke: #888; stroke-width: 1; opacity: 1;"></line><line transform="translate(60,0)" x2="0" y2="5" style="fill: none; stroke: #888; stroke-width: 1; opacity: 1;"></line><line transform="translate(84,0)" x2="0" y2="5" style="fill: none; stroke: #888; stroke-width: 1; opacity: 1;"></line><line transform="translate(108,0)" x2="0" y2="5" style="fill: none; stroke: #888; stroke-width: 1; opacity: 1;"></line><line transform="translate(132,0)" x2="0" y2="5" style="fill: none; stroke: #888; stroke-width: 1; opacity: 1;"></line><line transform="translate(156,0)" x2="0" y2="5" style="fill: none; stroke: #888; stroke-width: 1; opacity: 1;"></line><line transform="translate(180,0)" x2="0" y2="5" style="fill: none; stroke: #888; stroke-width: 1; opacity: 1;"></line><line transform="translate(204,0)" x2="0" y2="5" style="fill: none; stroke: #888; stroke-width: 1; opacity: 1;"></line><line transform="translate(228,0)" x2="0" y2="5" style="fill: none; stroke: #888; stroke-width: 1; opacity: 1;"></line><line transform="translate(252,0)" x2="0" y2="5" style="fill: none; stroke: #888; stroke-width: 1; opacity: 1;"></line><line transform="translate(276,0)" x2="0" y2="5" style="fill: none; stroke: #888; stroke-width: 1; opacity: 1;"></line><line transform="translate(300,0)" x2="0" y2="5" style="fill: none; stroke: #888; stroke-width: 1; opacity: 1;"></line><line transform="translate(324,0)" x2="0" y2="5" style="fill: none; stroke: #888; stroke-width: 1; opacity: 1;"></line><line transform="translate(348,0)" x2="0" y2="5" style="fill: none; stroke: #888; stroke-width: 1; opacity: 1;"></line><line transform="translate(372,0)" x2="0" y2="5" style="fill: none; stroke: #888; stroke-width: 1; opacity: 1;"></line><line transform="translate(396,0)" x2="0" y2="5" style="fill: none; stroke: #888; stroke-width: 1; opacity: 1;"></line><line transform="translate(420,0)" x2="0" y2="5" style="fill: none; stroke: #888; stroke-width: 1; opacity: 1;"></line><line transform="translate(444,0)" x2="0" y2="5" style="fill: none; stroke: #888; stroke-width: 1; opacity: 1;"></line><line transform="translate(468,0)" x2="0" y2="5" style="fill: none; stroke: #888; stroke-width: 1; opacity: 1;"></line><line transform="translate(492,0)" x2="0" y2="5" style="fill: none; stroke: #888; stroke-width: 1; opacity: 1;"></line><line transform="translate(516,0)" x2="0" y2="5" style="fill: none; stroke: #888; stroke-width: 1; opacity: 1;"></line><line transform="translate(540,0)" x2="0" y2="5" style="fill: none; stroke: #888; stroke-width: 1; opacity: 1;"></line><line transform="translate(564,0)" x2="0" y2="5" style="fill: none; stroke: #888; stroke-width: 1; opacity: 1;"></line><line transform="translate(588,0)" x2="0" y2="5" style="fill: none; stroke: #888; stroke-width: 1; opacity: 1;"></line><line transform="translate(612,0)" x2="0" y2="5" style="fill: none; stroke: #888; stroke-width: 1; opacity: 1;"></line><line transform="translate(636,0)" x2="0" y2="5" style="fill: none; stroke: #888; stroke-width: 1; opacity: 1;"></line><line transform="translate(660,0)" x2="0" y2="5" style="fill: none; stroke: #888; stroke-width: 1; opacity: 1;"></line><line transform="translate(684,0)" x2="0" y2="5" style="fill: none; stroke: #888; stroke-width: 1; opacity: 1;"></line><line transform="translate(708,0)" x2="0" y2="5" style="fill: none; stroke: #888; stroke-width: 1; opacity: 1;"></line></g><g class="mark-text role-axis-label" style="pointer-events: none;"><text text-anchor="end" transform="translate(12,7) rotate(270) translate(0,3)" style="font: 10px sans-serif; fill: #000; opacity: 1;">Ballard County</text><text text-anchor="end" transform="translate(36,7) rotate(270) translate(0,3)" style="font: 10px sans-serif; fill: #000; opacity: 1;">Baraga County</text><text text-anchor="end" transform="translate(60,7) rotate(270) translate(0,3)" style="font: 10px sans-serif; fill: #000; opacity: 1;">Bay County</text><text text-anchor="end" transform="translate(84,7) rotate(270) translate(0,3)" style="font: 10px sans-serif; fill: #000; opacity: 1;">Bourbon County</text><text text-anchor="end" transform="translate(108,7) rotate(270) translate(0,3)" style="font: 10px sans-serif; fill: #000; opacity: 1;">Bryan County</text><text text-anchor="end" transform="translate(132,7) rotate(270) translate(0,3)" style="font: 10px sans-serif; fill: #000; opacity: 1;">Bullock County</text><text text-anchor="end" transform="translate(156,7) rotate(270) translate(0,3)" style="font: 10px sans-serif; fill: #000; opacity: 1;">Calhoun County</text><text text-anchor="end" transform="translate(180,7) rotate(270) translate(0,3)" style="font: 10px sans-serif; fill: #000; opacity: 1;">Campbell County</text><text text-anchor="end" transform="translate(204,7) rotate(270) translate(0,3)" style="font: 10px sans-serif; fill: #000; opacity: 1;">Carter County</text><text text-anchor="end" transform="translate(228,7) rotate(270) translate(0,3)" style="font: 10px sans-serif; fill: #000; opacity: 1;">Columbia County</text><text text-anchor="end" transform="translate(252,7) rotate(270) translate(0,3)" style="font: 10px sans-serif; fill: #000; opacity: 1;">Dale County</text><text text-anchor="end" transform="translate(276,7) rotate(270) translate(0,3)" style="font: 10px sans-serif; fill: #000; opacity: 1;">Fayette County</text><text text-anchor="end" transform="translate(300,7) rotate(270) translate(0,3)" style="font: 10px sans-serif; fill: #000; opacity: 1;">Golden Valley County</text><text text-anchor="end" transform="translate(324,7) rotate(270) translate(0,3)" style="font: 10px sans-serif; fill: #000; opacity: 1;">Greene County</text><text text-anchor="end" transform="translate(348,7) rotate(270) translate(0,3)" style="font: 10px sans-serif; fill: #000; opacity: 1;">Hopkins County</text><text text-anchor="end" transform="translate(372,7) rotate(270) translate(0,3)" style="font: 10px sans-serif; fill: #000; opacity: 1;">Irion County</text><text text-anchor="end" transform="translate(396,7) rotate(270) translate(0,3)" style="font: 10px sans-serif; fill: #000; opacity: 1;">Kewaunee County</text><text text-anchor="end" transform="translate(420,7) rotate(270) translate(0,3)" style="font: 10px sans-serif; fill: #000; opacity: 1;">Lincoln County</text><text text-anchor="end" transform="translate(444,7) rotate(270) translate(0,3)" style="font: 10px sans-serif; fill: #000; opacity: 1;">Lubbock County</text><text text-anchor="end" transform="translate(468,7) rotate(270) translate(0,3)" style="font: 10px sans-serif; fill: #000; opacity: 1;">Macon County</text><text text-anchor="end" transform="translate(492,7) rotate(270) translate(0,3)" style="font: 10px sans-serif; fill: #000; opacity: 1;">Marion County</text><text text-anchor="end" transform="translate(516,7) rotate(270) translate(0,3)" style="font: 10px sans-serif; fill: #000; opacity: 1;">Morgan County</text><text text-anchor="end" transform="translate(540,7) rotate(270) translate(0,3)" style="font: 10px sans-serif; fill: #000; opacity: 1;">Okmulgee County</text><text text-anchor="end" transform="translate(564,7) rotate(270) translate(0,3)" style="font: 10px sans-serif; fill: #000; opacity: 1;">Sarpy County</text><text text-anchor="end" transform="translate(588,7) rotate(270) translate(0,3)" style="font: 10px sans-serif; fill: #000; opacity: 1;">Schoharie County</text><text text-anchor="end" transform="translate(612,7) rotate(270) translate(0,3)" style="font: 10px sans-serif; fill: #000; opacity: 1;">Scotland County</text><text text-anchor="end" transform="translate(636,7) rotate(270) translate(0,3)" style="font: 10px sans-serif; fill: #000; opacity: 1;">Scott County</text><text text-anchor="end" transform="translate(660,7) rotate(270) translate(0,3)" style="font: 10px sans-serif; fill: #000; opacity: 1;">Shawano County</text><text text-anchor="end" transform="translate(684,7) rotate(270) translate(0,3)" style="font: 10px sans-serif; fill: #000; opacity: 1;">Treutlen County</text><text text-anchor="end" transform="translate(708,7) rotate(270) translate(0,3)" style="font: 10px sans-serif; fill: #000; opacity: 1;">Windsor County</text></g><g class="mark-rule role-axis-domain" style="pointer-events: none;"><line transform="translate(0,0)" x2="720" y2="0" style="fill: none; stroke: #888; stroke-width: 1; opacity: 1;"></line></g></g></g></g></g></g></g></g></svg>