<svg class="marks" width="777" height="434" viewBox="0 0 777 434" version="1.1" xmlns="http://www.w3.org/2000/svg" xmlns:xlink="http://www.w3.org/1999/xlink"><g transform="translate(50,11)"><g class="mark-group role-frame root"><g transform="translate(0,0)"><path class="background" d="M0.5,0.5h720v400h-720Z" style="fill: none; stroke: #ddd;"></path><g><g class="mark-group role-axis"><g transform="translate(0.5,400.5)"><path class="background" d="M0,0h0v0h0Z" style="pointer-events: none; fill: none;"></path><g><g class="mark-rule role-axis-grid" style="pointer-events: none;"><line transform="translate(28,-400)" x2="0" y2="400" style="fill: none; stroke: #ddd; stroke-width: 1; opacity: 1;"></line><line transform="translate(65,-400)" x2="0" y2="400" style="fill: none; stroke: #ddd; stroke-width: 1; opacity: 1;"></line><line transform="translate(102,-400)" x2="0" y2="400" style="fill: none; stroke: #ddd; stroke-width: 1; opacity: 1;"></line><line transform="translate(139,-400)" x2="0" y2="400" style="fill: none; stroke: #ddd; stroke-width: 1; opacity: 1;"></line><line transform="translate(176,-400)" x2="0" y2="400" style="fill: none; stroke: #ddd; stroke-width: 1; opacity: 1;"></line><line transform="translate(213,-400)" x2="0" y2="400" style="fill: none; stroke: #ddd; stroke-width: 1; opacity: 1;"></line><line transform="translate(251,-400)" x2="0" y2="400" style="fill: none; stroke: #ddd; stroke-width: 1; opacity: 1;"></line><line transform="translate(288,-400)" x2="0" y2="400" style="fill: none; stroke: #ddd; stroke-width: 1; opacity: 1;"></line><line transform="translate(325,-400)" x2="0" y2="400" style="fill: none; stroke: #ddd; stroke-width: 1; opacity: 1;"></line><line transform="translate(362,-400)" x2="0" y2="400" style="fill: none; stroke: #ddd; stroke-width: 1; opacity: 1;"></line><line transform="translate(399,-400)" x2="0" y2="400" style="fill: none; stroke: #ddd; stroke-width: 1; opacity: 1;"></line><line transform="translate(436,-400)" x2="0" y2="400" style="fill: none; stroke: #ddd; stroke-width: 1; opacity: 1;"></line><line transform="translate(473,-400)" x2="0" y2="400" style="fill: none; stroke: #ddd; stroke-width: 1; opacity: 1;"></line><line transform="translate(510,-400)" x2="0" y2="400" style="fill: none; stroke: #ddd; stroke-width: 1; opacity: 1;"></line><line transform="translate(547,-400)" x2="0" y2="400" style="fill: none; stroke: #ddd; stroke-width: 1; opacity: 1;"></line><line transform="translate(585,-400)" x2="0" y2="400" style="fill: none; stroke: #ddd; stroke-width: 1; opacity: 1;"></line><line transform="translate(622,-400)" x2="0" y2="400" style="fill: none; stroke: #ddd; stroke-width: 1; opacity: 1;"></line><line transform="translate(659,-400)" x2="0" y2="400" style="fill: none; stroke: #ddd; stroke-width: 1; opacity: 1;"></line><line transform="translate(696,-400)" x2="0" y2="400" style="fill: none; stroke: #ddd; stroke-width: 1; opacity: 1;"></line></g></g></g></g><g class="mark-group role-axis"><g transform="translate(0.5,0.5)"><path class="background" d="M0,0h0v0h0Z" style="pointer-events: none; fill: none;"></path><g><g class="mark-rule role-axis-grid" style="pointer-events: none;"><line transform="translate(0,400)" x2="720" y2="0" style="fill: none; stroke: #ddd; stroke-width: 1; opacity: 1;"></line><line transform="translate(0,364)" x2="720" y2="0" style="fill: none; stroke: #ddd; stroke-width: 1; opacity: 1;"></line><line transform="translate(0,327)" x2="720" y2="0" style="fill: none; stroke: #ddd; stroke-width: 1; opacity: 1;"></line><line transform="translate(0,291)" x2="720" y2="0" style="fill: none; stroke: #ddd; stroke-width: 1; opacity: 1;"></line><line transform="translate(0,255)" x2="720" y2="0" style="fill: none; stroke: #ddd; stroke-width: 1; opacity: 1;"></line><line transform="translate(0,218)" x2="720" y2="0" style="fill: none; stroke: #ddd; stroke-width: 1; opacity: 1;"></line><line transform="translate(0,182)" x2="720" y2="0" style="fill: none; stroke: #ddd; stroke-width: 1; opacity: 1;"></line><line transform="translate(0,145)" x2="720" y2="0" style="fill: none; stroke: #ddd; stroke-width: 1; opacity: 1;"></line><line transform="translate(0,109)" x2="720" y2="0" style="fill: none; stroke: #ddd; stroke-width: 1; opacity: 1;"></line><line transform="translate(0,73)" x2="720" y2="0" style="fill: none; stroke: #ddd; stroke-width: 1; opacity: 1;"></line><line transform="translate(0,36)" x2="720" y2="0" style="fill: none; stroke: #ddd; stroke-width: 1; opacity: 1;"></line><line transform="translate(0,0)" x2="720" y2="0" style="fill: none; stroke: #ddd; stroke-width: 1; opacity: 1;"></line></g></g></g></g><g class="mark-line role-mark marks"><path d="M720,193.52L719.3700076208755,117.58036363636364L718.8009822461826,92.03199999999998L718.1709898670581,124.1978181818182L717.5409974879336,26.655272727272745L716.9313274436196,138.08290909090908L716.3013350644952,203.2618181818182L715.6916650201812,216.18472727272726L715.0616726410568,229.82472727272727L714.4316802619323,220.40363636363637L713.8220102176183,232.66327272727273L713.1920178384939,247.87636363636364L712.5823477941799,173.18836363636362L711.9523554150555,149.96436363636363L711.3833300403624,123.61163636363636L710.753337661238,122.85963636363635L710.1233452821135,40.5869090909091L709.5136752377996,157.38327272727273L708.8836828586751,210.73018181818182L708.2740128143611,221.75345454545453L707.6440204352366,239.1410909090909L707.0140280561122,227.0021818181818L706.4043580117983,257.29236363636363L705.7743656326738,259.16872727272727L705.1646955883598,213.32L704.5347032092353,149.53672727272726L703.9453554997318,128.45381818181818L703.3153631206073,150.2210909090909L702.685370741483,76.4487272727273L702.075700697169,181.4392727272727L701.4457083180446,233.1789090909091L700.8360382737305,242.19345454545456L700.2060458946061,252.45163636363637L699.5760535154817,248.7389090909091L698.9663834711677,271.30109090909093L698.3363910920433,271.49309090909094L697.7267210477293,226.9338181818182L697.0967286686048,187.79345454545452L696.5277032939117,150.2130909090909L695.8977109147874,180.04945454545455L695.2677185356629,107.25963636363633L694.6580484913488,203.33963636363637L694.0280561122245,246.83854545454545L693.4183860679104,259.39709090909093L692.7883936887861,262.65527272727275L692.1584013096616,256.832L691.5487312653476,282.0930909090909L690.9187388862231,282.65090909090907L690.3090688419092,236.94981818181816L689.6790764627848,215.592L689.1100510880917,180.97090909090906L688.4800587089672,187.312L687.8500663298428,122.26036363636365L687.2403962855288,217.4109090909091L686.6104039064044,258.20145454545457L686.0007338620904,261.05018181818184L685.3707414829659,262.33890909090906L684.7407491038415,266.38690909090906L684.1310790595276,284.0109090909091L683.5010866804031,288.70254545454543L682.891416636089,254.12145454545453L682.2614242569646,203.0981818181818L681.6923988822716,195.4669090909091L681.0624065031471,210.44581818181817L680.4324141240227,135.30254545454545L679.8227440797087,231.18618181818184L679.1927517005843,266.0363636363636L678.5830816562702,269.76800000000003L677.9530892771459,270.3287272727273L677.3230968980214,273.7898181818182L676.7134268537075,290.12800000000004L676.083434474583,297.5701818181818L675.473764430269,257.696L674.8437720511446,225.50618181818183L674.254424341641,211.57600000000002L673.6244319625166,205.93527272727272L672.9944395833921,135.15272727272725L672.3847695390782,232.51490909090907L671.7547771599537,242.98036363636365L671.1451071156397,240.04363636363638L670.5151147365153,272.0661818181818L669.8851223573909,271.9389090909091L669.2754523130769,304.5316363636364L668.6454599339523,297.6429090909091L668.0357898896384,256.1621818181818L667.405797510514,243.2341818181818L666.836772135821,204.90254545454545L666.2067797566965,206.87054545454546L665.576787377572,148.61381818181817L664.9671173332581,235.30545454545455L664.3371249541336,265.5287272727273L663.7274549098197,273.34036363636363L663.0974625306952,277.75927272727273L662.4674701515708,266.9789090909091L661.8578001072567,293.94545454545454L661.2278077281323,297.2101818181818L660.6181376838184,263.3003636363636L659.988145304694,223.08145454545453L659.4191199300008,205.19636363636366L658.7891275508764,213.344L658.1591351717519,151.75490909090908L657.549465127438,240.04436363636364L656.9194727483135,263.7294545454546L656.3098027039995,274.6L655.6798103248751,282.83636363636367L655.0498179457506,271.856L654.4401479014367,301.70036363636365L653.8101555223122,296.7883636363636L653.2004854779982,257.53963636363636L652.5704930988738,235.3010909090909L652.0014677241808,213.41163636363635L651.3714753450563,222.52363636363637L650.7414829659318,165.66763636363638L650.1318129216179,240.49963636363637L649.5018205424934,273.49963636363634L648.8921504981795,285.3061818181818L648.262158119055,281.82909090909095L647.6321657399305,272.1905454545455L647.0224956956166,296.4269090909091L646.3925033164921,297.8305454545455L645.7828332721782,269.536L645.1528408930537,217.59563636363637L644.5634931835502,195.99054545454547L643.9335008044258,215.62545454545455L643.3035084253013,169.2661818181818L642.6938383809872,233.59054545454546L642.0638460018629,269.12945454545456L641.454175957549,277.2087272727273L640.8241835784245,280.1636363636364L640.1941911993,274.1483636363636L639.584521154986,294.18327272727277L638.9545287758616,297.63272727272727L638.3448587315477,259.46981818181814L637.7148663524232,226.03418181818182L637.1458409777301,205.40436363636363L636.5158485986057,220.54690909090908L635.8858562194812,167.9709090909091L635.2761861751673,232.79054545454545L634.6461937960428,264.2625454545455L634.0365237517289,278.88654545454546L633.4065313726044,286.76436363636367L632.7765389934799,278.5672727272727L632.166868949166,298.2610909090909L631.5368765700415,301.6152727272727L630.9272065257275,260.61963636363635L630.297214146603,234.93381818181817L629.72818877191,216.4138181818182L629.0981963927856,217.77890909090908L628.4682040136611,176.68290909090908L627.8585339693471,243.8589090909091L627.2285415902228,271.8429090909091L626.6188715459087,280.88363636363636L625.9888791667843,290.432L625.3588867876598,277.51127272727274L624.7492167433459,285.4203636363636L624.1192243642214,301.3032727272727L623.5095543199075,272.904L622.879561940783,229.7447272727273L622.3105365660899,218.13090909090909L621.6805441869654,218.23054545454545L621.0505518078411,172.3221818181818L620.440881763527,239.55636363636364L619.8108893844026,268.09381818181816L619.2012193400886,282.77672727272727L618.5712269609642,289.3789090909091L617.9412345818398,273.94327272727276L617.3315645375258,301.95418181818184L616.7015721584013,303.48L616.0919021140874,265.90618181818184L615.4619097349629,246.00145454545455L614.8725620254594,226.8858181818182L614.2425696463349,222.3032727272727L613.6125772672106,183.79636363636362L613.0029072228965,246.01090909090908L612.372914843772,279.40290909090913L611.7632447994581,292.0581818181818L611.1332524203336,301.5629090909091L610.5032600412092,294.13527272727276L609.8935899968952,318.5585454545454L609.2635976177708,325.2763636363636L608.6539275734568,290.6065454545454L608.0239351943324,259.01599999999996L607.4549098196393,238.39927272727272L606.8249174405148,239.37381818181817L606.1949250613903,206.7701818181818L605.5852550170764,255.4872727272727L604.9552626379519,281.94399999999996L604.345592593638,301.0290909090909L603.7156002145135,303.0749090909091L603.085607835389,289.3410909090909L602.4759377910751,316.22254545454547L601.8459454119507,314.03563636363634L601.2362753676366,295.3621818181818L600.6062829885122,252.72436363636365L600.0372576138192,245.64872727272726L599.4072652346947,251.1149090909091L598.7772728555703,225.59490909090908L598.1676028112563,280.26472727272727L597.5376104321318,296.6581818181818L596.9279403878179,304.58618181818184L596.2979480086934,300.4625454545455L595.6679556295691,294.99636363636364L595.058285585255,318.3425454545455L594.4282932061305,319.31927272727273L593.8186231618166,288.592L593.1886307826921,271.3636363636364L592.6196054079991,254.6967272727273L591.9896130288747,256.1709090909091L591.3596206497501,223.256L590.7499506054362,267.4007272727273L590.1199582263118,293.37454545454545L589.5102881819978,317.27272727272725L588.8802958028733,314.64363636363635L588.2503034237488,305.03927272727276L587.6406333794349,329.0792727272727L587.0106410003104,327.9505454545455L586.4009709559965,295.5047272727273L585.770978576872,288.79272727272723L585.1816308673685,259.7410909090909L584.5516384882442,276.7970909090909L583.9216461091196,250.62545454545455L583.3119760648057,276.8603636363637L582.6819836856812,303.3330909090909L582.0723136413673,316.86545454545455L581.4423212622428,324.30545454545455L580.8123288831183,318.78181818181815L580.2026588388044,336.21236363636365L579.5726664596799,334.7098181818182L578.9629964153659,311.60145454545454L578.3330040362415,294.32509090909093L577.7639786615484,277.0341818181818L577.133986282424,286.2705454545454L576.5039939032996,257.99127272727276L575.8943238589856,291.2269090909091L575.2643314798612,311.42109090909094L574.6546614355472,325.3512727272727L574.0246690564227,331.89745454545454L573.3946766772982,322.5163636363636L572.7850066329843,341.62254545454545L572.1550142538598,340.8123636363636L571.5453442095459,315.8516363636364L570.9153518304214,305.1832727272727L570.3463264557283,284.80654545454547L569.716334076604,291.5090909090909L569.0863416974795,266.30545454545455L568.4766716531655,297.92145454545454L567.846679274041,316.3789090909091L567.237009229727,328.1847272727273L566.6070168506027,327.8429090909091L565.9770244714782,322.9745454545455L565.3673544271642,339.2858181818182L564.7373620480397,336.11927272727274L564.1276920037258,318.3258181818182L563.4976996246013,291.42254545454546L562.9286742499082,279.1454545454545L562.2986818707838,287.2021818181818L561.6686894916594,248.39418181818183L561.0590194473455,291.472L560.429027068221,311.45163636363634L559.819357023907,326.5861818181818L559.1893646447825,326.5047272727273L558.5593722656581,323.1185454545455L557.9497022213441,336.13454545454545L557.3197098422197,337.0254545454545L556.7100397979057,313.29454545454547L556.0800474187812,297.14618181818184L555.4906997092777,283.0196363636364L554.8607073301532,294.05600000000004L554.2307149510287,263.8429090909091L553.6210449067148,301.80727272727273L552.9910525275905,315.0181818181818L552.3813824832764,330.82545454545453L551.7513901041519,332.66763636363635L551.1213977250275,325.1578181818182L550.5117276807135,346.23199999999997L549.8817353015892,341.688L549.2720652572751,319.9294545454545L548.6420728781507,303.5854545454546L548.0730475034576,294.88L547.4430551243332,299.78763636363635L546.8130627452088,278.0254545454545L546.2033927008947,304.27054545454547L545.5734003217702,316.63127272727274L544.9637302774563,332.9578181818182L544.3337378983318,335.78472727272725L543.7037455192075,332.072L543.0940754748934,349.09818181818184L542.464083095769,346.6938181818182L541.854413051455,329.4836363636364L541.2244206723306,305.88945454545456L540.6553952976376,297.7338181818182L540.0254029185131,309.4938181818182L539.3954105393886,290.05672727272724L538.7857404950746,315.0130909090909L538.1557481159502,327.4327272727273L537.5460780716363,342.6967272727273L536.9160856925117,345.76L536.2860933133873,342.28L535.6764232690733,354.64654545454545L535.046430889949,350.808L534.4367608456349,335.776L533.8067684665104,322.05672727272724L533.2377430918174,313.5650909090909L532.607750712693,318.4698181818182L531.9777583335685,297.55927272727274L531.3680882892546,324.832L530.7380959101301,339.128L530.1284258658161,348.57890909090906L529.4984334866917,349.06399999999996L528.8684411075673,341.672L528.2587710632533,357.6872727272727L527.6287786841289,354.99636363636364L527.0191086398148,342.16727272727275L526.3891162606903,328.112L525.7997685511868,315.7890909090909L525.1697761720624,332.6458181818182L524.539783792938,308.2589090909091L523.9301137486241,328.032L523.3001213694996,340.808L522.6896045612352,348.664L522.0596121821108,349.528L521.4296198029862,349.19272727272727L520.8199497586722,357.632L520.1899573795479,359.83272727272725L519.5811340991843,354.44L518.9511417200598,335.70181818181817L518.3821163453669,331.6290909090909L517.7521239662424,335.5752727272727L517.1221315871179,307.9970909090909L516.5124615428039,332.632L515.8824691636795,341.56L515.271952355415,350.52363636363634L514.6419599762907,349.504L514.0119675971662,350.336L513.4022975528522,358.2269090909091L512.7723051737278,359.824L512.1634818933642,343.1723636363636L511.53348951423976,335.91272727272724L510.96446413954664,331.92727272727274L510.3344717604222,328.5585454545454L509.7044793812978,308.296L509.0948093369838,336.4727272727273L508.4648169578594,345.984L507.85430014959496,349.224L507.22430777047055,352.808L506.5943153913461,354.17454545454547L505.9846453470321,359.9221818181818L505.3546529679076,365.19127272727275L504.7458296875441,352.6698181818182L504.11583730841966,343.0152727272727L503.5468119337266,334.9447272727273L502.91681955460217,341.968L502.2868271754777,315.648L501.6771571311637,340.304L501.04716475203924,344.576L500.43664794377486,352.78545454545457L499.8066555646504,357.5854545454545L499.17666318552597,356.01454545454544L498.56699314121204,362.6589090909091L497.93700076208756,363.81018181818183L497.328177481724,355.7643636363636L496.6981851025996,344.92L496.10883739309605,337.68072727272727L495.47884501397164,339.24L494.84885263484716,316.032L494.2391825905331,332.8727272727273L493.6091902114087,344.16290909090907L492.99867340314427,356.1890909090909L492.36868102401985,361.0181818181818L491.7386886448954,360.69236363636367L491.12901860058145,365.7432727272727L490.49902622145703,364.96L489.8902029410935,354.3127272727273L489.260210561969,348.9803636363636L488.691185187276,337.52145454545456L488.06119280815153,343.46909090909094L487.43120042902706,320.4509090909091L486.82153038471307,342.19418181818185L486.19153800558865,355.91854545454544L485.5810211973242,364.48290909090906L484.9510288181998,363.3185454545455L484.3210364390753,368.69745454545455L483.71136639476134,371.30109090909093L483.0822207795874,370.12363636363636L482.47255073527333,358.4807272727273L481.8425583561489,351.24072727272727L481.27353298145584,349.24872727272725L480.6435406023314,351.14327272727274L480.01354822320695,330.584L479.403878178893,348.2130909090909L478.7738857997686,360.53963636363636L478.16421575545456,368.94036363636366L477.53422337633015,363.7330909090909L476.9042309972057,371.3483636363636L476.29456095289174,371.3752727272727L475.66456857376727,370.3330909090909L475.0548985294533,362.1563636363636L474.4249061503288,353.9869090909091L473.8558807756358,353.59636363636366L473.2258883965113,358.24218181818185L472.5958960173869,338.1483636363636L471.98622597307286,358.8669090909091L471.35623359394845,365.7541818181818L470.7465635496345,372.9716363636364L470.11657117051004,371.4174545454546L469.4865787913856,374.1381818181818L468.8769087470716,377.0101818181818L468.24691636794716,374.89745454545454L467.63724632363324,366.79200000000003L467.00725394450876,362.28363636363633L466.41790623500526,361.86109090909093L465.7879138558808,363.0509090909091L465.15792147675637,344.26327272727275L464.5482514324423,365.4174545454546L463.9182590533179,369.14472727272727L463.3085890090039,375.4356363636364L462.6785966298795,373.52654545454544L462.0486042507551,374.8363636363636L461.43893420644105,380.576L460.8089418273166,378.65963636363637L460.19927178300264,373.8967272727273L459.5692794038782,366.1330909090909L459.0002540291851,364.744L458.3702616500607,363.5738181818182L457.7402692709362,347.8305454545455L457.1305992266223,367.3061818181818L456.5006068474978,372.1498181818182L455.8909368031838,378.01745454545454L455.26094442405935,374.2087272727273L454.63095204493493,377.88218181818183L454.021282000621,382.0370909090909L453.3912896214965,378.6123636363636L452.78161957718254,372.84436363636365L452.15162719805807,369.1381818181818L451.58260182336505,366.2087272727273L450.9526094442406,363.41818181818184L450.32261706511616,348.5629090909091L449.7129470208021,367.328L449.0829546416777,371.416L448.4732845973638,378.9010909090909L447.8432922182393,375.9025454545455L447.2132998391149,378.84436363636365L446.60362979480084,382.4298181818182L445.9736374156764,378.83272727272725L445.36396737136243,375.32218181818183L444.733974992238,366.4203636363636L444.16494961754495,364.52145454545456L443.53495723842053,363.85527272727273L442.9049648592961,348.57745454545454L442.29529481498207,367.4269090909091L441.66530243585765,373.0087272727273L441.05563239154367,381.4058181818182L440.42564001241925,376.07127272727274L439.7956476332947,380.40436363636366L439.1859775889808,383.4058181818182L438.5559852098563,380.59563636363634L437.94631516554233,377.248L437.31632278641786,365.97527272727274L436.7269750769144,362.65236363636365L436.09698269779,364.928L435.46699031866547,349.3992727272727L434.85732027435154,368.0610909090909L434.22732789522706,375.4327272727273L433.61765785091313,381.64945454545455L432.9876654717886,378.32145454545457L432.3576730926642,383.152L431.7480030483502,386.752L431.1180106692258,381.18690909090907L430.50834062491174,378.7112727272727L429.8783482457873,369.80945454545457L429.3093228710943,369.4050909090909L428.67933049196984,363.65963636363637L428.0493381128454,349.5970909090909L427.43966806853143,370.4989090909091L426.809675689407,374.5076363636364L426.200005645093,383.23781818181817L425.57001326596856,378.9149090909091L424.9400208868441,384.80581818181815L424.33035084253015,388.53818181818184L423.70035846340573,383.2290909090909L423.0906884190917,379.2552727272727L422.4606960399673,373.376L421.8916706652742,370.54545454545456L421.2616782861498,367.51127272727274L420.6316859070253,354.7956363636364L420.0220158627113,372.71563636363635L419.39202348358685,378.2341818181818L418.7823534392729,384.6050909090909L418.1523610601485,380.01745454545454L417.52236868102403,383.41527272727274L416.91269863671005,387.6130909090909L416.2827062575856,384.512L415.67303621327164,378.3389090909091L415.04304383414717,373.5447272727273L414.4740184594541,373.96945454545454L413.8440260803296,364.9629090909091L413.2140337012052,355.8574545454545L412.6043636568913,373.4749090909091L411.9743712777668,377.03854545454544L411.36470123345276,384.43345454545454L410.73470885432835,379.904L410.10471647520393,387.31345454545453L409.49504643088994,390.3185454545455L408.8650540517655,382.448L408.2553840074515,380.20945454545455L407.62539162832707,372.3258181818182L407.0360439188235,371.5854545454545L406.4060515396991,365.79636363636365L405.7760591605746,355.0763636363636L405.1663891162607,373.5345454545454L404.5363967371363,377.888L403.9267266928222,385.1970909090909L403.2967343136978,379.8909090909091L402.66674193457334,387.104L402.0570718902594,388.78254545454547L401.427079511135,382.72581818181817L400.81740946682095,380.39418181818183L400.18741708769653,372.5738181818182L399.61839171300346,374.4145454545455L398.98839933387904,367.848L398.35840695475457,358.5585454545454L397.7487369104406,376.27345454545457L397.1187445313161,379.1781818181818L396.5090744870022,384.888L395.8790821078777,382.08945454545454L395.2490897287533,386.74836363636365L394.63941968443925,389.1709090909091L394.00942730531483,384.07418181818184L393.3997572610009,381.496L392.7697648818764,374.88945454545456L392.2007395071834,377.6065454545454L391.57074712805894,371.2509090909091L390.9407547489345,363.48436363636364L390.3310847046205,378.9490909090909L389.70109232549606,383.14618181818184L389.09142228118213,387.4087272727273L388.46142990205766,384.54545454545456L387.83143752293313,386.2989090909091L387.2217674786192,389.75636363636363L386.5917750994948,387.13890909090907L385.98210505518074,384.0749090909091L385.3521126760563,378.71636363636367L384.78308730136325,380.36727272727273L384.15309492223884,379.6909090909091L383.52310254311436,371.3629090909091L382.91343249880043,382.99636363636364L382.283440119676,384.15854545454545L381.673770075362,390.1141818181818L381.04377769623756,388.21527272727275L380.4137853171131,389.328L379.80411527279915,391.84945454545453L379.17412289367473,389.8589090909091L378.5644528493607,388.14618181818184L377.9344604702362,381.9716363636364L377.3451127607327,383.72945454545453L376.71512038160824,381.9330909090909L376.0851280024838,375.24727272727273L375.4754579581699,383.84145454545455L374.8454655790454,386.20072727272725L374.23579553473144,390.90327272727274L373.60580315560696,389.3709090909091L372.97581077648255,390.8698181818182L372.3661407321686,392.7309090909091L371.73614835304414,387.59636363636366L371.12647830873016,390.09236363636364L370.4964859296057,384.09236363636364L369.92746055491267,383.7978181818182L369.2974681757882,385.62836363636364L368.6674757966638,379.496L368.05780575234974,386.4749090909091L367.4278133732253,388.68945454545457L366.81814332891133,392.48145454545454L366.1881509497869,390.60581818181817L365.5581585706625,392.3905454545455L364.94848852634846,393.5730909090909L364.31849614722404,392.7461818181818L363.70882610291005,391.2101818181818L363.07883372378564,387.41963636363636L362.5098083490925,387.70763636363637L361.8798159699681,388.056L361.2498235908436,382.24363636363637L360.6401535465297,388.39127272727274L360.0101611674053,391.5069090909091L359.4004911230913,393.672L358.7704987439668,392.7061818181818L358.14050636484234,393.86763636363634L357.5308363205284,394.76945454545455L356.90084394140393,393.71272727272725L356.29117389708995,393.22618181818183L355.6611815179655,389.3752727272727L355.09215614327246,388.856L354.462163764148,389.9570909090909L353.83217138502357,384.48872727272726L353.2225013407096,391.14472727272727L352.59250896158517,392.4298181818182L351.9828389172712,394.67054545454545L351.3528465381467,393.7818181818182L350.7228541590223,394.87127272727275L350.1131841147083,395.59345454545456L349.48319173558383,394.64145454545456L348.87352169126984,394.2610909090909L348.2435293121454,390.4821818181818L347.65418160264187,389.62545454545455L347.02418922351745,389.4247272727273L346.39419684439304,387.5134545454545L345.78452680007905,392.1709090909091L345.1545344209546,393.1338181818182L344.5448643766406,394.49163636363636L343.9148719975162,394.3992727272727L343.28487961839176,394.55490909090906L342.67520957407777,395.4290909090909L342.0452171949533,395L341.4355471506393,394.1832727272727L340.8055547715149,391.89454545454544L340.2365293968218,390.94036363636366L339.60653701769735,389.39127272727274L338.97654463857293,388.56072727272726L338.36687459425895,392.6210909090909L337.7368822151345,392.0058181818182L337.1272121708205,394.70181818181817L336.49721979169607,394.416L335.86722741257165,396.28727272727275L335.25755736825766,396.8167272727273L334.6275649891332,395.1330909090909L334.0178949448192,395.14327272727274L333.3879025656948,392.71345454545457L332.8188771910017,391.84945454545453L332.18888481187724,391.1367272727273L331.5588924327528,389.19345454545453L330.94922238843884,392.88072727272726L330.31923000931437,393.2610909090909L329.7095599650004,394.82981818181815L329.07956758587596,395.8363636363636L328.44957520675155,397.12363636363636L327.83990516243756,397.47054545454546L327.2099127833131,396.3694545454546L326.6002427389991,396.0509090909091L325.9702503598747,393.8421818181818L325.4012249851816,391.66836363636367L324.7712326060572,392.9338181818182L324.1412402269328,391.53381818181816L323.5315701826188,393.6930909090909L322.9015778034943,394.3636363636364L322.29190775918033,396.0225454545455L321.66191538005586,396.8669090909091L321.03192300093144,397.82327272727275L320.42225295661746,397.6690909090909L319.792260577493,396.97236363636364L319.182590533179,396.9490909090909L318.5525981540546,395.024L317.9632504445511,393.78036363636363L317.33325806542666,394.08072727272724L316.7032656863022,392.3607272727273L316.0935956419882,394.80581818181815L315.4636032628637,394.9389090909091L314.8539332185498,396.31781818181815L314.2239408394253,397.0392727272727L313.59394846030085,398.02181818181816L312.98427841598686,398.0436363636364L312.35428603686245,397.6232727272727L311.74461599254846,397.2698181818182L311.11462361342404,395.98254545454546L310.545598238731,395.2116363636364L309.91560585960656,394.7338181818182L309.2856134804821,393.94545454545454L308.6759434361681,395.056L308.0459510570437,395.51127272727274L307.4362810127297,397.0130909090909L306.8062886336053,397.79927272727275L306.17629625448075,398.19272727272727L305.5666262101668,398.30109090909093L304.93663383104234,397.8647272727273L304.3269637867284,397.5629090909091L303.69697140760394,396.65236363636365L303.12794603291087,395.1992727272727L302.49795365378645,395.5018181818182L301.867961274662,394.77745454545453L301.258291230348,396.2298181818182L300.6282988512236,395.95127272727274L300.0186288069096,397.32218181818183L299.3886364277852,397.69745454545455L298.7586440486607,398.45236363636366L298.1489740043467,398.5701818181818L297.5189816252223,398.1789090909091L296.9093115809083,397.8756363636364L296.27931920178384,396.8392727272727L295.71029382709077,396.23927272727275L295.08030144796635,396.2087272727273L294.45030906884193,395.5207272727273L293.84063902452795,397.1258181818182L293.2106466454035,397.19127272727275L292.6009766010895,397.9098181818182L291.97098422196507,398.58618181818184L291.3409918428406,398.83709090909093L290.7313217985266,398.85963636363635L290.1013294194022,398.70327272727275L289.4916593750882,398.216L288.8616669959638,397.12654545454546L288.27231928646023,396.656L287.6423269073358,396.80654545454547L287.01233452821134,396.0763636363636L286.40266448389735,397.46763636363636L285.77267210477294,397.5512727272727L285.16300206045895,397.86836363636365L284.5330096813345,398.70036363636365L283.90301730221006,398.8981818181818L283.2933472578961,399.01745454545454L282.66335487877166,398.872L282.05368483445767,398.3723636363636L281.4236924553332,397.81745454545455L280.8546670806402,397.224L280.2246747015157,397.2581818181818L279.59468232239124,396.41963636363636L278.98501227807725,397.99781818181816L278.35501989895283,398.27563636363635L277.74534985463885,398.27127272727273L277.1153574755144,398.83854545454545L276.48536509638996,399.0821818181818L275.87569505207597,399.1258181818182L275.24570267295155,398.97236363636364L274.63603262863757,398.04581818181816L274.0060402495131,397.6305454545454L273.4370148748201,397.368L272.8070224956956,397.5869090909091L272.1770301165712,396.7949090909091L271.5673600722572,397.9461818181818L270.9373676931327,398.02618181818184L270.3276976488188,398.5047272727273L269.6977052696943,398.88L269.06771289056985,399.0014545454545L268.45804284625586,399.07563636363636L267.82805046713145,399.0327272727273L267.21838042281746,398.50036363636366L266.588388043693,397.8509090909091L266.019362669,397.70036363636365L265.38937028987556,397.55054545454544L264.7593779107511,397.61672727272725L264.1497078664371,397.16145454545455L263.5197154873127,398.22472727272725L262.9100454429987,398.7192727272727L262.2800530638742,399.0312727272727L261.6500606847498,399.1636363636364L261.0403906404358,399.2283636363636L260.4103982613114,398.9832727272727L259.8007282169974,398.42109090909094L259.17073583787294,398.1258181818182L258.58138812836944,398.0661818181818L257.95139574924497,397.6850909090909L257.32140337012055,397.5738181818182L256.71173332580656,398.37963636363634L256.0817409466821,398.528L255.47207090236813,398.8392727272727L254.84207852324369,399.1483636363636L254.2120861441192,399.256L253.60241609980525,399.33745454545453L252.97242372068078,398.93309090909094L252.36275367636682,398.90618181818184L251.73276129724235,398.26181818181817L251.1637359225493,398.15272727272725L250.53374354342486,397.55054545454544L249.90375116430044,397.6770909090909L249.29408111998646,398.6392727272727L248.664088740862,398.6589090909091L248.05441869654803,399.1250909090909L247.42442631742358,399.26472727272727L246.79443393829914,399.3047272727273L246.18476389398515,399.3723636363636L245.55477151486073,399.0872727272727L244.94510147054675,398.9447272727273L244.3151090914223,398.44945454545456L243.7460837167292,398.08654545454544L243.1160913376048,398.1818181818182L242.48609895848034,398.2087272727273L241.87642891416635,398.6247272727273L241.2464365350419,398.91563636363634L240.63676649072792,399.168L240.00677411160348,399.27854545454545L239.37678173247903,399.3243636363636L238.76711168816507,399.3578181818182L238.13711930904063,399.19418181818185L237.52744926472664,399.024L236.8974568856022,398.75345454545453L236.32843151090916,398.1396363636364L235.6984391317847,398.39709090909093L235.06844675266024,398.1454545454545L234.45877670834625,398.7912727272727L233.8287843292218,398.8545454545455L233.21911428490782,399.06036363636366L232.58912190578337,399.3469090909091L231.95912952665896,399.408L231.34945948234497,399.2610909090909L230.71946710322052,399.25309090909093L230.10979705890654,399.01454545454544L229.4798046797821,398.73163636363637L228.8904569702786,398.2181818181818L228.26046459115412,398.3767272727273L227.63047221202967,398.24145454545453L227.0208021677157,398.8647272727273L226.39080978859127,398.78036363636363L225.78113974427728,399.3127272727273L225.15114736515284,399.25890909090907L224.5211549860284,399.4727272727273L223.9114849417144,399.55490909090906L223.28149256258996,399.4749090909091L222.67182251827597,399.24L222.04183013915153,398.90472727272726L221.4728047644585,398.4109090909091L220.84281238533407,398.5032727272727L220.21282000620963,398.37163636363636L219.60314996189564,398.8218181818182L218.97315758277117,398.84L218.3634875384572,399.3607272727273L217.73349515933273,399.46327272727274L217.1035027802083,399.39709090909093L216.4938327358943,399.49454545454546L215.86384035676986,399.24363636363637L215.25417031245587,399.23636363636365L214.62417793333145,398.9789090909091L214.0551525586384,398.55054545454544L213.42516017951397,398.2298181818182L212.79516780038952,398.72290909090907L212.18549775607553,398.9563636363636L211.5555053769511,399.1214545454545L210.9458353326371,399.4101818181818L210.31584295351266,399.4290909090909L209.68585057438824,399.58763636363636L209.07618053007425,399.5330909090909L208.4461881509498,399.44654545454546L207.83651810663582,399.3309090909091L207.20652572751138,399.0392727272727L206.6375003528183,398.74981818181817L206.00750797369386,398.81163636363635L205.37751559456942,398.83418181818183L204.76784555025543,399.31345454545453L204.13785317113098,399.4458181818182L203.528183126817,399.65381818181817L202.89819074769258,399.504L202.26819836856814,399.5883636363636L201.65852832425415,399.6756363636364L201.0285359451297,399.4850909090909L200.41886590081572,399.376L199.78887352169127,399.29454545454547L199.19952581218774,398.91563636363634L198.5695334330633,398.94836363636364L197.93954105393885,398.86254545454545L197.3298710096249,399.1578181818182L196.69987863050045,399.3723636363636L196.09020858618646,399.4349090909091L195.46021620706202,399.64363636363635L194.83022382793757,399.5629090909091L194.2205537836236,399.51854545454546L193.59056140449914,399.4770909090909L192.98089136018515,399.46472727272726L192.35089898106074,399.30836363636365L191.78187360636764,399.35636363636365L191.1518812272432,399.18254545454545L190.52188884811878,399.0189090909091L189.9122188038048,399.44218181818184L189.28222642468035,399.4509090909091L188.67255638036636,399.616L188.0425640012419,399.4189090909091L187.41257162211747,399.7687272727273L186.80290157780348,399.76945454545455L186.17290919867906,399.648L185.56323915436508,399.3338181818182L184.93324677524063,399.68218181818185L184.3642214005476,399.04436363636364L183.73422902142315,399.49963636363634L183.10423664229867,399.78254545454547L182.4945665979847,399.6741818181818L181.86457421886024,399.6123636363636L181.25490417454625,399.6996363636364L180.6249117954218,399.86836363636365L179.99491941629736,399.8305454545455L179.3852493719834,399.8574545454546L178.75525699285896,399.8589090909091L178.14558694854497,399.7643636363636L177.51559456942053,399.7883636363636L176.9465691947275,399.76654545454545L176.316576815603,399.8421818181818L175.6865844364786,399.7149090909091L175.0769143921646,399.82545454545453L174.44692201304017,399.21090909090907L173.83725196872618,399.8189090909091L173.20725958960173,399.904L172.5772672104773,399.86836363636365L171.9675971661633,399.8603636363636L171.33760478703888,399.88945454545456L170.7279347427249,399.8632727272727L170.09794236360045,399.7810909090909L169.50859465409692,399.88218181818183L168.87860227497248,399.8698181818182L168.24860989584803,399.8181818181818L167.63893985153405,399.8603636363636L167.0089474724096,399.8981818181818L166.39927742809562,399.93309090909094L165.76928504897117,399.9461818181818L165.13929266984675,399.9367272727273L164.52962262553277,399.92436363636364L163.89963024640832,399.91345454545456L163.28996020209433,399.9069090909091L162.6599678229699,399.87345454545454L162.09094244827682,399.8516363636364L161.4609500691524,399.91854545454544L160.83095769002793,399.8843636363636L160.22128764571397,399.90472727272726L159.5912952665895,399.94254545454544L158.98162522227554,399.93018181818184L158.3516328431511,399.9490909090909L157.72164046402665,399.92872727272726L157.11197041971266,399.936L156.48197804058822,399.9025454545455L155.87230799627423,399.9709090909091L155.24231561714979,399.84436363636365L154.67329024245674,399.92145454545454L154.0432978633323,399.9149090909091L153.41330548420785,399.7418181818182L152.80363543989387,399.76363636363635L152.17364306076942,399.67854545454543L151.56312625250501,399.82836363636363L150.93313387338057,399.832L150.30314149425612,399.7956363636364L149.69347144994214,399.83563636363635L149.0634790708177,399.70545454545453L148.4538090265037,399.7221818181818L147.8246634113297,399.7098181818182L147.25563803663664,399.7010909090909L146.62564565751222,399.44072727272726L145.99565327838775,399.5490909090909L145.3859832340738,399.528L144.75599085494932,399.49454545454546L144.14547404668494,399.472L143.51548166756046,399.71854545454545L142.88548928843602,399.65527272727275L142.27666600807248,399.7330909090909L141.64667362894804,399.68654545454547L141.03700358463405,399.5134545454545L140.4070112055096,399.536L139.8176634960061,399.3752727272727L139.18767111688166,399.3621818181818L138.5576787377572,399.2661818181818L137.94800869344323,399.5010909090909L137.31801631431878,399.4458181818182L136.7083462700048,399.4189090909091L136.07835389088035,399.41236363636364L135.4483615117559,399.552L134.83869146744192,399.50254545454544L134.20869908831747,399.3512727272727L133.5990290440035,399.04727272727274L132.96903666487907,398.72145454545455L132.400011290186,398.48872727272726L131.77001891106156,398.00072727272726L131.1400265319371,398.29454545454547L130.53035648762312,398.79345454545455L129.9003641084987,399.08L129.29069406418472,399.38836363636364L128.66070168506027,399.47563636363634L128.0307093059358,399.416L127.42103926162184,399.5527272727273L126.79104688249738,399.36145454545454L126.18137683818341,399.192L125.55138445905895,398.70545454545453L124.98235908436592,398.3665454545455L124.35236670524147,398.4290909090909L123.72237432611702,397.992L123.11270428180303,398.70036363636365L122.48271190267859,399.216L121.8730418583646,399.39127272727274L121.24304947924017,399.4058181818182L120.61305710011573,399.4218181818182L120.00338705580174,399.6363636363636L119.37339467667731,399.42109090909094L118.76372463236332,399.2072727272727L118.13373225323888,398.81454545454545L117.56470687854582,398.6938181818182L116.93471449942137,398.44072727272726L116.30472212029694,398.2116363636364L115.69505207598296,398.90763636363636L115.06505969685851,399.18836363636365L114.45538965254453,399.3454545454546L113.8253972734201,399.5010909090909L113.19540489429563,399.5461818181818L112.58573484998166,399.64072727272725L111.9557424708572,399.5221818181818L111.34607242654323,399.4341818181818L110.71608004741877,399.0225454545455L110.12673233791527,398.4967272727273L109.49673995879083,398.7178181818182L108.86674757966637,398.5941818181818L108.2570775353524,399.05163636363636L107.62708515622793,399.3607272727273L107.01741511191398,399.4589090909091L106.38742273278952,399.67854545454543L105.75743035366507,399.6094545454545L105.14776030935109,399.67854545454543L104.51776793022665,399.6123636363636L103.90809788591267,399.4050909090909L103.27810550678822,399.2101818181818L102.70908013209518,398.96363636363634L102.07908775297072,398.768L101.44909537384629,398.6712727272727L100.8394253295323,399.136L100.20943295040786,399.456L99.59976290609387,399.4865454545455L98.96977052696943,399.63272727272727L98.339778147845,399.70254545454543L97.73010810353101,399.776L97.10011572440656,399.6429090909091L96.49044568009258,399.42836363636366L95.86045330096815,399.30254545454545L95.29142792627509,399.09527272727274L94.66143554715065,398.7570909090909L94.03144316802619,398.7898181818182L93.42177312371221,399.41527272727274L92.79178074458775,399.49454545454546L92.1821107002738,399.68218181818185L91.55211832114934,399.6981818181818L90.92212594202489,399.6843636363636L90.3124558977109,399.77672727272727L89.68246351858647,399.5890909090909L89.07279347427249,399.5883636363636L88.44280109514804,399.4370909090909L87.873775720455,399.2901818181818L87.24378334133054,399.04145454545454L86.61379096220611,398.99927272727274L86.00412091789212,399.4952727272727L85.37412853876768,399.4829090909091L84.76445849445369,399.7658181818182L84.13446611532926,399.76945454545455L83.5044737362048,399.74981818181817L82.89480369189083,399.7818181818182L82.26481131276638,399.6930909090909L81.6551412684524,399.65381818181817L81.02514888932795,399.61018181818184L80.43580117982444,399.42109090909094L79.80580880069999,399.2807272727273L79.17581642157555,399.2327272727273L78.56614637726156,399.288L77.93615399813712,399.73527272727273L77.32648395382314,399.68945454545457L76.69649157469868,399.74836363636365L76.06649919557425,399.79636363636365L75.45682915126027,399.70036363636365L74.82683677213582,399.7338181818182L74.21716672782183,399.70036363636365L73.5871743486974,399.46618181818184L73.01814897400435,399.3061818181818L72.3881565948799,399.0647272727273L71.75816421575546,398.8487272727273L71.14849417144147,399.2189090909091L70.51850179231702,399.39127272727274L69.90883174800305,399.57454545454544L69.2788393688786,399.63418181818184L68.64884698975416,399.61745454545456L68.03917694544018,399.5767272727273L67.40918456631573,399.5272727272727L66.79951452200174,399.39272727272726L66.16952214287731,399.3389090909091L65.60049676818426,398.8450909090909L64.97050438905981,398.88654545454546L64.34051200993537,398.1970909090909L63.73084196562139,399.05163636363636L63.100849586496935,399.33527272727275L62.49117954218296,399.4058181818182L61.86118716305851,399.68218181818185L61.23119478393407,399.5570909090909L60.621524739620085,399.50545454545454L59.99153236049565,399.54836363636366L59.38186231618166,399.42763636363634L58.75186993705721,399.2778181818182L58.18284456236416,398.9025454545455L57.55285218323972,398.67636363636365L56.92285980411527,398.2218181818182L56.3131897598013,399.1861818181818L55.683197380676845,399.20072727272725L55.07352733636287,399.4232727272727L54.44353495723842,399.35345454545455L53.81354257811397,399.4669090909091L53.203872533799995,399.64436363636366L52.57388015467554,399.4472727272727L51.96421011036157,399.5272727272727L51.33421773123712,399.2523636363636L50.744870021733604,398.92436363636364L50.114877642609166,398.4698181818182L49.48488526348471,398.6218181818182L48.875215219170734,399.11054545454544L48.24522284004629,399.24072727272727L47.63555279573231,399.5432727272727L47.005560416607864,399.52145454545456L46.37556803748342,399.6487272727273L45.76589799316944,399.65381818181817L45.13590561404499,399.5229090909091L44.52623556973101,399.44509090909094L43.89624319060656,399.04290909090906L43.327217815913514,398.7789090909091L42.69722543678907,398.52654545454544L42.06723305766463,398.6247272727273L41.457563013350644,399.0690909090909L40.8275706342262,399.3810909090909L40.21790058991222,399.42836363636366L39.587908210787774,399.31927272727273L38.95791583166333,399.6305454545454L38.34824578734934,399.54763636363634L37.718253408224896,399.4989090909091L37.10858336391092,399.3781818181818L36.47859098478647,398.90763636363636L35.90956561009342,398.87345454545454L35.279573230968985,398.616L34.64958085184453,398.52363636363634L34.03991080753055,399.1090909090909L33.40991842840611,399.2298181818182L32.80024838409213,399.44654545454546L32.17025600496768,399.42109090909094L31.540263625843235,399.63854545454546L30.930593581529255,399.56654545454546L30.30060120240481,399.5490909090909L29.69093115809083,399.3861818181818L29.060938778966385,399.2101818181818L28.491913404273337,399.024L27.861921025148888,399.13454545454545L27.231928646024443,398.54545454545456L26.62225860171046,399.1781818181818L25.992266222586018,399.3098181818182L25.382596178272035,399.50036363636366L24.75260379914759,399.656L24.122611420023144,399.65236363636365L23.512941375709165,399.6421818181818L22.88294899658472,399.568L22.27327895227074,399.352L21.64328657314629,399.304L21.053938863642777,399.0436363636364L20.423946484518332,399.01163636363634L19.793954105393887,398.5738181818182L19.184284061079907,399.35854545454544L18.55429168195546,399.21236363636365L17.944621637641482,399.608L17.314629258517034,399.5810909090909L16.68463687939259,399.55054545454544L16.07496683507861,399.56654545454546L15.44497445595416,399.49454545454546L14.835304411640182,399.5374545454545L14.205312032515735,399.3301818181818L13.636286657822687,399.10472727272725L13.006294278698242,398.63272727272727L12.376301899573795,399.07127272727274L11.766631855259815,399.592L11.13663947613537,399.3789090909091L10.526969431821389,399.57745454545454L9.896977052696943,399.5701818181818L9.266984673572498,399.7141818181818L8.657314629258517,399.6458181818182L8.027322250134072,399.48727272727274L7.417652205820091,399.4385454545455L6.787659826695645,399.30545454545455L6.218634452002596,399.0858181818182L5.588642072878151,398.84436363636365L4.958649693753705,398.60145454545454L4.348979649439724,399.3098181818182L3.7189872703152784,399.33745454545453L3.109317226001298,399.53236363636364L2.4793248468768523,399.53818181818184L1.8493324677524061,399.61454545454546L1.2396624234384261,399.59054545454546L0.6096700443139801,399.19854545454547L0,399.0770909090909" style="fill: none; stroke: #4c78a8; stroke-width: 2;"></path></g><g class="mark-group role-axis"><g transform="translate(0.5,400.5)"><path class="background" d="M0,0h0v0h0Z" style="pointer-events: none; fill: none;"></path><g><g class="mark-rule role-axis-tick" style="pointer-events: none;"><line transform="translate(28,0)" x2="0" y2="5" style="fill: none; stroke: #888; stroke-width: 1; opacity: 1;"></line><line transform="translate(65,0)" x2="0" y2="5" style="fill: none; stroke: #888; stroke-width: 1; opacity: 1;"></line><line transform="translate(102,0)" x2="0" y2="5" style="fill: none; stroke: #888; stroke-width: 1; opacity: 1;"></line><line transform="translate(139,0)" x2="0" y2="5" style="fill: none; stroke: #888; stroke-width: 1; opacity: 1;"></line><line transform="translate(176,0)" x2="0" y2="5" style="fill: none; stroke: #888; stroke-width: 1; opacity: 1;"></line><line transform="translate(213,0)" x2="0" y2="5" style="fill: none; stroke: #888; stroke-width: 1; opacity: 1;"></line><line transform="translate(251,0)" x2="0" y2="5" style="fill: none; stroke: #888; stroke-width: 1; opacity: 1;"></line><line transform="translate(288,0)" x2="0" y2="5" style="fill: none; stroke: #888; stroke-width: 1; opacity: 1;"></line><line transform="translate(325,0)" x2="0" y2="5" style="fill: none; stroke: #888; stroke-width: 1; opacity: 1;"></line><line transform="translate(362,0)" x2="0" y2="5" style="fill: none; stroke: #888; stroke-width: 1; opacity: 1;"></line><line transform="translate(399,0)" x2="0" y2="5" style="fill: none; stroke: #888; stroke-width: 1; opacity: 1;"></line><line transform="translate(436,0)" x2="0" y2="5" style="fill: none; stroke: #888; stroke-width: 1; opacity: 1;"></line><line transform="translate(473,0)" x2="0" y2="5" style="fill: none; stroke: #888; stroke-width: 1; opacity: 1;"></line><line transform="translate(510,0)" x2="0" y2="5" style="fill: none; stroke: #888; stroke-width: 1; opacity: 1;"></line><line transform="translate(547,0)" x2="0" y2="5" style="fill: none; stroke: #888; stroke-width: 1; opacity: 1;"></line><line transform="translate(585,0)" x2="0" y2="5" style="fill: none; stroke: #888; stroke-width: 1; opacity: 1;"></line><line transform="translate(622,0)" x2="0" y2="5" style="fill: none; stroke: #888; stroke-width: 1; opacity: 1;"></line><line transform="translate(659,0)" x2="0" y2="5" style="fill: none; stroke: #888; stroke-width: 1; opacity: 1;"></line><line transform="translate(696,0)" x2="0" y2="5" style="fill: none; stroke: #888; stroke-width: 1; opacity: 1;"></line></g><g class="mark-text role-axis-label" style="pointer-events: none;"><text text-anchor="middle" transform="translate(27.861921025148888,15)" style="font: 10px sans-serif; fill: #000; opacity: 1;">1925</text><text text-anchor="middle" transform="translate(64.97050438905981,15)" style="font: 10px sans-serif; fill: #000; opacity: 1;">1930</text><text text-anchor="middle" transform="translate(102.07908775297072,15)" style="font: 10px sans-serif; fill: #000; opacity: 1;">1935</text><text text-anchor="middle" transform="translate(139.18767111688166,15)" style="font: 10px sans-serif; fill: #000; opacity: 1;">1940</text><text text-anchor="middle" transform="translate(176.316576815603,15)" style="font: 10px sans-serif; fill: #000; opacity: 1;">1945</text><text text-anchor="middle" transform="translate(213.42516017951397,15)" style="font: 10px sans-serif; fill: #000; opacity: 1;">1950</text><text text-anchor="middle" transform="translate(250.53374354342486,15)" style="font: 10px sans-serif; fill: #000; opacity: 1;">1955</text><text text-anchor="middle" transform="translate(287.6423269073358,15)" style="font: 10px sans-serif; fill: #000; opacity: 1;">1960</text><text text-anchor="middle" transform="translate(324.7712326060572,15)" style="font: 10px sans-serif; fill: #000; opacity: 1;">1965</text><text text-anchor="middle" transform="translate(361.8798159699681,15)" style="font: 10px sans-serif; fill: #000; opacity: 1;">1970</text><text text-anchor="middle" transform="translate(398.98839933387904,15)" style="font: 10px sans-serif; fill: #000; opacity: 1;">1975</text><text text-anchor="middle" transform="translate(436.09698269779,15)" style="font: 10px sans-serif; fill: #000; opacity: 1;">1980</text><text text-anchor="middle" transform="translate(473.2258883965113,15)" style="font: 10px sans-serif; fill: #000; opacity: 1;">1985</text><text text-anchor="middle" transform="translate(510.3344717604222,15)" style="font: 10px sans-serif; fill: #000; opacity: 1;">1990</text><text text-anchor="middle" transform="translate(547.4430551243332,15)" style="font: 10px sans-serif; fill: #000; opacity: 1;">1995</text><text text-anchor="middle" transform="translate(584.5516384882442,15)" style="font: 10px sans-serif; fill: #000; opacity: 1;">2000</text><text text-anchor="middle" transform="translate(621.6805441869654,15)" style="font: 10px sans-serif; fill: #000; opacity: 1;">2005</text><text text-anchor="middle" transform="translate(658.7891275508764,15)" style="font: 10px sans-serif; fill: #000; opacity: 1;">2010</text><text text-anchor="middle" transform="translate(695.8977109147874,15)" style="font: 10px sans-serif; fill: #000; opacity: 1;">2015</text></g><g class="mark-rule role-axis-domain" style="pointer-events: none;"><line transform="translate(0,0)" x2="720" y2="0" style="fill: none; stroke: #888; stroke-width: 1; opacity: 1;"></line></g></g></g></g><g class="mark-group role-axis"><g transform="translate(0.5,0.5)"><path class="background" d="M0,0h0v0h0Z" style="pointer-events: none; fill: none;"></path><g><g class="mark-rule role-axis-tick" style="pointer-events: none;"><line transform="translate(0,400)" x2="-5" y2="0" style="fill: none; stroke: #888; stroke-width: 1; opacity: 1;"></line><line transform="translate(0,364)" x2="-5" y2="0" style="fill: none; stroke: #888; stroke-width: 1; opacity: 1;"></line><line transform="translate(0,327)" x2="-5" y2="0" style="fill: none; stroke: #888; stroke-width: 1; opacity: 1;"></line><line transform="translate(0,291)" x2="-5" y2="0" style="fill: none; stroke: #888; stroke-width: 1; opacity: 1;"></line><line transform="translate(0,255)" x2="-5" y2="0" style="fill: none; stroke: #888; stroke-width: 1; opacity: 1;"></line><line transform="translate(0,218)" x2="-5" y2="0" style="fill: none; stroke: #888; stroke-width: 1; opacity: 1;"></line><line transform="translate(0,182)" x2="-5" y2="0" style="fill: none; stroke: #888; stroke-width: 1; opacity: 1;"></line><line transform="translate(0,145)" x2="-5" y2="0" style="fill: none; stroke: #888; stroke-width: 1; opacity: 1;"></line><line transform="translate(0,109)" x2="-5" y2="0" style="fill: none; stroke: #888; stroke-width: 1; opacity: 1;"></line><line transform="translate(0,73)" x2="-5" y2="0" style="fill: none; stroke: #888; stroke-width: 1; opacity: 1;"></line><line transform="translate(0,36)" x2="-5" y2="0" style="fill: none; stroke: #888; stroke-width: 1; opacity: 1;"></line><line transform="translate(0,0)" x2="-5" y2="0" style="fill: none; stroke: #888; stroke-width: 1; opacity: 1;"></line></g><g class="mark-text role-axis-label" style="pointer-events: none;"><text text-anchor="end" transform="translate(-7,403)" style="font: 10px sans-serif; fill: #000; opacity: 1;">0</text><text text-anchor="end" transform="translate(-7,366.6363636363636)" style="font: 10px sans-serif; fill: #000; opacity: 1;">50,000</text><text text-anchor="end" transform="translate(-7,330.27272727272725)" style="font: 10px sans-serif; fill: #000; opacity: 1;">100,000</text><text text-anchor="end" transform="translate(-7,293.90909090909093)" style="font: 10px sans-serif; fill: #000; opacity: 1;">150,000</text><text text-anchor="end" transform="translate(-7,257.5454545454545)" style="font: 10px sans-serif; fill: #000; opacity: 1;">200,000</text><text text-anchor="end" transform="translate(-7,221.1818181818182)" style="font: 10px sans-serif; fill: #000; opacity: 1;">250,000</text><text text-anchor="end" transform="translate(-7,184.81818181818184)" style="font: 10px sans-serif; fill: #000; opacity: 1;">300,000</text><text text-anchor="end" transform="translate(-7,148.45454545454547)" style="font: 10px sans-serif; fill: #000; opacity: 1;">350,000</text><text text-anchor="end" transform="translate(-7,112.09090909090907)" style="font: 10px sans-serif; fill: #000; opacity: 1;">400,000</text><text text-anchor="end" transform="translate(-7,75.72727272727269)" style="font: 10px sans-serif; fill: #000; opacity: 1;">450,000</text><text text-anchor="end" transform="translate(-7,39.363636363636374)" style="font: 10px sans-serif; fill: #000; opacity: 1;">500,000</text><text text-anchor="end" transform="translate(-7,3)" style="font: 10px sans-serif; fill: #000; opacity: 1;">550,000</text></g><g class="mark-rule role-axis-domain" style="pointer-events: none;"><line transform="translate(0,400)" x2="0" y2="-400" style="fill: none; stroke: #888; stroke-width: 1; opacity: 1;"></line></g></g></g></g></g></g></g></g></svg>