<svg class="marks" width="785" height="434" viewBox="0 0 785 434" version="1.1" xmlns="http://www.w3.org/2000/svg" xmlns:xlink="http://www.w3.org/1999/xlink"><g transform="translate(58,11)"><g class="mark-group role-frame root"><g transform="translate(0,0)"><path class="background" d="M0.5,0.5h720v400h-720Z" style="fill: none; stroke: #ddd;"></path><g><g class="mark-group role-axis"><g transform="translate(0.5,400.5)"><path class="background" d="M0,0h0v0h0Z" style="pointer-events: none; fill: none;"></path><g><g class="mark-rule role-axis-grid" style="pointer-events: none;"><line transform="translate(28,-400)" x2="0" y2="400" style="fill: none; stroke: #ddd; stroke-width: 1; opacity: 1;"></line><line transform="translate(65,-400)" x2="0" y2="400" style="fill: none; stroke: #ddd; stroke-width: 1; opacity: 1;"></line><line transform="translate(102,-400)" x2="0" y2="400" style="fill: none; stroke: #ddd; stroke-width: 1; opacity: 1;"></line><line transform="translate(139,-400)" x2="0" y2="400" style="fill: none; stroke: #ddd; stroke-width: 1; opacity: 1;"></line><line transform="translate(176,-400)" x2="0" y2="400" style="fill: none; stroke: #ddd; stroke-width: 1; opacity: 1;"></line><line transform="translate(213,-400)" x2="0" y2="400" style="fill: none; stroke: #ddd; stroke-width: 1; opacity: 1;"></line><line transform="translate(251,-400)" x2="0" y2="400" style="fill: none; stroke: #ddd; stroke-width: 1; opacity: 1;"></line><line transform="translate(288,-400)" x2="0" y2="400" style="fill: none; stroke: #ddd; stroke-width: 1; opacity: 1;"></line><line transform="translate(325,-400)" x2="0" y2="400" style="fill: none; stroke: #ddd; stroke-width: 1; opacity: 1;"></line><line transform="translate(362,-400)" x2="0" y2="400" style="fill: none; stroke: #ddd; stroke-width: 1; opacity: 1;"></line><line transform="translate(399,-400)" x2="0" y2="400" style="fill: none; stroke: #ddd; stroke-width: 1; opacity: 1;"></line><line transform="translate(436,-400)" x2="0" y2="400" style="fill: none; stroke: #ddd; stroke-width: 1; opacity: 1;"></line><line transform="translate(473,-400)" x2="0" y2="400" style="fill: none; stroke: #ddd; stroke-width: 1; opacity: 1;"></line><line transform="translate(510,-400)" x2="0" y2="400" style="fill: none; stroke: #ddd; stroke-width: 1; opacity: 1;"></line><line transform="translate(547,-400)" x2="0" y2="400" style="fill: none; stroke: #ddd; stroke-width: 1; opacity: 1;"></line><line transform="translate(585,-400)" x2="0" y2="400" style="fill: none; stroke: #ddd; stroke-width: 1; opacity: 1;"></line><line transform="translate(622,-400)" x2="0" y2="400" style="fill: none; stroke: #ddd; stroke-width: 1; opacity: 1;"></line><line transform="translate(659,-400)" x2="0" y2="400" style="fill: none; stroke: #ddd; stroke-width: 1; opacity: 1;"></line><line transform="translate(696,-400)" x2="0" y2="400" style="fill: none; stroke: #ddd; stroke-width: 1; opacity: 1;"></line></g></g></g></g><g class="mark-group role-axis"><g transform="translate(0.5,0.5)"><path class="background" d="M0,0h0v0h0Z" style="pointer-events: none; fill: none;"></path><g><g class="mark-rule role-axis-grid" style="pointer-events: none;"><line transform="translate(0,400)" x2="720" y2="0" style="fill: none; stroke: #ddd; stroke-width: 1; opacity: 1;"></line><line transform="translate(0,376)" x2="720" y2="0" style="fill: none; stroke: #ddd; stroke-width: 1; opacity: 1;"></line><line transform="translate(0,362)" x2="720" y2="0" style="fill: none; stroke: #ddd; stroke-width: 1; opacity: 1;"></line><line transform="translate(0,352)" x2="720" y2="0" style="fill: none; stroke: #ddd; stroke-width: 1; opacity: 1;"></line><line transform="translate(0,344)" x2="720" y2="0" style="fill: none; stroke: #ddd; stroke-width: 1; opacity: 1;"></line><line transform="translate(0,338)" x2="720" y2="0" style="fill: none; stroke: #ddd; stroke-width: 1; opacity: 1;"></line><line transform="translate(0,332)" x2="720" y2="0" style="fill: none; stroke: #ddd; stroke-width: 1; opacity: 1;"></line><line transform="translate(0,328)" x2="720" y2="0" style="fill: none; stroke: #ddd; stroke-width: 1; opacity: 1;"></line><line transform="translate(0,324)" x2="720" y2="0" style="fill: none; stroke: #ddd; stroke-width: 1; opacity: 1;"></line><line transform="translate(0,320)" x2="720" y2="0" style="fill: none; stroke: #ddd; stroke-width: 1; opacity: 1;"></line><line transform="translate(0,296)" x2="720" y2="0" style="fill: none; stroke: #ddd; stroke-width: 1; opacity: 1;"></line><line transform="translate(0,282)" x2="720" y2="0" style="fill: none; stroke: #ddd; stroke-width: 1; opacity: 1;"></line><line transform="translate(0,272)" x2="720" y2="0" style="fill: none; stroke: #ddd; stroke-width: 1; opacity: 1;"></line><line transform="translate(0,264)" x2="720" y2="0" style="fill: none; stroke: #ddd; stroke-width: 1; opacity: 1;"></line><line transform="translate(0,258)" x2="720" y2="0" style="fill: none; stroke: #ddd; stroke-width: 1; opacity: 1;"></line><line transform="translate(0,252)" x2="720" y2="0" style="fill: none; stroke: #ddd; stroke-width: 1; opacity: 1;"></line><line transform="translate(0,248)" x2="720" y2="0" style="fill: none; stroke: #ddd; stroke-width: 1; opacity: 1;"></line><line transform="translate(0,244)" x2="720" y2="0" style="fill: none; stroke: #ddd; stroke-width: 1; opacity: 1;"></line><line transform="translate(0,240)" x2="720" y2="0" style="fill: none; stroke: #ddd; stroke-width: 1; opacity: 1;"></line><line transform="translate(0,216)" x2="720" y2="0" style="fill: none; stroke: #ddd; stroke-width: 1; opacity: 1;"></line><line transform="translate(0,202)" x2="720" y2="0" style="fill: none; stroke: #ddd; stroke-width: 1; opacity: 1;"></line><line transform="translate(0,192)" x2="720" y2="0" style="fill: none; stroke: #ddd; stroke-width: 1; opacity: 1;"></line><line transform="translate(0,184)" x2="720" y2="0" style="fill: none; stroke: #ddd; stroke-width: 1; opacity: 1;"></line><line transform="translate(0,178)" x2="720" y2="0" style="fill: none; stroke: #ddd; stroke-width: 1; opacity: 1;"></line><line transform="translate(0,172)" x2="720" y2="0" style="fill: none; stroke: #ddd; stroke-width: 1; opacity: 1;"></line><line transform="translate(0,168)" x2="720" y2="0" style="fill: none; stroke: #ddd; stroke-width: 1; opacity: 1;"></line><line transform="translate(0,164)" x2="720" y2="0" style="fill: none; stroke: #ddd; stroke-width: 1; opacity: 1;"></line><line transform="translate(0,160)" x2="720" y2="0" style="fill: none; stroke: #ddd; stroke-width: 1; opacity: 1;"></line><line transform="translate(0,136)" x2="720" y2="0" style="fill: none; stroke: #ddd; stroke-width: 1; opacity: 1;"></line><line transform="translate(0,122)" x2="720" y2="0" style="fill: none; stroke: #ddd; stroke-width: 1; opacity: 1;"></line><line transform="translate(0,112)" x2="720" y2="0" style="fill: none; stroke: #ddd; stroke-width: 1; opacity: 1;"></line><line transform="translate(0,104)" x2="720" y2="0" style="fill: none; stroke: #ddd; stroke-width: 1; opacity: 1;"></line><line transform="translate(0,98)" x2="720" y2="0" style="fill: none; stroke: #ddd; stroke-width: 1; opacity: 1;"></line><line transform="translate(0,92)" x2="720" y2="0" style="fill: none; stroke: #ddd; stroke-width: 1; opacity: 1;"></line><line transform="translate(0,88)" x2="720" y2="0" style="fill: none; stroke: #ddd; stroke-width: 1; opacity: 1;"></line><line transform="translate(0,84)" x2="720" y2="0" style="fill: none; stroke: #ddd; stroke-width: 1; opacity: 1;"></line><line transform="translate(0,80)" x2="720" y2="0" style="fill: none; stroke: #ddd; stroke-width: 1; opacity: 1;"></line><line transform="translate(0,56)" x2="720" y2="0" style="fill: none; stroke: #ddd; stroke-width: 1; opacity: 1;"></line><line transform="translate(0,42)" x2="720" y2="0" style="fill: none; stroke: #ddd; stroke-width: 1; opacity: 1;"></line><line transform="translate(0,32)" x2="720" y2="0" style="fill: none; stroke: #ddd; stroke-width: 1; opacity: 1;"></line><line transform="translate(0,24)" x2="720" y2="0" style="fill: none; stroke: #ddd; stroke-width: 1; opacity: 1;"></line><line transform="translate(0,18)" x2="720" y2="0" style="fill: none; stroke: #ddd; stroke-width: 1; opacity: 1;"></line><line transform="translate(0,12)" x2="720" y2="0" style="fill: none; stroke: #ddd; stroke-width: 1; opacity: 1;"></line><line transform="translate(0,8)" x2="720" y2="0" style="fill: none; stroke: #ddd; stroke-width: 1; opacity: 1;"></line><line transform="translate(0,4)" x2="720" y2="0" style="fill: none; stroke: #ddd; stroke-width: 1; opacity: 1;"></line><line transform="translate(0,0)" x2="720" y2="0" style="fill: none; stroke: #ddd; stroke-width: 1; opacity: 1;"></line></g></g></g></g><g class="mark-line role-mark marks"><path d="M720,43.74554482383246L719.3700076208755,32.86419298637446L718.8009822461826,29.855336734561945L718.1709898670581,33.68796834879345L717.5409974879336,23.166982371477957L716.9313274436196,35.48267707288255L716.3013350644952,45.42469186814526L715.6916650201812,47.785256711910165L715.0616726410568,50.46406772360069L714.4316802619323,48.59198102061748L713.8220102176183,51.04848247336872L713.1920178384939,54.360048287530674L712.5823477941799,40.48255759679546L711.9523554150555,37.095631269535374L711.3833300403624,33.614203775531166L710.753337661238,33.519801549167425L710.1233452821135,24.48827283659358L709.5136752377996,38.14212493808384L708.8836828586751,46.76927495231905L708.2740128143611,48.85409441325834L707.6440204352366,52.42017461960859L707.0140280561122,49.8925340733058L706.4043580117983,56.58000710097048L705.7743656326738,57.039855816285126L705.1646955883598,47.24796076964799L704.5347032092353,37.03626006058869L703.9453554997318,34.228288098431904L703.3153631206073,37.13132298718347L702.685370741483,28.14033514586589L702.075700697169,41.770013975306085L701.4457083180446,51.15570759536968L700.8360382737305,53.08578312360032L700.2060458946061,55.42103235605828L699.5760535154817,54.55760588720307L698.9663834711677,60.16979489492553L698.3363910920433,60.22166591812601L697.7267210477293,49.87880715554638L697.0967286686048,42.79508210910615L696.5277032939117,37.130210227029295L695.8977109147874,41.54978068113752L695.2677185356629,31.617175509227877L694.6580484913488,45.438437117704154L694.0280561122245,54.12382557805421L693.4183860679104,57.09623963619845L692.7883936887861,57.91082484176712L692.1584013096616,56.46810750025617L691.5487312653476,63.21264378174254L690.9187388862231,63.377405785533824L690.3090688419092,51.950081152578775L689.6790764627848,47.673403529248844L689.1100510880917,41.69564009839405L688.4800587089672,42.7163451541216L687.8500663298428,33.44475514207403L687.2403962855288,48.01779804089608L686.6104039064044,56.80204207064287L686.0007338620904,57.50714552012914L685.3707414829659,57.83088759938278L684.7407491038415,58.86786328532003L684.1310790595276,63.782412581493645L683.5010866804031,65.21696560154129L682.891416636089,55.81647019938538L682.2614242569646,45.395806033835925L681.6923988822716,44.07469762901212L681.0624065031471,46.71711454798458L680.4324141240227,35.115802951294825L679.8227440797087,50.74314472822056L679.1927517005843,58.77682993113359L678.5830816562702,59.758367333852675L677.9530892771459,59.90828226838801L677.3230968980214,60.848232756215L676.7134268537075,65.66482174268708L676.083434474583,68.10167200087756L675.473764430269,56.67841552519019L674.8437720511446,49.59338048644207L674.254424341641,46.9248866210055L673.6244319625166,45.90005564551251L672.9944395833921,35.09614373596139L672.3847695390782,51.01769188121199L671.7547771599537,53.25946676613211L671.1451071156397,52.61566234254309L670.5151147365153,60.37695521959563L669.8851223573909,60.34240837776866L669.2754523130769,70.54702585405425L668.6454599339523,68.12634940214105L668.0357898896384,56.305937202674954L667.405797510514,53.315674271338025L666.836772135821,45.71565589460283L666.2067797566965,46.06790303314085L665.576787377572,36.908472008231854L664.9671173332581,51.60144687163296L664.3371249541336,58.64542291847721L663.7274549098197,60.72472519905989L663.0974625306952,61.958510140319675L662.4674701515708,59.02214373293879L661.8578001072567,66.89344119183573L661.2278077281323,67.97977631749802L660.6181376838184,58.07439540291102L659.988145304694,49.11391533577637L659.4191199300008,45.768019385621756L658.7891275508764,47.25242776670376L658.1591351717519,37.34533062657226L657.549465127438,52.61582031125067L656.9194727483135,58.183624603728276L656.3098027039995,61.071981227121626L655.6798103248751,63.43235676646259L655.0498179457506,60.319922041179154L654.4401479014367,69.53163124550468L653.8101555223122,67.83749105826473L653.2004854779982,56.64026026143415L652.5704930988738,51.60052634177168L652.0014677241808,47.265019667425804L651.3714753450563,49.004542406485314L650.7414829659318,39.349202295628345L650.1318129216179,52.71484994516692L649.5018205424934,60.768442232207974L648.8921504981795,64.17258328783026L648.262158119055,63.13493802055007L647.6321657399305,60.410745634305556L647.0224956956166,67.71602918707316L646.3925033164921,68.1900981620002L645.7828332721782,59.69652896493244L645.1528408930537,48.05296625163669L644.5634931835502,44.16376057153798L643.9335008044258,47.679707135405636L643.3035084253013,39.88688391977428L642.6938383809872,51.24154438057349L642.0638460018629,59.588431145917525L641.454175957549,61.80238407986019L640.8241835784245,62.64869437502318L640.1941911993,60.94707480603677L639.584521154986,66.97143811221628L638.9545287758616,68.1228935106177L638.3448587315477,57.11421549458305L637.7148663524232,49.69867023045089L637.1458409777301,45.80513635718444L636.5158485986057,48.61970870319783L635.8858562194812,39.69238906947504L635.2761861751673,51.07491773346584L634.6461937960428,58.31980809044279L634.0365237517289,62.28039280407461L633.4065313726044,64.61713413950946L632.7765389934799,62.18892422668529L632.166868949166,68.33681802353732L631.5368765700415,69.50156926078915L630.9272065257275,57.39965668767081L630.297214146603,51.52313569532373L629.72818877191,47.82858498046687L629.0981963927856,48.0878927614998L628.4682040136611,41.02202720435099L627.8585339693471,53.45440740115134L627.2285415902228,60.31637289696533L626.6188715459087,62.85806999629267L625.9888791667843,65.76108540069578L625.3588867876598,61.888094378666665L624.7492167433459,64.2071889775421L624.1192243642214,69.39156399064245L623.5095543199075,60.60523354392757L622.879561940783,50.447738491265625L622.3105365660899,48.155072471535675L621.6805441869654,48.174111827862646L621.0505518078411,40.35012647060694L620.440881763527,52.50998443003897L619.8108893844026,59.31457219874977L619.2012193400886,63.414676772775294L618.5712269609642,65.42874918472245L617.9412345818398,60.890501935806924L617.3315645375258,69.62145814569226L616.7015721584013,70.16639908775761L616.0919021140874,58.74308358383877L615.4619097349629,53.934454637727356L614.8725620254594,49.86917234666424L614.2425696463349,48.96142980543999L613.6125772672106,42.14674461491626L613.0029072228965,53.936587739936044L612.372914843772,62.42883761017265L611.7632447994581,66.28060581976791L611.1332524203336,69.48308249823674L610.5032600412092,66.95568150432001L609.8935899968952,76.06814242132657L609.2635976177708,79.05914428140312L608.6539275734568,65.81647717288826L608.0239351943324,57.00219788944071L607.4549098196393,52.26031927031431L606.8249174405148,52.47047726360552L606.1949250613903,46.04985252833313L605.5852550170764,56.14329637048445L604.9552626379519,63.16873900502247L604.345592593638,69.29517938931264L603.7156002145135,70.02088678526616L603.085607835389,65.41687338729713L602.4759377910751,75.08561128049143L601.8459454119507,74.1903079388888L601.2362753676366,67.360690103661L600.6062829885122,55.485311510208476L600.0372576138192,53.85496695668593L599.4072652346947,55.10768731112813L598.7772728555703,49.61105151481917L598.1676028112563,62.67801552656579L597.5376104321318,67.79369629113035L596.9279403878179,70.56688211541183L596.2979480086934,69.09686171386267L595.6679556295691,67.23943700181428L595.058285585255,75.9761171211382L594.4282932061305,76.39419979642025L593.8186231618166,65.18247392017707L593.1886307826921,60.186683770530806L592.6196054079991,55.95375245012974L591.9896130288747,56.308045311056674L591.3596206497501,49.14820978278726L590.7499506054362,59.13249278011028L590.1199582263118,66.70691250017325L589.5102881819978,75.52388757366805L588.8802958028733,74.4369117517544L588.2503034237488,70.73226158055957L587.6406333794349,80.87392970483734L587.0106410003104,80.32532836181241L586.4009709559965,67.40805264291083L585.770978576872,65.2451289353304L585.1816308673685,57.18134760990449L584.5516384882442,61.68610713911767L583.9216461091196,54.993656407508865L583.3119760648057,61.703954805253034L582.6819836856812,70.11355756128194L582.0723136413673,75.35326201992604L581.4423212622428,78.6106173157176L580.8123288831183,76.16352310848987L580.2026588388044,84.55686336547217L579.5726664596799,83.74795390536372L578.9629964153659,73.22017462552651L578.3330040362415,67.01803351548625L577.7639786615484,61.75303184170269L577.133986282424,64.46594764718577L576.5039939032996,56.75058133412625L575.8943238589856,66.01406657295865L575.2643314798612,73.14935795855251L574.6546614355472,79.09399153883305L574.0246690564227,82.28271656671058L573.3946766772982,77.79898460409515L572.7850066329843,87.63617179822256L572.1550142538598,87.1573043924044L571.5453442095459,74.93213014443097L570.9153518304214,70.78498726816753L570.3463264557283,64.0215599416324L569.716334076604,66.10431627870918L569.0863416974795,58.846689024117154L568.4766716531655,68.2210263035879L567.846679274041,75.1505178269694L567.237009229727,80.43843901864119L566.6070168506027,80.27346287976997L565.9770244714782,78.00504255700457L565.3673544271642,86.27257239808188L564.7373620480397,84.50619599680289L564.1276920037258,75.96900074130644L563.4976996246013,66.07661166826858L562.9286742499082,62.354745004305755L562.2986818707838,64.75172820382011L561.6686894916594,54.478514662660075L561.0590194473455,66.09244016902176L560.429027068221,73.16134095566736L559.819357023907,79.67355919504735L559.1893646447825,79.63503168062556L558.5593722656581,78.0700568428606L557.9497022213441,84.51450354680912L557.3197098422197,85.0025808285298L556.7100397979057,73.89207060052331L556.0800474187812,67.95815067560164L555.4906997092777,63.48674678313131L554.8607073301532,66.9296748632749L554.2307149510287,58.21256303981005L553.6210449067148,69.56943833945542L552.9910525275905,74.58970266174038L552.3813824832764,81.74007902058855L551.7513901041519,82.67787532942236L551.1213977250275,79.00406897270437L550.5117276807135,90.49387355527972L549.8817353015892,87.67514916905503L549.2720652572751,76.6579611861265L548.6420728781507,70.20437949744354L548.0730475034576,67.200955969441L547.4430551243332,68.86207969541005L546.8130627452088,62.0342474776653L546.2033927008947,70.45213739756224L545.5734003217702,75.25553042650353L544.9637302774563,82.82793298549007L544.3337378983318,84.3247176365814L543.7037455192075,82.37187791687563L543.0940754748934,92.39712051892684L542.464083095769,90.79357804543935L541.854413051455,81.07259145422313L541.2244206723306,71.04472090281268L540.6553952976376,68.15722082247021L540.0254029185131,72.40152464976387L539.3954105393886,65.64229129492304L538.7857404950746,74.58762138124865L538.1557481159502,80.07652003174695L537.5460780716363,88.28143004472435L536.9160856925117,90.19020967797695L536.2860933133873,88.02967835298097L535.6764232690733,96.40695433818132L535.046430889949,93.58422574377016L534.4367608456349,84.31999608210617L533.8067684665104,77.59349316687906L533.2377430918174,74.00064978210656L532.607750712693,76.03031128004886L531.9777583335685,68.09797190198566L531.3680882892546,78.85314453889657L530.7380959101301,86.18237845929792L530.1284258658161,92.04448126254255L529.4984334866917,92.37379719823468L528.8684411075673,87.66561732851443L528.2587710632533,98.81810264711675L527.6287786841289,96.67597559781359L527.0191086398148,87.96189028885948L526.3891162606903,80.40327204678147L525.7997685511868,74.90631568554261L525.1697761720624,82.66661895215663L524.539783792938,71.93067213893357L523.9301137486241,80.36462944625441L523.3001213694996,87.15474300160736L522.6896045612352,92.10202204404675L522.0596121821108,92.69174299486332L521.4296198029862,92.46171349586979L520.8199497586722,98.77274707281055L520.1899573795479,100.62599654210584L519.5811340991843,96.24908691413248L518.9511417200598,84.27988875443305L518.3821163453669,82.1460757853622L517.7521239662424,84.21157704741893L517.1221315871179,71.83165936587494L516.5124615428039,82.65949179901384L515.8824691636795,87.59896756571675L515.271952355415,93.3839623231546L514.6419599762907,92.67522597123292L514.0119675971662,93.25244852733147L513.4022975528522,99.26405525625472L512.7723051737278,100.61844851718973L512.1634818933642,88.57101672463955L511.53348951423976,84.39404092170156L510.96446413954664,82.29793210095158L510.3344717604222,80.61976109144996L509.7044793812978,71.9447217946963L509.0948093369838,84.69896725448405L508.4648169578594,90.33399049793411L507.85430014959496,92.48310532222547L507.22430777047055,95.02631349381022L506.5943153913461,96.04724163078987L505.9846453470321,100.7034584899954L505.3546529679076,105.60073260521017L504.7458296875441,94.92473032214377L504.11583730841966,88.47510621914364L503.5468119337266,83.87318399672421L502.91681955460217,87.8423810877888L502.2868271754777,74.84815340734724L501.6771571311637,86.86016561095721L501.04716475203924,89.43995486659884L500.43664794377486,95.00971910766447L499.8066555646504,98.73459877520656L499.17666318552597,97.47105740054798L498.56699314121204,103.1608240198857L497.93700076208756,104.24887204975511L497.328177481724,97.27400180170423L496.6981851025996,89.6562696199066L496.10883739309605,85.36599403229849L495.47884501397164,86.2463629314376L494.84885263484716,75.00667942481516L494.2391825905331,82.78386391792708L493.6091902114087,89.18196145634295L492.99867340314427,97.6092029445885L492.36868102401985,101.6668168245784L491.7386886448954,101.37762976872682L491.12901860058145,106.15611453464908L490.49902622145703,105.37065634701406L489.8902029410935,96.15216543500111L489.260210561969,92.31679543447655L488.691185187276,85.2773113227633L488.06119280815153,88.75290658356107L487.43120042902706,76.88496647691039L486.82153038471307,87.97805994213184L486.19153800558865,97.39531083520205L485.5810211973242,104.90079319499313L484.9510288181998,103.7800602583095L484.3210364390753,109.28941175789708L483.71136639476134,112.3065530624811L483.0822207795874,110.90956520598075L482.47255073527333,99.47580514000214L481.8425583561489,93.89120660737683L481.27353298145584,92.50002911898957L480.6435406023314,93.82183439726595L480.01354822320695,81.61901739119747L479.403878178893,91.79818487765613L478.7738857997686,101.24289750201297L478.16421575545456,109.56007479946845L477.53422337633015,104.17494065303538L476.9042309972057,112.36382969784285L476.29456095289174,112.39647554283079L475.66456857376727,111.15400008324661L475.0548985294533,102.69635528818071L474.4249061503288,95.905271523897L473.8558807756358,95.61162295957985L473.2258883965113,99.27676022752678L472.5958960173869,85.627688632336L471.98622597307286,99.80047651443306L471.35623359394845,106.1671804195571L470.7465635496345,114.39020388764709L470.11657117051004,112.44771192119919L469.4865787913856,115.9230598161459L468.8769087470716,120.01294121834462L468.24691636794716,116.95836317462971L467.63724632363324,107.23636651706045L467.00725394450876,102.8133990053334L466.41790623500526,102.42632282561794L465.7879138558808,103.52748354397511L465.15792147675637,89.24446699525589L464.5482514324423,105.82722763160132L463.9182590533179,109.78943298978959L463.3085890090039,117.71134272291351L462.6785966298795,115.11093482781962L462.0486042507551,116.8739120965779L461.43893420644105,125.86869059508439L460.8089418273166,122.59963890992827L460.19927178300264,115.60018727368458L459.5692794038782,106.55373918812205L459.0002540291851,105.1571411465485L458.3702616500607,104.02269206622606L457.7402692709362,91.54248046616277L457.1305992266223,107.77853270042078L456.5006068474978,113.34954136401365L455.8909368031838,121.5695457590025L455.26094442405935,116.0179622357843L454.63095204493493,121.35640145482273L454.021282000621,128.58565038950536L453.3912896214965,122.52276082351858L452.78161957718254,114.22698538829303L452.15162719805807,109.78206347898623L451.58260182336505,106.63142018553538L450.9526094442406,103.87456119552581L450.32261706511616,92.03367226453202L449.7129470208021,107.80172651415216L449.0829546416777,112.44594389114678L448.4732845973638,122.99498407566466L447.8432922182393,118.37809056725627L447.2132998391149,122.9016966679128L446.60362979480084,129.35368369503288L445.9736374156764,122.88259171032803L445.36396737136243,117.55124333362994L444.733974992238,106.84970504106099L444.16494961754495,104.93851963726763L443.53495723842053,104.29218797393082L442.9049648592961,92.04349848739076L442.29529481498207,107.90706643707847L441.66530243585765,114.43791507050639L441.05563239154367,127.38561828470455L440.42564001241925,118.62221615776741L439.7956476332947,125.56303441443555L439.1859775889808,131.33931660795236L438.5559852098563,125.90383177251357L437.94631516554233,120.37421782272366L437.31632278641786,106.39221192466022L436.7269750769144,103.1547344159485L436.09698269779,105.33894154923695L435.46699031866547,92.60324343467175L434.85732027435154,108.59017788725811L434.22732789522706,117.70722838120082L433.61765785091313,127.84386592121376L432.9876654717886,122.05337299582658L432.3576730926642,130.8119158393846L431.7480030483502,139.16375859143312L431.1180106692258,126.97897181799368L430.50834062491174,122.68380828171593L429.8783482457873,110.54610738505033L429.3093228710943,110.08385078023429L428.67933049196984,104.10464264911013L428.0493381128454,92.73933588872416L427.43966806853143,111.34873807647551L426.809675689407,116.42297575830605L426.200005645093,130.98934037821147L425.57001326596856,123.01774592026248L424.9400208868441,134.4015986268035L424.33035084253015,144.19550294771705L423.70035846340573,130.97125576330558L423.0906884190917,123.58316577793562L422.4606960399673,114.91391977784713L421.8916706652742,111.40359814282652L421.2616782861498,107.99716827143612L420.6316859070253,96.52135535873833L420.0220158627113,114.0626778250035L419.39202348358685,121.91378438478807L418.7823534392729,133.94561385252592L418.1523610601485,124.88371938364833L417.52236868102403,131.3591174134325L416.91269863671005,141.49874812557874L416.2827062575856,133.73615694955203L415.67303621327164,122.08135814317313L415.04304383414717,115.13480470423588L414.4740184594541,115.6971226597957L413.8440260803296,105.37354094650533L413.2140337012052,97.34719431551912L412.6043636568913,115.04323366448756L411.9743712777668,120.05583246933378L411.36470123345276,133.56040461582262L410.73470885432835,124.68701438212929L410.10471647520393,140.66831375988886L409.49504643088994,150.0605352842681L408.8650540517655,129.38965532824665L408.2553840074515,125.2191630169176L407.62539162832707,113.56980095402292L407.0360439188235,112.65252710201725L406.4060515396991,106.21000170031363L405.7760591605746,96.73779189298443L405.1663891162607,115.12143555310115L404.5363967371363,121.36554209116912L403.9267266928222,135.30801838548928L403.2967343136978,124.6643891487426L402.66674193457334,140.09938218981625L402.0570718902594,144.94423867529957L401.427079511135,129.94398523296098L400.81740946682095,125.54498648186649L400.18741708769653,113.88255608434986L399.61839171300346,116.29633319028454L398.98839933387904,108.35914469197922L398.35840695475457,99.54098492900044L397.7487369104406,118.91702332527478L397.1187445313161,123.4542921582721L396.5090744870022,134.5900285535953L395.8790821078777,128.6870791691511L395.2490897287533,139.15422335012062L394.63941968443925,146.1684241798259L394.00942730531483,132.76764388540357L393.3997572610009,127.55453456569245L392.7697648818764,116.94729241735354L392.2007395071834,120.92609650208772L391.57074712805894,112.24585485256233L390.9407547489345,103.93747426186144L390.3310847046205,123.07411568777422L389.70109232549606,130.79991978970054L389.09142228118213,140.930213677734L388.46142990205766,133.8112852490936L387.83143752293313,137.99537231032252L387.2217674786192,148.09945189425662L386.5917750994948,140.19355950129307L385.98210505518074,132.76923053038854L385.3521126760563,122.69211772398404L384.78308730136325,125.4973334554191L384.15309492223884,124.32054545698827L383.52310254311436,112.3814722913018L382.91343249880043,130.4924394539343L382.283440119676,132.95217970347693L381.673770075362,149.33477464809215L381.04377769623756,143.23022123907595L380.4137853171131,146.6761188208996L379.80411527279915,156.04085024531548L379.17412289367473,148.44901007184507L378.5644528493607,143.02712321972933L377.9344604702362,128.4592794019115L377.3451127607327,132.02361514750316L376.71512038160824,128.38507540427963L376.0851280024838,117.44593960475066L375.4754579581699,132.2636030053531L374.8454655790454,137.74728830042693L374.23579553473144,152.22497019432834L373.60580315560696,146.81609442452358L372.97581077648255,152.09743005482466L372.3661407321686,160.01737612366912L371.73614835304414,141.45186210052674L371.12647830873016,149.25817947034966L370.4964859296057,132.80733176359945L369.92746055491267,132.16990403121582L369.2974681757882,136.3352865471059L368.6674757966638,123.9886966926025L368.05780575234974,138.4445687143011L367.4278133732253,144.65710019342404L366.81814332891133,158.84507777346624L366.1881509497869,151.10706723379295L365.5581585706625,158.4275019744521L364.94848852634846,164.295611600522L364.31849614722404,160.0904508894125L363.70882610291005,153.417392807005L363.07883372378564,140.9603285782519L362.5098083490925,141.76495221044667L361.8798159699681,142.76380056934L361.2498235908436,128.98746171038863L360.6401535465297,143.75301548220415L360.0101611674053,154.6105223267785L359.4004911230913,164.83446650752788L358.7704987439668,159.89938949502152L358.14050636484234,165.92555217052228L357.5308363205284,171.4520257019862L356.90084394140393,165.05880019120468L356.29117389708995,162.469101312263L355.6611815179655,146.83036087362314L355.09215614327246,145.17249587342494L354.462163764148,148.78702163090907L353.83217138502357,133.6839894344173L353.2225013407096,153.1596288458802L352.59250896158517,158.60727931710312L351.9828389172712,170.80116314721653L351.3528465381467,165.44271082174623L350.7228541590223,172.13501570981728L350.1131841147083,177.40792380027762L349.48319173558383,170.6120306248966L348.87352169126984,168.22943652943243L348.2435293121454,150.65279180698687L347.65418160264187,147.65825792055236L347.02418922351745,146.99245804460625L346.39419684439304,141.22039994975586L345.78452680007905,157.43887726723952L345.1545344209546,161.99856018936939L344.5448643766406,169.65397593721542L343.9148719975162,169.0762301287115L343.28487961839176,170.05537334975688L342.67520957407777,176.13557743824185L342.0452171949533,173.01818379981603L341.4355471506393,167.76148801619976L340.8055547715149,156.23359417469948L340.2365293968218,152.36692284412428L339.60653701769735,146.88272136360928L338.97654463857293,144.26391100532916L338.36687459425895,159.49641136148918L337.7368822151345,156.71386242276196L337.1272121708205,171.0056355115193L336.49721979169607,169.18015137748915L335.86722741257165,183.3603402861657L335.25755736825766,188.7058762709509L334.6275649891332,173.95552541677142L334.0178949448192,174.02828682253184L333.3879025656948,159.93404987155157L332.8188771910017,156.04085024531548L332.18888481187724,153.128255109473L331.5588924327528,146.24083338383053L330.94922238843884,160.74093371939702L330.31923000931437,162.6486163306291L329.7095599650004,171.855318861741L329.07956758587596,179.37796071904594L328.44957520675155,192.22828097330438L327.83990516243756,196.6936337866645L327.2099127833131,184.1380338660506L326.6002427389991,181.21601363289224L325.9702503598747,165.78163521826764L325.4012249851816,155.27735960289758L324.7712326060572,161.00099950935257L324.1412402269328,154.72077686129794L323.5315701826188,164.95045846445504L322.9015778034943,168.85586379949515L322.29190775918033,180.9673661300289L321.66191538005586,189.2579444299245L321.03192300093144,201.9114626527847L320.42225295661746,199.5337572916131L319.792260577493,190.44748712905778L319.182590533179,190.1814427868225L318.5525981540546,173.1853544120765L317.9632504445511,165.43458462394227L317.33325806542666,167.1543161214993L316.7032656863022,158.29162295348618L316.0935956419882,171.69441233145895L315.4636032628637,172.59625308039878L314.8539332185498,183.64736580905273L314.2239408394253,191.22391180964803L313.59394846030085,205.2344876772641L312.98427841598686,205.61981759980736L312.35428603686245,198.85743617116978L311.74461599254846,194.04045853717383L311.11462361342404,180.6197064074725L310.545598238731,174.52081422366294L309.91560585960656,171.2161162015547L309.2856134804821,166.36926062573139L308.6759434361681,173.40950718023672L308.0459510570437,176.76592660871114L307.4362810127297,190.91802377170782L306.8062886336053,201.53048610502657L306.17629625448075,208.37388855445192L305.5666262101668,210.52217292477104L304.93663383104234,202.57951590047736L304.3269637867284,197.98604577317826L303.69697140760394,186.95672200848205L303.12794603291087,174.4312213798732L302.49795365378645,176.69282368278886L301.867961274662,171.50520586182645L301.258291230348,182.82680057099708L300.6282988512236,180.35030229544495L300.0186288069096,194.7132972665603L299.3886364277852,199.95912715789305L298.7586440486607,213.76227011015916L298.1489740043467,216.51331892031067L297.5189816252223,208.10925403692863L296.9093115809083,202.75747544211603L296.27931920178384,188.95282224123955L295.71029382709077,182.91403697823446L295.08030144796635,182.6329820058385L294.45030906884193,176.83918367277965L293.84063902452795,192.25464512675273L293.2106466454035,193.05501844452994L292.6009766010895,203.32105889614348L291.97098422196507,216.90429915277954L291.3409918428406,223.69212290030123L290.7313217985266,224.37231533212645L290.1013294194022,219.90789254597163L289.4916593750882,208.82419614348916L288.8616669959638,192.26343762548433L288.27231928646023,186.9944826453392L287.6423269073358,188.59492503164898L287.01233452821134,181.44068407848565L286.40266448389735,196.65369865749503L285.77267210477294,197.8205506889529L285.16300206045895,202.63873452492518L284.5330096813345,219.83003579954845L283.90301730221006,225.5669893729341L283.2933472578961,229.54757207823755L282.66335487877166,224.7510561749116L282.05368483445767,212.0111934246135L281.4236924553332,201.81872036601177L280.8546670806402,193.46222720407212L280.2246747015157,193.89269198353657L279.59468232239124,184.62161313817953L278.98501227807725,204.81550308853357L278.35501989895283,210.00547568174494L277.74534985463885,209.91766546174557L277.1153574755144,223.73560670892135L276.48536509638996,231.91525160735077L275.87569505207597,233.60764258666237L275.24570267295155,227.9886270521153L274.63603262863757,205.65858668534653L274.0060402495131,198.9639136022008L273.4370148748201,195.31291335134404L272.8070224956956,198.32988946493262L272.1770301165712,188.4685559592065L271.5673600722572,203.9308246096187L270.9373676931327,205.31121253410254L270.3276976488188,214.95815117414094L269.6977052696943,224.99834233308295L269.06771289056985,228.9863570210596L268.45804284625586,231.66835595567937L267.82805046713145,230.09186872263314L267.21838042281746,214.85690712420018L266.588388043693,202.35540118261807L266.019362669,200.00305075230477L265.38937028987556,197.81023337379105L264.7593779107511,198.76188468940995L264.1497078664371,192.6881158975001L263.5197154873127,208.99457764662492L262.9100454429987,220.33925152261784L262.2800530638742,230.03966201325744L261.6500606847498,235.14417277171106L261.0403906404358,237.94276928789273L260.4103982613114,228.359426287227L259.8007282169974,213.0672141236464L259.17073583787294,207.11084651592765L258.58138812836944,206.02253301347463L257.95139574924497,199.77306891031975L257.32140337012055,198.14191664274392L256.71173332580656,212.1667850798647L256.0817409466821,215.50315934657908L255.47207090236813,223.75736903882316L254.84207852324369,234.51544839421098L254.2120861441192,239.2099493030272L253.60241609980525,243.23852984216015L252.97242372068078,226.68559089253742L252.36275367636682,225.82017309955012L251.73276129724235,209.72816792414898L251.1637359225493,207.61330267040498L250.53374354342486,197.81023337379105L249.90375116430044,199.6532070558029L249.29408111998646,218.2340969999992L248.664088740862,218.73912666259116L248.05441869654803,233.57874981281242L247.42442631742358,239.61990755271992L246.79443393829914,241.56336861791198L246.18476389398515,245.11913634278324L245.55477151486073,232.10850193463543L244.94510147054675,227.06660700498114L244.3151090914223,213.69702397163724L243.7460837167292,206.3903321531438L243.1160913376048,208.164799306237L242.48609895848034,208.68284705287178L241.87642891416635,217.86467769239684L241.2464365350419,226.12178852376044L240.63676649072792,235.32591804343957L240.00677411160348,240.2790662276657L239.37678173247903,242.55874288050865L238.76711168816507,244.3231437137945L238.13711930904063,236.43681916860712L237.52744926472664,229.77979873336213L236.8974568856022,221.27913459302567L236.32843151090916,207.3679567885892L235.6984391317847,212.54307278562018L235.06844675266024,207.4767855652836L234.45877670834625,222.34951844415264L233.8287843292218,224.21755534995046L233.21911428490782,231.0989989072748L232.58912190578337,243.73789306661564L231.95912952665896,247.1500476088639L231.34945948234497,239.44850336416798L230.71946710322052,239.07436451221773L230.10979705890654,229.44485638316604L229.4798046797821,220.67628155227615L228.8904569702786,208.8667132508374L228.26046459115412,212.10446477875672L227.63047221202967,209.32349627801977L227.0208021677157,224.5277677550066L226.39080978859127,222.03735499151313L225.78113974427728,241.96545531925898L225.15114736515284,239.34606527948588L224.5211549860284,251.17295947432052L223.9114849417144,257.05988622835514L223.28149256258996,251.31702419442885L222.67182251827597,238.4706967642342L222.04183013915153,225.77400225082548L221.4728047644585,212.84388469548477L220.84281238533407,214.9243703658869L220.21282000620963,211.9956725136776L219.60314996189564,223.23879883658955L218.97315758277117,223.77914500854402L218.3634875384572,244.48088999409822L217.73349515933273,250.55549105415668L217.1035027802083,246.51563755597812L216.4938327358943,252.6412156327909L215.86384035676986,238.63733285609757L215.25417031245587,238.30485607440497L214.62417793333145,228.21063137649708L214.0551525586384,216.039416103961L213.42516017951397,209.0943540884763L212.79516780038952,220.4380390743933L212.18549775607553,227.4518479143991L211.5555053769511,233.43464525719097L210.9458353326371,247.2783316631075L210.31584295351266,248.41042746037982L209.68585057438824,259.71335528856747L209.07618053007425,255.39719775449174L208.4461881509498,249.48922745835418L207.83651810663582,242.89697381235558L207.20652572751138,230.32777459083783L206.6375003528183,221.1779298650358L206.00750797369386,222.93983582428828L205.37751559456942,223.6053182116684L204.76784555025543,242.00224045615445L204.13785317113098,249.44360229283197L203.528183126817,265.79144378236055L202.89819074769258,253.29725002748168L202.26819836856814,259.7746855049383L201.65852832425415,268.05321130302866L201.0285359451297,251.9973393848185L200.41886590081572,245.32101697210356L199.78887352169127,241.0582612587004L199.19952581218774,226.12178852376044L198.5695334330633,227.18653656331904L197.93954105393885,224.46106010209365L197.3298710096249,234.9033152486866L196.69987863050045,245.11913634278324L196.09020858618646,248.76631849592687L195.46021620706202,264.7843135977189L194.83022382793757,257.69004223978084L194.2205537836236,254.33136084482402L193.59056140449914,251.46168876936937L192.98089136018515,250.64977485300008L192.35089898106074,241.7455586450069L191.78187360636764,244.24453834417398L191.1518812272432,235.93869510135661L190.52188884811878,229.59904402624767L189.9122188038048,249.21637088408156L189.28222642468035,249.76424386966494L188.67255638036636,262.189286197295L188.0425640012419,247.7962576548807L187.41257162211747,279.80583040124543L186.80290157780348,279.9152590225799L186.17290919867906,265.212371068447L185.56323915436508,243.04836210657197L184.93324677524063,268.76148504236625L184.3642214005476,230.51237078209903L183.73422902142315,252.99292494115912L183.10423664229867,281.94630493404566L182.4945665979847,267.89775888014844L181.86457421886024,261.86182327787424L181.25490417454625,270.72399586748793L180.6249117954218,299.3857140104652L179.99491941629736,290.61152631791845L179.3852493719834,296.6195142914819L178.75525699285896,296.97586160558194L178.14558694854497,279.156399183471L177.51559456942053,282.88856088112743L176.9465691947275,279.47959740761024L176.316576815603,293.0832212921176L175.6865844364786,272.53711463836345L175.0769143921646,289.5831006630715L174.44692201304017,237.16562094523616L173.83725196872618,288.3040522323411L173.20725958960173,310.354085503532L172.5772672104773,299.3857140104652L171.9675971661633,297.33590170371605L171.33760478703888,305.4525129644182L170.7279347427249,298.0673720589056L170.09794236360045,281.71468035249256L169.50859465409692,303.2387988365895L168.87860227497248,299.77175752160855L168.24860989584803,288.164799306237L167.63893985153405,297.33590170371605L167.0089474724096,308.30975714574095L166.39927742809562,322.89697381235555L165.76928504897117,330.4614624215219L165.13929266984675,324.8384597905105L164.52962262553277,318.6373328560976L163.89963024640832,313.95624308859755L163.28996020209433,311.4232024281705L162.6599678229699,300.75606013739207L162.09094244827682,295.2295866059281L161.4609500691524,316.06255818638544L160.83095769002793,303.8882300543639L160.22128764571397,310.6182963475389L159.5912952665895,328.1898326967647L158.98162522227554,321.4183013568345L158.3516328431511,332.39215679885945L157.72164046402665,320.7019139446004L157.11197041971266,324.4413862279865L156.48197804058822,309.8316161308154L155.87230799627423,351.835200693763L155.24231561714979,293.56689813206475L154.67329024245674,317.32609956104403L154.0432978633323,314.5451310603071L153.41330548420785,275.9817317555925L152.80363543989387,279.04933112169005L152.17364306076942,268.36621845207264L151.56312625250501,290.1670397623915L150.93313387338057,290.91104160862847L150.30314149425612,284.10349440759364L149.69347144994214,291.67132486820793L149.0634790708177,271.4035981428265L148.4538090265037,273.43493096706334L147.8246634113297,271.92216834506013L147.25563803663664,270.8926542499145L146.62564565751222,249.12589281588552L145.99565327838775,256.6086648401397L145.3859832340738,255.02042425597045L144.75599085494932,252.6412156327909L144.14547404668494,251.12507034399252L143.51548166756046,272.9831227984871L142.88548928843602,265.9377326660732L142.27666600807248,274.82671485983286L141.64667362894804,269.2418183871415L141.03700358463405,253.96591057857415L140.4070112055096,255.61434570230702L139.8176634960061,245.2805468935006L139.18767111688166,244.56003253071677L138.5576787377572,239.68870670104715L137.94800869344323,253.09407074345987L137.31801631431878,249.44360229283197L136.7083462700048,247.7962576548807L136.07835389088035,247.4070911380331L135.4483615117559,256.833543026846L134.83869146744192,253.19551186239067L134.20869908831747,243.97081164991016L133.5990290440035,230.6182963475389L132.96903666487907,220.39849034097975L132.400011290186,214.58835654230734L131.77001891106156,204.86602081252252L131.1400265319371,210.38857223591185L130.53035648762312,222.41228911805112L129.9003641084987,231.83275795905308L129.29069406418472,246.01632033616704L128.66070168506027,251.3651788224457L128.0307093059358,247.62275637770554L127.42103926162184,256.8899907379666L126.79104688249738,244.5204387275118L126.18137683818341,236.34287528473058L125.55138445905895,219.9663998152885L124.98235908436592,211.8872198459649L124.35236670524147,213.2436999079255L123.72237432611702,204.71468746885893L123.11270428180303,219.83003579954845L122.48271190267859,237.39049913194242L121.8730418583646,246.1819633605392L121.24304947924017,247.02223547740675L120.61305710011573,247.97062970748237L120.00338705580174,264.0823996531185L119.37339467667731,247.9269545809865L118.76372463236332,237.00588016475012L118.13373225323888,223.02499164768338L117.56470687854582,219.65549341349714L116.93471449942137,213.5020175183414L116.30472212029694,208.7393177009026L115.69505207598296,225.86640538654805L115.06505969685851,236.18686443187522L114.45538965254453,243.660599244854L113.8253972734201,253.09407074345987L113.19540489429563,256.3852328254061L112.58573484998166,264.50184408610824L111.9557424708572,254.59477043521755L111.34607242654323,248.72163224082487L110.71608004741877,229.7280585025755L110.12673233791527,214.77276186981692L109.49673995879083,220.29981501605423L108.86674757966637,217.10145167771577L108.2570775353524,230.7777926883279L107.62708515622793,244.48088999409822L107.01741511191398,250.2741651563297L106.38742273278952,268.36621845207264L105.75743035366507,261.60205714403554L105.14776030935109,268.36621845207264L104.51776793022665,261.86182327787424L103.90809788591267,246.97973570629415L103.27810550678822,237.13361397977377L102.70908013209518,227.69481085243768L102.07908775297072,221.68692752042494L101.44909537384629,219.06091621179698L100.8394253295323,234.01468474838603L100.20943295040786,250.0878721708431L99.59976290609387,252.09562391585573L98.96977052696943,263.7366897505071L98.339778147845,271.06213535941265L97.73010810353101,280.9159426799645L97.10011572440656,264.7134806301625L96.49044568009258,248.36619631684738L95.86045330096815,241.4545114263469L95.29142792627509,232.41436957161602L94.66143554715065,221.38063498234106L94.03144316802619,222.3077342436236L93.42177312371221,247.5795161001239L92.79178074458775,252.6412156327909L92.1821107002738,268.76148504236625L91.55211832114934,270.5561522630326L90.92212594202489,269.0008216389991L90.3124558977109,281.0289299618251L89.68246351858647,259.8361241744449L89.07279347427249,259.7746855049383L88.44280109514804,248.9007231453686L87.873775720455,240.84401458666466L87.24378334133054,230.4067671793607L86.61379096220611,228.91052528804062L86.00412091789212,252.6912423636116L85.37412853876768,251.85043194161872L84.76445849445369,279.3715302643335L84.13446611532926,279.9152590225799L83.5044737362048,277.0753245942776L82.89480369189083,281.830299622427L82.26481131276638,269.9750039230661L81.6551412684524,265.79144378236055L81.02514888932795,261.6668168245784L80.43580117982444,247.9269545809865L79.80580880069999,240.38429667222564L79.17581642157555,238.13980322930308L78.56614637726156,240.737384655749L77.93615399813712,275.11188930807555L77.32648395382314,269.5657699979981L76.69649157469868,276.87391209657784L76.06649919557425,284.22735749262245L75.45682915126027,270.8082227173492L74.82683677213582,274.9215131684472L74.21716672782183,270.8082227173492L73.5871743486974,250.74431520671433L73.01814897400435,241.6361300236724L72.3881565948799,231.26072251294377L71.75816421575546,224.04152681101152L71.14849417144147,237.51965749091707L70.51850179231702,246.1819633605392L69.90883174800305,258.6275307134256L69.2788393688786,263.8745611955258L68.64884698975416,262.32114046770084L68.03917694544018,258.80616122800893L67.40918456631573,254.96693146857157L66.79951452200174,246.26508196131184L66.16952214287731,243.31488934224262L65.60049676818426,223.9319601527138L64.97050438905981,225.20198474413914L64.34051200993537,208.4578778585743L63.73084196562139,230.7777926883279L63.100849586496935,243.12430434129348L62.49117954218296,247.02223547740675L61.86118716305851,268.76148504236625L61.23119478393407,257.23061658937L60.621524739620085,253.3992869835011L59.99153236049565,256.5526719858736L59.38186231618166,248.32202141127485L58.75186993705721,240.24406012036948L58.18284456236416,225.7048608179528L57.55285218323972,219.19428896119402L56.92285980411527,208.93769092322887L56.3131897598013,236.093593077732L55.683197380676845,236.72018460612074L55.07352733636287,248.0581450145917L54.44353495723842,244.08785912238292L53.81354257811397,250.79168202870977L53.203872533799995,264.85529127011034L52.57388015467554,249.5349126175367L51.96421011036157,254.96693146857157L51.33421773123712,239.04055082725944L50.744870021733604,226.4025460802486L50.114877642609166,214.15634116146387L49.48488526348471,217.79126285567273L48.875215219170734,233.0058834370972L48.24522284004629,238.50396010670053L47.63555279573231,256.1632285010243L47.005560416607864,254.54192851088357L46.37556803748342,265.28422953987905L45.76589799316944,265.79144378236055L45.13590561404499,254.64769284994716L44.52623556973101,249.39803696360957L43.89624319060656,230.45952885776506L43.327217815913514,221.9959443089561L42.69722543678907,215.46884471805907L42.06723305766463,217.86467769239684L41.457563013350644,231.42320242817053L40.8275706342262,245.60563519323298L40.21790058991222,248.36619631684738L39.587908210787774,242.29793210095158L38.95791583166333,263.53090301728645L38.34824578734934,256.4967692247345L37.718253408224896,252.94246224738995L37.10858336391092,245.44271082174618L36.47859098478647,225.86640538654805L35.90956561009342,224.79588657926354L35.279573230968985,217.64489693703837L34.64958085184453,215.40031696694297L34.03991080753055,232.9491129039559L33.40991842840611,238.00832319140122L32.80024838409213,249.48922745835418L32.17025600496768,247.9269545809865L31.540263625843235,264.2914889013334L30.930593581529255,257.9802992207811L30.30060120240481,256.6086648401397L29.69093115809083,245.89260426994758L29.060938778966385,237.13361397977377L28.491913404273337,229.77979873336213L27.861921025148888,233.95624308859752L27.231928646024443,215.91760034688153L26.62225860171046,235.7537245213264L25.992266222586018,241.8187030058166L25.382596178272035,253.04346103523596L24.75260379914759,266.0111087409751L24.122611420023144,265.64576827103053L23.512941375709165,264.6427917786112L22.88294899658472,258.0970844015045L22.27327895227074,244.00978367705002L21.64328657314629,241.5270449778525L21.053938863642777,230.48593977393787L20.423946484518332,229.34244346140045L19.793954105393887,216.60179250657728L19.184284061079907,244.36251318945443L18.55429168195546,237.22972346997437L17.944621637641482,261.4728987850609L17.314629258517034,259.16620132614304L16.68463687939259,256.7209219928948L16.07496683507861,257.9802992207811L15.44497445595416,252.6412156327909L14.835304411640182,255.7234307481269L14.205312032515735,242.8592295842521L13.636286657822687,232.7793557654947L13.006294278698242,218.06737205890562L12.376301899573795,231.50472821892677L11.766631855259815,260.08297109950706L11.13663947613537,245.4833703448796L10.526969431821389,258.8659094087735L9.896977052696943,258.27300152949954L9.266984673572498,272.4485959699659L8.657314629258517,264.9976831028292L8.027322250134072,252.1448706406881L7.417652205820091,248.9906159731411L6.787659826695645,241.5997302733003L6.218634452002596,232.0531777851234L5.588642072878151,223.91008822340964L4.958649693753705,217.2816572609216L4.348979649439724,241.8187030058166L3.7189872703152784,243.23852984216015L3.109317226001298,255.34312216606224L2.4793248468768523,255.77810197664195L1.8493324677524061,262.0579304319369L1.2396624234384261,259.95932841189233L0.6096700443139801,236.6254724387387L0,231.72307023242362" style="fill: none; stroke: #4c78a8; stroke-width: 2;"></path></g><g class="mark-group role-axis"><g transform="translate(0.5,400.5)"><path class="background" d="M0,0h0v0h0Z" style="pointer-events: none; fill: none;"></path><g><g class="mark-rule role-axis-tick" style="pointer-events: none;"><line transform="translate(28,0)" x2="0" y2="5" style="fill: none; stroke: #888; stroke-width: 1; opacity: 1;"></line><line transform="translate(65,0)" x2="0" y2="5" style="fill: none; stroke: #888; stroke-width: 1; opacity: 1;"></line><line transform="translate(102,0)" x2="0" y2="5" style="fill: none; stroke: #888; stroke-width: 1; opacity: 1;"></line><line transform="translate(139,0)" x2="0" y2="5" style="fill: none; stroke: #888; stroke-width: 1; opacity: 1;"></line><line transform="translate(176,0)" x2="0" y2="5" style="fill: none; stroke: #888; stroke-width: 1; opacity: 1;"></line><line transform="translate(213,0)" x2="0" y2="5" style="fill: none; stroke: #888; stroke-width: 1; opacity: 1;"></line><line transform="translate(251,0)" x2="0" y2="5" style="fill: none; stroke: #888; stroke-width: 1; opacity: 1;"></line><line transform="translate(288,0)" x2="0" y2="5" style="fill: none; stroke: #888; stroke-width: 1; opacity: 1;"></line><line transform="translate(325,0)" x2="0" y2="5" style="fill: none; stroke: #888; stroke-width: 1; opacity: 1;"></line><line transform="translate(362,0)" x2="0" y2="5" style="fill: none; stroke: #888; stroke-width: 1; opacity: 1;"></line><line transform="translate(399,0)" x2="0" y2="5" style="fill: none; stroke: #888; stroke-width: 1; opacity: 1;"></line><line transform="translate(436,0)" x2="0" y2="5" style="fill: none; stroke: #888; stroke-width: 1; opacity: 1;"></line><line transform="translate(473,0)" x2="0" y2="5" style="fill: none; stroke: #888; stroke-width: 1; opacity: 1;"></line><line transform="translate(510,0)" x2="0" y2="5" style="fill: none; stroke: #888; stroke-width: 1; opacity: 1;"></line><line transform="translate(547,0)" x2="0" y2="5" style="fill: none; stroke: #888; stroke-width: 1; opacity: 1;"></line><line transform="translate(585,0)" x2="0" y2="5" style="fill: none; stroke: #888; stroke-width: 1; opacity: 1;"></line><line transform="translate(622,0)" x2="0" y2="5" style="fill: none; stroke: #888; stroke-width: 1; opacity: 1;"></line><line transform="translate(659,0)" x2="0" y2="5" style="fill: none; stroke: #888; stroke-width: 1; opacity: 1;"></line><line transform="translate(696,0)" x2="0" y2="5" style="fill: none; stroke: #888; stroke-width: 1; opacity: 1;"></line></g><g class="mark-text role-axis-label" style="pointer-events: none;"><text text-anchor="middle" transform="translate(27.861921025148888,15)" style="font: 10px sans-serif; fill: #000; opacity: 1;">1925</text><text text-anchor="middle" transform="translate(64.97050438905981,15)" style="font: 10px sans-serif; fill: #000; opacity: 1;">1930</text><text text-anchor="middle" transform="translate(102.07908775297072,15)" style="font: 10px sans-serif; fill: #000; opacity: 1;">1935</text><text text-anchor="middle" transform="translate(139.18767111688166,15)" style="font: 10px sans-serif; fill: #000; opacity: 1;">1940</text><text text-anchor="middle" transform="translate(176.316576815603,15)" style="font: 10px sans-serif; fill: #000; opacity: 1;">1945</text><text text-anchor="middle" transform="translate(213.42516017951397,15)" style="font: 10px sans-serif; fill: #000; opacity: 1;">1950</text><text text-anchor="middle" transform="translate(250.53374354342486,15)" style="font: 10px sans-serif; fill: #000; opacity: 1;">1955</text><text text-anchor="middle" transform="translate(287.6423269073358,15)" style="font: 10px sans-serif; fill: #000; opacity: 1;">1960</text><text text-anchor="middle" transform="translate(324.7712326060572,15)" style="font: 10px sans-serif; fill: #000; opacity: 1;">1965</text><text text-anchor="middle" transform="translate(361.8798159699681,15)" style="font: 10px sans-serif; fill: #000; opacity: 1;">1970</text><text text-anchor="middle" transform="translate(398.98839933387904,15)" style="font: 10px sans-serif; fill: #000; opacity: 1;">1975</text><text text-anchor="middle" transform="translate(436.09698269779,15)" style="font: 10px sans-serif; fill: #000; opacity: 1;">1980</text><text text-anchor="middle" transform="translate(473.2258883965113,15)" style="font: 10px sans-serif; fill: #000; opacity: 1;">1985</text><text text-anchor="middle" transform="translate(510.3344717604222,15)" style="font: 10px sans-serif; fill: #000; opacity: 1;">1990</text><text text-anchor="middle" transform="translate(547.4430551243332,15)" style="font: 10px sans-serif; fill: #000; opacity: 1;">1995</text><text text-anchor="middle" transform="translate(584.5516384882442,15)" style="font: 10px sans-serif; fill: #000; opacity: 1;">2000</text><text text-anchor="middle" transform="translate(621.6805441869654,15)" style="font: 10px sans-serif; fill: #000; opacity: 1;">2005</text><text text-anchor="middle" transform="translate(658.7891275508764,15)" style="font: 10px sans-serif; fill: #000; opacity: 1;">2010</text><text text-anchor="middle" transform="translate(695.8977109147874,15)" style="font: 10px sans-serif; fill: #000; opacity: 1;">2015</text></g><g class="mark-rule role-axis-domain" style="pointer-events: none;"><line transform="translate(0,0)" x2="720" y2="0" style="fill: none; stroke: #888; stroke-width: 1; opacity: 1;"></line></g></g></g></g><g class="mark-group role-axis"><g transform="translate(0.5,0.5)"><path class="background" d="M0,0h0v0h0Z" style="pointer-events: none; fill: none;"></path><g><g class="mark-rule role-axis-tick" style="pointer-events: none;"><line transform="translate(0,400)" x2="-5" y2="0" style="fill: none; stroke: #888; stroke-width: 1; opacity: 1;"></line><line transform="translate(0,376)" x2="-5" y2="0" style="fill: none; stroke: #888; stroke-width: 1; opacity: 1;"></line><line transform="translate(0,362)" x2="-5" y2="0" style="fill: none; stroke: #888; stroke-width: 1; opacity: 1;"></line><line transform="translate(0,352)" x2="-5" y2="0" style="fill: none; stroke: #888; stroke-width: 1; opacity: 1;"></line><line transform="translate(0,344)" x2="-5" y2="0" style="fill: none; stroke: #888; stroke-width: 1; opacity: 1;"></line><line transform="translate(0,338)" x2="-5" y2="0" style="fill: none; stroke: #888; stroke-width: 1; opacity: 1;"></line><line transform="translate(0,332)" x2="-5" y2="0" style="fill: none; stroke: #888; stroke-width: 1; opacity: 1;"></line><line transform="translate(0,328)" x2="-5" y2="0" style="fill: none; stroke: #888; stroke-width: 1; opacity: 1;"></line><line transform="translate(0,324)" x2="-5" y2="0" style="fill: none; stroke: #888; stroke-width: 1; opacity: 1;"></line><line transform="translate(0,320)" x2="-5" y2="0" style="fill: none; stroke: #888; stroke-width: 1; opacity: 1;"></line><line transform="translate(0,296)" x2="-5" y2="0" style="fill: none; stroke: #888; stroke-width: 1; opacity: 1;"></line><line transform="translate(0,282)" x2="-5" y2="0" style="fill: none; stroke: #888; stroke-width: 1; opacity: 1;"></line><line transform="translate(0,272)" x2="-5" y2="0" style="fill: none; stroke: #888; stroke-width: 1; opacity: 1;"></line><line transform="translate(0,264)" x2="-5" y2="0" style="fill: none; stroke: #888; stroke-width: 1; opacity: 1;"></line><line transform="translate(0,258)" x2="-5" y2="0" style="fill: none; stroke: #888; stroke-width: 1; opacity: 1;"></line><line transform="translate(0,252)" x2="-5" y2="0" style="fill: none; stroke: #888; stroke-width: 1; opacity: 1;"></line><line transform="translate(0,248)" x2="-5" y2="0" style="fill: none; stroke: #888; stroke-width: 1; opacity: 1;"></line><line transform="translate(0,244)" x2="-5" y2="0" style="fill: none; stroke: #888; stroke-width: 1; opacity: 1;"></line><line transform="translate(0,240)" x2="-5" y2="0" style="fill: none; stroke: #888; stroke-width: 1; opacity: 1;"></line><line transform="translate(0,216)" x2="-5" y2="0" style="fill: none; stroke: #888; stroke-width: 1; opacity: 1;"></line><line transform="translate(0,202)" x2="-5" y2="0" style="fill: none; stroke: #888; stroke-width: 1; opacity: 1;"></line><line transform="translate(0,192)" x2="-5" y2="0" style="fill: none; stroke: #888; stroke-width: 1; opacity: 1;"></line><line transform="translate(0,184)" x2="-5" y2="0" style="fill: none; stroke: #888; stroke-width: 1; opacity: 1;"></line><line transform="translate(0,178)" x2="-5" y2="0" style="fill: none; stroke: #888; stroke-width: 1; opacity: 1;"></line><line transform="translate(0,172)" x2="-5" y2="0" style="fill: none; stroke: #888; stroke-width: 1; opacity: 1;"></line><line transform="translate(0,168)" x2="-5" y2="0" style="fill: none; stroke: #888; stroke-width: 1; opacity: 1;"></line><line transform="translate(0,164)" x2="-5" y2="0" style="fill: none; stroke: #888; stroke-width: 1; opacity: 1;"></line><line transform="translate(0,160)" x2="-5" y2="0" style="fill: none; stroke: #888; stroke-width: 1; opacity: 1;"></line><line transform="translate(0,136)" x2="-5" y2="0" style="fill: none; stroke: #888; stroke-width: 1; opacity: 1;"></line><line transform="translate(0,122)" x2="-5" y2="0" style="fill: none; stroke: #888; stroke-width: 1; opacity: 1;"></line><line transform="translate(0,112)" x2="-5" y2="0" style="fill: none; stroke: #888; stroke-width: 1; opacity: 1;"></line><line transform="translate(0,104)" x2="-5" y2="0" style="fill: none; stroke: #888; stroke-width: 1; opacity: 1;"></line><line transform="translate(0,98)" x2="-5" y2="0" style="fill: none; stroke: #888; stroke-width: 1; opacity: 1;"></line><line transform="translate(0,92)" x2="-5" y2="0" style="fill: none; stroke: #888; stroke-width: 1; opacity: 1;"></line><line transform="translate(0,88)" x2="-5" y2="0" style="fill: none; stroke: #888; stroke-width: 1; opacity: 1;"></line><line transform="translate(0,84)" x2="-5" y2="0" style="fill: none; stroke: #888; stroke-width: 1; opacity: 1;"></line><line transform="translate(0,80)" x2="-5" y2="0" style="fill: none; stroke: #888; stroke-width: 1; opacity: 1;"></line><line transform="translate(0,56)" x2="-5" y2="0" style="fill: none; stroke: #888; stroke-width: 1; opacity: 1;"></line><line transform="translate(0,42)" x2="-5" y2="0" style="fill: none; stroke: #888; stroke-width: 1; opacity: 1;"></line><line transform="translate(0,32)" x2="-5" y2="0" style="fill: none; stroke: #888; stroke-width: 1; opacity: 1;"></line><line transform="translate(0,24)" x2="-5" y2="0" style="fill: none; stroke: #888; stroke-width: 1; opacity: 1;"></line><line transform="translate(0,18)" x2="-5" y2="0" style="fill: none; stroke: #888; stroke-width: 1; opacity: 1;"></line><line transform="translate(0,12)" x2="-5" y2="0" style="fill: none; stroke: #888; stroke-width: 1; opacity: 1;"></line><line transform="translate(0,8)" x2="-5" y2="0" style="fill: none; stroke: #888; stroke-width: 1; opacity: 1;"></line><line transform="translate(0,4)" x2="-5" y2="0" style="fill: none; stroke: #888; stroke-width: 1; opacity: 1;"></line><line transform="translate(0,0)" x2="-5" y2="0" style="fill: none; stroke: #888; stroke-width: 1; opacity: 1;"></line></g><g class="mark-text role-axis-label" style="pointer-events: none;"><text text-anchor="end" transform="translate(-7,403)" style="font: 10px sans-serif; fill: #000; opacity: 1;">10</text><text text-anchor="end" transform="translate(-7,378.9176003468815)" style="font: 10px sans-serif; fill: #000; opacity: 1;">20</text><text text-anchor="end" transform="translate(-7,364.830299622427)" style="font: 10px sans-serif; fill: #000; opacity: 1;"></text><text text-anchor="end" transform="translate(-7,354.835200693763)" style="font: 10px sans-serif; fill: #000; opacity: 1;"></text><text text-anchor="end" transform="translate(-7,347.0823996531185)" style="font: 10px sans-serif; fill: #000; opacity: 1;"></text><text text-anchor="end" transform="translate(-7,340.7478999693085)" style="font: 10px sans-serif; fill: #000; opacity: 1;"></text><text text-anchor="end" transform="translate(-7,335.39215679885945)" style="font: 10px sans-serif; fill: #000; opacity: 1;"></text><text text-anchor="end" transform="translate(-7,330.7528010406445)" style="font: 10px sans-serif; fill: #000; opacity: 1;"></text><text text-anchor="end" transform="translate(-7,326.660599244854)" style="font: 10px sans-serif; fill: #000; opacity: 1;"></text><text text-anchor="end" transform="translate(-7,323)" style="font: 10px sans-serif; fill: #000; opacity: 1;">100</text><text text-anchor="end" transform="translate(-7,298.9176003468815)" style="font: 10px sans-serif; fill: #000; opacity: 1;">200</text><text text-anchor="end" transform="translate(-7,284.830299622427)" style="font: 10px sans-serif; fill: #000; opacity: 1;"></text><text text-anchor="end" transform="translate(-7,274.835200693763)" style="font: 10px sans-serif; fill: #000; opacity: 1;"></text><text text-anchor="end" transform="translate(-7,267.0823996531185)" style="font: 10px sans-serif; fill: #000; opacity: 1;"></text><text text-anchor="end" transform="translate(-7,260.7478999693085)" style="font: 10px sans-serif; fill: #000; opacity: 1;"></text><text text-anchor="end" transform="translate(-7,255.39215679885945)" style="font: 10px sans-serif; fill: #000; opacity: 1;"></text><text text-anchor="end" transform="translate(-7,250.75280104064453)" style="font: 10px sans-serif; fill: #000; opacity: 1;"></text><text text-anchor="end" transform="translate(-7,246.660599244854)" style="font: 10px sans-serif; fill: #000; opacity: 1;"></text><text text-anchor="end" transform="translate(-7,243)" style="font: 10px sans-serif; fill: #000; opacity: 1;">1,000</text><text text-anchor="end" transform="translate(-7,218.91760034688153)" style="font: 10px sans-serif; fill: #000; opacity: 1;">2,000</text><text text-anchor="end" transform="translate(-7,204.83029962242702)" style="font: 10px sans-serif; fill: #000; opacity: 1;"></text><text text-anchor="end" transform="translate(-7,194.835200693763)" style="font: 10px sans-serif; fill: #000; opacity: 1;"></text><text text-anchor="end" transform="translate(-7,187.0823996531185)" style="font: 10px sans-serif; fill: #000; opacity: 1;"></text><text text-anchor="end" transform="translate(-7,180.74789996930852)" style="font: 10px sans-serif; fill: #000; opacity: 1;"></text><text text-anchor="end" transform="translate(-7,175.39215679885947)" style="font: 10px sans-serif; fill: #000; opacity: 1;"></text><text text-anchor="end" transform="translate(-7,170.75280104064453)" style="font: 10px sans-serif; fill: #000; opacity: 1;"></text><text text-anchor="end" transform="translate(-7,166.660599244854)" style="font: 10px sans-serif; fill: #000; opacity: 1;"></text><text text-anchor="end" transform="translate(-7,163)" style="font: 10px sans-serif; fill: #000; opacity: 1;">10,000</text><text text-anchor="end" transform="translate(-7,138.9176003468815)" style="font: 10px sans-serif; fill: #000; opacity: 1;">20,000</text><text text-anchor="end" transform="translate(-7,124.83029962242699)" style="font: 10px sans-serif; fill: #000; opacity: 1;"></text><text text-anchor="end" transform="translate(-7,114.835200693763)" style="font: 10px sans-serif; fill: #000; opacity: 1;"></text><text text-anchor="end" transform="translate(-7,107.0823996531185)" style="font: 10px sans-serif; fill: #000; opacity: 1;"></text><text text-anchor="end" transform="translate(-7,100.74789996930855)" style="font: 10px sans-serif; fill: #000; opacity: 1;"></text><text text-anchor="end" transform="translate(-7,95.3921567988595)" style="font: 10px sans-serif; fill: #000; opacity: 1;"></text><text text-anchor="end" transform="translate(-7,90.75280104064456)" style="font: 10px sans-serif; fill: #000; opacity: 1;"></text><text text-anchor="end" transform="translate(-7,86.66059924485398)" style="font: 10px sans-serif; fill: #000; opacity: 1;"></text><text text-anchor="end" transform="translate(-7,83)" style="font: 10px sans-serif; fill: #000; opacity: 1;">100,000</text><text text-anchor="end" transform="translate(-7,58.91760034688156)" style="font: 10px sans-serif; fill: #000; opacity: 1;">200,000</text><text text-anchor="end" transform="translate(-7,44.83029962242699)" style="font: 10px sans-serif; fill: #000; opacity: 1;"></text><text text-anchor="end" transform="translate(-7,34.835200693763056)" style="font: 10px sans-serif; fill: #000; opacity: 1;"></text><text text-anchor="end" transform="translate(-7,27.0823996531185)" style="font: 10px sans-serif; fill: #000; opacity: 1;"></text><text text-anchor="end" transform="translate(-7,20.74789996930849)" style="font: 10px sans-serif; fill: #000; opacity: 1;"></text><text text-anchor="end" transform="translate(-7,15.392156798859503)" style="font: 10px sans-serif; fill: #000; opacity: 1;"></text><text text-anchor="end" transform="translate(-7,10.752801040644556)" style="font: 10px sans-serif; fill: #000; opacity: 1;"></text><text text-anchor="end" transform="translate(-7,6.6605992448540405)" style="font: 10px sans-serif; fill: #000; opacity: 1;"></text><text text-anchor="end" transform="translate(-7,3)" style="font: 10px sans-serif; fill: #000; opacity: 1;">1,000,000</text></g><g class="mark-rule role-axis-domain" style="pointer-events: none;"><line transform="translate(0,400)" x2="0" y2="-400" style="fill: none; stroke: #888; stroke-width: 1; opacity: 1;"></line></g></g></g></g></g></g></g></g></svg>